<svg xmlns="http://www.w3.org/2000/svg" xmlns:xlink="http://www.w3.org/1999/xlink" width="150" zoomAndPan="magnify" viewBox="0 0 112.5 112.499997" height="150" preserveAspectRatio="xMidYMid meet" version="1.0"><defs><clipPath id="d58c818562"><path d="M 0 55.441406 L 112 55.441406 L 112 112.003906 L 0 112.003906 Z M 0 55.441406 " clip-rule="nonzero"/></clipPath><clipPath id="5b7ea95e41"><path d="M 70 96 L 104 96 L 104 112.003906 L 70 112.003906 Z M 70 96 " clip-rule="nonzero"/></clipPath><clipPath id="f3acdb9631"><path d="M 17 96 L 52 96 L 52 112.003906 L 17 112.003906 Z M 17 96 " clip-rule="nonzero"/></clipPath><clipPath id="e322afce59"><path d="M 22 101 L 44 101 L 44 112.003906 L 22 112.003906 Z M 22 101 " clip-rule="nonzero"/></clipPath><clipPath id="398a699764"><path d="M 78 101 L 101 101 L 101 112.003906 L 78 112.003906 Z M 78 101 " clip-rule="nonzero"/></clipPath></defs><g clip-path="url(#d58c818562)"><path fill="#000000" d="M 1.601562 61.570312 C 1.800781 59.714844 2.140625 57.667969 3.59375 56.503906 C 4.871094 55.484375 6.71875 55.441406 8.253906 55.988281 C 9.789062 56.535156 11.089844 57.585938 12.34375 58.632812 C 19.976562 65.011719 27.171875 71.917969 34.113281 79.269531 C 38.726562 75.851562 48.683594 73.816406 56.546875 73.886719 C 63.488281 73.945312 76.609375 75.234375 82.722656 78.535156 C 88.675781 71.277344 94.679688 63.957031 101.976562 58.054688 C 103.007812 57.21875 104.09375 56.390625 105.367188 56.007812 C 106.636719 55.621094 108.144531 55.753906 109.113281 56.660156 C 109.824219 57.320312 110.15625 58.28125 110.410156 59.214844 C 111.285156 62.449219 111.515625 65.820312 111.628906 69.175781 C 112.003906 80.242188 111.117188 91.359375 108.941406 102.183594 C 109.851562 104.953125 110.484375 108.730469 110.726562 112.183594 L 3.53125 112.183594 C 3.714844 110.125 4.050781 108.179688 4.496094 106.644531 C 0.988281 91.925781 0.00390625 76.613281 1.601562 61.570312 Z M 1.601562 61.570312 " fill-opacity="1" fill-rule="nonzero"/></g><g clip-path="url(#5b7ea95e41)"><path fill="#ffffff" d="M 70.539062 112.183594 C 70.972656 103.417969 78.21875 96.445312 87.082031 96.445312 C 95.949219 96.445312 103.1875 103.417969 103.621094 112.183594 Z M 70.539062 112.183594 " fill-opacity="1" fill-rule="nonzero"/></g><g clip-path="url(#f3acdb9631)"><path fill="#ffffff" d="M 51.015625 112.183594 C 50.582031 103.417969 43.339844 96.445312 34.476562 96.445312 C 25.609375 96.445312 18.367188 103.417969 17.933594 112.183594 Z M 51.015625 112.183594 " fill-opacity="1" fill-rule="nonzero"/></g><g clip-path="url(#e322afce59)"><path fill="#000000" d="M 22.585938 112.183594 C 22.585938 106.277344 27.371094 101.488281 33.273438 101.488281 C 39.175781 101.488281 43.964844 106.277344 43.964844 112.183594 Z M 22.585938 112.183594 " fill-opacity="1" fill-rule="nonzero"/></g><g clip-path="url(#398a699764)"><path fill="#000000" d="M 78.726562 112.183594 C 78.726562 106.277344 83.511719 101.488281 89.414062 101.488281 C 95.316406 101.488281 100.101562 106.277344 100.101562 112.183594 Z M 78.726562 112.183594 " fill-opacity="1" fill-rule="nonzero"/></g><path fill="#ffffff" d="M 3.292969 74.082031 C 3.339844 80.984375 3.832031 87.886719 4.707031 94.730469 C 4.859375 95.765625 5.308594 98.207031 5.636719 99.789062 C 5.765625 100.210938 6.429688 100.078125 6.320312 99.601562 C 6.199219 98.257812 6.023438 96.492188 5.9375 94.992188 C 5.59375 90.742188 5.109375 86.503906 4.808594 82.25 C 4.636719 79.210938 4.632812 76.167969 4.632812 73.128906 C 4.699219 69.179688 4.578125 65.953125 5.730469 62.371094 C 6.152344 61.523438 6.011719 61.363281 7.988281 62.792969 C 12.117188 65.65625 16.703125 69.773438 21.089844 74.082031 C 23.195312 76.101562 25.21875 78.199219 27.234375 80.304688 C 27.554688 80.621094 27.914062 81.066406 28.011719 81.175781 C 28.144531 81.382812 28.269531 81.621094 28.539062 81.679688 C 29.03125 81.824219 29.535156 81.332031 29.382812 80.835938 C 29.039062 79.898438 27.742188 78.492188 27.597656 78.273438 C 26.253906 76.753906 24.851562 75.285156 23.421875 73.847656 C 19.707031 70.097656 15.84375 66.472656 11.578125 63.347656 C 10.457031 62.519531 9.351562 61.671875 8.183594 60.910156 C 7.027344 60.019531 5.417969 59.722656 4.582031 61.1875 C 3.898438 62.714844 3.71875 64.421875 3.515625 66.070312 C 3.277344 68.734375 3.269531 71.410156 3.292969 74.082031 Z M 3.292969 74.082031 " fill-opacity="1" fill-rule="nonzero"/><path fill="#ffffff" d="M 87.671875 80.117188 C 87.792969 80.601562 88.5 80.699219 88.742188 80.257812 C 90.808594 76.789062 92.378906 74.777344 94.6875 71.910156 C 97.078125 68.902344 99.585938 65.972656 102.355469 63.304688 C 103.332031 62.351562 104.511719 61.5 105.082031 61.277344 C 105.09375 61.269531 105.109375 61.269531 105.125 61.265625 C 105.179688 61.269531 105.226562 61.269531 105.265625 61.269531 C 105.292969 61.277344 105.324219 61.285156 105.351562 61.292969 C 105.367188 61.300781 105.390625 61.316406 105.421875 61.332031 C 105.410156 61.324219 105.402344 61.316406 105.394531 61.308594 C 105.382812 61.304688 105.371094 61.300781 105.363281 61.296875 C 105.375 61.300781 105.382812 61.304688 105.394531 61.308594 C 105.367188 61.285156 105.363281 61.277344 105.402344 61.3125 C 105.429688 61.324219 105.460938 61.332031 105.488281 61.34375 C 105.453125 61.332031 105.425781 61.320312 105.402344 61.3125 C 105.410156 61.320312 105.421875 61.332031 105.429688 61.339844 C 105.460938 61.359375 105.492188 61.378906 105.523438 61.40625 C 105.5 61.394531 105.472656 61.375 105.449219 61.355469 C 105.527344 61.429688 105.589844 61.503906 105.652344 61.582031 C 105.679688 61.621094 105.707031 61.667969 105.734375 61.714844 C 107.011719 64.382812 107.234375 68.175781 107.351562 71.890625 C 107.40625 75.136719 107.332031 78.390625 107.070312 81.628906 C 106.769531 85.058594 106.28125 88.472656 106.011719 91.90625 C 105.921875 93.058594 105.835938 94.210938 105.75 95.367188 C 105.695312 95.667969 106 95.949219 106.296875 95.859375 C 106.5 95.804688 106.625 95.601562 106.621094 95.394531 C 106.585938 95.808594 106.703125 94.789062 106.722656 94.753906 C 107.023438 92.929688 107.378906 90.527344 107.550781 89.386719 C 108.207031 84.722656 108.777344 80.71875 108.867188 75.800781 C 108.949219 72.347656 109.300781 61.492188 106.050781 59.75 C 104.28125 58.941406 102.777344 60.667969 101.527344 61.769531 C 99.941406 63.371094 98.417969 65.03125 96.949219 66.742188 C 93.773438 70.601562 90.5625 74.492188 88.152344 78.894531 C 87.988281 79.292969 87.578125 79.660156 87.671875 80.117188 Z M 87.671875 80.117188 " fill-opacity="1" fill-rule="nonzero"/><path fill="#ffffff" d="M 105.421875 61.332031 C 105.429688 61.339844 105.4375 61.347656 105.449219 61.355469 C 105.441406 61.347656 105.4375 61.34375 105.429688 61.339844 C 105.425781 61.335938 105.425781 61.335938 105.421875 61.332031 Z M 105.421875 61.332031 " fill-opacity="1" fill-rule="nonzero"/></svg>