<svg xmlns="http://www.w3.org/2000/svg" width="150" height="150" version="1.0" viewBox="0 0 112.5 112.5"><defs><clipPath id="a"><path d="M18 11.434h19V31H18Zm0 0"/></clipPath><clipPath id="b"><path d="M10 11.434h29V51H10Zm0 0"/></clipPath><clipPath id="c"><path d="M15 11.434h79V59H15Zm0 0"/></clipPath><clipPath id="d"><path d="M18 11.434h18V31H18Zm0 0"/></clipPath><clipPath id="e"><path d="M75 13h37.004v33H75Zm0 0"/></clipPath><clipPath id="f"><path d="M53 34h59.004v47H53Zm0 0"/></clipPath><clipPath id="g"><path d="M8 45h60v56.035H8Zm0 0"/></clipPath><clipPath id="h"><path d="M50 45h58v56.035H50Zm0 0"/></clipPath><clipPath id="i"><path d="M57 11.434h19V32H57Zm0 0"/></clipPath><clipPath id="j"><path d="M54 11.434h22V34H54Zm0 0"/></clipPath><clipPath id="k"><path d="M56 11.434h20V32H56Zm0 0"/></clipPath><clipPath id="l"><path d="M0 11.434h112V101H0Zm0 0"/></clipPath><clipPath id="m"><path d="M35 80h6v6h-6Zm0 0"/></clipPath><clipPath id="n"><path d="m22.637 76.191 27.375 3.72-1.106 8.136-27.375-3.715Zm0 0"/></clipPath><clipPath id="o"><path d="m22.637 76.191 27.375 3.72-1.106 8.136-27.375-3.715Zm0 0"/></clipPath><clipPath id="p"><path d="m22.637 76.191 27.375 3.72-1.106 8.136-27.375-3.715Zm0 0"/></clipPath><clipPath id="q"><path d="M40 80h3v3h-3Zm0 0"/></clipPath><clipPath id="r"><path d="m22.637 76.191 27.375 3.72-1.106 8.136-27.375-3.715Zm0 0"/></clipPath><clipPath id="s"><path d="m22.637 76.191 27.375 3.72-1.106 8.136-27.375-3.715Zm0 0"/></clipPath><clipPath id="t"><path d="m22.637 76.191 27.375 3.72-1.106 8.136-27.375-3.715Zm0 0"/></clipPath><clipPath id="u"><path d="M39 78h2v3h-2Zm0 0"/></clipPath><clipPath id="v"><path d="m22.637 76.191 27.375 3.72-1.106 8.136-27.375-3.715Zm0 0"/></clipPath><clipPath id="w"><path d="m22.637 76.191 27.375 3.72-1.106 8.136-27.375-3.715Zm0 0"/></clipPath><clipPath id="x"><path d="m22.637 76.191 27.375 3.72-1.106 8.136-27.375-3.715Zm0 0"/></clipPath><clipPath id="y"><path d="M37 78h2v3h-2Zm0 0"/></clipPath><clipPath id="z"><path d="m22.637 76.191 27.375 3.72-1.106 8.136-27.375-3.715Zm0 0"/></clipPath><clipPath id="A"><path d="m22.637 76.191 27.375 3.72-1.106 8.136-27.375-3.715Zm0 0"/></clipPath><clipPath id="B"><path d="m22.637 76.191 27.375 3.72-1.106 8.136-27.375-3.715Zm0 0"/></clipPath><clipPath id="C"><path d="M35 79h2v3h-2Zm0 0"/></clipPath><clipPath id="D"><path d="m22.637 76.191 27.375 3.72-1.106 8.136-27.375-3.715Zm0 0"/></clipPath><clipPath id="E"><path d="m22.637 76.191 27.375 3.72-1.106 8.136-27.375-3.715Zm0 0"/></clipPath><clipPath id="F"><path d="m22.637 76.191 27.375 3.72-1.106 8.136-27.375-3.715Zm0 0"/></clipPath><clipPath id="G"><path d="M29 77h6v8h-6Zm0 0"/></clipPath><clipPath id="H"><path d="m22.637 76.191 27.375 3.72-1.106 8.136-27.375-3.715Zm0 0"/></clipPath><clipPath id="I"><path d="m22.637 76.191 27.375 3.72-1.106 8.136-27.375-3.715Zm0 0"/></clipPath><clipPath id="J"><path d="m22.637 76.191 27.375 3.72-1.106 8.136-27.375-3.715Zm0 0"/></clipPath><clipPath id="K"><path d="M21 77h8v8h-8Zm0 0"/></clipPath><clipPath id="L"><path d="m22.637 76.191 27.375 3.72-1.106 8.136-27.375-3.715Zm0 0"/></clipPath><clipPath id="M"><path d="m22.637 76.191 27.375 3.72-1.106 8.136-27.375-3.715Zm0 0"/></clipPath><clipPath id="N"><path d="m22.637 76.191 27.375 3.72-1.106 8.136-27.375-3.715Zm0 0"/></clipPath><clipPath id="O"><path d="m22.516 77.094 6.57.894-.984 7.23-6.57-.89Zm0 0"/></clipPath><clipPath id="P"><path d="M43 80h7v8h-7Zm0 0"/></clipPath><clipPath id="Q"><path d="m22.637 76.191 27.375 3.72-1.106 8.136-27.375-3.715Zm0 0"/></clipPath><clipPath id="R"><path d="m22.637 76.191 27.375 3.72-1.106 8.136-27.375-3.715Zm0 0"/></clipPath><clipPath id="S"><path d="m22.637 76.191 27.375 3.72-1.106 8.136-27.375-3.715Zm0 0"/></clipPath></defs><g clip-path="url(#a)"><path fill="none" stroke="#a87a78" stroke-width="2" d="M36.184 14.319c.094-.209.173-.334.24-.376.367-.214.697-.412.99-.595.125-.078.151-.182.083-.313a7.083 7.083 0 0 0-1.57-1.94" transform="matrix(.74668 0 0 .74863 .173 11.222)"/></g><g clip-path="url(#b)"><path fill="none" stroke="#a3735e" stroke-width="2" d="M35.928 11.094a28.71 28.71 0 0 0-1.083-1.92c-.105-.172-.068-.407.11-.699.047-.073.11-.104.199-.083.549.104.831-.1 1.276.375a26.468 26.468 0 0 1 2.093 2.473c.34.45.92.882 1.12 1.368.125.297.193.652.203 1.064a.34.34 0 0 1-.052.188c-.408.678-1.057.803-1.622 1.268a.276.276 0 0 0-.11.224c-.01.511-.832 1.472-1.193 1.837-.774.809-1.6 1.523-2.291 2.416-1.376 1.779-2.71 3.558-3.693 5.442l-.665 1.263c-.408.777-.826 1.868-1.24 3.282-.47 1.591-1.475 2.828-2.547 4.075a4.728 4.728 0 0 0-.822 1.403c-.748 1.973-.758 3.93-.036 5.87" transform="matrix(.74668 0 0 .74863 .173 11.222)"/></g><path fill="none" stroke="#a8908e" stroke-width="2" d="M25.575 40.94c.59 1.503 1.37 2.724 2.338 3.663.529.517.916.903 1.167 1.154.272.276.696.605 1.004.678 1.355.313 2.71.631 4.065.95.272.062.539.177.8.339.068.041.131.036.194-.016.91-.793 2.03-1.315 3.359-1.565.512-.094 1.046-.126 1.6-.094.607.036 1.183.104 1.727.203 1.663.303 2.752 1.028 4.028 2.312.398.402.502.892.811 1.33a.28.28 0 0 0 .167.11c.973.209 1.889.36 2.747.464.973.12 1.899.37 2.862.501 1.01.136 2.014.392 3.039.47.33.026.66.136.978.224.079.021.147 0 .2-.057 1.349-1.503 2.866-1.847 4.786-2.02.47-.041 1.062 0 1.768.12 2.061.366 4.018 1.571 4.777 3.57.026.062.073.099.14.11 1.387.177 2.779.103 4.139.171 1.731.084 3.432.152 5.1.199.634.02 1.256.146 1.879.193.198.015.33.12.476.234a.384.384 0 0 0 .193.073c.748.058 1.261.053 1.533-.015 1.146-.308 2.312-.522 3.427-.845 1.329-.387 2.752-.627 4.096-1.086" transform="matrix(.74668 0 0 .74863 .173 11.222)"/><g clip-path="url(#c)"><path fill="none" stroke="#a3735e" stroke-width="2" d="M88.975 52.31c.91-.162 1.841-.38 2.794-.652.397-.115.81-.13 1.198-.25.915-.298 1.83-.444 2.736-.736.905-.292 1.836-.37 2.751-.663.482-.156.973-.162 1.46-.329.24-.083.487-.15.748-.208a157.727 157.727 0 0 0 6.45-1.623c.607-.167 1.214-.24 1.81-.46a8.808 8.808 0 0 1 1.382-.364 16.141 16.141 0 0 0 2.835-.783c.068-.026.09-.068.073-.136-.758-2.562-2.087-5.045-3.98-7.45-2.271-2.881-4.934-4.937-7.984-6.168a18.773 18.773 0 0 0-2.406-.788.167.167 0 0 0-.147.036.153.153 0 0 0-.068.136c.021.58.283 1.054.34 1.623.094.902.324 1.852.377 2.729.094 1.56.083 3.099-.037 4.628a3.402 3.402 0 0 1-.277 1.116 3.667 3.667 0 0 0-.32 1.122.24.24 0 0 1-.114.183c-.529.344-1.36.313-1.397-.454a48.218 48.218 0 0 1-.042-1.08c-.02-.82.22-1.602.23-2.426v-1.154c0-.38-.02-.751-.063-1.116a74.27 74.27 0 0 0-.476-3.454 18.687 18.687 0 0 0-.805-3.173c-.869-2.5-1.758-4.712-2.663-6.642-.487-1.028-.764-2.26-.649-3.355.11-.997-.052-1.957-.089-2.938a15.117 15.117 0 0 0-.199-1.957 25.095 25.095 0 0 1-.292-2.515 2.904 2.904 0 0 0-.11-.62c-.262-.856-.183-1.749-.414-2.615-.444-1.727-.81-3.496-1.386-5.176-.256-.751-.774-1.623-1.386-2.186-.251-.225-.576-.298-.984-.214-1.841.38-3.589.923-5.237 1.633-.653.282-1.198.501-1.637.663-2.15.788-4.217 1.962-6.21 3.177-.894.548-1.695 1.221-2.516 1.895-.534.433-.9.506-1.549.407-1.396-.22-2.72-.428-3.97-.616-.973-.146-1.999-.136-2.998-.277-2.082-.287-4.264-.276-6.377-.188a5.65 5.65 0 0 0-1.172.204c-.806.224-1.658.12-2.5.334-1.246.318-2.486.396-3.694.923a12.36 12.36 0 0 1-1.852.647c-.717.188-1.256-.532-.89-1.174.267-.47.592-.767.968-.902.691-.235 1.371-.475 2.04-.71.121-.042.116-.073-.005-.094-.617-.12-1.229-.302-1.83-.542-1.136-.454-2.313-.7-3.495-1.05-.591-.171-1.193-.234-1.795-.401a12.7 12.7 0 0 0-1.281-.282 49.754 49.754 0 0 0-5.75-.657c-.962-.052-1.763.031-2.683.208a.488.488 0 0 0-.33.21c-.492.688-.738 1.491-.738 2.42.006 1.242 0 2.463-.02 3.668-.027 2.04.35 4.008.523 6.043.02.208.078.401.183.584.047.084.115.13.209.136.094.01.173-.021.235-.094a16.878 16.878 0 0 1 2.585-2.426.38.38 0 0 0 .151-.413 3.475 3.475 0 0 1-.052-1.205" transform="matrix(.74668 0 0 .74863 .173 11.222)"/></g><path fill="none" stroke="#fae1cf" stroke-width="2" d="M88.975 52.31a1.583 1.583 0 0 0-.612-.24 2.643 2.643 0 0 1-.617-.177 66.306 66.306 0 0 0-3.59-1.618c-.59-.25-1.689-.803-3.285-1.654-2.772-1.471-5.011-3.454-7.235-5.719-1.098-1.121-1.846-2.06-2.244-2.828-.413-.788-.905-1.21-1.47-1.268" transform="matrix(.74668 0 0 .74863 .173 11.222)"/><path fill="none" stroke="#a3735e" stroke-width="2" d="M69.922 38.806c1.135-.986 1.59-2.18 1.36-3.584-.141-.846-.685-1.57-1.637-2.187-.309-.198-.639-.15-.973-.276-1.146-.423-2.616.188-3.349 1.054a3.56 3.56 0 0 0-.852 1.941" transform="matrix(.74668 0 0 .74863 .173 11.222)"/><path fill="none" stroke="#fae1cf" stroke-width="2" d="M64.47 35.754c-.235-.324-.57-.61-1.004-.856-.539-.302-.91-.532-1.114-.683a27.247 27.247 0 0 0-1.47-1.013c-.565-.354-.936-.907-1.501-1.294-.66-.454-1.35-.918-1.91-1.497-.643-.673-1.412-1.19-1.983-1.91a66.425 66.425 0 0 1-1.14-1.482c-.173-.235-.361-.245-.565-.041a27.517 27.517 0 0 1-2.396 2.186c-.497.402-1.083.657-1.601 1.028-.722.516-1.528.85-2.24 1.382a4.52 4.52 0 0 1-1.024.564 14.65 14.65 0 0 0-2.553 1.31" transform="matrix(.74668 0 0 .74863 .173 11.222)"/><path fill="none" stroke="#a3735e" stroke-width="2" d="M43.969 33.448a6.187 6.187 0 0 0-.565-1.69c-.403-.778-1.062-1.28-1.978-1.504-1.616-.401-2.888.073-3.803 1.42-.23.334-.366.751-.414 1.262-.136 1.503.325 2.63 1.371 3.387" transform="matrix(.74668 0 0 .74863 .173 11.222)"/><path fill="none" stroke="#fae1cf" stroke-width="2" d="M38.58 36.323c-.434.214-.853.48-1.26.798-.534.417-.932.704-1.204.856-.821.47-1.517.819-2.092 1.059-1.847.783-3.94 1.42-6.263 1.925-.58.126-1.307.12-2.186-.02" transform="matrix(.74668 0 0 .74863 .173 11.222)"/><g clip-path="url(#d)"><path fill="none" stroke="#f9ccb9" stroke-width="2" d="M35.928 11.094a6.779 6.779 0 0 0 .256 3.225" transform="matrix(.74668 0 0 .74863 .173 11.222)"/></g><path fill="none" stroke="#a8908e" stroke-width="2" d="M64.47 35.754c.011.428.053.83.121 1.21.068.387.215.694.44.914.486.48 1.428 1.241 2.15 1.325.214.026.423.078.622.162a.396.396 0 0 0 .22.015c.162-.047.418-.088.758-.14.283-.042.665-.188 1.14-.434M38.58 36.323c.502.203.89.318 1.162.344.91.104 2.239-.016 2.997-.631.597-.48.963-.893 1.094-1.67.047-.271.094-.58.136-.918" transform="matrix(.74668 0 0 .74863 .173 11.222)"/><path fill="none" stroke="#a3735e" stroke-width="2" d="M112.286 26.3c-.523 1.298-.706 2.405-1.035 3.62-.21.778-.33 1.508-.367 2.197-.088 1.743-.099 3.193-.03 4.352.098 1.711 1.626 2.995 2.39 4.44.696 1.31 1.282 2.787 1.758 4.43.094.334.33.465.69.381a56.057 56.057 0 0 0 3.354-.871c1.077-.319 1.742-.486 1.904-1.66.178-1.325.277-2.405.288-3.235.015-.897.036-1.716.052-2.462.005-.282 0-1.107-.016-2.463-.031-2.286.372-4.279.978-6.7" transform="matrix(.74668 0 0 .74863 .173 11.222)"/><g clip-path="url(#e)"><path fill="none" stroke="#a8908e" stroke-width="2" d="M122.252 28.329c.466-1.612 1.172-2.969 2.114-4.08.492-.58 1.26-1.127 2.307-1.639.283-.14.58-.094.879-.172.507-.125.952.245 1.203.647.09.14.068.266-.068.37a7.36 7.36 0 0 0-1.14 1.054.19.19 0 0 0-.032.22c.183.386.393.761.633 1.116.665.976.628 2.52.639 4.075 0 .658.078 1.341.235 2.046.225 1.038 1.397 1.743 2.25 2.228 1.035.595 2.113.146 3.222 0 2.527-.334 4.274-3.152 4.703-5.385.523-2.765.33-5.526-1.01-8.062-1.098-2.071-2.537-3.663-4.31-4.774-2.935-1.826-6.163-2.447-9.516-1.597-3.563.908-6.68 3.048-8.983 5.902-1.449 1.8-2.265 3.856-3.092 6.021" transform="matrix(.74668 0 0 .74863 .173 11.222)"/></g><path fill="none" stroke="#fae1cf" stroke-width="2" d="M122.252 28.329c-.852.209-1.679.475-2.48.788-.35.14-.716.193-1.087.136-.675-.1-1.371.01-2.02-.199-1.318-.417-2.291-.908-2.914-1.466a86.055 86.055 0 0 0-1.465-1.289" transform="matrix(.74668 0 0 .74863 .173 11.222)"/><path fill="none" stroke="#a3735e" stroke-width="2" d="M123.545 39.986c-.047-.016-.074.005-.079.052l-.47 3.71c-.006.062.02.083.078.068l7.983-1.91c.037-.01.052-.031.052-.063 0-.036-.015-.057-.052-.062l-7.512-1.795" transform="matrix(.74668 0 0 .74863 .173 11.222)"/><g clip-path="url(#f)"><path fill="none" stroke="#9d7665" stroke-width="2" d="M93.861 78.4c.539.814.869 2.332 1.784 2.78.063.032.13.037.199.027a21.707 21.707 0 0 0 3.186-.861c.36-.136.78-.136 1.146-.266a15.386 15.386 0 0 1 2.605-.694c.706-.115 1.292-.444 1.988-.642.7-.198 1.397-.391 2.098-.58 1.072-.286 2.181-.563 3.327-.829a19.82 19.82 0 0 0 2.098-.616c1.281-.448 2.558-.735 3.834-1.137.973-.308 1.941-.517 2.888-.84.963-.329 1.962-.517 2.935-.825 1.208-.386 2.422-.751 3.636-1.106.596-.167 1.245-.198 1.83-.396a124.612 124.612 0 0 1 8.11-2.448 33.796 33.796 0 0 0 3.222-1.022 84.912 84.912 0 0 1 7.303-2.374c.435-.12.906-.345 1.413-.679a.15.15 0 0 0 .078-.161 3.911 3.911 0 0 0-.371-1.29c-.513-1.048-1.146-2.029-1.606-3.11a38.821 38.821 0 0 0-.952-2.044c-1-2.015-1.946-3.893-2.83-5.63-.367-.715-.827-1.41-1.183-2.098a1081.57 1081.57 0 0 1-2.197-4.284 6.367 6.367 0 0 0-.596-.955 16.29 16.29 0 0 1-1.622-2.624c-.309-.627-.916-.919-1.575-.752-.785.204-1.611.397-2.48.595a70.03 70.03 0 0 0-4.295 1.117c-1.082.318-2.547.662-4.389 1.033-1.062.208-2.009.657-3.102.746-.853.068-1.549.496-2.38.678-1.82.392-3.495.809-5.028 1.253-.737.213-1.47.396-2.192.547a28.99 28.99 0 0 0-2.207.548c-1.026.298-2.062.449-3.06.773-.55.177-1.115.318-1.701.427-1.114.204-2.182.647-3.333.84-.722.115-1.475.308-2.254.574-.68.23-1.387.25-2.072.46-.371.11-.748.214-1.12.302a334.361 334.361 0 0 0-7.318 1.873c-.33.09-.654.157-.984.204-.842.136-1.596.49-2.417.647-.711.136-1.397.334-2.05.59-.095.036-.131.104-.11.203.13.6.345 1.138.648 1.618.267.427.497.897.69 1.403.31.799.717 1.623 1.22 2.463.256.428.486.871.69 1.325.366.81.858 1.534 1.224 2.348.157.36.361.705.602 1.039.34.47.633.97.879 1.503.398.84.942 1.638 1.36 2.488a40.97 40.97 0 0 0 2.072 3.658c.863 1.352 1.475 2.865 2.36 4.2" transform="matrix(.74668 0 0 .74863 .173 11.222)"/></g><path fill="none" stroke="#a3735e" stroke-width="2" d="M24.596 45.162c.382.099.785.167 1.198.208.095.006.115-.026.058-.104-.33-.438-.518-.866-.942-1.247a1.935 1.935 0 0 1-.491-.7c-.027-.062-.074-.088-.137-.072-1.077.25-2.097.553-3.055.908-.146.052-.14.099.006.135 1.088.287 2.207.58 3.363.872" transform="matrix(.74668 0 0 .74863 .173 11.222)"/><path fill="none" stroke="#9d7665" stroke-width="2" d="M3.806 66.252c-.549.752-.894 1.607-1.339 2.4-.083.152-.052.267.105.345.272.136.58.224.92.266.686.073 1.356.12 1.999.376.528.203 1.057.386 1.611.459.754.099 1.47.334 2.213.443 1.198.173 2.25.637 3.432.872 1.345.266 2.69.6 4.028 1.007.952.287 2.088.276 3.003.704.649.303 1.324.334 1.988.569.298.11.602.177.91.209.749.083 1.455.35 2.203.438a8.657 8.657 0 0 1 1.789.407 12.7 12.7 0 0 0 1.758.449c1.114.203 2.213.422 3.29.652.701.146 1.35.391 2.051.548 1.151.256 2.265.511 3.333.762.868.203 1.982.386 2.96.652.597.156 1.23.292 1.9.407.988.167 1.93.715 3.003.756.805.032 1.496.35 2.286.418.79.073 1.506.365 2.296.46.387.04.78.109 1.177.192a72.13 72.13 0 0 0 3.992.757c.455.073 1.292.245 2.511.527 1.088.25 2.276.365 3.354.302.334-.02.648-.15.847-.438a84.553 84.553 0 0 0 3.38-5.202c.585-.981 1.266-1.936 1.867-2.906 1.748-2.834 3.573-5.693 5.352-8.61a68.89 68.89 0 0 1 2.208-3.407c.151-.214.282-.449.397-.7.283-.615.78-1.11 1.083-1.716.283-.558.55-1.033.963-1.518.298-.35.523-.726.675-1.117a.208.208 0 0 0-.027-.198.204.204 0 0 0-.177-.1c-2.24-.052-4.416-.125-6.519-.219-.821-.036-1.632-.198-2.438-.182a.51.51 0 0 0-.497.339 3.944 3.944 0 0 1-1.621 1.962c-.91.569-1.675.892-2.287.976-.664.093-1.548.12-2.662.083-1.204-.037-2.14-.313-3.17-.924-1.55-.918-2.26-2.243-2.14-3.97.01-.152-.058-.235-.204-.266-.9-.173-1.805-.35-2.716-.527-1.218-.235-2.809-.428-4.247-.726-.513-.11-1.193-.161-2.046-.172a.29.29 0 0 0-.24.136c-.906 1.351-1.942 2.024-3.563 2.202-1.02.11-2.067.495-3.071.266a14.438 14.438 0 0 0-1.423-.266c-1.094-.157-1.795-.626-2.632-1.336-.476-.402-.795-.809-.967-1.216-.314-.762-.414-1.466-.299-2.124.027-.166-.036-.27-.204-.318a261.58 261.58 0 0 1-4.588-1.226c-.554-.157-1.166-.115-1.716-.277a48.533 48.533 0 0 0-4.284-1.074 40.249 40.249 0 0 1-2.909-.684c-.968-.266-1.935-.543-2.909-.82a.86.86 0 0 0-.549.022.86.86 0 0 0-.434.344c-.387.605-.727 1.252-1.14 1.847a56.981 56.981 0 0 0-2.648 4.101c-.418.726-.983 1.341-1.391 2.067-.576 1.007-1.277 1.852-1.863 2.875-.266.47-.554.929-.852 1.382-1.476 2.208-2.846 4.66-4.353 6.825-.309.45-.429.987-.759 1.435" transform="matrix(.74668 0 0 .74863 .173 11.222)"/><path fill="none" stroke="#a8908e" stroke-width="2" d="M43.927 49.41c-.712-.59-1.973-1.164-2.982-1.31-1.125-.162-2.318.015-3.579.537-.544.224-.878.814-1.135 1.3a.272.272 0 0 0-.026.182c.047.25.089.495.12.746.126.98 2.04 1.591 2.778 1.7 1.423.204 3.4.194 4.766-.469 1.182-.568.9-1.982.058-2.687M66.108 54.387a1.784 1.784 0 0 0-.277-1.018 2.95 2.95 0 0 0-.879-.887 4.795 4.795 0 0 0-1.34-.62 6.19 6.19 0 0 0-1.6-.267 6.329 6.329 0 0 0-1.611.136c-.524.11-.984.282-1.387.511-.403.23-.722.501-.947.814a1.827 1.827 0 0 0-.36.992c-.011.35.083.689.282 1.017.199.329.492.626.874.887.387.261.831.47 1.339.621a6.265 6.265 0 0 0 1.6.266 6.37 6.37 0 0 0 1.617-.135c.518-.11.984-.282 1.387-.512.402-.23.716-.5.941-.814.225-.313.345-.647.361-.991" transform="matrix(.74668 0 0 .74863 .173 11.222)"/><g clip-path="url(#g)"><path fill="none" stroke="#9d7665" stroke-width="2" d="M78.56 58.645c.004-.381.125-.762.36-1.148.021-.032.016-.058-.016-.073l-.047-.032c-.015-.005-.02-.005-.031.006-.262.459-.555.855-.874 1.19-.549.568-.805 1.366-1.287 1.998-.56.73-1.051 1.45-1.475 2.165-.738 1.247-1.528 2.426-2.255 3.642a437.115 437.115 0 0 1-4.635 7.545 467.045 467.045 0 0 0-1.967 3.173c-.13.214-.277.438-.45.678a63.97 63.97 0 0 0-2.098 3.126c-.544.855-1.27 1.612-2.076 2.28-.665.558-1.308.407-2.072.375-.848-.03-1.68-.24-2.516-.39-.398-.069-.79-.152-1.178-.246-.716-.172-1.46-.193-2.165-.402-.806-.24-1.617-.214-2.417-.428a12.685 12.685 0 0 0-1.873-.323c-.8-.084-1.857-.512-2.783-.679a72.73 72.73 0 0 1-3.071-.62 20.114 20.114 0 0 0-1.319-.256c-.946-.152-1.841-.444-2.751-.71-.675-.203-1.366-.14-2.062-.323a67.312 67.312 0 0 0-2.019-.517c-.769-.188-1.627-.245-2.323-.574a4.306 4.306 0 0 0-1.538-.423 9.82 9.82 0 0 1-1.449-.219 768.18 768.18 0 0 0-7.146-1.586c-.157-.031-.251.026-.283.183-.015.078-.02.198-.026.37-.031 3.475-.005 7.258.09 11.344.01.62.193 1.414.235 2.118.12 2.197.073 4.368.319 6.596.178 1.643.267 3.339.261 5.097-.005.663.053 1.341.173 2.035.136.773.225 1.618.282 2.531.016.282.157.46.43.532 2.06.553 4.19 1.143 6.387 1.77 1.125.317 2.276.604 3.448.85 1.103.23 2.254.49 3.447.777 1.816.433 3.505.872 5.059 1.31.345.094.706.156 1.093.182.722.047 1.235.387 1.889.61.706.246 1.433.168 2.145.392 1.653.517 2.799.825 3.437.924 1.235.193 2.495.449 3.782.756 1.01.246 2.014.199 2.967.548.538.199 1.098.355 1.674.47 1.161.23 2.4.511 3.72.845.81.209 1.715.397 2.72.574.92.157 1.83.334 2.746.527.586.12 1.156.204 1.7.245 1.261.094 2.433.397 3.715.428.868.026 1.737.1 2.59-.088.125-.027.167-.105.135-.225-.1-.386-.25-.694-.256-1.116 0-4.697.016-9.398.052-14.094.006-.95.094-1.894.058-2.823-.016-.454.12-.845.078-1.31-.052-.589.173-1.173.189-1.768.047-2.04.099-4.08.151-6.116.021-.798.251-1.55.257-2.353.036-3.856.073-7.712.104-11.568.006-.256.032-.5.084-.736.13-.605.251-1.236.246-1.841-.026-1.827-.016-3.836.031-6.032.016-.7.01-1.347-.01-1.93-.037-.966.036-1.89.23-2.772.32-1.455.183-3.01.183-4.471" transform="matrix(.74668 0 0 .74863 .173 11.222)"/></g><g clip-path="url(#h)"><path fill="none" stroke="#9d7665" stroke-width="2" d="M95.912 83.096c-.816.224-1.669-.439-2.035-1.112a44.644 44.644 0 0 0-1.444-2.442c-.968-1.503-1.742-3.23-2.73-4.78-.294-.453-.754-1.34-1.387-2.666-.131-.271-.43-.782-.9-1.534-.732-1.179-1.271-2.4-1.967-3.564a50.58 50.58 0 0 1-1.125-1.982c-.465-.866-.926-1.722-1.391-2.562a23.515 23.515 0 0 1-1.104-2.296 23.734 23.734 0 0 0-1.13-2.353.501.501 0 0 0-.183-.193c-.183-.115-.283-.068-.304.15a18.706 18.706 0 0 0-.042 2.224 2.4 2.4 0 0 1-.073.683c-.146.6-.288 1.054-.293 1.712-.031 3.496-.052 7.122-.068 10.879a594.966 594.966 0 0 1-.031 4.273 537.53 537.53 0 0 1-.105 5.808c-.016.835-.24 1.612-.24 2.452-.006 2.985-.048 5.86-.126 8.625-.005.193-.078.407-.073.59.047.908.02 1.758-.084 2.557-.1.767-.152 1.586-.162 2.452a676.43 676.43 0 0 0-.032 15.252c0 .115-.041.36-.136.74a.469.469 0 0 0 0 .21c.09.39.063.761-.068 1.116a.275.275 0 0 1-.162.162 1.23 1.23 0 0 0-.282.156c-.199.141-.173.214.068.204.44-.005.884-.02 1.344-.037a5.95 5.95 0 0 0 1.345-.213 88.47 88.47 0 0 1 4.515-1.096 59.044 59.044 0 0 0 4.122-1.06c2.464-.72 5.006-1.398 7.627-2.045.497-.12 1.172-.344 2.025-.668.743-.282 1.533-.37 2.276-.615a53.164 53.164 0 0 1 3.536-1.06 27.408 27.408 0 0 0 1.857-.563c1.56-.527 3.103-.887 4.656-1.43 1.151-.402 2.323-.72 3.469-1.137.617-.225 1.26-.267 1.862-.517.43-.177.88-.34 1.345-.475 2.997-.892 5.958-1.946 8.909-2.937 1.036-.35 2.009-.83 3.055-1.091.795-.193 1.214-1.482 1.177-2.165-.068-1.394.298-2.703.34-4.112.037-1.205.079-2.468.126-3.788.016-.418.13-.866.084-1.263-.079-.7.183-1.42.198-2.071a533.65 533.65 0 0 0 .131-16.385c-.005-.093-.052-.14-.141-.14-.931.01-1.685.422-2.553.683a80.533 80.533 0 0 1-5.137 1.399c-.382.088-.77.12-1.146.245-1.8.59-3.552 1.096-5.263 1.529-.47.12-.952.27-1.433.459-.78.308-1.59.422-2.375.694-.675.23-1.34.47-2.025.652-1.386.376-2.768.74-4.138 1.096-.942.24-1.695.459-2.27.647-.665.219-1.356.313-2 .548-.501.187-.998.323-1.49.412-.863.162-1.7.38-2.5.662-1.246.434-2.622.72-3.92 1.08" transform="matrix(.74668 0 0 .74863 .173 11.222)"/></g><g clip-path="url(#i)"><path fill="none" stroke="#f9ccb9" stroke-width="2" d="M88.902 15.404c.22-1.111.272-2.238.157-3.38a46.888 46.888 0 0 1-.142-1.79 12.43 12.43 0 0 0-.235-1.79" transform="matrix(.74668 0 0 .74863 .173 11.222)"/></g><g clip-path="url(#j)"><path fill="none" stroke="#a3735e" stroke-width="2" d="M88.682 8.444a6.1 6.1 0 0 1-.047-.684c-.005-.438-.188-.668-.55-.856a.278.278 0 0 0-.214-.015c-.832.266-.863.73-1.072 1.398a.465.465 0 0 1-.12.193c-.32.319-.267.715-.424 1.106-.183.433-.35.872-.508 1.31-.282.778-.69 1.508-.905 2.296-.21.757-1.172 2.176-.319 2.807.345.256.879.36 1.292.204.382-.136.79-.214 1.23-.235.052 0 .089.02.11.068.026.047.02.088-.011.125-.188.224-.481.396-.544.7-.115.578.084.985.586 1.215.539.24.941.172 1.208-.204.131-.187.225-.506.278-.96.068-.522.146-1.022.23-1.508" transform="matrix(.74668 0 0 .74863 .173 11.222)"/></g><g clip-path="url(#k)"><path fill="none" stroke="#a87a78" stroke-width="2" d="m88.682 8.444-.497.871a.452.452 0 0 0-.052.204c.005.198.026.292-.058.485a30.352 30.352 0 0 0-.842 2.165c-.236.679-.293 1.425-.712 2.014-.073.1-.047.146.074.152.973.01 1.742.365 2.307 1.07" transform="matrix(.74668 0 0 .74863 .173 11.222)"/></g><path fill="none" stroke="#a3735e" stroke-width="2" d="M98.549 46.247a.79.79 0 0 0-.241-.584.8.8 0 0 0-.586-.246.8.8 0 0 0-.586.246.79.79 0 0 0-.24.584c0 .23.078.423.24.584.162.162.356.24.586.24.23 0 .424-.078.586-.24a.79.79 0 0 0 .24-.584" transform="matrix(.74668 0 0 .74863 .173 11.222)"/><path fill="none" stroke="#a8908e" stroke-width="2" d="M49.86 39.433c-.404 1.612.334 3.464 1.909 4.1.832.335 1.616.423 2.349.256 1.752-.396 2.793-1.44 3.128-3.135.031-.162.126-.25.293-.267 1.072-.125 2.286-.871 2.448-2.03.047-.349-.125-.662-.523-.933-.931-.637-1.104 1.304-2.024 1.315-.822.015-1.831-.09-2.407-.757-.267-.308-.56-.61-.879-.897-.978-.893-1.512.412-2.291.667-.743.246-2.067.084-2.077-.954-.005-.36-.167-.653-.492-.877a.306.306 0 0 0-.214-.047c-.35.068-.88.214-.88.663 0 .417-.114.965.116 1.33.403.632.895 1.106 1.48 1.42.058.03.079.083.063.146" transform="matrix(.74668 0 0 .74863 .173 11.222)"/><path fill="none" stroke="#a87a78" stroke-width="2" d="M53.244 39c-.513.104-1.24.281-1.695.573a.358.358 0 0 0-.167.293c-.131 3.052 3.374 2.927 4.326.678.068-.162.026-.277-.136-.344a12.66 12.66 0 0 1-1.998-1.133.391.391 0 0 0-.33-.068" transform="matrix(.74668 0 0 .74863 .173 11.222)"/><g clip-path="url(#l)"><path fill="#51211c" d="M81.305 36.309c.058-.012.09-.047.093-.11.145-2.734.852-5.46 2.13-8.176 1.386-2.96 3.91-5.304 6.824-6.726.402-.195.832-.371 1.293-.531.648-.223 1.105-.356 1.378-.391a75.392 75.392 0 0 0 1.704-.234.27.27 0 0 1 .156.023c.086.04.172.04.258-.008a.21.21 0 0 1 .136-.023l.7.094a.32.32 0 0 0 .16-.02.354.354 0 0 1 .363.023.202.202 0 0 0 .203.02.076.076 0 0 1 .05-.004c3.825.676 6.86 3.078 8.376 6.711.394.95.625 2.023.683 3.223.11 2.164-.316 4.25-1.554 6.004-.59.836-1.336 1.433-2.242 1.785-.473.18-1.02.383-1.52.422-.898.07-1.77-.04-2.617-.332-.399-.137-.727-.36-1.102-.532a1.755 1.755 0 0 1-.605-.445c-.246-.285-.524-.465-.703-.82-.246-.492-.406-.934-.473-1.32-.113-.645-.152-1.403-.113-2.278.015-.41 0-.844-.195-1.203-.122-.223-.25-.461-.383-.715-.043-.078-.102-.098-.184-.055a1.1 1.1 0 0 0-.492.497c-.516 1.035-.84 1.937-.969 2.707-.113.664-.219 1.316-.316 1.957-.078.523-.063 1.039-.051 1.57.004.277-.129.562-.066.812.093.383.101.762.03 1.141-.027.14.028.23.173.258a169.707 169.707 0 0 1 4.93 1.12c1.066.263 2.152.505 3.257.731.387.078.727.22 1.016.418.433.297.816.477 1.133.961 1.37 2.11 2.32 3.672 2.843 4.692.196.375.368.695.52.957.187.316.36.636.52.953.449.902.906 1.797 1.374 2.683.434.829.809 1.664 1.254 2.48.18.329.344.657.504.99.54 1.144 1.074 2.3 1.602 3.476.078.172.164.332.258.476.168.262.27.617.312 1.07.035.356-.043.657-.242.891-.242.293-.664.29-.992.442a9.115 9.115 0 0 1-1.856.629c-.234.05-.425.218-.652.257-.508.082-.922.332-1.422.414-.512.086-.953.364-1.453.5a44.672 44.672 0 0 0-4.445 1.438.303.303 0 0 1-.145.02c-.14-.02-.223.035-.242.171-.059.383-.059.73-.004 1.047.055.32-.145.559-.082.871.129.645.164 1.176.11 1.59-.028.2-.032.38-.012.543.015.172.023.348.011.52a6.87 6.87 0 0 0 .02 1.066.594.594 0 0 1-.074.352.203.203 0 0 0-.016.164c.094.351.102.754.023 1.215-.05.265.051.488.02.757-.078.649-.105 1.32-.09 2.012.012.559-.074 1.102-.062 1.656.007.293-.02.586-.09.883a.282.282 0 0 0 .008.16c.05.164.062.325.043.485a8.5 8.5 0 0 0-.07 1.726c.015.27-.063.473-.165.715a.206.206 0 0 0-.008.152c.063.188.075.375.047.559-.062.36-.039.695-.05 1.055-.016.433-.153.898-.102 1.28.039.294.004.563-.102.806-.093.214.032.304.016.5-.043.543-.094 1.093-.145 1.656-.05.543-.378 1.23-.699 1.637-.187.238-.476.441-.867.609a49.098 49.098 0 0 1-2.789 1.113c-.867.309-1.75.606-2.652.883-.453.14-.91.29-1.364.45-.605.21-1.226.37-1.82.59-.992.366-2 .687-3.02.968-.742.2-1.43.52-2.183.691a3.39 3.39 0 0 0-.711.246c-.309.149-.648.184-.977.293-.585.2-1.222.453-1.824.559-.18.031-.36.086-.543.164a10.66 10.66 0 0 1-2.008.582c-.293.059-.566.2-.859.281-1.191.356-2.363.7-3.508 1.032-.472.136-.949.27-1.426.394-.468.121-.937.262-1.414.418-.296.102-.613.18-.941.242-.438.078-.824.254-1.273.324-.657.11-1.266.372-1.934.532-.895.218-1.824.46-2.781.726-.809.227-1.606.328-2.418.582a7.895 7.895 0 0 1-1.34.297c-.297.04-.598.082-.91.121a8.06 8.06 0 0 1-.918.067c-.778.007-1.547.047-2.313-.008-.406-.024-.816-.05-1.238-.074a8.925 8.925 0 0 1-1.184-.153c-.527-.101-1.046-.105-1.578-.21-.949-.188-1.894-.372-2.843-.555-.399-.075-.758-.215-1.16-.23-.301-.013-.532-.145-.817-.204-.54-.11-1.074-.285-1.617-.344-.301-.03-.54-.168-.836-.222a47.129 47.129 0 0 1-2.543-.575c-.586-.152-1.367-.304-2.344-.464-.195-.028-.355-.157-.531-.18a12.523 12.523 0 0 1-1.563-.29c-.957-.237-1.933-.472-2.918-.698-.199-.047-.398-.086-.593-.125-.364-.07-.653-.227-1.024-.27a6.376 6.376 0 0 1-.886-.18 162.278 162.278 0 0 0-8.126-1.98 4.877 4.877 0 0 1-.765-.23c-.348-.133-.719-.149-1.082-.258a17.049 17.049 0 0 0-.719-.192 8.783 8.783 0 0 1-.746-.199c-.863-.262-1.738-.516-2.621-.762-.512-.14-.899-.324-1.16-.547-.215-.18-.399-.441-.559-.777-.098-.21-.16-.516-.187-.914-.055-.848-.121-1.719-.192-2.61-.047-.609-.09-1.3-.129-2.066-.047-.96-.199-1.91-.23-2.894a61.2 61.2 0 0 0-.172-3.34 2.627 2.627 0 0 1 .004-.555 2.491 2.491 0 0 0-.074-.922 1.18 1.18 0 0 1-.04-.52c.051-.366.036-.741-.042-1.128-.024-.125 0-.172.03-.285a.205.205 0 0 0-.003-.137c-.129-.348.008-.656-.027-1.012-.07-.64-.094-1.246-.067-1.816.012-.27 0-.512-.039-.719a.287.287 0 0 1 .008-.14c.098-.278-.02-.497-.016-.778.012-1.25.04-2.488.09-3.719.004-.054-.023-.086-.078-.093a12.062 12.062 0 0 1-2.34-.586c-.433-.16-.844-.047-1.246-.317a.252.252 0 0 0-.16-.039c-.344.043-.625-.148-.953-.215-.492-.105-.98-.21-1.465-.312-.312-.063-.578-.266-.89-.262a1.171 1.171 0 0 1-.38-.055 12.848 12.848 0 0 0-1.574-.367c-.215-.03-.394-.144-.605-.187l-1.715-.367c-.191-.04-.402-.176-.574-.2a10.337 10.337 0 0 1-2.793-.773.798.798 0 0 1-.422-.383c-.5-1.012.426-1.914.86-2.715.366-.675.812-1.297 1.198-1.996.942-1.703 2.141-3.41 3.137-5.02 1.239-2.007 2.617-4.062 3.934-6.117.746-1.16 1.469-2.246 2.176-3.257.32-.461.789-.79 1.336-.84.207-.02.402-.082.582-.188.199-.113.425-.215.671-.3a.12.12 0 0 1 .082-.008l.043.011a.147.147 0 0 0 .082.004c.305-.086.622-.164.954-.234.3-.063.535-.148.707-.254a.295.295 0 0 1 .136-.043c.258-.016.512-.066.766-.148a.27.27 0 0 0 .121-.078.377.377 0 0 1 .328-.106c.043.008.074-.008.102-.043a.102.102 0 0 0 .011-.105 3.243 3.243 0 0 1-.238-1.18 2.454 2.454 0 0 0-.066-.52c-.051-.199-.051-.398 0-.593a.268.268 0 0 0-.012-.157l-.039-.078a.173.173 0 0 1 .016-.168c.078-.113.07-.218-.024-.316-.039-.04-.047-.086-.023-.133.113-.242.168-.473.16-.687a1.32 1.32 0 0 1 .082-.47c.344-.937.684-1.612 1.016-2.023.445-.554.875-1.093 1.289-1.613.21-.262.363-.574.441-.894.324-1.286.844-2.57 1.563-3.864a60.212 60.212 0 0 1 1.687-2.875c.086-.132.086-.304.04-.46a14.727 14.727 0 0 1-.63-3.774c-.012-.273-.133-.48-.086-.762.04-.226.032-.457-.027-.691-.082-.32-.024-.664-.059-.988-.02-.192.07-.375.024-.536a.75.75 0 0 1-.028-.226c.024-.395.036-.793.032-1.192 0-.367.035-.82.113-1.355.14-.984.527-1.637 1.207-2.32.145-.145.32-.25.527-.317.22-.07.43-.156.637-.261a.238.238 0 0 1 .129-.024l.613.035a.229.229 0 0 0 .176-.062c.082-.082.168-.082.262 0a.145.145 0 0 0 .156.035l.219-.07a.335.335 0 0 1 .222.007c.125.051.254.059.391.028a.418.418 0 0 1 .156-.008l1.938.191a.13.13 0 0 1 .047.02.19.19 0 0 0 .191.031.355.355 0 0 1 .156-.012c.602.094 1.2.196 1.797.305.207.04.426.066.645.086.27.023.527.102.765.23.254.141.516.008.79.137.245.121.527.13.8.203 1.004.27 1.961.621 2.957.914.91.27 1.758.637 2.547 1.102.047.027.098.039.156.027.5-.086 1.004-.175 1.532-.21.5-.036 1.011-.075 1.543-.122.98-.082 2.292-.078 3.94.008.153.008.25.086.411.078.832-.031 1.531.082 2.309.14.304.024.554.056.75.095.707.136 1.324.257 1.855.363.238.047.434-.004.586-.149.098-.097.184-.168.254-.222a32.654 32.654 0 0 1 3.156-2.008c.172-.094.36-.195.563-.3.199-.106.402-.192.61-.259a2.24 2.24 0 0 0 .6-.332c.16-.12.333-.207.52-.261.219-.063.422-.141.617-.235.375-.183.77-.363 1.176-.535.117-.05.168-.156.301-.18.332-.054.637-.129.91-.222.05-.02.098-.051.133-.098a.265.265 0 0 1 .137-.086c.691-.183 1.379-.348 2.062-.543.668-.187 1.188-.258 1.559-.203.55.074 1.097.316 1.636.719.29.215.399.508.657.754.093.086.168.187.234.304.328.598.563 1.149.7 1.657.077.285.167.562.265.832.016.039.016.082.008.125a.463.463 0 0 0 .105.414.37.37 0 0 1 .086.164c.113.578.235 1.11.371 1.601.07.254.008.465.078.727.176.676.297 1.336.352 1.977.02.203.086.562.2 1.07.077.363.097.754.054 1.172a.293.293 0 0 0 .027.164l.121.242a.274.274 0 0 1 .024.207c-.13.473.043.883.054 1.344l.036 1.379a.116.116 0 0 1-.024.078.159.159 0 0 0-.039.082.21.21 0 0 0 .004.086c.059.191.102.496.012.683a.236.236 0 0 0-.004.211c.261.582.531 1.157.808 1.715.184.367.215.82.407 1.16.312.551.527 1.145.64 1.782.074.421.403.707.574 1.082.032.07.086.101.165.101l.476-.008a.205.205 0 0 1 .133.04c.23.16.488.23.762.21.062-.004.109.016.144.067.05.074.121.105.211.09a.318.318 0 0 1 .16.015c.16.05.309.106.453.156.141.055.29.102.446.141.148.035.285.082.41.14a19.76 19.76 0 0 1 2.328 1.231c.64.41 1.3.672 2.039.848a.54.54 0 0 0 .223.008ZM27.19 21.94c.07-.156.13-.25.18-.28.274-.161.52-.31.738-.446.094-.059.114-.137.063-.235A5.3 5.3 0 0 0 27 19.527c-.234-.46-.504-.937-.809-1.437-.078-.13-.05-.305.082-.524.036-.054.082-.078.149-.062.41.078.621-.074.953.281.566.594 1.086 1.211 1.563 1.852.253.336.687.66.835 1.023.094.223.145.488.153.797 0 .05-.012.098-.04.14-.304.508-.788.602-1.21.95a.207.207 0 0 0-.082.168c-.008.383-.621 1.101-.89 1.375-.579.605-1.196 1.14-1.712 1.808-1.027 1.332-2.023 2.665-2.758 4.075l-.496.945c-.304.582-.617 1.398-.925 2.457-.352 1.191-1.102 2.117-1.903 3.05-.258.302-.46.653-.613 1.052-.559 1.476-.567 2.941-.027 4.394.44 1.125 1.023 2.04 1.746 2.742.394.387.683.676.87.864.204.207.52.453.75.507 1.012.235 2.024.473 3.036.711.203.047.402.133.598.254.05.031.097.028.144-.011.68-.594 1.516-.985 2.508-1.172.383-.07.781-.094 1.195-.07.453.027.883.077 1.29.152 1.241.226 2.054.77 3.007 1.73.297.3.375.668.606.996a.21.21 0 0 0 .125.082c.726.157 1.41.27 2.05.348.727.09 1.418.277 2.137.375.754.101 1.504.293 2.27.351.246.02.492.102.73.168a.14.14 0 0 0 .148-.043c1.008-1.125 2.141-1.382 3.575-1.511.351-.032.793 0 1.32.09 1.54.273 3 1.175 3.566 2.671.02.047.055.075.106.083 1.035.132 2.074.078 3.09.128 1.293.063 2.562.114 3.808.149.473.015.938.11 1.403.144.148.012.246.09.355.176.043.031.094.05.145.055.558.043.941.039 1.144-.012.856-.23 1.727-.39 2.559-.633.992-.289 2.054-.468 3.058-.812.68-.121 1.375-.285 2.086-.488.297-.086.606-.098.895-.188.683-.223 1.367-.332 2.043-.55.676-.22 1.37-.278 2.055-.497.359-.117.726-.12 1.09-.246.179-.062.363-.113.558-.156a117.52 117.52 0 0 0 4.816-1.215c.453-.125.907-.18 1.352-.344.305-.11.648-.203 1.031-.273.73-.133 1.438-.328 2.117-.586.051-.02.067-.05.055-.102-.566-1.918-1.559-3.777-2.973-5.578-1.695-2.156-3.683-3.695-5.96-4.617a13.991 13.991 0 0 0-1.797-.59.124.124 0 0 0-.11.027.114.114 0 0 0-.05.102c.015.434.21.79.253 1.215.07.676.243 1.387.282 2.043a24.99 24.99 0 0 1-.028 3.465c-.023.3-.094.578-.207.836a2.75 2.75 0 0 0-.238.84.18.18 0 0 1-.086.136c-.395.258-1.016.235-1.043-.34a36.19 36.19 0 0 1-.031-.808c-.016-.614.164-1.2.172-1.817v-.863a7.34 7.34 0 0 0-.047-.836 55.738 55.738 0 0 0-.356-2.586 14.02 14.02 0 0 0-.601-2.375c-.649-1.87-1.313-3.527-1.989-4.972-.363-.77-.57-1.692-.484-2.512.082-.746-.039-1.465-.066-2.2-.02-.495-.067-.984-.149-1.464a18.834 18.834 0 0 1-.219-1.883 2.179 2.179 0 0 0-.082-.465c-.195-.64-.136-1.308-.308-1.957-.332-1.293-.606-2.617-1.035-3.875-.192-.562-.578-1.215-1.035-1.637-.188-.168-.43-.222-.735-.16-1.375.285-2.68.692-3.91 1.223-.488.21-.895.375-1.223.496-1.605.59-3.148 1.469-4.636 2.379-.668.41-1.266.914-1.88 1.418-.398.324-.671.379-1.156.305-1.042-.165-2.03-.32-2.964-.461-.727-.11-1.493-.102-2.239-.207-1.554-.215-3.183-.207-4.761-.141-.25.012-.54.062-.875.152-.602.168-1.239.09-1.868.25-.93.239-1.855.297-2.757.692-.45.199-.91.359-1.383.484-.535.14-.938-.398-.664-.879.199-.351.441-.574.722-.676.516-.175 1.024-.355 1.524-.53.09-.032.086-.056-.004-.071a7.596 7.596 0 0 1-1.367-.406c-.848-.34-1.727-.524-2.61-.786-.441-.129-.89-.175-1.34-.3a9.462 9.462 0 0 0-.956-.211 37.058 37.058 0 0 0-4.293-.493c-.72-.039-1.317.024-2.004.157a.364.364 0 0 0-.246.156c-.368.516-.551 1.117-.551 1.812.004.93 0 1.844-.016 2.747-.02 1.527.262 3 .39 4.523.016.156.06.3.137.438a.182.182 0 0 0 .157.101.192.192 0 0 0 .175-.07c.59-.684 1.235-1.29 1.93-1.817a.284.284 0 0 0 .113-.308 2.608 2.608 0 0 1-.039-.903Zm56.825 8.97c-.391.972-.528 1.8-.774 2.71a7.978 7.978 0 0 0-.273 1.645c-.067 1.304-.074 2.39-.024 3.257.075 1.282 1.215 2.243 1.785 3.325.52.98.957 2.086 1.313 3.316.07.25.246.348.516.285a41.768 41.768 0 0 0 2.504-.652c.804-.238 1.3-.363 1.421-1.242.133-.992.207-1.801.215-2.422.012-.672.028-1.285.04-1.844.003-.21 0-.828-.012-1.844-.024-1.71.277-3.203.73-5.015.348-1.207.875-2.223 1.578-3.055.367-.434.942-.844 1.723-1.227.21-.105.433-.07.656-.128.379-.094.711.183.898.484.067.105.051.2-.05.277-.297.219-.578.48-.852.79a.142.142 0 0 0-.023.163c.136.29.293.57.472.836.496.73.47 1.887.477 3.051 0 .492.059 1.004.176 1.531.168.778 1.043 1.305 1.68 1.668.773.446 1.578.11 2.406 0 1.886-.25 3.191-2.36 3.511-4.03.391-2.071.246-4.138-.754-6.036-.82-1.55-1.894-2.742-3.218-3.574-2.192-1.367-4.602-1.832-7.106-1.196-2.66.68-4.988 2.282-6.707 4.418-1.082 1.348-1.691 2.887-2.308 4.508Zm8.406 10.245c-.035-.011-.055.004-.059.04l-.351 2.777c-.004.047.015.062.058.05l5.961-1.43c.028-.007.04-.023.04-.046 0-.027-.012-.043-.04-.047ZM70.258 69.914c.402.61.648 1.746 1.332 2.082a.243.243 0 0 0 .148.02c.817-.157 1.61-.371 2.38-.645.269-.101.581-.101.855-.2a11.464 11.464 0 0 1 1.945-.519c.527-.086.965-.332 1.484-.48.524-.149 1.043-.293 1.567-.434a76.9 76.9 0 0 1 2.484-.62 14.77 14.77 0 0 0 1.567-.462c.957-.336 1.91-.55 2.863-.851.726-.23 1.449-.387 2.156-.63.719-.245 1.465-.386 2.191-.616.903-.29 1.81-.563 2.715-.829.446-.125.93-.148 1.368-.296a92.864 92.864 0 0 1 6.054-1.832c.801-.211 1.602-.465 2.406-.766a63.285 63.285 0 0 1 5.454-1.777c.324-.09.675-.258 1.054-.508a.113.113 0 0 0 .059-.121 2.934 2.934 0 0 0-.278-.965c-.382-.785-.855-1.52-1.199-2.328-.215-.5-.449-1.008-.71-1.532a463.38 463.38 0 0 0-2.114-4.214c-.273-.536-.617-1.055-.883-1.57a810.445 810.445 0 0 1-1.64-3.208 4.768 4.768 0 0 0-.446-.715 12.201 12.201 0 0 1-1.21-1.964c-.231-.47-.684-.688-1.176-.563-.586.152-1.204.297-1.852.445-.984.22-2.05.5-3.207.836-.809.239-1.902.496-3.277.774-.793.156-1.5.492-2.317.558-.636.051-1.156.371-1.777.508-1.36.293-2.61.606-3.754.938-.55.16-1.098.297-1.637.41a21.6 21.6 0 0 0-1.648.41c-.766.223-1.54.336-2.285.578-.41.133-.832.238-1.27.32-.832.153-1.629.485-2.488.63-.54.085-1.102.23-1.684.429-.508.172-1.035.188-1.547.344-.277.082-.558.16-.836.226-1.824.446-3.644.914-5.464 1.403a6.133 6.133 0 0 1-.735.152c-.629.102-1.191.367-1.804.484a8.636 8.636 0 0 0-1.532.442c-.07.027-.097.078-.082.152.098.45.258.852.485 1.211.199.32.37.672.515 1.05.23.599.535 1.216.91 1.845.192.32.364.652.516.992.273.605.64 1.148.914 1.758.117.27.27.527.45.777.253.352.472.727.656 1.125.296.629.703 1.227 1.015 1.863.473.946.989 1.86 1.547 2.739.645 1.011 1.102 2.144 1.762 3.144ZM18.539 45.031c.285.074.586.125.895.157.07.003.086-.02.043-.079-.247-.328-.387-.648-.704-.933a1.449 1.449 0 0 1-.367-.524c-.02-.047-.054-.066-.101-.054a18.8 18.8 0 0 0-2.282.68c-.109.038-.105.074.004.1.813.216 1.649.434 2.512.653ZM3.016 60.821c-.41.562-.668 1.202-1 1.796-.063.113-.04.2.078.258.203.102.433.168.687.2.512.054 1.012.09 1.492.28.395.153.79.29 1.204.344.562.074 1.097.25 1.652.332.894.13 1.68.477 2.562.653 1.004.199 2.008.449 3.008.754.711.214 1.559.207 2.242.527.485.226.989.25 1.485.426.222.082.449.132.68.156.558.062 1.085.262 1.644.328.441.05.887.152 1.336.305.406.136.844.25 1.312.336a85.43 85.43 0 0 1 2.457.488c.524.11 1.008.293 1.532.41.86.191 1.691.383 2.488.57.648.153 1.48.29 2.21.489.446.117.919.218 1.419.304.738.125 1.441.535 2.242.567.602.023 1.117.261 1.707.312.59.055 1.125.274 1.715.344.289.031.582.082.879.145 1.047.226 2.039.418 2.98.566.34.055.965.184 1.875.394.813.188 1.7.274 2.504.227.25-.016.485-.113.633-.328a63.317 63.317 0 0 0 2.523-3.895c.438-.734.946-1.449 1.395-2.175 1.305-2.121 2.668-4.262 3.996-6.446a51.589 51.589 0 0 1 1.649-2.55c.113-.16.21-.336.296-.524.211-.46.582-.832.809-1.285.211-.418.41-.774.719-1.137.222-.262.39-.543.504-.836a.156.156 0 0 0-.02-.148.152.152 0 0 0-.133-.074 228.08 228.08 0 0 1-4.867-.164c-.613-.028-1.219-.149-1.82-.137a.38.38 0 0 0-.371.254 2.95 2.95 0 0 1-1.211 1.468c-.68.426-1.25.668-1.707.73-.496.071-1.156.09-1.989.063-.898-.027-1.597-.234-2.367-.691-1.156-.687-1.687-1.68-1.597-2.973.007-.113-.043-.175-.153-.199-.672-.129-1.347-.262-2.027-.394-.91-.176-2.098-.32-3.172-.543-.383-.082-.89-.121-1.527-.13a.217.217 0 0 0-.18.102c-.676 1.012-1.45 1.516-2.66 1.649-.762.082-1.543.37-2.293.199-.36-.086-.715-.152-1.063-.2-.816-.116-1.34-.468-1.964-1-.356-.3-.594-.605-.723-.91-.234-.57-.309-1.097-.223-1.59.02-.124-.027-.202-.152-.238a194.911 194.911 0 0 1-3.426-.917c-.414-.118-.87-.086-1.281-.208a36.161 36.161 0 0 0-3.2-.804 29.987 29.987 0 0 1-2.171-.512c-.723-.2-1.445-.406-2.172-.613a.64.64 0 0 0-.41.015.642.642 0 0 0-.324.258c-.29.453-.543.938-.852 1.383a42.67 42.67 0 0 0-1.977 3.07c-.312.543-.734 1.004-1.039 1.547-.43.754-.953 1.387-1.39 2.153-.2.351-.414.695-.637 1.035-1.102 1.652-2.125 3.488-3.25 5.11-.23.335-.32.737-.566 1.073Zm29.957-12.61c-.532-.441-1.473-.871-2.227-.98-.84-.122-1.73.011-2.672.402-.406.168-.656.61-.847.972a.204.204 0 0 0-.02.137c.035.188.066.371.09.559.094.734 1.523 1.191 2.074 1.273 1.063.153 2.54.145 3.559-.351.883-.426.672-1.485.043-2.012Zm16.562 3.727a1.338 1.338 0 0 0-.207-.762 2.206 2.206 0 0 0-.656-.664 3.576 3.576 0 0 0-1-.465 4.61 4.61 0 0 0-1.195-.2 4.714 4.714 0 0 0-1.204.102c-.39.082-.734.211-1.035.383-.3.172-.539.375-.707.61a1.37 1.37 0 0 0-.27.742c-.007.261.063.515.212.761.148.246.367.47.652.664.29.196.621.352 1 .465.383.117.781.184 1.195.2.418.015.817-.016 1.207-.102.387-.082.735-.211 1.035-.383.301-.172.536-.375.704-.61a1.37 1.37 0 0 0 .27-.742Zm9.297 3.187c.004-.285.094-.57.27-.86.015-.023.011-.042-.012-.054l-.035-.023c-.012-.004-.016-.004-.024.003-.195.344-.414.641-.652.891-.41.426-.602 1.023-.961 1.496a16.543 16.543 0 0 0-1.102 1.621c-.55.934-1.14 1.817-1.683 2.727a327.388 327.388 0 0 1-3.461 5.648c-.492.79-.98 1.578-1.469 2.375-.098.16-.207.328-.336.508a47.898 47.898 0 0 0-1.566 2.34c-.406.64-.95 1.207-1.551 1.707-.496.418-.977.305-1.547.281-.633-.023-1.254-.18-1.879-.293-.297-.05-.59-.113-.879-.183-.535-.13-1.09-.145-1.617-.301-.601-.18-1.207-.16-1.805-.32a9.45 9.45 0 0 0-1.398-.243c-.598-.062-1.387-.382-2.078-.507a54.182 54.182 0 0 1-2.293-.465c-.34-.078-.668-.141-.984-.192-.707-.113-1.375-.332-2.055-.531-.504-.152-1.02-.105-1.54-.242-.5-.137-1.003-.266-1.507-.387-.574-.14-1.215-.183-1.734-.43a3.209 3.209 0 0 0-1.149-.316 7.315 7.315 0 0 1-1.082-.164c-1.73-.395-3.508-.79-5.336-1.188-.117-.023-.187.02-.21.137a1.955 1.955 0 0 0-.02.278c-.024 2.601-.004 5.433.066 8.492.008.465.145 1.058.176 1.586.09 1.644.055 3.27.238 4.937.133 1.23.2 2.5.195 3.817-.003.496.04 1.003.13 1.523.101.578.167 1.21.21 1.894.012.211.118.344.32.399 1.54.414 3.13.855 4.77 1.324.84.238 1.7.453 2.574.637a85.12 85.12 0 0 1 2.575.582c1.355.324 2.617.652 3.777.98.258.07.527.118.816.137.54.035.922.29 1.41.457.528.184 1.07.125 1.602.293 1.234.387 2.09.617 2.566.692.922.144 1.864.335 2.825.566.754.183 1.504.148 2.215.41.402.148.82.266 1.25.352.867.171 1.793.382 2.777.632.605.157 1.281.297 2.031.43.688.117 1.367.25 2.05.395.438.09.864.152 1.27.183.942.07 1.817.297 2.774.32.648.02 1.297.075 1.934-.066.093-.02.124-.078.101-.168-.074-.289-.187-.52-.191-.836 0-3.515.011-7.035.039-10.55.004-.711.07-1.418.043-2.114-.012-.34.09-.633.058-.98-.039-.442.13-.88.14-1.325.036-1.527.075-3.054.114-4.578.016-.597.188-1.16.192-1.761.027-2.887.054-5.774.078-8.66.004-.192.023-.376.062-.551.098-.453.188-.926.184-1.38-.02-1.366-.012-2.87.023-4.515.012-.523.008-1.008-.008-1.445a8.214 8.214 0 0 1 .172-2.074c.239-1.09.137-2.254.137-3.348ZM71.789 73.43c-.61.168-1.246-.328-1.52-.832-.363-.66-.722-1.27-1.078-1.828-.722-1.125-1.3-2.418-2.039-3.579-.218-.34-.562-1.004-1.035-1.996-.097-.203-.32-.586-.672-1.148-.547-.883-.949-1.797-1.468-2.668-.286-.48-.567-.973-.84-1.484-.348-.649-.692-1.29-1.04-1.918a17.624 17.624 0 0 1-.824-1.72 17.788 17.788 0 0 0-.843-1.76.375.375 0 0 0-.137-.145c-.137-.086-.211-.051-.227.113a14.04 14.04 0 0 0-.03 1.664 1.8 1.8 0 0 1-.056.512c-.109.449-.214.789-.218 1.28-.024 2.618-.04 5.333-.051 8.145a446.56 446.56 0 0 1-.023 3.2c-.02 1.449-.043 2.898-.079 4.347-.011.625-.18 1.207-.18 1.836a243.53 243.53 0 0 1-.093 6.457c-.004.145-.059.305-.055.442.035.68.016 1.316-.062 1.914a15.861 15.861 0 0 0-.121 1.836c-.051 3.89-.059 7.699-.024 11.418 0 .086-.031.27-.101.554a.352.352 0 0 0 0 .157c.066.293.047.57-.051.835a.206.206 0 0 1-.121.122.917.917 0 0 0-.211.117c-.149.105-.13.16.05.152.329-.004.66-.016 1.005-.027.324-.012.66-.067 1.003-.16a65.916 65.916 0 0 1 3.372-.82 43.994 43.994 0 0 0 3.078-.794c1.84-.539 3.738-1.047 5.695-1.53.371-.09.875-.259 1.512-.5.554-.212 1.144-.278 1.699-.462.887-.3 1.766-.562 2.64-.793.45-.12.915-.258 1.387-.422 1.164-.394 2.317-.664 3.477-1.07.86-.3 1.734-.54 2.59-.852.46-.168.941-.199 1.39-.386.32-.133.657-.254 1.004-.356 2.238-.668 4.45-1.457 6.653-2.199.773-.262 1.5-.621 2.28-.816.595-.145.907-1.11.88-1.621-.051-1.043.222-2.024.254-3.079.027-.902.058-1.847.093-2.836.012-.312.098-.648.063-.945-.059-.523.137-1.062.148-1.55.094-4.075.13-8.165.098-12.266-.004-.07-.04-.106-.106-.106-.695.008-1.257.317-1.906.512a60.008 60.008 0 0 1-3.836 1.047c-.285.066-.574.09-.855.183a59.44 59.44 0 0 1-3.93 1.145c-.351.09-.71.203-1.07.344-.582.23-1.188.316-1.774.52-.504.171-1 .35-1.511.488-1.035.28-2.067.554-3.09.82-.703.18-1.266.344-1.695.484-.497.164-1.012.235-1.493.41-.375.141-.746.243-1.113.309-.644.121-1.27.285-1.867.496-.93.324-1.957.54-2.926.809Zm0 0"/></g><path fill="#f4c49f" d="M66.61 50.383a1.18 1.18 0 0 0-.458-.18 1.97 1.97 0 0 1-.46-.133 49.446 49.446 0 0 0-2.68-1.21c-.442-.188-1.262-.602-2.453-1.239-2.07-1.101-3.743-2.586-5.403-4.281-.82-.84-1.379-1.543-1.676-2.117-.308-.59-.675-.907-1.097-.95.847-.738 1.187-1.632 1.015-2.683-.105-.633-.511-1.176-1.222-1.637-.23-.148-.477-.113-.727-.207-.855-.316-1.953.14-2.5.79-.36.417-.57.901-.636 1.452a2.32 2.32 0 0 0-.75-.64 8.829 8.829 0 0 1-.833-.512c-.359-.266-.726-.52-1.097-.758-.422-.266-.7-.68-1.121-.969-.492-.34-1.008-.687-1.426-1.12-.48-.505-1.055-.891-1.48-1.43a49.714 49.714 0 0 1-.852-1.11c-.129-.176-.27-.183-.422-.031a20.566 20.566 0 0 1-1.789 1.637c-.371.3-.809.492-1.195.77-.54.386-1.141.636-1.672 1.034-.211.16-.469.301-.766.422-.695.278-1.328.606-1.906.98a4.64 4.64 0 0 0-.422-1.265c-.3-.582-.793-.957-1.477-1.125-1.207-.3-2.156.055-2.84 1.063-.171.25-.273.562-.308.945-.102 1.125.242 1.969 1.023 2.535-.324.16-.636.36-.94.598-.4.312-.696.527-.9.64a14.44 14.44 0 0 1-1.562.793c-1.379.586-2.941 1.063-4.676 1.442-.433.093-.976.09-1.632-.016-.54-1.453-.532-2.918.027-4.394.152-.399.355-.75.613-1.051.8-.934 1.55-1.86 1.902-3.051.31-1.059.622-1.875.926-2.457l.496-.945c.735-1.41 1.73-2.743 2.758-4.075.516-.668 1.133-1.203 1.711-1.808.27-.274.883-.992.89-1.375 0-.067.028-.125.083-.168.422-.348.906-.442 1.21-.95a.255.255 0 0 0 .04-.14 2.192 2.192 0 0 0-.153-.797c-.148-.363-.582-.687-.835-1.023a19.802 19.802 0 0 0-1.563-1.852c-.332-.355-.543-.203-.953-.281-.067-.016-.113.008-.149.062-.132.22-.16.395-.082.524.305.5.575.976.809 1.437a5.087 5.087 0 0 0 .191 2.414c-.039.297-.027.598.04.903a.284.284 0 0 1-.114.308 12.616 12.616 0 0 0-1.93 1.817.192.192 0 0 1-.175.07.182.182 0 0 1-.157-.102 1.082 1.082 0 0 1-.136-.437c-.13-1.523-.41-2.996-.39-4.523.015-.903.019-1.817.015-2.747 0-.695.183-1.296.55-1.812a.364.364 0 0 1 .247-.156c.687-.133 1.285-.196 2.004-.157 1.418.079 2.851.243 4.293.493.343.058.664.129.957.21.449.126.898.172 1.34.301.882.262 1.761.446 2.609.786.449.18.906.316 1.367.406.09.015.094.039.004.07-.5.176-1.008.356-1.524.531-.28.102-.523.325-.722.676-.274.48.129 1.02.664.879a9.213 9.213 0 0 0 1.383-.484c.902-.395 1.828-.453 2.757-.692.63-.16 1.266-.082 1.868-.25.336-.09.625-.14.875-.152 1.578-.067 3.207-.074 4.761.14.746.106 1.512.098 2.239.208.933.14 1.922.296 2.964.46.485.075.758.02 1.157-.304.613-.504 1.21-1.008 1.879-1.418 1.488-.91 3.03-1.79 4.636-2.38.328-.12.735-.284 1.223-.495a20.173 20.173 0 0 1 3.91-1.223c.305-.062.547-.008.735.16.457.422.843 1.075 1.035 1.637.43 1.258.703 2.582 1.035 3.875.172.648.113 1.316.308 1.957.043.145.07.3.082.465.043.652.118 1.277.22 1.883.081.48.128.968.148 1.465.027.734.148 1.453.066 2.199-.086.82.121 1.742.484 2.512.676 1.445 1.34 3.101 1.989 4.972.273.785.472 1.578.601 2.375.145.899.262 1.758.356 2.586.031.274.047.55.047.836v.863c-.008.618-.188 1.203-.172 1.817.008.297.02.566.031.808.027.575.648.598 1.043.34a.18.18 0 0 0 .086-.137 2.75 2.75 0 0 1 .238-.84c.113-.257.184-.535.207-.835a24.99 24.99 0 0 0 .028-3.465c-.04-.656-.211-1.367-.282-2.043-.043-.426-.238-.781-.254-1.215 0-.043.016-.078.051-.102.031-.027.07-.035.11-.027.605.152 1.203.352 1.796.59 2.278.922 4.266 2.46 5.961 4.617 1.414 1.8 2.407 3.66 2.973 5.578.012.051-.004.082-.055.102-.68.258-1.386.453-2.117.586-.383.07-.726.164-1.031.273-.445.164-.899.219-1.352.344-1.625.445-3.23.852-4.816 1.215a4.876 4.876 0 0 0-.559.156c-.363.125-.73.129-1.09.246-.683.219-1.378.278-2.054.496-.676.219-1.36.328-2.043.551-.29.09-.598.102-.895.188-.71.203-1.406.367-2.086.488Zm-.055-27.63a8.58 8.58 0 0 0 .117-2.53 35.19 35.19 0 0 1-.106-1.34 9.328 9.328 0 0 0-.175-1.34 4.578 4.578 0 0 1-.036-.512c-.003-.328-.14-.5-.41-.64a.207.207 0 0 0-.16-.012c-.62.2-.644.547-.8 1.047a.348.348 0 0 1-.09.144c-.239.239-.2.535-.317.828-.137.325-.262.653-.379.98-.21.583-.515 1.13-.676 1.72-.156.566-.875 1.629-.238 2.101.258.192.656.27.965.153.285-.102.59-.16.918-.176.039 0 .066.015.082.05.02.036.016.067-.008.094-.14.168-.36.297-.406.524-.086.433.062.738.437.91.403.18.704.129.903-.152.097-.141.168-.38.207-.72.05-.39.11-.765.172-1.128Zm7.203 23.09a.592.592 0 0 0-.18-.437.596.596 0 0 0-.437-.183.596.596 0 0 0-.438.183.592.592 0 0 0-.18.438c0 .172.059.316.18.437s.266.18.438.18a.592.592 0 0 0 .437-.18.592.592 0 0 0 .18-.437Zm0 0"/><path fill="#51211c" d="m66.39 17.543-.37.652a.34.34 0 0 0-.04.153c.004.148.02.218-.043.363-.23.535-.44 1.074-.628 1.621-.176.508-.22 1.066-.532 1.508-.054.074-.035.11.055.113.727.008 1.3.274 1.723.8a27.68 27.68 0 0 0-.172 1.13c-.04.34-.11.578-.207.719-.2.28-.5.332-.903.152-.375-.172-.523-.477-.437-.91.047-.227.266-.356.406-.524.024-.027.028-.058.008-.093-.016-.036-.043-.051-.082-.051a3.164 3.164 0 0 0-.918.176c-.309.117-.707.039-.965-.153-.637-.472.082-1.535.238-2.101.16-.59.465-1.137.676-1.72.117-.327.242-.655.38-.98.116-.293.077-.59.316-.828.043-.039.07-.09.09-.144.156-.5.18-.848.8-1.047a.207.207 0 0 1 .16.012c.27.14.407.312.41.64.004.196.016.367.036.512Zm0 0"/><path fill="#fed3d3" d="M66.39 17.543c.09.45.153.895.176 1.34.028.457.063.902.106 1.34a8.58 8.58 0 0 1-.117 2.53c-.422-.526-.996-.792-1.723-.8-.09-.004-.11-.039-.055-.113.313-.442.356-1 .532-1.508.187-.547.398-1.086.629-1.621.062-.145.046-.215.042-.363a.34.34 0 0 1 .04-.153ZM27 19.527a5.3 5.3 0 0 1 1.172 1.453c.05.098.031.176-.063.235a30.23 30.23 0 0 1-.738.445c-.05.031-.11.125-.18.281A5.087 5.087 0 0 1 27 19.527Zm0 0"/><path fill="#fffeff" d="M91.457 32.43c-.637.156-1.254.355-1.852.59a1.526 1.526 0 0 1-.812.101c-.504-.074-1.023.008-1.508-.148-.984-.313-1.71-.68-2.176-1.098-.359-.324-.726-.648-1.093-.965.617-1.62 1.226-3.16 2.308-4.508 1.719-2.136 4.047-3.738 6.707-4.418 2.504-.636 4.914-.172 7.106 1.196 1.324.832 2.398 2.023 3.218 3.574 1 1.898 1.145 3.965.754 6.035-.32 1.672-1.625 3.781-3.511 4.031-.828.11-1.633.446-2.407 0-.636-.363-1.511-.89-1.68-1.668a7.061 7.061 0 0 1-.175-1.53c-.008-1.165.02-2.321-.477-3.052a6.29 6.29 0 0 1-.472-.836.142.142 0 0 1 .023-.164c.274-.308.555-.57.852-.789.101-.078.117-.172.05-.277-.187-.3-.519-.578-.898-.484-.223.058-.445.023-.656.128-.781.383-1.356.793-1.723 1.227-.703.832-1.23 1.848-1.578 3.055Zm0 0"/><path fill="#f4c49f" d="M84.016 30.91c.367.317.734.64 1.093.965.465.418 1.192.785 2.176 1.098.485.156 1.004.074 1.508.148.277.043.55.004.812-.101a14.602 14.602 0 0 1 1.852-.59c-.453 1.812-.754 3.304-.73 5.015.011 1.016.015 1.633.011 1.844-.011.559-.027 1.172-.039 1.844-.008.62-.082 1.43-.215 2.422-.12.879-.617 1.004-1.421 1.242-.856.25-1.692.469-2.504.652-.27.063-.446-.035-.516-.285-.356-1.23-.793-2.336-1.313-3.316-.57-1.082-1.71-2.043-1.785-3.325-.05-.867-.043-1.953.024-3.257a7.978 7.978 0 0 1 .273-1.645c.246-.91.383-1.738.774-2.71Zm0 0"/><path fill="#fffeff" d="M48.313 37.988c.007.32.039.621.09.907.05.289.16.52.327.683.364.36 1.067.93 1.606.992.16.02.316.059.465.121.054.02.11.024.164.012.12-.035.312-.066.566-.105.211-.032.496-.141.852-.325.422.043.789.36 1.097.95.297.574.856 1.277 1.676 2.117 1.66 1.695 3.332 3.18 5.403 4.281 1.191.637 2.011 1.05 2.453 1.238.96.403 1.851.805 2.68 1.211.105.051.257.094.46.133.172.031.325.09.457.18-1.004.344-2.066.523-3.058.812-.832.242-1.703.403-2.559.633-.203.05-.586.055-1.144.012a.286.286 0 0 1-.145-.055c-.11-.086-.207-.164-.355-.176-.465-.035-.93-.129-1.403-.144a189.906 189.906 0 0 1-3.808-.149c-1.016-.05-2.055.004-3.09-.129a.128.128 0 0 1-.106-.082c-.566-1.496-2.027-2.398-3.566-2.671-.527-.09-.969-.121-1.32-.09-1.434.129-2.567.386-3.575 1.511a.14.14 0 0 1-.148.043c-.238-.066-.484-.148-.73-.168-.766-.058-1.516-.25-2.27-.351-.719-.098-1.41-.285-2.137-.375a22.998 22.998 0 0 1-2.05-.348.21.21 0 0 1-.125-.082c-.23-.328-.31-.695-.606-.996-.953-.96-1.766-1.504-3.008-1.73a10.794 10.794 0 0 0-1.289-.153c-.414-.023-.812 0-1.195.07-.992.188-1.828.579-2.508 1.172-.047.04-.094.043-.144.012a1.982 1.982 0 0 0-.598-.254c-1.012-.238-2.024-.476-3.035-.71-.23-.055-.547-.301-.75-.508a114.87 114.87 0 0 0-.871-.864c-.723-.703-1.305-1.617-1.746-2.742.656.106 1.199.11 1.632.016 1.735-.38 3.297-.856 4.676-1.442.43-.18.95-.441 1.563-.793.203-.113.5-.328.898-.64.305-.239.617-.438.941-.598.375.152.665.238.868.258.68.078 1.672-.012 2.238-.473.445-.36.719-.668.816-1.25.035-.203.07-.433.102-.687.578-.375 1.21-.703 1.906-.98.297-.122.555-.262.766-.423.531-.398 1.133-.648 1.672-1.035.386-.277.824-.469 1.195-.77a20.566 20.566 0 0 0 1.789-1.636c.152-.152.293-.145.422.031.273.367.559.738.851 1.11.426.539 1 .925 1.48 1.43.419.433.935.78 1.427 1.12.422.29.699.703 1.12.97.372.237.74.491 1.098.757.153.113.43.285.833.512.324.183.574.398.75.64Zm-10.91 2.754c-.301 1.207.25 2.594 1.425 3.07.621.25 1.207.317 1.754.192 1.309-.297 2.086-1.078 2.336-2.348.023-.12.094-.187.219-.199.8-.094 1.707-.652 1.828-1.52.035-.261-.094-.496-.39-.699-.696-.476-.825.977-1.513.985-.613.011-1.367-.067-1.796-.567-.2-.23-.418-.457-.657-.672-.73-.668-1.129.309-1.71.5-.555.184-1.544.063-1.551-.714-.004-.27-.125-.489-.368-.657a.228.228 0 0 0-.16-.035c-.261.05-.656.16-.656.496 0 .313-.086.723.086.996.3.473.668.828 1.105 1.063.043.023.06.062.047.11Zm0 0"/><path fill="#51211c" d="M33.004 36.262c-.031.254-.066.484-.102.687-.097.582-.37.89-.816 1.25-.566.461-1.559.551-2.238.473-.203-.02-.493-.106-.868-.258-.78-.566-1.125-1.41-1.023-2.535.035-.383.137-.695.309-.945.683-1.008 1.632-1.364 2.84-1.063.683.168 1.175.543 1.476 1.125.195.383.336.805.422 1.266ZM52.383 40.273c-.356.184-.64.293-.852.325-.254.039-.445.07-.566.105a.295.295 0 0 1-.164-.012 1.735 1.735 0 0 0-.465-.12c-.54-.063-1.242-.633-1.606-.993-.167-.164-.277-.394-.328-.683a5.985 5.985 0 0 1-.09-.907c.067-.55.278-1.035.637-1.453.547-.648 1.645-1.105 2.5-.789.25.094.496.059.727.207.71.461 1.117 1.004 1.222 1.637.172 1.05-.168 1.945-1.015 2.683ZM37.355 40.633c-.437-.235-.804-.59-1.105-1.063-.172-.273-.086-.683-.086-.996 0-.336.395-.445.656-.496a.228.228 0 0 1 .16.035c.243.168.364.387.368.657.007.777.996.898 1.55.714.582-.191.98-1.168 1.711-.5.239.215.457.442.657.672.43.5 1.183.578 1.797.567.687-.008.816-1.461 1.511-.985.297.203.426.438.39.7-.12.867-1.026 1.425-1.827 1.519-.125.012-.196.078-.219.2-.25 1.269-1.027 2.05-2.336 2.347-.547.125-1.133.059-1.754-.191-1.176-.477-1.726-1.864-1.426-3.07.012-.048-.004-.087-.047-.11Zm2.575-.215c-.383.078-.926.21-1.266.43a.268.268 0 0 0-.125.218c-.098 2.286 2.52 2.192 3.23.508.051-.12.02-.207-.101-.258a9.447 9.447 0 0 1-1.492-.847.292.292 0 0 0-.246-.051Zm0 0"/><path fill="#fed3d3" d="M38.664 40.848c.34-.22.883-.352 1.266-.43a.292.292 0 0 1 .246.05c.465.325.96.606 1.492.848.121.051.152.137.102.258-.711 1.684-3.329 1.778-3.23-.508a.268.268 0 0 1 .124-.218Zm0 0"/><path fill="#f4c49f" d="m92.422 41.156 5.61 1.344c.027.004.038.02.038.047 0 .023-.011.039-.039.047l-5.96 1.43c-.044.011-.063-.004-.06-.051l.352-2.778c.004-.035.024-.05.059-.039Zm0 0"/><path fill="#e9caae" d="M71.59 71.996c-.684-.336-.93-1.473-1.332-2.082-.66-1-1.117-2.133-1.762-3.144a30.693 30.693 0 0 1-1.547-2.739c-.312-.636-.719-1.234-1.015-1.863a6.719 6.719 0 0 0-.657-1.125 4.217 4.217 0 0 1-.449-.777c-.273-.61-.64-1.153-.914-1.758a9.552 9.552 0 0 0-.516-.992 12.181 12.181 0 0 1-.91-1.844 6.108 6.108 0 0 0-.515-1.05 3.732 3.732 0 0 1-.485-1.212c-.015-.074.012-.125.082-.152.489-.192 1-.34 1.532-.442.613-.117 1.175-.382 1.804-.484.246-.035.489-.086.735-.152 1.82-.489 3.64-.957 5.464-1.403.278-.066.56-.144.836-.226.512-.156 1.04-.172 1.547-.344a10.16 10.16 0 0 1 1.684-.43c.86-.144 1.656-.476 2.488-.629.438-.082.86-.187 1.27-.32.746-.242 1.52-.355 2.285-.578a21.6 21.6 0 0 1 1.648-.41c.54-.113 1.086-.25 1.637-.41a55.408 55.408 0 0 1 3.754-.938c.621-.137 1.14-.457 1.777-.508.817-.066 1.524-.402 2.317-.558 1.375-.278 2.468-.535 3.277-.774a52.18 52.18 0 0 1 3.207-.836 65.618 65.618 0 0 0 1.852-.445c.492-.125.945.094 1.175.563.336.687.743 1.34 1.211 1.964.168.223.317.461.446.715a810.445 810.445 0 0 0 1.64 3.207c.266.516.61 1.035.883 1.57.66 1.301 1.367 2.708 2.113 4.215.262.524.496 1.032.711 1.532.344.808.817 1.543 1.2 2.328.148.308.242.633.277.965a.113.113 0 0 1-.059.12c-.379.25-.73.419-1.054.509a63.285 63.285 0 0 0-5.454 1.777c-.804.3-1.605.555-2.406.766a92.864 92.864 0 0 0-6.055 1.832c-.437.148-.921.171-1.367.296-.906.266-1.812.54-2.715.829-.726.23-1.472.37-2.19.617-.708.242-1.43.398-2.157.629-.953.3-1.906.515-2.863.851a14.77 14.77 0 0 1-1.567.461 76.9 76.9 0 0 0-2.484.621c-.524.14-1.043.285-1.567.434-.52.148-.957.394-1.484.48-.621.106-1.27.278-1.945.52-.274.098-.586.098-.856.2-.77.273-1.562.487-2.379.644a.243.243 0 0 1-.148-.02Zm0 0"/><path fill="#f4c49f" d="M18.54 45.031c-.864-.218-1.7-.437-2.513-.652-.109-.027-.113-.063-.004-.102a18.8 18.8 0 0 1 2.282-.68c.047-.011.082.008.101.055.094.215.215.391.367.524.317.285.457.605.704.933.043.059.027.082-.043.078a5.937 5.937 0 0 1-.895-.156Zm0 0"/><path fill="#e9caae" d="M2.016 62.617c.332-.594.59-1.234 1-1.797.246-.336.336-.738.566-1.074 1.125-1.621 2.148-3.457 3.25-5.11.223-.34.438-.683.637-1.034.437-.766.96-1.399 1.39-2.153.305-.543.727-1.004 1.04-1.547a42.67 42.67 0 0 1 1.976-3.07c.309-.445.563-.93.852-1.383a.642.642 0 0 1 .324-.258.64.64 0 0 1 .41-.015c.726.207 1.45.414 2.172.613.66.184 1.387.356 2.172.512 1.054.215 2.12.48 3.199.804.41.122.867.09 1.281.208 1.094.304 2.235.609 3.426.917.125.036.172.114.152.239-.086.492-.011 1.02.223 1.59.129.304.367.609.723.91.625.531 1.148.883 1.964 1 .348.047.704.113 1.063.199.75.172 1.531-.117 2.293-.2 1.21-.132 1.984-.636 2.66-1.648a.217.217 0 0 1 .18-.101c.636.008 1.144.047 1.527.129 1.074.222 2.262.367 3.172.543.68.132 1.355.265 2.027.394.11.024.16.086.153.2-.09 1.292.441 2.285 1.597 2.972.77.457 1.47.664 2.367.691.833.028 1.493.008 1.989-.062.457-.063 1.027-.305 1.707-.73a2.95 2.95 0 0 0 1.21-1.47.38.38 0 0 1 .372-.253c.601-.012 1.207.11 1.82.137 1.57.07 3.195.125 4.867.164.059 0 .102.027.133.074.031.047.04.097.02.148a2.911 2.911 0 0 1-.504.836c-.309.363-.508.719-.719 1.137-.227.453-.598.824-.809 1.285a3.245 3.245 0 0 1-.296.523 51.589 51.589 0 0 0-1.649 2.551c-1.328 2.184-2.691 4.325-3.996 6.446-.45.726-.957 1.441-1.395 2.175a63.317 63.317 0 0 1-2.523 3.895c-.148.215-.383.312-.633.328a9.097 9.097 0 0 1-2.504-.227c-.91-.21-1.535-.34-1.875-.394a53.732 53.732 0 0 1-2.98-.566 8.948 8.948 0 0 0-.879-.145c-.59-.07-1.125-.29-1.715-.344-.59-.05-1.105-.289-1.707-.312-.8-.031-1.504-.442-2.242-.567-.5-.086-.973-.187-1.418-.304-.73-.2-1.563-.336-2.211-.489a213.85 213.85 0 0 0-2.488-.57c-.524-.117-1.008-.3-1.532-.41a85.43 85.43 0 0 0-2.457-.488 9.463 9.463 0 0 1-1.312-.336 6.45 6.45 0 0 0-1.336-.305c-.559-.066-1.086-.266-1.645-.328a2.766 2.766 0 0 1-.68-.156c-.495-.176-1-.2-1.484-.426-.683-.32-1.53-.313-2.242-.528a31.06 31.06 0 0 0-3.008-.753c-.882-.176-1.668-.524-2.562-.653-.555-.082-1.09-.258-1.652-.332-.415-.054-.809-.191-1.204-.344-.48-.19-.98-.226-1.492-.28a2.105 2.105 0 0 1-.687-.2c-.117-.059-.14-.145-.078-.258Zm0 0"/><path fill="#51211c" d="M73.758 45.844a.592.592 0 0 1-.18.437.592.592 0 0 1-.437.18.592.592 0 0 1-.438-.18.592.592 0 0 1-.18-.437c0-.172.059-.317.18-.438a.596.596 0 0 1 .438-.183c.171 0 .316.062.437.183s.18.266.18.438Zm0 0"/><path fill="#fffeff" d="M30.746 47.23c.754.11 1.695.54 2.227.98.629.528.84 1.587-.043 2.013-1.02.496-2.496.504-3.559.351-.55-.082-1.98-.539-2.074-1.273a9.223 9.223 0 0 0-.09-.559.204.204 0 0 1 .02-.137c.191-.363.441-.804.847-.972.942-.39 1.832-.524 2.672-.403ZM49.535 51.938a1.37 1.37 0 0 1-.27.742 2.17 2.17 0 0 1-.703.61c-.3.17-.648.3-1.035.382-.39.086-.789.117-1.207.101a4.667 4.667 0 0 1-1.195-.199 3.628 3.628 0 0 1-1-.465 2.19 2.19 0 0 1-.652-.664 1.374 1.374 0 0 1-.211-.761 1.37 1.37 0 0 1 .27-.743c.167-.234.406-.437.706-.609.301-.172.645-.3 1.035-.383.387-.086.79-.117 1.204-.101a4.61 4.61 0 0 1 1.195.199c.379.113.715.27 1 .465.289.195.504.418.656.664.149.246.219.5.207.761Zm0 0"/><path fill="#e9caae" d="M58.832 55.125c0 1.094.102 2.258-.137 3.348-.144.66-.199 1.351-.172 2.074.016.437.02.922.008 1.445a127.392 127.392 0 0 0-.023 4.516c.004.453-.086.926-.184 1.379-.039.175-.058.36-.062.55-.024 2.887-.051 5.774-.078 8.66-.004.602-.176 1.165-.192 1.762-.039 1.524-.078 3.051-.113 4.579-.012.445-.18.882-.14 1.324.03.347-.071.64-.06.98.028.695-.038 1.403-.042 2.113-.028 3.516-.04 7.036-.04 10.551.005.317.118.547.192.836.023.09-.008.149-.102.168-.636.14-1.285.086-1.933.067-.957-.024-1.832-.25-2.774-.32a10.253 10.253 0 0 1-1.27-.184 52.699 52.699 0 0 0-2.05-.395 27.136 27.136 0 0 1-2.031-.43c-.984-.25-1.91-.46-2.777-.632a8.33 8.33 0 0 1-1.25-.352c-.711-.262-1.461-.227-2.215-.41-.961-.23-1.903-.422-2.825-.567-.476-.074-1.332-.304-2.566-.69-.531-.169-1.074-.11-1.601-.294-.489-.168-.872-.422-1.41-.457a4.143 4.143 0 0 1-.817-.137 95.939 95.939 0 0 0-3.777-.98 85.12 85.12 0 0 0-2.575-.582 38.106 38.106 0 0 1-2.574-.637c-1.64-.469-3.23-.91-4.77-1.324-.202-.055-.308-.188-.32-.398a17.314 17.314 0 0 0-.21-1.895 8.536 8.536 0 0 1-.13-1.523 34.558 34.558 0 0 0-.195-3.817c-.183-1.668-.148-3.293-.238-4.937-.031-.528-.168-1.121-.176-1.586-.07-3.059-.09-5.89-.066-8.493.004-.128.008-.218.02-.277.023-.117.093-.16.21-.137 1.828.399 3.606.793 5.336 1.188.36.082.719.137 1.082.164.38.027.762.133 1.149.316.52.246 1.16.29 1.734.43.504.121 1.008.25 1.508.387.52.137 1.035.09 1.539.242.68.2 1.348.418 2.055.531.316.051.644.114.984.192.766.172 1.531.328 2.293.465.691.124 1.48.445 2.078.507.504.051.973.133 1.398.243.598.16 1.204.14 1.805.32.527.156 1.082.172 1.617.3.29.07.582.133.88.184.624.113 1.245.27 1.878.293.57.024 1.05.137 1.547-.281.602-.5 1.145-1.067 1.55-1.707a47.898 47.898 0 0 1 1.567-2.34c.13-.18.238-.348.336-.508.488-.797.977-1.586 1.469-2.375a327.388 327.388 0 0 0 3.46-5.648c.544-.91 1.134-1.793 1.684-2.727.317-.535.684-1.074 1.102-1.62.36-.474.55-1.071.96-1.497.24-.25.458-.547.653-.89.008-.008.012-.008.024-.005l.035.024c.023.012.027.031.012.055-.176.289-.266.574-.27.859ZM70.27 72.598c.273.504.91 1 1.52.832.968-.27 1.995-.485 2.925-.809.597-.21 1.222-.375 1.867-.496a6.418 6.418 0 0 0 1.113-.309c.48-.175.996-.246 1.493-.41.43-.14.992-.304 1.695-.484 1.023-.266 2.055-.54 3.09-.82.511-.137 1.007-.317 1.511-.489.586-.203 1.192-.289 1.774-.52.36-.14.719-.253 1.07-.343a59.44 59.44 0 0 0 3.93-1.145c.281-.093.57-.117.855-.183a60.008 60.008 0 0 0 3.836-1.047c.649-.195 1.211-.504 1.906-.512.067 0 .102.035.106.106.031 4.101-.004 8.191-.098 12.265-.011.489-.207 1.028-.148 1.551.035.297-.05.633-.063.945a539.89 539.89 0 0 0-.093 2.836c-.032 1.055-.305 2.036-.254 3.079.027.511-.285 1.476-.88 1.62-.78.196-1.507.555-2.28.817-2.204.742-4.415 1.531-6.653 2.2a9.804 9.804 0 0 0-1.004.355c-.449.187-.93.218-1.39.386-.856.313-1.73.551-2.59.852-1.16.406-2.313.676-3.477 1.07-.472.164-.937.301-1.386.422-.875.23-1.754.492-2.641.793-.555.184-1.145.25-1.7.461-.636.242-1.14.41-1.511.5-1.957.484-3.856.992-5.695 1.531a43.994 43.994 0 0 1-3.078.793 65.916 65.916 0 0 0-3.372.82c-.343.094-.68.15-1.003.16-.344.013-.676.024-1.004.028-.18.008-.2-.047-.051-.152a.917.917 0 0 1 .21-.117.206.206 0 0 0 .122-.121c.098-.266.117-.543.05-.836a.352.352 0 0 1 0-.157c.071-.285.102-.468.102-.554-.035-3.72-.027-7.528.024-11.418.007-.649.047-1.262.12-1.836a10.56 10.56 0 0 0 .063-1.914c-.004-.137.051-.297.055-.442.059-2.07.09-4.222.094-6.457 0-.629.168-1.21.18-1.836.035-1.449.058-2.898.078-4.347.011-1.079.019-2.145.023-3.2.012-2.812.027-5.527.05-8.144.005-.492.11-.832.22-1.281a1.8 1.8 0 0 0 .054-.512 14.04 14.04 0 0 1 .031-1.664c.016-.164.09-.2.227-.113a.375.375 0 0 1 .137.144c.312.57.593 1.156.843 1.762.235.57.512 1.144.825 1.719.347.628.691 1.27 1.039 1.918.273.511.554 1.003.84 1.484.52.871.921 1.785 1.468 2.668.352.562.575.945.672 1.148.473.993.817 1.657 1.035 1.996.739 1.16 1.317 2.454 2.04 3.579.355.558.714 1.168 1.078 1.828Zm0 0"/><g clip-path="url(#m)"><g clip-path="url(#n)"><g clip-path="url(#o)"><g clip-path="url(#p)"><path fill="#281d0d" d="M40.41 82.633c-.402-.875-.87-1.406-1.469-1.801a.39.39 0 0 0-.304-.078c-.239.047-.157-.004-.461.094-1.078.34-2.168.855-2.735 1.879-.226.41-.257.562-.293.773-.066.367-.078.504.063.832.074.172.25.414.426.535.207.149.437.18.699.2.32.019.531.011 1.144-.368.04-.023.36-.238.508-.355.051-.04-.008-.055.172.27.356.66.84.956 1.274 1.011.105.012.289.004.511-.063a.875.875 0 0 0 .504-.316c.172-.187.293-.457.328-.605.13-.543-.132-1.508-.367-2.008"/></g></g></g></g><g clip-path="url(#q)"><g clip-path="url(#r)"><g clip-path="url(#s)"><g clip-path="url(#t)"><path fill="#281d0d" d="M42.145 81.078c.003-.234-.043-.328-.13-.496-.55-1.078-2.027.285-1.519 1.148.234.407.883.622 1.309.176.199-.21.34-.578.34-.828"/></g></g></g></g><g clip-path="url(#u)"><g clip-path="url(#v)"><g clip-path="url(#w)"><g clip-path="url(#x)"><path fill="#281d0d" d="M39.504 80.645c.07.02.21.046.3.05.485.024.735-.449.813-.949.074-.45-.21-.914-.719-.926-.253-.007-.277.004-.445.133-.55.422-.605 1.5.05 1.692"/></g></g></g></g><g clip-path="url(#y)"><g clip-path="url(#z)"><g clip-path="url(#A)"><g clip-path="url(#B)"><path fill="#281d0d" d="M38.125 80.395c.555-.051.688-1.079.46-1.473-.347-.606-1.097-.547-1.292-.043-.34.492-.215 1.621.832 1.516"/></g></g></g></g><g clip-path="url(#C)"><g clip-path="url(#D)"><g clip-path="url(#E)"><g clip-path="url(#F)"><path fill="#281d0d" d="M35.895 81.223c.289.062.53-.02.675-.157.27-.246.336-.789.254-1.105-.027-.106-.07-.184-.113-.27-.086-.168-.117-.218-.246-.32-.16-.129-.48-.148-.668-.078-.004 0-.207.016-.402.312-.372.563-.086 1.489.5 1.618"/></g></g></g></g><g clip-path="url(#G)"><g clip-path="url(#H)"><g clip-path="url(#I)"><g clip-path="url(#J)"><path fill="#281d0d" d="m30.473 79.012-.051.32c-.024.195.004.172-.113.996-.082.567-.102.957-.2 1.453 0 0-.093.535-.109.785-.016.329-.059.48-.098.914-.011.305-.074.434-.054.438.59.121 3.484.512 3.652.402.055-.398.074-.351.125-.879.008-.054.016-.105.02-.156.007-.105.003-.11.03-.27-.062-.097-.355-.14-.495-.171-.262-.063-.528-.094-.524-.094-1.008-.133-1.265-.191-1.265-.191.004-.016.074-.543.12-.836.54.047 1.009.117 1.009.117.32.082.472.078.789.094h.168c.023-.29 0-.184.074-.575.062-.324.058-.308.097-.738-.222-.066-.234-.082-.691-.16-.406-.066-.762-.125-1.223-.164.118-.676.145-.938.145-.934.098.004.148-.023.613.028.211.023 1.403.14 1.578.09.04-.266.043-.434.157-1.422-.372-.145-1.266-.27-1.602-.352-.113-.027-.645-.121-.64-.121-.462-.078-.551-.102-.837-.113-.484-.02-.472-.024-.515.007-.059.32-.004.122-.106.97-.027.237-.027.37-.054.562"/></g></g></g></g><g clip-path="url(#K)"><g clip-path="url(#L)"><g clip-path="url(#M)"><g clip-path="url(#N)"><g clip-path="url(#O)"><path fill="#281d0d" d="M28.133 82.613a24.45 24.45 0 0 1-.07-1.488c-.016-.832-.02-.496-.036-1.031-.02-.64-.058-.903-.105-1.75-.031-.266-.035-.235-.05-.52l-.138-.011c-.453-.051-.543-.02-1.273-.133a.49.49 0 0 0-.063.093c-.632.997-.46.891-.933 1.641-.195.313-.235.406-.383.652a3.829 3.829 0 0 0-.172-.433c-.152-.332-.176-.492-.297-.766-.101-.234-.11-.27-.199-.433-.187-.364-.289-.676-.527-.946-.383-.035-.153.008-1.098-.074-.023.117-.055.234-.078.352-.09.48-.02.238-.219 1.152-.512 2.93-.078.16-.941 5.266.191.03.398.07.547.125.25.09.472.132.457.129.504.113.43.23.699-.786v.004c.008-.031.016-.066.027-.101v.004c.207-.774.309-1.536.43-2.446.062.098.133.239.312.547l-.003-.004.02.031.003.008c.129.243.047.059.473.809.03.055.093.133.093.133.203.258.215.343.29.375.054.023.117 0 .16-.043a.149.149 0 0 0 .05-.035c.168-.207.567-.715.711-.946.075-.117.133-.199.133-.195.375-.527.274-.453.582-.906 0 0 .05 2.535.09 2.804.05.375.047.567.074.692.36.086.375.047.676.094.375.062.352.03.79.046-.02-.34.01-.812-.013-1.289-.007-.207-.011-.414-.02-.62"/></g></g></g></g></g><g clip-path="url(#P)"><g clip-path="url(#Q)"><g clip-path="url(#R)"><g clip-path="url(#S)"><path fill="#281d0d" d="M48.387 81.375c-.297.457-.715 1.527-.91 1.984-.301.707-.02.141-.59 1.348-.114-.418-.121-.402-.196-.61-.093-.253-.144-.464-.425-1.23-.063-.18-.149-.347-.235-.57-.058.023-.23.183-.273.234-.336.375-.238.285-.653.809l-.007.012-.028.03c-.375.411-.23.333-.57.688 0 0 .121-2.132.121-2.722.004-.317.074-.625.05-.82-.155.015-.253-.008-.362-.005-.532.012-.344-.039-1.086-.003-.028.859-.016.566-.051 1.093-.082 1.594-.031 1.64-.086 2.598 0 .02-.004.172-.02.352-.074.984-.039.777-.058 2.058.629.23.734.234 1.094.297.113-.035.191-.168.261-.285.102-.156.098-.133.25-.344.184-.254.621-.93.899-1.219.035.133.043.258.133.61.167.644.234 1.222.304 1.41.051 0 .098-.008.149 0 .043.008.644.129 1.21.254.536-1.125 2.04-4.508 2.462-5.637-.266-.05-.579-.176-1.383-.332"/></g></g></g></g></svg>