<svg xmlns="http://www.w3.org/2000/svg" xmlns:xlink="http://www.w3.org/1999/xlink" width="150" zoomAndPan="magnify" viewBox="0 0 112.5 112.499997" height="150" preserveAspectRatio="xMidYMid meet" version="1.0"><defs><clipPath id="ad709d195a"><path d="M 0 0 L 112.003906 0 L 112.003906 112.003906 L 0 112.003906 Z M 0 0 " clip-rule="nonzero"/></clipPath><clipPath id="df2bb67522"><path d="M 56 0 C 25.074219 0 0 25.074219 0 56 C 0 86.929688 25.074219 112.003906 56 112.003906 C 86.929688 112.003906 112.003906 86.929688 112.003906 56 C 112.003906 25.074219 86.929688 0 56 0 Z M 56 0 " clip-rule="nonzero"/></clipPath><clipPath id="9353d4a3e6"><path d="M 3 15.152344 L 111 15.152344 L 111 96.539062 L 3 96.539062 Z M 3 15.152344 " clip-rule="nonzero"/></clipPath><clipPath id="e498d36685"><path d="M 2 15.152344 L 112 15.152344 L 112 96.539062 L 2 96.539062 Z M 2 15.152344 " clip-rule="nonzero"/></clipPath></defs><g clip-path="url(#ad709d195a)"><g clip-path="url(#df2bb67522)"><path fill="#bd0a3a" d="M 0 0 L 112.003906 0 L 112.003906 112.003906 L 0 112.003906 Z M 0 0 " fill-opacity="1" fill-rule="nonzero"/></g></g><g clip-path="url(#9353d4a3e6)"><path fill="#fffcfa" d="M 4.363281 22.144531 C 3.867188 20.628906 3.496094 18.976562 3.992188 17.464844 C 4.101562 17.125 4.289062 16.769531 4.625 16.65625 C 4.972656 16.535156 5.34375 16.714844 5.667969 16.886719 C 8.726562 18.496094 11.894531 19.84375 15.171875 20.925781 C 16.710938 20.664062 18.242188 20.746094 19.75 20.832031 L 24.109375 21.082031 C 26.347656 20.246094 28.484375 19.203125 30.523438 17.953125 C 32.070312 17.007812 33.609375 15.925781 35.398438 15.628906 C 35.980469 15.53125 36.699219 15.589844 36.976562 16.105469 C 37.132812 16.398438 37.097656 16.746094 37.058594 17.074219 C 36.527344 21.429688 35.984375 25.84375 34.347656 29.914062 C 33.917969 30.382812 33.917969 30.96875 34.085938 31.472656 C 34.25 31.976562 34.5625 32.417969 34.875 32.847656 C 35.1875 33.28125 35.503906 33.714844 35.691406 34.210938 C 36.53125 33.953125 37.4375 34.0625 38.265625 34.296875 C 39.097656 34.53125 39.890625 34.886719 40.726562 35.089844 C 41.566406 35.296875 42.484375 35.335938 43.257812 34.957031 C 48.933594 32.855469 53.78125 28.945312 59.550781 27.410156 C 61.980469 26.71875 64.457031 26.472656 66.976562 26.667969 C 68.6875 26.589844 70.261719 26.503906 71.835938 26.417969 C 72.394531 26.386719 72.976562 26.355469 73.507812 26.546875 C 74.039062 26.734375 74.511719 27.195312 74.535156 27.757812 C 75.773438 27.390625 77.234375 27.535156 78.625 27.816406 C 80.015625 28.101562 81.378906 28.519531 82.789062 28.6875 C 83.121094 28.726562 83.460938 28.753906 83.773438 28.863281 C 84.089844 28.976562 84.386719 29.191406 84.515625 29.5 C 84.640625 29.808594 84.550781 30.21875 84.257812 30.378906 C 87.96875 30.828125 91.457031 32.246094 94.613281 34.128906 C 97.765625 36.007812 100.617188 38.355469 103.417969 40.738281 C 103.613281 40.75 103.851562 40.996094 103.996094 41.300781 C 104.140625 41.601562 104.175781 41.96875 104.027344 42.269531 C 103.878906 42.570312 103.523438 42.773438 103.199219 42.6875 C 108.277344 48.730469 111.082031 56.605469 110.964844 64.46875 C 110.933594 64.980469 110.941406 65.296875 110.925781 65.609375 C 110.90625 65.921875 110.863281 66.242188 110.707031 66.511719 C 110.546875 66.78125 110.25 66.988281 109.9375 66.960938 C 109.9375 70.394531 108.726562 73.804688 106.625 76.550781 C 106.5625 76.710938 106.472656 76.859375 106.363281 76.992188 C 106.269531 77.121094 106.152344 77.230469 106.015625 77.316406 C 105.867188 77.40625 105.714844 77.414062 105.554688 77.34375 C 105.414062 77.273438 105.328125 77.085938 105.398438 76.941406 C 104.332031 79.019531 102.578125 80.828125 100.4375 81.867188 C 100.277344 81.945312 100.109375 82.023438 99.929688 82.011719 C 99.753906 81.996094 99.570312 81.867188 99.5625 81.6875 C 97.386719 83.453125 94.515625 84.441406 91.675781 84.320312 C 90.394531 85.464844 88.515625 86.234375 86.628906 86.226562 C 86.414062 86.226562 86.1875 86.210938 86.011719 86.089844 C 85.835938 85.964844 85.742188 85.699219 85.875 85.53125 C 84.839844 85.652344 83.847656 85.429688 82.871094 85.296875 C 80.570312 84.988281 78.308594 85.164062 76.082031 85.828125 C 75.453125 86.128906 74.796875 86.359375 74.121094 86.523438 C 73.996094 86.5625 73.871094 86.570312 73.742188 86.546875 C 73.617188 86.511719 73.507812 86.390625 73.527344 86.265625 C 73.070312 86.636719 72.644531 87.039062 72.25 87.476562 C 72.117188 87.632812 71.964844 87.761719 71.785156 87.863281 C 71.601562 87.949219 71.367188 87.960938 71.207031 87.839844 C 71.074219 88.402344 71.027344 88.972656 71.074219 89.550781 C 71.292969 90.410156 71.523438 91.210938 71.4375 92.011719 C 71.34375 92.914062 70.839844 93.742188 70.164062 94.351562 C 69.488281 94.957031 68.648438 95.359375 67.78125 95.640625 C 66.703125 95.992188 65.519531 96.160156 64.441406 95.804688 C 64.019531 96.175781 63.59375 96.289062 63.183594 96.246094 C 62.753906 96.199219 62.394531 96.019531 62.101562 95.703125 C 61.359375 96.183594 60.484375 96.183594 59.730469 95.929688 C 58.976562 95.675781 58.324219 95.199219 57.699219 94.707031 C 57.429688 94.8125 57.25 94.871094 57.074219 94.867188 C 56.898438 94.859375 56.730469 94.820312 56.570312 94.746094 C 55.800781 94.414062 55.234375 93.875 54.867188 93.121094 C 54.5 93.332031 54.023438 93.273438 53.621094 93.085938 C 53.222656 92.898438 52.886719 92.59375 52.582031 92.269531 C 51.730469 91.363281 51.089844 90.324219 50.652344 89.15625 C 50.21875 87.988281 50.023438 86.785156 50.070312 85.539062 C 49.9375 85.585938 49.765625 85.40625 49.683594 85.203125 C 49.617188 84.992188 49.59375 84.777344 49.617188 84.558594 C 49.671875 83.667969 49.917969 82.828125 50.351562 82.046875 C 50.007812 81.882812 49.875 81.476562 49.949219 81.128906 C 50.023438 80.785156 50.253906 80.5 50.507812 80.253906 C 51.1875 79.589844 52.039062 79.132812 52.878906 78.6875 C 53.191406 77.945312 53.714844 77.347656 54.324219 76.878906 C 54.9375 76.414062 55.632812 76.070312 56.34375 75.773438 C 58.457031 74.886719 60.660156 74.386719 62.949219 74.273438 C 63.105469 74.015625 63.355469 73.902344 63.582031 73.835938 C 65.757812 73.195312 68.128906 74.175781 70.34375 73.699219 C 70.273438 73.601562 70.25 73.488281 70.273438 73.367188 C 70.292969 73.25 70.355469 73.152344 70.457031 73.082031 C 70.632812 72.976562 70.855469 72.984375 71.0625 72.992188 C 74.941406 73.160156 78.601562 72.347656 82.042969 70.554688 C 78.0625 71.304688 73.988281 71.609375 69.953125 71.324219 C 68.9375 71.765625 68.046875 71.859375 67.253906 71.625 C 66.417969 71.371094 65.792969 70.859375 65.378906 70.089844 C 64.757812 70.078125 64.140625 69.925781 63.769531 69.523438 C 63.582031 69.316406 63.464844 69.074219 63.417969 68.796875 C 63.375 68.519531 63.40625 68.253906 63.515625 67.996094 C 63.285156 67.511719 63.28125 67.078125 63.441406 66.714844 C 63.617188 66.328125 63.90625 66.074219 64.308594 65.945312 C 64.394531 65.773438 64.46875 65.589844 64.539062 65.410156 C 63.332031 64.835938 62.253906 63.808594 61.683594 62.546875 C 60.070312 63.371094 58.210938 63.363281 56.441406 63.332031 C 54.566406 63.300781 52.683594 63.269531 50.828125 62.988281 C 50.515625 62.945312 50.191406 62.882812 49.953125 62.675781 C 49.714844 62.472656 49.617188 62.074219 49.832031 61.84375 C 48.246094 61.734375 46.71875 61.375 45.25 60.765625 C 44.613281 61.015625 44.160156 61.273438 43.679688 61.445312 C 43.429688 61.542969 43.261719 61.773438 43.039062 61.9375 C 42.820312 62.105469 42.503906 62.203125 42.269531 62.058594 C 42.15625 61.976562 42.089844 61.867188 42.074219 61.730469 C 42.058594 61.589844 42.097656 61.46875 42.1875 61.363281 C 41.628906 61.667969 41.027344 61.804688 40.390625 61.773438 C 36.640625 62.84375 32.691406 63.308594 28.785156 63.066406 C 27.761719 63.472656 26.707031 63.761719 25.621094 63.9375 C 25.367188 63.992188 25.109375 64.003906 24.851562 63.972656 C 24.597656 63.929688 24.347656 63.792969 24.21875 63.570312 C 23.625 63.683594 23.09375 63.808594 22.558594 63.859375 C 22.414062 63.871094 22.257812 63.878906 22.136719 63.800781 C 21.972656 63.695312 21.929688 63.480469 21.902344 63.289062 C 21.863281 63.207031 12.953125 64.40625 12.953125 64.40625 L 8.253906 64.941406 C 7.703125 64.996094 7.144531 65.050781 6.609375 64.917969 C 6.074219 64.785156 5.5625 64.429688 5.402344 63.902344 C 4.890625 64.09375 4.445312 63.992188 4.152344 63.714844 C 3.832031 63.410156 3.722656 63.039062 3.820312 62.609375 C 3.542969 62.550781 3.335938 62.214844 3.3125 61.890625 C 3.285156 61.566406 3.398438 61.246094 3.511719 60.941406 C 3.59375 60.679688 3.707031 60.433594 3.84375 60.199219 C 3.992188 59.953125 4.195312 59.78125 4.457031 59.679688 C 3.714844 59.289062 3.324219 58.292969 3.453125 57.394531 C 3.585938 56.496094 4.164062 55.707031 4.886719 55.15625 C 5.609375 54.601562 6.46875 54.261719 7.332031 53.980469 C 7.328125 53.996094 7.496094 53.5 7.496094 53.5 C 7.183594 53.398438 7.066406 53.019531 7.039062 52.691406 C 6.992188 52 7.128906 51.347656 7.460938 50.738281 C 6.839844 50.722656 6.699219 50.070312 6.851562 49.582031 C 7.003906 49.089844 7.351562 48.6875 7.574219 48.222656 C 7.890625 47.570312 7.949219 46.8125 7.859375 46.089844 C 7.773438 45.371094 7.546875 44.671875 7.324219 43.980469 C 7.3125 44.175781 7.078125 44.289062 6.910156 44.230469 C 6.738281 44.167969 6.632812 44.003906 6.546875 43.847656 C 6.140625 43.121094 5.898438 42.34375 5.820312 41.519531 C 5.742188 41.816406 5.503906 41.777344 5.394531 41.640625 C 5.289062 41.507812 5.273438 41.320312 5.265625 41.148438 C 5.15625 38.710938 5.367188 36.300781 5.902344 33.917969 C 5.195312 31.691406 5.089844 29.167969 5.546875 26.75 C 5.839844 25.195312 4.859375 23.65625 4.363281 22.144531 Z M 4.363281 22.144531 " fill-opacity="1" fill-rule="nonzero"/><path fill="#dbc8af" d="M 22.476562 31.144531 C 22.175781 30.15625 21.289062 29.410156 21.050781 28.402344 C 20.957031 28.003906 20.972656 27.585938 20.921875 27.179688 C 20.871094 26.769531 20.734375 26.347656 20.414062 26.089844 C 20.089844 25.832031 19.550781 25.832031 19.316406 26.171875 C 19.070312 26.890625 18.675781 27.523438 18.132812 28.0625 C 17.714844 28.484375 17.207031 28.835938 16.890625 29.339844 C 16.417969 30.097656 16.460938 31.058594 16.5625 31.945312 C 16.664062 32.835938 16.804688 33.761719 16.492188 34.597656 C 16.183594 35.429688 15.464844 36.042969 14.710938 36.507812 C 13.953125 36.972656 13.128906 37.328125 12.414062 37.851562 C 11.695312 38.371094 11.074219 39.117188 10.96875 39.996094 C 10.925781 40.375 10.980469 40.761719 10.933594 41.144531 C 10.886719 41.523438 10.703125 41.925781 10.351562 42.074219 C 9.855469 42.285156 9.304688 41.902344 8.953125 41.492188 C 8.125 40.515625 7.710938 39.386719 7.714844 38.105469 C 7.519531 38.300781 7.125 38.222656 6.957031 37.992188 C 6.785156 37.761719 6.785156 37.445312 6.824219 37.160156 C 6.941406 36.253906 7.386719 35.410156 7.980469 34.710938 C 7.808594 34.910156 7.347656 34.863281 7.234375 34.609375 C 7.121094 34.351562 7.25 34.054688 7.402344 33.820312 C 8.097656 32.769531 9.300781 32.191406 10.472656 31.738281 C 11.644531 31.285156 12.882812 30.886719 13.820312 30.050781 C 14.585938 29.367188 15.085938 28.441406 15.535156 27.515625 C 15.980469 26.59375 16.394531 25.636719 17.03125 24.832031 C 17.667969 24.027344 18.570312 23.371094 19.59375 23.289062 C 20.710938 23.203125 21.789062 23.816406 22.554688 24.640625 C 23.316406 25.460938 23.832031 26.476562 24.382812 27.453125 C 24.9375 28.429688 25.558594 29.402344 26.472656 30.058594 C 27.222656 30.628906 28.234375 30.835938 29.230469 31.011719 C 30.222656 31.183594 31.238281 31.335938 32.148438 31.773438 C 33.058594 32.210938 33.859375 33 34.039062 33.992188 L 33.566406 33.941406 C 34.015625 34.363281 34.253906 35.027344 34.339844 35.695312 C 34.429688 36.363281 34.375 37.039062 34.304688 37.710938 C 34.28125 37.945312 34.246094 38.199219 34.074219 38.359375 C 33.90625 38.519531 33.554688 38.492188 33.5 38.265625 C 32.859375 39.429688 32.039062 40.429688 31.003906 41.105469 C 30.695312 41.308594 30.292969 41.488281 29.96875 41.3125 C 29.699219 41.171875 29.589844 40.835938 29.589844 40.535156 C 29.589844 40.230469 29.671875 39.933594 29.675781 39.628906 C 29.699219 38.640625 28.910156 37.796875 28.015625 37.375 C 27.121094 36.953125 26.117188 36.847656 25.15625 36.609375 C 24.199219 36.371094 23.210938 35.949219 22.683594 35.113281 C 21.886719 33.859375 22.839844 32.347656 22.476562 31.144531 Z M 5.296875 32.003906 C 5.261719 32.296875 5.226562 32.597656 5.308594 32.878906 C 5.390625 33.164062 5.617188 33.425781 5.910156 33.449219 C 6.242188 33.476562 6.53125 33.191406 6.625 32.875 C 6.71875 32.558594 6.664062 32.222656 6.601562 31.898438 C 6.539062 31.574219 6.472656 31.238281 6.542969 30.917969 C 6.667969 30.347656 7.1875 29.964844 7.679688 29.652344 C 7.925781 29.492188 8.210938 29.25 8.128906 28.96875 C 8.054688 28.71875 7.742188 28.648438 7.535156 28.492188 C 7.390625 28.382812 7.296875 28.234375 7.253906 28.058594 C 7.214844 27.878906 7.234375 27.707031 7.3125 27.542969 C 7.476562 27.230469 7.882812 27.066406 8.183594 27.050781 C 8.554688 27.035156 8.898438 26.933594 9.214844 26.746094 C 9.535156 26.554688 9.785156 26.296875 9.972656 25.976562 C 9.730469 25.8125 9.449219 25.71875 9.1875 25.585938 C 8.929688 25.449219 8.679688 25.253906 8.585938 24.976562 C 8.492188 24.699219 8.628906 24.335938 8.914062 24.269531 C 9.328125 24.171875 9.691406 24.71875 10.054688 24.617188 C 9.816406 24.445312 9.574219 24.265625 9.425781 24.015625 C 9.277344 23.761719 9.25 23.417969 9.433594 23.191406 C 9.574219 23.019531 9.8125 22.953125 10.03125 22.960938 C 10.253906 22.984375 10.46875 23.042969 10.671875 23.140625 C 11.214844 23.359375 11.757812 23.609375 12.339844 23.679688 C 12.921875 23.746094 13.566406 23.59375 13.933594 23.132812 C 13.714844 22.992188 13.484375 22.839844 13.378906 22.605469 C 13.269531 22.367188 13.355469 22.027344 13.605469 21.957031 C 13.71875 21.9375 13.832031 21.945312 13.945312 21.984375 C 14.289062 22.066406 14.636719 22.152344 14.882812 22.34375 C 15.738281 22.59375 16.644531 22.234375 17.445312 21.839844 C 18.246094 21.445312 19.082031 21 19.980469 20.972656 C 18.617188 20.574219 17.160156 20.945312 15.742188 20.867188 C 14.015625 20.773438 12.402344 20.019531 10.839844 19.277344 L 5.886719 16.929688 C 5.445312 16.71875 4.9375 16.503906 4.476562 16.675781 C 3.902344 16.894531 3.695312 17.597656 3.660156 18.207031 C 3.515625 20.535156 4.675781 22.722656 5.148438 25.003906 C 5.625 27.28125 5.589844 29.652344 5.296875 32.003906 Z M 22.039062 21.007812 C 22.351562 21.878906 23.285156 22.410156 24.207031 22.503906 C 25.128906 22.597656 26.046875 22.335938 26.925781 22.050781 C 27.226562 21.953125 27.546875 21.855469 27.847656 21.941406 C 28.148438 22.027344 28.386719 22.394531 28.226562 22.664062 C 28.167969 22.765625 28.058594 22.851562 28.070312 22.96875 C 28.089844 23.109375 28.261719 23.160156 28.398438 23.171875 C 29.074219 23.222656 29.710938 23.09375 30.3125 22.785156 C 30.582031 22.644531 30.835938 22.472656 31.128906 22.386719 C 31.417969 22.300781 31.769531 22.328125 31.980469 22.546875 C 32.226562 22.808594 32.1875 23.226562 32.078125 23.570312 C 31.875 24.214844 31.515625 24.757812 31 25.195312 C 30.851562 25.320312 30.6875 25.4375 30.578125 25.597656 C 30.46875 25.757812 30.425781 25.980469 30.527344 26.148438 C 30.726562 26.472656 31.21875 26.316406 31.597656 26.378906 C 31.960938 26.441406 32.183594 26.648438 32.261719 27.007812 C 32.34375 27.367188 32.230469 27.652344 31.929688 27.863281 C 31.757812 27.980469 31.507812 28.085938 31.515625 28.292969 C 31.519531 28.496094 31.761719 28.585938 31.933594 28.695312 C 32.460938 29.023438 32.492188 29.761719 32.683594 30.355469 C 32.949219 31.175781 33.648438 31.84375 34.394531 32.042969 C 34.078125 31.585938 34.007812 30.996094 34.078125 30.441406 C 34.144531 29.890625 34.34375 29.363281 34.527344 28.839844 C 35.84375 25.132812 36.6875 21.320312 37.058594 17.402344 C 37.136719 17.152344 37.183594 16.894531 37.199219 16.632812 C 37.214844 16.363281 37.140625 16.117188 36.972656 15.902344 C 36.742188 15.628906 36.355469 15.539062 35.992188 15.53125 C 35.078125 15.519531 34.21875 15.9375 33.394531 16.355469 C 30.621094 18.238281 27.660156 19.757812 24.515625 20.917969 C 23.691406 21 22.867188 21.03125 22.039062 21.007812 Z M 97.664062 63.503906 C 96.886719 65.664062 94.648438 66.941406 92.457031 67.628906 C 90.265625 68.3125 87.921875 68.613281 85.875 69.640625 C 83.503906 69.53125 81.339844 70.859375 79.113281 71.6875 C 76.613281 72.613281 73.914062 72.925781 71.246094 72.859375 C 70.945312 72.851562 70.632812 72.839844 70.359375 72.957031 C 70.082031 73.074219 69.855469 73.363281 69.789062 73.921875 C 67.125 73.34375 64.3125 73.457031 61.5625 74.300781 C 59.269531 74.800781 57.074219 75.578125 54.976562 76.632812 C 53.980469 77.132812 52.96875 77.742188 52.5 78.703125 C 51.65625 79.207031 50.9375 79.851562 50.335938 80.628906 C 50.097656 80.933594 49.878906 81.269531 49.820312 81.652344 C 49.757812 82.03125 49.894531 82.464844 50.234375 82.578125 C 49.800781 83.332031 49.570312 84.144531 49.550781 85.015625 C 49.539062 85.207031 49.5625 85.394531 49.617188 85.582031 C 49.683594 85.761719 49.8125 85.925781 50 85.894531 C 50.035156 87.722656 50.488281 89.441406 51.359375 91.046875 C 51.703125 91.679688 52.113281 92.28125 52.664062 92.746094 C 53.285156 93.277344 54.003906 93.535156 54.820312 93.523438 C 55.4375 94.152344 56.160156 94.617188 56.988281 94.914062 C 57.136719 94.980469 57.292969 95.003906 57.453125 94.984375 C 57.546875 94.96875 57.625 94.921875 57.683594 94.84375 C 57.742188 94.769531 57.765625 94.683594 57.757812 94.585938 C 58.382812 95.078125 59.019531 95.574219 59.757812 95.871094 C 60.496094 96.164062 61.363281 96.238281 61.945312 95.78125 C 62.269531 96.203125 62.832031 96.390625 63.363281 96.390625 C 63.898438 96.386719 64.414062 96.222656 65.078125 96.152344 C 66.160156 96.070312 67.246094 95.910156 68.257812 95.515625 C 69.265625 95.121094 70.203125 94.476562 70.804688 93.574219 C 71.40625 92.671875 71.640625 91.496094 71.316406 90.539062 C 71.007812 89.773438 70.902344 88.984375 71 88.164062 C 70.988281 88.273438 71.101562 88.363281 71.210938 88.367188 C 71.320312 88.359375 71.421875 88.320312 71.507812 88.25 C 71.863281 88.003906 72.152344 87.695312 72.371094 87.324219 C 73.359375 87.160156 74.300781 86.714844 75.183594 86.082031 C 78.425781 85.019531 81.957031 84.867188 85.417969 85.664062 C 85.578125 85.992188 85.929688 86.203125 86.289062 86.28125 C 86.648438 86.359375 87.023438 86.320312 87.390625 86.261719 C 89.023438 86 90.589844 85.34375 91.84375 84.289062 C 93.203125 84.316406 94.53125 84.109375 95.820312 83.671875 C 97.109375 83.234375 98.285156 82.589844 99.347656 81.738281 C 99.507812 81.996094 99.851562 82.097656 100.152344 82.054688 C 100.453125 82.011719 100.722656 81.847656 100.976562 81.679688 C 102.699219 80.550781 104.148438 79.011719 105.347656 77.199219 C 105.351562 77.386719 105.574219 77.503906 105.753906 77.464844 C 105.9375 77.425781 106.074219 77.28125 106.195312 77.140625 C 106.597656 76.679688 106.9375 76.15625 107.125 75.605469 C 108.851562 73.121094 109.863281 70.140625 110.078125 67.078125 C 110.164062 67.222656 110.382812 67.234375 110.523438 67.144531 C 110.667969 67.050781 110.742188 66.886719 110.796875 66.726562 C 110.972656 66.210938 110.96875 65.652344 110.9375 64.84375 L 109.867188 56.066406 C 109.820312 55.664062 109.769531 55.253906 109.597656 54.890625 C 109.425781 54.523438 109.113281 54.199219 108.714844 54.125 C 108.316406 54.050781 107.855469 54.296875 107.785156 54.695312 C 107.734375 54.984375 107.859375 55.351562 107.628906 55.535156 C 107.347656 55.757812 106.976562 55.402344 106.78125 55.097656 C 106.210938 54.210938 105.503906 53.445312 104.664062 52.800781 C 104.355469 52.5625 104.011719 52.335938 103.625 52.273438 C 103.238281 52.210938 102.796875 52.351562 102.605469 52.691406 C 102.46875 52.9375 102.480469 53.230469 102.496094 53.511719 C 102.558594 54.539062 102.617188 55.566406 102.554688 56.589844 C 102.511719 56.824219 102.402344 57.015625 102.21875 57.164062 C 102.039062 57.316406 101.828125 57.390625 101.589844 57.390625 C 101.121094 57.371094 100.746094 57.011719 100.324219 56.800781 C 99.953125 56.609375 99.453125 56.546875 99.144531 56.832031 C 98.9375 57.023438 98.871094 57.332031 98.902344 57.609375 C 98.933594 57.875 99.027344 58.109375 99.191406 58.316406 C 99.085938 58.511719 98.824219 58.539062 98.605469 58.527344 C 98.382812 58.515625 98.132812 58.503906 97.980469 58.660156 C 97.75 58.894531 97.925781 59.277344 98.074219 59.570312 C 98.78125 60.972656 98.484375 62.8125 97.664062 63.503906 Z M 97.664062 63.503906 " fill-opacity="1" fill-rule="nonzero"/></g><path fill="#a7cbdd" d="M 12.59375 34.046875 C 12.535156 33.722656 12.574219 33.414062 12.710938 33.117188 C 12.972656 32.507812 13.421875 32.121094 14.066406 31.964844 C 14.667969 31.828125 15.339844 32.03125 15.738281 32.496094 C 16.140625 32.964844 16.230469 33.683594 15.929688 34.21875 C 15.679688 34.660156 15.195312 34.945312 14.695312 35.019531 C 14.195312 35.097656 13.675781 34.984375 13.214844 34.773438 C 12.886719 34.636719 12.679688 34.390625 12.59375 34.046875 Z M 23.742188 34.75 C 24.417969 35.003906 25.066406 34.949219 25.683594 34.574219 C 26.089844 34.328125 26.425781 33.914062 26.441406 33.4375 C 26.457031 32.960938 26.144531 32.519531 25.738281 32.269531 C 25.25 31.96875 24.730469 31.90625 24.183594 32.085938 C 23.632812 32.273438 23.265625 32.644531 23.082031 33.195312 C 22.917969 33.707031 22.988281 34.457031 23.742188 34.75 Z M 23.742188 34.75 " fill-opacity="1" fill-rule="nonzero"/><g clip-path="url(#e498d36685)"><path fill="#29272b" d="M 6.402344 41.15625 C 6.359375 42.125 6.4375 42.640625 6.765625 43.3125 C 6.863281 43.621094 6.757812 43.929688 6.390625 43.875 C 6.113281 43.847656 5.925781 43.597656 5.835938 43.351562 C 5.589844 42.648438 5.550781 41.882812 5.621094 41.144531 C 5.679688 40.8125 5.667969 40.261719 6.109375 40.234375 C 6.691406 40.25 6.363281 41.183594 6.402344 41.15625 Z M 8.375 45.765625 C 8.210938 45.121094 7.753906 44.503906 7.617188 44.101562 C 7.394531 43.519531 7.4375 43.09375 7.355469 42.503906 C 7.3125 42.390625 7.234375 42.328125 7.113281 42.320312 C 6.960938 42.335938 6.871094 42.417969 6.835938 42.566406 C 6.769531 43.253906 6.859375 43.921875 7.105469 44.566406 C 7.511719 45.421875 7.980469 46.617188 7.574219 47.664062 C 7.527344 47.808594 6.648438 48.910156 6.464844 49.460938 C 6.355469 49.707031 6.246094 49.996094 6.386719 50.253906 C 6.441406 50.367188 6.566406 50.496094 6.703125 50.449219 C 6.996094 50.34375 7.09375 50.039062 7.1875 49.773438 C 6.960938 50.160156 7.875 48.585938 7.652344 48.980469 C 8.035156 48.507812 8.445312 48.023438 8.515625 47.394531 C 8.589844 46.851562 8.492188 46.292969 8.375 45.765625 Z M 7.878906 49.320312 C 7.828125 49.5 7.761719 49.667969 7.675781 49.832031 C 7.226562 50.703125 6.46875 51.605469 6.601562 52.640625 C 6.644531 52.792969 6.738281 52.898438 6.886719 52.957031 C 7.027344 52.988281 7.160156 52.878906 7.238281 52.773438 C 7.464844 52.398438 7.46875 51.613281 7.679688 51.285156 C 7.847656 50.871094 9.09375 49.046875 8.15625 49.03125 C 8.074219 49.0625 7.898438 49.148438 7.878906 49.320312 Z M 36.179688 40.195312 C 36.484375 39.75 36.511719 39.148438 36.574219 38.625 C 36.59375 37.707031 36.191406 36.855469 35.898438 36 C 35.78125 35.617188 35.550781 34.863281 35.035156 35.257812 C 34.851562 35.429688 34.910156 35.703125 35 35.914062 C 35.3125 36.890625 35.738281 37.824219 35.703125 38.578125 C 35.726562 38.828125 35.542969 39.332031 35.488281 39.875 C 35.5 40.289062 35.867188 40.546875 36.179688 40.195312 Z M 34.875 38.941406 C 34.742188 38.984375 34.660156 39.074219 34.628906 39.210938 C 34.609375 39.941406 34.628906 40.675781 34.578125 41.410156 C 34.582031 41.882812 34.320312 42.699219 34.148438 43.101562 C 34.121094 43.226562 34.125 43.351562 34.160156 43.472656 C 34.191406 43.550781 34.234375 43.648438 34.324219 43.65625 C 34.496094 43.671875 34.664062 43.5625 34.765625 43.429688 C 35.136719 42.761719 35.269531 41.964844 35.292969 41.207031 C 35.300781 40.539062 35.335938 39.867188 35.273438 39.203125 C 35.226562 39.035156 35.054688 38.890625 34.875 38.941406 Z M 12.21875 53.902344 C 12.421875 54.308594 13.214844 54.667969 13.265625 54.078125 C 13.101562 53.429688 12.722656 53.453125 12.503906 52.882812 C 12.199219 52.230469 12.023438 51.109375 12.003906 50.058594 C 12.019531 49.769531 11.984375 49.289062 11.582031 49.363281 C 11.296875 49.449219 11.308594 49.773438 11.316406 50.015625 C 11.347656 51.339844 11.386719 52.800781 12.21875 53.902344 Z M 13.941406 51.929688 C 13.921875 51.773438 13.746094 51.597656 13.585938 51.683594 C 13.429688 51.777344 13.429688 51.980469 13.472656 52.136719 C 13.6875 52.949219 14.417969 54.003906 15.34375 53.972656 C 15.441406 53.957031 15.527344 53.910156 15.601562 53.839844 C 15.558594 53.6875 15.425781 53.574219 15.300781 53.488281 C 14.960938 53.359375 14.667969 53.15625 14.425781 52.878906 C 14.1875 52.601562 14.023438 52.285156 13.941406 51.929688 Z M 16.121094 52.0625 C 16.042969 51.9375 15.847656 51.832031 15.71875 51.941406 C 15.5625 52.121094 15.714844 52.351562 15.851562 52.492188 C 16.128906 52.773438 16.472656 53.269531 16.925781 53.0625 C 16.804688 52.652344 16.296875 52.328125 16.121094 52.0625 Z M 20.277344 51.082031 C 20.140625 50.953125 19.804688 50.203125 19.398438 50.664062 C 19.308594 50.835938 19.332031 50.992188 19.464844 51.132812 C 20.292969 52.355469 21.695312 53.332031 23.21875 53.238281 C 23.4375 53.171875 23.679688 52.96875 23.453125 52.753906 C 23.144531 52.4375 22.6875 52.582031 22.121094 52.375 C 21.488281 52.234375 20.707031 51.609375 20.277344 51.082031 Z M 25.339844 52.75 C 25.421875 52.675781 25.449219 52.585938 25.421875 52.480469 C 25.140625 51.878906 24.820312 52.074219 24.335938 51.710938 C 23.992188 51.578125 23.667969 50.882812 23.164062 51.425781 C 22.910156 51.957031 23.605469 52.261719 23.960938 52.503906 C 24.375 52.699219 24.910156 53.109375 25.339844 52.75 Z M 28.746094 50.941406 C 29.355469 51.195312 30.488281 52.035156 30.9375 51.1875 C 30.945312 51.148438 30.949219 51.113281 30.949219 51.078125 C 30.90625 51.035156 30.863281 51.003906 30.808594 50.980469 C 29.972656 50.839844 28.820312 50.304688 28.058594 49.714844 C 27.789062 49.527344 27.414062 48.992188 27.101562 49.398438 C 27.039062 49.523438 27.042969 49.644531 27.117188 49.765625 C 27.570312 50.261719 28.164062 50.617188 28.746094 50.941406 Z M 32.320312 50.613281 C 32.335938 50.117188 31.765625 49.953125 31.4375 49.679688 C 31.40625 49.644531 31.148438 49.417969 31.082031 49.402344 C 30.992188 49.359375 30.902344 49.351562 30.808594 49.375 C 30.714844 49.402344 30.640625 49.457031 30.589844 49.539062 C 30.371094 49.988281 30.945312 50.242188 31.242188 50.457031 C 31.535156 50.652344 32.039062 50.988281 32.320312 50.613281 Z M 29.289062 42.328125 C 29.105469 42.21875 28.867188 42.25 28.679688 42.339844 C 27.800781 42.824219 27.300781 43.113281 26.304688 43.28125 C 25.714844 43.332031 24.023438 43.472656 23.136719 43.886719 C 21.757812 44.933594 19.816406 45.472656 18.265625 44.488281 C 18.027344 44.308594 17.65625 44.070312 17.441406 44.410156 C 17.324219 44.617188 17.433594 44.867188 17.628906 44.984375 C 18.226562 45.441406 18.898438 45.710938 19.644531 45.796875 C 20.699219 45.964844 21.796875 45.714844 22.734375 45.222656 C 23.238281 44.898438 23.574219 44.546875 23.753906 44.511719 C 25.125 43.921875 27.15625 44.253906 28.757812 43.035156 C 29.015625 42.878906 29.3125 42.664062 29.289062 42.328125 Z M 11.109375 42.8125 C 11.0625 42.902344 11.054688 42.992188 11.078125 43.089844 C 11.105469 43.183594 11.15625 43.257812 11.238281 43.3125 C 12.628906 44.371094 14.527344 44.367188 16.195312 44.253906 C 16.410156 44.21875 16.632812 44.066406 16.695312 43.855469 C 16.625 43.769531 16.539062 43.710938 16.433594 43.679688 C 15.792969 43.601562 15.121094 43.699219 14.46875 43.632812 C 13.574219 43.578125 12.804688 43.460938 11.984375 42.988281 C 11.734375 42.863281 11.433594 42.425781 11.109375 42.8125 Z M 19.632812 40.8125 C 19.675781 40.757812 19.71875 40.703125 19.765625 40.648438 C 20.355469 41.203125 21.058594 41.453125 21.867188 41.390625 C 22.296875 41.347656 22.945312 41.25 22.984375 40.714844 C 22.851562 40.175781 22.355469 40.394531 21.882812 40.472656 C 21.859375 40.480469 21.285156 40.492188 20.871094 40.355469 C 20.617188 40.355469 20.03125 39.675781 19.609375 39.777344 C 19.453125 39.804688 19.355469 39.894531 19.316406 40.046875 C 19.277344 40.0625 19.117188 40.371094 19.046875 40.390625 C 18.5625 40.832031 17.929688 40.84375 17.058594 40.488281 C 16.871094 40.4375 16.65625 40.539062 16.605469 40.71875 C 16.53125 41.210938 17.210938 41.304688 17.566406 41.398438 C 18.296875 41.519531 19.128906 41.40625 19.632812 40.8125 Z M 25.5 55.378906 C 25.722656 55.296875 26.078125 55.15625 25.945312 54.863281 C 25.851562 54.738281 25.734375 54.699219 25.585938 54.738281 C 24.203125 55.300781 22.8125 55.851562 21.371094 56.234375 C 19.613281 56.804688 17.421875 56.332031 15.40625 56.511719 C 15.175781 56.625 15.074219 56.875 15.300781 57.0625 C 15.421875 57.167969 15.5625 57.226562 15.726562 57.238281 C 16.550781 57.3125 17.378906 57.269531 18.207031 57.257812 C 20.773438 57.351562 23.179688 56.363281 25.5 55.378906 Z M 15.25 58.324219 C 15.734375 58.242188 18.109375 58.398438 17.765625 57.617188 C 17.65625 57.453125 17.507812 57.402344 17.320312 57.457031 C 16.296875 57.667969 14.914062 57.640625 13.628906 57.621094 C 13.441406 57.648438 13.082031 57.847656 13.292969 58.050781 C 13.722656 58.464844 14.675781 58.300781 15.25 58.324219 Z M 22.191406 62.851562 C 20.195312 63.011719 17.472656 63.453125 15.414062 63.710938 C 13.546875 63.925781 12.070312 64.269531 10.203125 64.429688 C 8.800781 64.496094 7.609375 64.703125 6.429688 64.335938 C 5.980469 64.199219 5.765625 63.628906 5.878906 63.484375 C 6.121094 63.214844 6.410156 63 6.742188 62.84375 C 6.960938 62.773438 7.113281 62.476562 6.933594 62.300781 C 6.550781 61.988281 5.910156 62.574219 5.605469 62.8125 C 5.304688 63 5.152344 63.269531 5.140625 63.621094 C 4.890625 63.460938 4.757812 63.492188 4.667969 63.414062 C 4.570312 63.371094 4.480469 63.3125 4.402344 63.238281 L 4.386719 63.222656 C 4.269531 63.042969 4.210938 62.84375 4.21875 62.628906 C 4.21875 62.269531 4.363281 61.929688 4.570312 61.835938 C 5.019531 61.546875 5.09375 61.515625 5.574219 61.410156 C 5.8125 61.386719 6.023438 61.105469 5.886719 60.882812 C 5.621094 60.496094 5.019531 60.800781 4.667969 60.9375 C 4.308594 61.097656 3.945312 61.332031 3.722656 61.660156 C 3.65625 61.089844 4.089844 60.417969 4.613281 60.089844 C 5.78125 59.542969 7.007812 59.296875 8.296875 59.351562 C 9.433594 59.382812 10.566406 59.199219 11.6875 58.992188 C 12.0625 58.925781 12.625 58.855469 12.519531 58.359375 C 12.335938 57.84375 11.742188 58.132812 11.359375 58.179688 C 10.230469 58.375 9.578125 58.492188 8.347656 58.46875 C 7.996094 58.453125 7.644531 58.457031 7.296875 58.484375 C 7.390625 58.0625 7.199219 57.5 6.886719 57.242188 C 6.589844 56.988281 5.347656 56.144531 5.238281 56.890625 C 5.253906 57.253906 5.703125 57.300781 5.949219 57.460938 C 6.308594 57.683594 6.34375 57.707031 6.414062 57.972656 C 6.414062 57.996094 6.421875 58.03125 6.421875 58.054688 C 6.421875 58.089844 6.417969 58.121094 6.414062 58.15625 C 6.414062 58.175781 6.414062 58.191406 6.40625 58.207031 L 6.40625 58.222656 C 6.40625 58.238281 6.398438 58.261719 6.398438 58.277344 C 6.394531 58.285156 6.390625 58.292969 6.390625 58.300781 C 6.371094 58.402344 6.371094 58.5 6.390625 58.597656 C 5.949219 58.683594 5.511719 58.796875 5.085938 58.933594 C 4.921875 58.984375 4.765625 59.042969 4.613281 59.109375 C 4.570312 59.046875 4.519531 58.984375 4.46875 58.925781 C 4.226562 58.742188 4.082031 58.636719 3.9375 58.375 C 3.933594 58.363281 3.929688 58.351562 3.929688 58.34375 C 3.90625 58.277344 3.890625 58.199219 3.875 58.148438 C 3.769531 56.929688 4.324219 55.859375 5.332031 55.105469 C 5.761719 54.773438 6.246094 54.566406 6.785156 54.488281 C 6.808594 54.480469 6.839844 54.480469 6.871094 54.472656 C 6.832031 54.695312 6.808594 54.917969 6.800781 55.144531 C 6.703125 56.050781 7.351562 56.796875 7.808594 57.515625 C 7.9375 57.695312 8.097656 57.84375 8.289062 57.957031 C 8.289062 57.957031 8.289062 57.964844 8.320312 57.988281 L 8.328125 57.996094 C 8.433594 58.15625 8.5625 58.300781 8.746094 58.359375 C 8.851562 58.398438 8.980469 58.414062 9.058594 58.339844 C 9.132812 58.25 9.160156 58.144531 9.148438 58.027344 C 9.148438 57.835938 9.035156 57.683594 8.921875 57.539062 L 8.914062 57.53125 C 8.90625 57.515625 8.890625 57.507812 8.882812 57.492188 C 8.777344 57.347656 8.632812 57.242188 8.53125 57.101562 C 8.53125 57.066406 7.695312 55.640625 7.738281 55.59375 C 7.730469 55.570312 7.730469 55.5625 7.71875 55.554688 C 7.714844 55.527344 7.707031 55.503906 7.695312 55.480469 C 7.511719 54.785156 7.816406 53.316406 8.210938 52.5625 C 8.394531 52.125 8.667969 51.691406 8.777344 51.226562 C 8.785156 51.078125 8.71875 50.976562 8.578125 50.921875 C 8.195312 50.859375 8.113281 51.324219 7.960938 51.578125 C 7.558594 52.316406 7.207031 53.085938 7 53.894531 C 6.972656 53.878906 6.941406 53.875 6.910156 53.878906 C 5.925781 53.976562 5.050781 54.503906 4.371094 55.207031 C 3.394531 56.105469 2.417969 57.933594 3.363281 59.152344 C 3.507812 59.308594 3.675781 59.441406 3.867188 59.542969 C 3.527344 59.804688 3.265625 60.128906 3.089844 60.519531 C 2.761719 61.144531 2.632812 62.261719 3.378906 62.628906 C 3.398438 62.636719 3.421875 62.636719 3.441406 62.636719 C 3.410156 63.222656 3.578125 63.816406 4.148438 64.070312 C 4.460938 64.246094 4.949219 64.390625 5.253906 64.175781 C 5.425781 64.589844 5.722656 64.871094 6.140625 65.023438 C 7.015625 65.289062 7.953125 65.296875 8.859375 65.191406 C 10.636719 65.121094 11.613281 64.847656 13.320312 64.601562 C 14.265625 64.429688 14.875 64.328125 15.894531 64.28125 C 17.238281 64.101562 18.457031 63.941406 19.882812 63.796875 C 20.597656 63.628906 21.40625 63.71875 22.265625 63.375 C 22.367188 63.289062 22.449219 63.1875 22.511719 63.070312 C 22.429688 62.964844 22.320312 62.890625 22.191406 62.851562 Z M 26.34375 62.445312 C 26.027344 62.167969 25.628906 62.527344 25.292969 62.613281 C 24.492188 62.925781 23.675781 63.183594 22.839844 63.390625 C 22.480469 63.589844 22.5 63.929688 22.902344 64.054688 C 23.3125 64.152344 23.734375 63.949219 24.125 63.832031 C 24.832031 63.574219 25.535156 63.304688 26.230469 63.007812 C 26.421875 62.902344 26.515625 62.613281 26.34375 62.445312 Z M 28.613281 62.753906 C 27.714844 62.882812 26.882812 63.285156 26.003906 63.488281 C 25.707031 63.578125 25.566406 63.457031 25.214844 63.761719 C 24.921875 64.058594 25.371094 64.304688 25.648438 64.289062 C 26.625 64.179688 27.515625 63.710938 28.464844 63.488281 C 28.78125 63.441406 29.378906 63.367188 29.179688 62.910156 C 29.0625 62.703125 28.816406 62.707031 28.613281 62.753906 Z M 42.898438 60.226562 C 42.5 60.027344 42.238281 60.507812 41.980469 60.734375 C 41.554688 61.113281 41.183594 61.46875 40.84375 61.679688 C 40.980469 61.578125 41.054688 61.441406 41.0625 61.269531 C 41.058594 61.175781 40.957031 61.132812 40.878906 61.101562 C 40.269531 61.007812 39.964844 61.449219 39.375 61.574219 C 37.167969 62.203125 34.917969 62.613281 32.625 62.8125 C 31.886719 62.863281 31.140625 62.824219 30.402344 62.839844 C 30.234375 62.878906 30.085938 63.046875 30.136719 63.222656 C 30.207031 63.464844 30.472656 63.5 30.691406 63.492188 C 32.886719 63.628906 35.054688 63.238281 37.203125 62.835938 C 38.261719 62.703125 39.277344 62.429688 40.257812 62.011719 C 40.296875 61.992188 40.34375 61.972656 40.382812 61.953125 C 40.332031 61.992188 40.296875 62.039062 40.269531 62.09375 C 40.027344 62.582031 40.800781 62.714844 41.183594 62.433594 C 41.792969 62.011719 42.328125 61.488281 42.835938 60.949219 C 43.058594 60.78125 43.183594 60.402344 42.898438 60.226562 Z M 44.121094 60.421875 C 43.789062 60.375 43.71875 60.800781 43.53125 60.988281 C 43.367188 61.25 42.847656 61.597656 42.828125 62.03125 C 43.335938 62.121094 43.644531 61.585938 43.933594 61.253906 C 44.078125 61.035156 44.460938 60.621094 44.121094 60.421875 Z M 45.902344 47.832031 C 45.75 47.9375 45.699219 48.082031 45.753906 48.261719 C 46.1875 49.417969 46.554688 50.597656 46.847656 51.796875 C 47.035156 52.410156 46.832031 52.726562 47.222656 53.234375 C 47.367188 53.386719 47.539062 53.328125 47.640625 53.160156 C 47.808594 52.9375 47.738281 52.65625 47.707031 52.402344 C 47.453125 50.886719 46.929688 49.425781 46.378906 47.996094 C 46.292969 47.835938 46.070312 47.730469 45.902344 47.832031 Z M 52.617188 62.007812 C 52.910156 61.789062 52.574219 61.523438 52.332031 61.46875 C 49.859375 61.398438 47.746094 61.554688 45.484375 60.578125 C 45.464844 60.566406 45.441406 60.554688 45.417969 60.546875 C 45.867188 59.941406 46.160156 59.183594 46.394531 58.492188 C 47.140625 56.675781 46.921875 54.28125 46.632812 52.710938 C 46.59375 52.535156 46.414062 52.386719 46.238281 52.433594 C 46.066406 52.496094 45.988281 52.617188 45.996094 52.800781 C 46.101562 53.574219 46.1875 54.058594 46.246094 54.929688 C 46.363281 56.175781 46.152344 57.148438 45.757812 58.34375 C 45.4375 59.351562 45.015625 60.238281 44.121094 61.023438 C 44.03125 61.148438 43.988281 61.289062 44.003906 61.441406 C 44.128906 61.488281 44.253906 61.496094 44.382812 61.457031 C 44.625 61.328125 44.84375 61.171875 45.039062 60.976562 C 45.070312 61.023438 45.113281 61.0625 45.160156 61.089844 C 47.011719 61.980469 49.105469 62.085938 51.125 62.164062 C 51.613281 62.125 52.195312 62.320312 52.617188 62.007812 Z M 65.511719 70.511719 C 65.554688 70.675781 65.613281 70.832031 65.695312 70.980469 C 65.957031 71.582031 66.539062 71.898438 67.164062 72.003906 C 68.0625 72.15625 69.015625 72.066406 69.832031 71.636719 C 69.933594 71.582031 70.015625 71.507812 70.078125 71.414062 C 70.144531 71.492188 70.230469 71.53125 70.332031 71.539062 C 72.4375 71.703125 74.550781 71.808594 76.648438 71.492188 C 77.539062 71.386719 78.511719 71.296875 79.503906 71.167969 C 79.226562 71.289062 78.976562 71.453125 78.753906 71.65625 C 78.636719 71.820312 78.609375 72.078125 78.820312 72.171875 C 79.425781 72.367188 79.628906 72.003906 80.140625 71.851562 C 81.613281 71.171875 82.535156 70.625 84.121094 70.316406 C 84.316406 70.253906 85.496094 70.441406 85.316406 69.726562 C 85.210938 69.351562 84.785156 69.382812 84.472656 69.402344 C 84.230469 69.421875 83.988281 69.453125 83.75 69.503906 C 83.671875 69.488281 83.59375 69.488281 83.519531 69.496094 C 81.390625 70.167969 79.671875 70.460938 77.546875 70.660156 C 75.347656 71.070312 73.136719 71.183594 70.910156 71.003906 C 70.699219 71.007812 70.339844 70.929688 70.140625 71.03125 C 70.128906 71.007812 70.132812 70.980469 70.113281 70.957031 C 69.84375 70.726562 69.488281 70.867188 69.203125 70.992188 C 68.996094 71.167969 67.660156 71.324219 67.378906 71.230469 C 66.566406 71.097656 66.472656 70.980469 66.214844 70.449219 C 66.175781 70.292969 66.097656 70.109375 65.964844 70.023438 C 65.964844 69.992188 65.957031 69.960938 65.949219 69.929688 C 65.761719 69.636719 65.394531 69.675781 65.09375 69.667969 C 64.667969 69.640625 64.816406 69.664062 64.496094 69.589844 C 64.433594 69.578125 64.320312 69.535156 64.277344 69.523438 C 64.25 69.507812 64.222656 69.492188 64.199219 69.472656 L 64.195312 69.472656 C 63.953125 69.222656 63.9375 69.125 63.910156 68.777344 C 63.882812 68.777344 64.042969 68.421875 63.972656 68.171875 C 63.984375 68.121094 63.976562 68.070312 63.953125 68.023438 C 63.679688 67.515625 63.546875 67.671875 63.511719 67.40625 C 63.460938 67.253906 63.597656 66.691406 63.714844 66.621094 C 63.886719 66.417969 64.375 66.351562 64.609375 66.167969 C 64.746094 66.164062 64.839844 66.097656 64.886719 65.964844 C 64.90625 65.902344 65.019531 65.589844 65.03125 65.535156 C 65.039062 65.523438 65.042969 65.511719 65.050781 65.5 C 65.542969 64.882812 67.339844 64.148438 68.761719 64.277344 C 69.816406 64.332031 71.332031 64.796875 72.726562 64.664062 C 76.246094 64.300781 79.882812 63.957031 82.980469 62.109375 C 83.148438 62.011719 83.242188 61.761719 83.089844 61.609375 C 82.984375 61.515625 82.863281 61.488281 82.730469 61.527344 C 82.203125 61.761719 81.007812 62.320312 80.796875 62.414062 C 79.65625 62.917969 78.398438 63.003906 77.195312 63.292969 C 75.585938 63.554688 73.695312 63.878906 71.789062 63.886719 C 70.761719 63.855469 69.71875 63.417969 68.453125 63.40625 C 67.105469 63.394531 65.722656 63.882812 64.644531 64.679688 C 64.597656 64.722656 64.550781 64.769531 64.507812 64.820312 C 64.308594 64.648438 64.042969 64.5625 63.820312 64.425781 C 63.554688 64.277344 63.316406 63.9375 63.039062 63.578125 C 62.457031 62.730469 61.976562 61.929688 62 61.011719 C 62.023438 60.582031 62.085938 60.535156 62.085938 60.113281 C 62.058594 59.996094 61.964844 59.878906 61.835938 59.878906 C 61.378906 59.949219 61.5 60.699219 61.402344 61.050781 C 61.402344 61.46875 61.460938 61.882812 61.578125 62.285156 C 61.546875 62.285156 61.519531 62.289062 61.492188 62.296875 C 59.714844 63 58.300781 63.03125 56.429688 63.039062 C 54.683594 63.058594 52.660156 63.035156 51.066406 62.789062 C 50.964844 62.777344 50.863281 62.761719 50.761719 62.746094 C 50.597656 62.707031 50.355469 62.734375 50.328125 62.933594 C 50.332031 63.0625 50.453125 63.15625 50.570312 63.183594 C 51.730469 63.367188 52.894531 63.523438 54.066406 63.566406 C 56.433594 63.703125 58.882812 63.980469 61.183594 63.25 C 61.390625 63.179688 61.636719 63.113281 61.828125 62.992188 C 62.164062 63.761719 62.617188 64.457031 63.183594 65.074219 C 63.457031 65.261719 63.800781 65.523438 64.144531 65.574219 C 64.144531 65.589844 64.152344 65.605469 64.152344 65.625 C 64.085938 65.644531 64.019531 65.671875 63.957031 65.695312 C 63.628906 65.835938 63.273438 65.992188 63.070312 66.300781 C 62.6875 66.871094 62.601562 67.957031 63.234375 68.320312 C 63.214844 68.378906 63.195312 68.441406 63.179688 68.503906 C 63.011719 69.171875 63.304688 69.984375 63.941406 70.296875 C 64.214844 70.457031 65 70.617188 65.511719 70.511719 Z M 63.375 47.992188 C 61.089844 50.277344 59.261719 53.875 58.910156 56.867188 C 58.796875 57.675781 58.679688 58.5 58.796875 59.3125 C 58.84375 59.582031 58.847656 59.894531 59.066406 60.09375 C 59.398438 60.402344 59.617188 60.09375 59.621094 59.738281 C 59.097656 57.261719 59.777344 54.441406 60.953125 52.0625 C 61.570312 50.746094 62.402344 49.554688 63.226562 48.363281 C 63.324219 48.257812 63.371094 48.136719 63.375 47.992188 Z M 60.78125 57.648438 C 60.289062 57.6875 60.285156 58.324219 60.171875 58.691406 C 60.117188 59.398438 59.953125 60.164062 60.160156 60.847656 C 60.398438 61.261719 60.929688 61.28125 60.941406 60.71875 C 60.945312 60.640625 60.9375 60.5625 60.921875 60.488281 C 60.894531 59.925781 60.914062 59.367188 60.980469 58.808594 C 61.050781 58.425781 61.40625 57.722656 60.78125 57.648438 Z M 98.789062 59.988281 C 98.554688 59.300781 98.25 58.648438 97.871094 58.027344 C 97.75 57.832031 97.457031 57.753906 97.292969 57.921875 C 97.179688 58.046875 97.15625 58.1875 97.226562 58.34375 C 97.613281 59.050781 97.757812 59.335938 98.003906 60.058594 C 98.34375 60.9375 98.15625 61.941406 97.914062 62.460938 C 97.425781 64.121094 95.925781 65.230469 94.105469 66.3125 C 93.550781 66.707031 93.851562 67.238281 94.398438 67.105469 C 97.035156 65.894531 99.941406 63.148438 98.789062 59.988281 Z M 86.835938 69.953125 C 88.222656 69.152344 89.859375 68.757812 91.957031 68.214844 C 92.53125 68.035156 93.1875 67.984375 93.707031 67.675781 C 93.824219 67.5625 93.847656 67.429688 93.773438 67.285156 C 93.664062 67.128906 93.519531 67.074219 93.339844 67.125 C 91.003906 67.753906 88.480469 67.738281 86.34375 68.992188 C 85.203125 69.503906 85.761719 70.675781 86.835938 69.953125 Z M 73.109375 73.234375 C 74.691406 73.183594 76.21875 72.792969 77.714844 72.304688 C 77.816406 72.25 77.921875 72.125 77.863281 72.007812 C 77.800781 71.929688 77.71875 71.890625 77.617188 71.894531 C 76.773438 72.09375 75.949219 72.382812 75.101562 72.550781 C 73.824219 72.800781 72.035156 72.71875 70.527344 72.667969 C 70.359375 72.6875 70.171875 72.769531 70.097656 72.925781 C 70.132812 73.023438 70.191406 73.101562 70.28125 73.15625 C 71.039062 73.457031 72.261719 73.199219 73.109375 73.234375 Z M 70.613281 74.015625 C 70.84375 74.035156 71.140625 73.886719 71.078125 73.617188 C 71.007812 73.429688 70.875 73.351562 70.675781 73.378906 C 69.5 73.453125 68.328125 73.4375 67.15625 73.324219 C 66.425781 73.339844 65.335938 72.976562 64.707031 73.191406 C 64.554688 73.277344 64.46875 73.375 64.621094 73.527344 C 64.832031 73.769531 65.171875 73.753906 65.464844 73.796875 C 67.171875 73.996094 68.894531 74.136719 70.613281 74.015625 Z M 63.234375 74.050781 C 62.148438 73.9375 61.0625 74.148438 60 74.375 C 57.59375 74.875 55.210938 75.628906 53.289062 77.230469 C 53.0625 77.417969 52.765625 77.574219 52.699219 77.882812 C 52.6875 77.964844 52.667969 78.066406 52.722656 78.132812 C 52.765625 78.148438 52.8125 78.15625 52.859375 78.15625 C 52.839844 78.164062 52.824219 78.171875 52.808594 78.179688 C 51.628906 78.839844 50.382812 79.621094 49.675781 80.796875 C 49.570312 81.183594 49.78125 81.449219 50.171875 81.238281 C 50.414062 81.105469 50.558594 80.847656 50.753906 80.65625 C 51.570312 79.824219 52.597656 79.085938 53.5 78.707031 C 53.675781 78.613281 53.785156 78.371094 53.671875 78.1875 C 53.589844 78.050781 53.472656 77.992188 53.3125 78.011719 C 54.289062 77.34375 55.328125 76.523438 56.550781 75.972656 C 57.640625 75.476562 59.296875 75.015625 60.683594 74.671875 C 61.527344 74.457031 62.386719 74.363281 63.257812 74.386719 C 63.339844 74.371094 63.4375 74.324219 63.460938 74.238281 C 63.441406 74.136719 63.332031 74.074219 63.234375 74.050781 Z M 49.734375 84.988281 C 50.058594 84.46875 49.984375 83.777344 50.253906 83.222656 C 50.476562 82.730469 50.878906 81.890625 51.261719 81.554688 C 51.433594 81.355469 51.855469 81.058594 51.554688 80.800781 C 51.414062 80.734375 51.285156 80.753906 51.171875 80.863281 C 50.183594 81.738281 49.597656 82.992188 49.390625 84.28125 C 49.332031 84.542969 49.292969 84.847656 49.488281 85.066406 C 49.566406 85.195312 49.664062 85.066406 49.734375 84.988281 Z M 53.4375 92.132812 C 51.257812 91.128906 49.300781 87.210938 50.910156 84.492188 C 51.042969 84.332031 51.050781 84.023438 50.816406 83.949219 C 50.722656 83.929688 50.636719 83.945312 50.554688 83.996094 C 50.230469 84.3125 50.0625 84.78125 49.914062 85.207031 C 49.230469 87.378906 49.878906 89.707031 51.242188 91.480469 C 51.71875 92.105469 52.566406 92.988281 53.40625 92.925781 C 53.894531 92.800781 53.820312 92.347656 53.4375 92.132812 Z M 56.480469 94.078125 C 55.953125 93.777344 55.601562 93.546875 55.3125 93.265625 C 55.089844 92.972656 54.84375 92.429688 54.636719 91.863281 C 54.570312 91.621094 54.246094 91.460938 54.046875 91.65625 C 53.921875 91.792969 53.898438 91.945312 53.96875 92.117188 C 54.195312 92.6875 54.390625 93.308594 54.785156 93.792969 C 55.148438 94.113281 56.507812 95.355469 56.8125 94.550781 C 56.792969 94.351562 56.644531 94.183594 56.480469 94.078125 Z M 60.800781 95.597656 C 59.878906 95.578125 59.300781 95.28125 58.625 94.714844 C 58.152344 94.375 57.71875 94.015625 57.363281 93.332031 C 57.277344 93.09375 56.960938 92.921875 56.753906 93.121094 C 56.523438 93.371094 56.75 93.683594 56.882812 93.921875 C 57.382812 94.792969 58.234375 95.410156 59.058594 95.957031 C 59.621094 96.207031 60.296875 96.542969 60.910156 96.300781 C 61.304688 96.078125 61.222656 95.714844 60.800781 95.597656 Z M 62.375 95.539062 C 62.132812 95.355469 61.640625 94.898438 61.449219 94.582031 C 61.355469 94.390625 61.101562 94.210938 60.910156 94.382812 C 60.800781 94.515625 60.792969 94.652344 60.886719 94.796875 C 61.324219 95.457031 61.925781 96.046875 62.636719 96.402344 C 62.816406 96.460938 63.054688 96.464844 63.195312 96.320312 C 63.183594 96.234375 63.152344 96.15625 63.101562 96.085938 C 62.925781 95.828125 62.605469 95.742188 62.375 95.539062 Z M 71.097656 91.941406 C 70.722656 93.597656 69.363281 94.597656 67.863281 95.167969 C 66.609375 95.617188 65.808594 95.835938 64.730469 95.480469 C 64.417969 95.421875 63.996094 95.082031 63.839844 95.648438 C 63.828125 95.855469 64.066406 96.042969 64.285156 96.09375 C 64.691406 96.222656 65.101562 96.359375 65.527344 96.382812 C 67.898438 96.449219 71.675781 94.789062 71.765625 92.011719 C 71.648438 91.5625 71.324219 91.558594 71.097656 91.941406 Z M 71.382812 86.429688 C 70.753906 86.355469 70.808594 87.238281 70.644531 87.652344 C 70.503906 88.589844 70.1875 89.660156 70.699219 90.535156 C 70.820312 90.820312 71.378906 91.101562 71.507812 90.695312 C 71.597656 90.398438 71.414062 90.148438 71.285156 89.894531 C 71.28125 89.882812 71.277344 89.871094 71.269531 89.847656 C 71.144531 89.152344 71.332031 88.011719 71.636719 86.960938 C 71.703125 86.753906 71.601562 86.488281 71.382812 86.429688 Z M 74.566406 85.332031 C 74.46875 85.195312 74.339844 85.148438 74.179688 85.195312 C 73.253906 85.652344 72.40625 86.371094 71.890625 87.269531 C 71.792969 87.597656 71.886719 87.996094 72.285156 87.707031 C 72.449219 87.605469 72.535156 87.429688 72.652344 87.277344 C 73.203125 86.5625 73.746094 86.167969 74.496094 85.722656 C 74.613281 85.609375 74.636719 85.476562 74.566406 85.332031 Z M 90.007812 83.761719 C 88.722656 84.046875 87.5 84.632812 86.199219 84.894531 C 85.449219 85.070312 84.074219 85.039062 82.949219 84.964844 C 80.351562 84.613281 77.679688 84.828125 75.222656 85.761719 C 74.957031 85.917969 74.175781 86.082031 74.394531 86.484375 C 74.503906 86.585938 74.671875 86.5625 74.789062 86.492188 C 76.25 85.785156 77.644531 85.585938 79.160156 85.484375 C 81.453125 85.378906 82.746094 85.914062 85.105469 85.898438 C 86.769531 85.917969 88.335938 85.253906 89.855469 84.652344 C 90.375 84.539062 90.792969 83.839844 90.007812 83.761719 Z M 101.140625 80.433594 C 101.183594 80.351562 101.207031 80.238281 101.144531 80.160156 C 100.800781 79.984375 100.5625 80.484375 100.300781 80.636719 C 99.738281 81.121094 99.019531 81.609375 98.273438 82.121094 C 96.960938 82.898438 95.796875 83.570312 94.300781 83.84375 C 94.097656 83.871094 93.203125 83.902344 92.484375 83.996094 C 92.488281 83.9375 92.472656 83.882812 92.433594 83.839844 C 92.339844 83.757812 92.234375 83.738281 92.121094 83.777344 C 91.367188 84.164062 90.65625 84.628906 89.910156 85.027344 C 89.222656 85.421875 88.488281 85.699219 87.710938 85.855469 C 87.335938 85.925781 86.925781 85.839844 86.582031 86.019531 C 86.515625 86.0625 86.355469 86.160156 86.390625 86.234375 C 86.53125 86.40625 86.714844 86.488281 86.9375 86.480469 C 87.515625 86.488281 88.078125 86.394531 88.621094 86.199219 C 89.703125 85.875 90.652344 85.25 91.621094 84.671875 C 91.644531 84.691406 91.667969 84.710938 91.695312 84.722656 C 92.046875 84.941406 93.679688 84.679688 93.957031 84.695312 C 95.894531 84.441406 97.566406 83.261719 99.121094 82.15625 C 99.816406 81.613281 100.554688 81.097656 101.144531 80.433594 Z M 109.835938 64.746094 C 109.640625 64.8125 109.546875 64.945312 109.554688 65.152344 C 109.578125 66.179688 109.546875 67.207031 109.453125 68.230469 C 109.269531 71.035156 107.8125 73.769531 106.164062 76.375 C 106.011719 76.617188 105.769531 76.828125 105.757812 77.128906 C 105.710938 77.597656 106.203125 77.496094 106.433594 77.265625 C 107.777344 75.445312 108.828125 73.46875 109.585938 71.339844 C 110.25 69.347656 110.335938 67.226562 110.292969 65.144531 C 110.292969 64.914062 110.078125 64.679688 109.835938 64.746094 Z M 105.625 76.035156 C 105.4375 76.003906 105.308594 76.078125 105.242188 76.257812 C 104.90625 76.988281 104.480469 77.664062 103.96875 78.28125 C 103.6875 78.734375 102.03125 80.40625 101.625 80.6875 C 101 81.238281 100.378906 81.367188 100.117188 81.691406 C 100.023438 81.824219 99.996094 82.027344 100.183594 82.09375 C 100.898438 82.34375 101.511719 81.597656 102.0625 81.238281 C 103.574219 79.921875 104.957031 78.363281 105.777344 76.515625 C 105.867188 76.347656 105.824219 76.101562 105.625 76.035156 Z M 109.601562 53.4375 C 108.671875 50.121094 106.792969 47.195312 104.851562 44.390625 C 104.0625 43.351562 103.21875 42.367188 102.316406 41.429688 C 102.179688 41.242188 101.820312 41.191406 101.742188 41.453125 C 101.707031 41.621094 101.757812 41.757812 101.890625 41.867188 C 102.554688 42.558594 103.179688 43.285156 103.773438 44.042969 C 105.210938 45.953125 106.753906 48.332031 107.828125 50.742188 C 108.605469 52.296875 109.234375 54.835938 109.585938 56.867188 C 110.25 59.933594 110.617188 62.816406 110.476562 66.117188 C 110.519531 66.664062 110.964844 66.894531 111.191406 66.25 C 111.585938 61.929688 110.636719 57.613281 109.601562 53.4375 Z M 84.011719 30.792969 C 89.070312 32.089844 94.1875 33.894531 98.109375 36.949219 C 99.839844 38.292969 101.394531 39.839844 103.121094 41.183594 C 103.445312 41.378906 103.894531 41.964844 104.242188 41.546875 C 104.320312 41.386719 104.292969 41.246094 104.167969 41.121094 C 103.246094 40.476562 102.5625 39.839844 101.625 39.019531 C 98.878906 36.417969 95.8125 34.121094 92.292969 32.679688 C 89.796875 31.554688 86.722656 30.402344 84.023438 30.074219 C 83.59375 30.222656 83.664062 30.578125 84.011719 30.792969 Z M 72.996094 27.941406 C 73.082031 28.066406 73.199219 28.109375 73.34375 28.070312 C 75.027344 27.871094 76.789062 27.550781 78.394531 27.953125 C 80.207031 28.277344 81.632812 29.53125 83.660156 29.183594 C 84.074219 29.003906 84.070312 28.644531 83.628906 28.496094 C 82.265625 28.492188 81.304688 28.308594 79.945312 27.792969 C 78.496094 27.320312 77.015625 27.167969 75.503906 27.324219 C 74.710938 27.441406 73.890625 27.488281 73.113281 27.667969 C 73.027344 27.722656 72.9375 27.839844 72.996094 27.941406 Z M 5.128906 27.410156 C 5.007812 28.648438 4.679688 31.257812 5.042969 32.644531 C 5.136719 32.914062 5.226562 33.339844 5.421875 33.597656 C 5.414062 33.710938 5.414062 33.828125 5.40625 33.933594 C 5.40625 34.03125 5.382812 34.488281 5.378906 34.613281 C 5.253906 35.429688 4.914062 36.191406 4.742188 36.996094 C 4.539062 37.988281 4.453125 38.992188 4.480469 40.003906 C 4.503906 40.332031 4.507812 40.707031 4.730469 40.964844 C 4.953125 41.226562 5.359375 41.222656 5.507812 40.898438 C 5.578125 40.761719 5.601562 40.617188 5.582031 40.46875 C 5.527344 40.15625 5.527344 39.355469 5.570312 38.652344 C 5.542969 37.34375 6.429688 35.550781 6.28125 33.828125 C 6.300781 33.59375 6.28125 33.28125 6.132812 33.117188 C 5.867188 32.359375 5.75 31.980469 5.746094 31.332031 C 5.621094 29.195312 5.878906 28.53125 5.898438 26.769531 C 5.859375 25.183594 5.335938 23.601562 4.683594 21.914062 C 4.519531 21.589844 4.109375 20.257812 4.09375 19.855469 C 4 18.582031 4.285156 17.253906 4.742188 16.9375 C 5.011719 16.671875 6.855469 17.816406 8 18.496094 C 9.363281 19.183594 11.511719 19.949219 13.117188 20.5625 C 13.457031 20.710938 14.296875 21.066406 14.894531 21.28125 C 15.011719 21.328125 15.125 21.316406 15.234375 21.25 C 15.460938 21.371094 15.789062 21.199219 16.039062 21.195312 C 16.347656 21.144531 17.417969 21.007812 18.03125 21.019531 C 19.035156 20.921875 19.707031 21.421875 20.789062 21.503906 C 21.871094 21.367188 23.054688 21.109375 23.964844 21.292969 C 24.132812 21.324219 24.292969 21.304688 24.453125 21.238281 C 24.5 21.257812 24.554688 21.265625 24.605469 21.257812 C 25.101562 21.125 25.585938 20.960938 26.058594 20.761719 C 27.929688 19.945312 29.746094 19.023438 31.507812 18 C 32.8125 17.234375 34.273438 16.113281 35.503906 15.84375 C 36.015625 15.800781 36.410156 15.757812 36.675781 15.980469 C 37.167969 16.503906 36.636719 17.914062 36.597656 18.46875 C 36.390625 20.003906 36.234375 21.410156 35.84375 23.273438 C 35.433594 24.914062 34.992188 26.550781 34.511719 28.171875 C 34.234375 29.101562 33.550781 29.804688 33.609375 31.125 C 33.613281 31.308594 33.648438 31.492188 33.714844 31.664062 C 33.988281 32.667969 34.722656 33.167969 35.105469 33.921875 C 35.453125 34.363281 35.546875 35.015625 36.007812 35.347656 C 36.472656 35.597656 36.722656 34.914062 36.496094 34.574219 C 36.46875 34.515625 36.4375 34.464844 36.410156 34.40625 C 37.171875 34.375 37.914062 34.382812 38.597656 34.628906 C 38.945312 34.726562 39.40625 35.015625 39.898438 35.246094 C 40.554688 35.527344 41.273438 35.625 41.984375 35.632812 C 42.210938 35.613281 42.453125 35.628906 42.65625 35.511719 C 42.667969 35.503906 42.679688 35.492188 42.695312 35.484375 C 42.746094 35.496094 42.796875 35.507812 42.851562 35.511719 C 43.121094 35.519531 43.378906 35.382812 43.636719 35.308594 C 45.753906 34.636719 47.613281 33.464844 49.460938 32.261719 C 51.953125 30.761719 54.566406 29.511719 57.300781 28.515625 C 60.027344 27.554688 62.667969 27.140625 65.347656 26.835938 C 65.273438 26.929688 65.214844 27.050781 65.257812 27.164062 C 65.339844 27.332031 65.542969 27.390625 65.714844 27.40625 C 68.332031 26.910156 70.613281 26.542969 73.359375 26.929688 C 73.566406 26.964844 73.828125 26.90625 73.839844 26.660156 C 73.824219 26.484375 73.734375 26.382812 73.5625 26.34375 C 71.957031 26.117188 70.34375 26.070312 68.726562 26.203125 C 68.738281 26.15625 68.742188 26.105469 68.734375 26.054688 C 68.683594 25.875 68.5625 25.777344 68.378906 25.761719 C 67.5 25.769531 66.625 25.898438 65.75 25.972656 C 61.824219 26.378906 57.894531 27.074219 54.296875 28.761719 C 52.066406 29.703125 49.933594 30.835938 47.90625 32.164062 C 46.160156 33.417969 44.621094 34.0625 42.742188 34.765625 C 42.683594 34.800781 42.632812 34.835938 42.585938 34.882812 C 41.539062 34.828125 40.933594 34.929688 39.992188 34.582031 C 39.292969 34.179688 37.789062 33.773438 36.714844 33.878906 C 36.519531 33.898438 36.324219 33.90625 36.128906 33.902344 C 35.574219 33.007812 34.929688 32.371094 34.535156 31.582031 C 34.488281 31.4375 34.449219 31.289062 34.421875 31.140625 C 34.40625 31.09375 34.386719 31.046875 34.359375 31.007812 C 34.351562 30.894531 34.355469 30.78125 34.371094 30.667969 C 34.4375 29.996094 34.789062 29.550781 35.132812 28.515625 C 35.582031 27.070312 35.832031 25.574219 36.289062 24.128906 C 36.730469 22.203125 36.902344 20.347656 37.113281 18.726562 C 37.152344 17.859375 38.011719 15.941406 36.640625 15.355469 C 35.910156 15.152344 35.117188 15.273438 34.425781 15.5625 C 32.707031 16.167969 31.230469 17.277344 29.628906 18.128906 C 28.269531 18.914062 26.636719 19.746094 25.457031 20.265625 C 25.160156 20.457031 24.390625 20.5 24.246094 20.839844 C 23.738281 20.566406 22.804688 20.691406 22.234375 20.707031 C 21.515625 20.738281 21.175781 20.933594 20.53125 20.859375 C 20.191406 20.757812 18.945312 20.402344 18.265625 20.480469 C 17.277344 20.527344 16.296875 20.644531 15.328125 20.835938 C 15.230469 20.6875 15.011719 20.632812 14.84375 20.566406 C 14.378906 20.394531 14.261719 20.339844 13.917969 20.199219 C 11.964844 19.359375 10.328125 18.914062 8.398438 17.867188 C 7.492188 17.367188 6.65625 16.753906 5.691406 16.355469 C 5.277344 16.179688 4.761719 16.050781 4.351562 16.296875 C 3.667969 16.789062 3.488281 17.703125 3.421875 18.492188 C 3.226562 19.859375 3.5 21.246094 4.039062 22.507812 C 4.757812 24.429688 5.160156 25.632812 5.128906 27.410156 Z M 80.027344 61.832031 C 80.132812 61.859375 80.238281 61.847656 80.332031 61.792969 C 80.789062 61.472656 81.289062 61.242188 81.828125 61.101562 C 82.777344 60.894531 84.082031 60.804688 85.3125 60.855469 C 85.726562 60.835938 86.175781 60.976562 86.574219 60.824219 C 86.730469 60.753906 86.902344 60.609375 86.804688 60.433594 C 86.683594 60.246094 86.511719 60.152344 86.289062 60.144531 C 85.152344 60.078125 83.480469 60.097656 82.695312 60.246094 C 82.1875 60.199219 78.996094 61.140625 80.027344 61.832031 Z M 83.484375 59.394531 C 84.511719 59.480469 85.539062 59.464844 86.5625 59.34375 C 87.027344 59.253906 87.699219 59.265625 87.910156 58.761719 C 87.984375 58.589844 87.8125 58.460938 87.664062 58.417969 C 87.535156 58.378906 87.40625 58.375 87.273438 58.40625 C 86.5 58.625 86.035156 58.640625 85.121094 58.691406 C 84.625 58.808594 83.128906 58.339844 83.207031 59.128906 C 83.253906 59.265625 83.34375 59.355469 83.484375 59.394531 Z M 97.246094 81.601562 C 98.597656 81.015625 99.699219 80.121094 100.554688 78.921875 C 100.765625 78.667969 101.109375 78.292969 100.734375 78.023438 C 100.5625 77.9375 100.410156 77.960938 100.273438 78.09375 C 100.105469 78.296875 99.988281 78.457031 99.703125 78.789062 C 98.882812 79.828125 97.714844 80.636719 96.609375 80.976562 C 95.847656 81.441406 96.722656 81.824219 97.246094 81.601562 Z M 92.917969 82.011719 C 93.632812 81.945312 94.308594 81.679688 94.964844 81.40625 C 95.257812 81.238281 96.042969 81.089844 95.761719 80.621094 C 95.691406 80.558594 95.613281 80.53125 95.519531 80.539062 C 94.933594 80.742188 94.710938 80.929688 94.171875 81.113281 C 93.710938 81.320312 93.203125 81.363281 92.730469 81.523438 C 92.605469 81.582031 92.507812 81.671875 92.441406 81.796875 C 92.570312 81.9375 92.726562 82.011719 92.917969 82.011719 Z M 105.863281 71.167969 C 105.75 71.144531 105.652344 71.179688 105.570312 71.261719 C 105.257812 71.820312 105.046875 72.441406 104.785156 73.03125 C 104.664062 73.277344 104.546875 73.527344 104.425781 73.777344 C 104.257812 74.128906 103.90625 74.519531 104.121094 74.925781 C 104.285156 74.960938 104.460938 74.832031 104.566406 74.714844 C 105.023438 74.007812 105.328125 73.207031 105.660156 72.433594 C 105.667969 72.414062 105.636719 72.484375 105.628906 72.5 C 105.714844 72.136719 106.339844 71.398438 105.863281 71.167969 Z M 103.96875 73.824219 C 103.699219 73.667969 103.429688 73.882812 103.296875 74.113281 C 103.074219 74.472656 102.308594 75.199219 102.855469 75.535156 C 103.492188 75.585938 103.714844 74.777344 104.09375 74.390625 C 104.195312 74.214844 104.164062 73.925781 103.96875 73.824219 Z M 69.117188 85.253906 C 68.972656 85.183594 68.84375 85.207031 68.730469 85.320312 C 67.679688 86.3125 67.3125 87.949219 67.617188 89.335938 C 67.753906 90.1875 68.5625 90.257812 68.320312 89.285156 C 68.019531 88.34375 68.164062 87.144531 68.714844 86.207031 C 68.726562 86.082031 69.496094 85.5625 69.117188 85.253906 Z M 66.933594 89.875 C 66.894531 89.566406 66.972656 88.980469 66.496094 89.054688 C 66.097656 89.199219 66.246094 89.71875 66.273438 90.042969 C 66.414062 90.667969 66.554688 91.40625 67.125 91.78125 C 67.328125 91.933594 67.6875 91.960938 67.847656 91.746094 C 67.871094 91.429688 67.480469 91.203125 67.402344 91.128906 C 67.25 91.109375 66.933594 90.007812 66.933594 89.875 Z M 54.386719 83.15625 C 54.628906 83.265625 54.792969 82.835938 54.804688 82.644531 C 54.789062 80.792969 55.578125 79.066406 57.449219 78.523438 C 57.667969 78.441406 58.097656 78.367188 57.980469 78.042969 C 57.914062 77.949219 57.824219 77.90625 57.710938 77.914062 C 56.75 78.097656 55.890625 78.609375 55.203125 79.296875 C 54.410156 80.230469 54.148438 81.476562 54.121094 82.675781 C 54.128906 82.878906 54.21875 83.042969 54.386719 83.15625 Z M 53.308594 81.734375 C 53.082031 81.730469 52.953125 81.933594 52.878906 82.121094 C 52.144531 83.535156 52.027344 85.167969 52.621094 86.652344 C 52.675781 86.960938 53.214844 87.398438 53.335938 86.910156 C 53.410156 86.367188 53.058594 85.84375 53.027344 85.292969 C 52.867188 84.597656 52.980469 83.753906 53.371094 82.761719 C 53.367188 82.65625 53.96875 81.84375 53.308594 81.734375 Z M 92.671875 36.0625 C 92.304688 35.8125 91.652344 35.675781 91.601562 36.289062 C 91.59375 36.632812 91.929688 36.773438 92.199219 36.890625 C 92.949219 37.269531 93.667969 37.707031 94.378906 38.152344 C 94.953125 38.515625 95.53125 38.03125 95.007812 37.476562 C 94.261719 36.953125 93.480469 36.484375 92.671875 36.0625 Z M 93.507812 38.964844 C 93.445312 39.472656 94.144531 39.605469 94.445312 39.898438 C 95.058594 40.34375 95.636719 40.828125 96.183594 41.355469 C 96.378906 41.5625 96.988281 41.730469 96.863281 41.25 C 96.652344 40.679688 96.03125 40.359375 95.609375 39.945312 C 95.082031 39.515625 94.542969 39.082031 93.949219 38.753906 C 93.773438 38.707031 93.558594 38.777344 93.507812 38.964844 Z M 68.429688 44.449219 C 68.710938 44.125 67.929688 44.214844 67.777344 44.324219 C 66.554688 44.753906 65.574219 45.667969 64.769531 46.660156 C 64.726562 46.746094 64.699219 46.90625 64.808594 46.949219 C 64.933594 46.976562 65.035156 46.941406 65.117188 46.847656 C 65.820312 46.074219 66.53125 45.386719 67.480469 44.953125 C 67.699219 44.835938 68.230469 44.753906 68.429688 44.449219 Z M 65.527344 47.460938 C 65.222656 47.765625 64.332031 48.410156 65.007812 48.761719 C 65.351562 48.855469 65.523438 48.484375 65.734375 48.285156 C 66.238281 47.710938 66.886719 47.367188 67.277344 46.871094 C 67.363281 46.703125 67.398438 46.464844 67.152344 46.449219 C 66.488281 46.417969 66.027344 47.109375 65.527344 47.460938 Z M 65.609375 29.945312 C 66.730469 29.554688 67.726562 29.421875 68.890625 29.355469 C 69.015625 29.3125 69.226562 29.242188 69.261719 29.117188 C 69.128906 28.933594 68.945312 28.839844 68.710938 28.84375 C 67.613281 28.867188 66.542969 29.058594 65.503906 29.414062 C 65.28125 29.457031 64.949219 29.59375 65.070312 29.871094 C 65.191406 30.058594 65.429688 30.011719 65.609375 29.945312 Z M 70.527344 30.636719 C 70.917969 30.558594 70.367188 30.292969 70.203125 30.265625 C 69.433594 30.152344 68.667969 30.175781 67.910156 30.34375 C 67.828125 30.386719 67.75 30.496094 67.773438 30.570312 C 67.859375 30.785156 68.117188 30.734375 68.300781 30.703125 C 69.105469 30.535156 69.84375 30.730469 70.527344 30.636719 Z M 73.257812 29.453125 C 73.058594 29.351562 72.421875 29.152344 72.046875 29.070312 C 71.71875 29.011719 71.101562 28.730469 71.023438 29.242188 C 71.03125 29.367188 71.089844 29.464844 71.199219 29.527344 C 71.578125 29.660156 71.988281 29.695312 72.375 29.8125 C 72.863281 29.871094 73.371094 30.375 73.84375 30.0625 C 73.910156 30.003906 73.820312 29.875 73.789062 29.8125 C 73.671875 29.617188 73.457031 29.535156 73.257812 29.453125 Z M 14.472656 34.609375 C 14.832031 34.695312 15.195312 34.40625 15.324219 34.054688 C 15.453125 33.707031 15.578125 33.21875 15.097656 32.609375 C 14.890625 32.347656 14.449219 32.390625 14.214844 32.621094 C 13.976562 32.855469 13.902344 33.207031 13.894531 33.539062 C 13.882812 33.761719 13.914062 33.976562 14 34.183594 C 14.085938 34.402344 14.246094 34.542969 14.472656 34.609375 Z M 24.785156 34.464844 C 25.046875 34.292969 25.132812 33.949219 25.148438 33.632812 C 25.160156 33.320312 25.117188 33.003906 24.707031 32.605469 C 24.5 32.410156 24.144531 32.441406 23.925781 32.621094 C 23.707031 32.804688 23.609375 33.097656 23.585938 33.382812 C 23.5625 33.714844 23.640625 34.074219 23.871094 34.316406 C 24.101562 34.558594 24.503906 34.648438 24.785156 34.464844 Z M 24.785156 34.464844 " fill-opacity="1" fill-rule="nonzero"/></g><path fill="#000000" d="M 21.445312 37.234375 C 21.472656 37.425781 21.410156 37.644531 21.246094 37.75 C 20.980469 37.921875 20.609375 37.730469 20.316406 37.847656 C 20.042969 37.957031 19.882812 38.308594 19.589844 38.304688 C 19.285156 38.296875 19.132812 37.898438 18.84375 37.800781 C 18.628906 37.726562 18.363281 37.828125 18.179688 37.695312 C 18.039062 37.589844 18.015625 37.382812 18.082031 37.222656 C 18.160156 37.0625 18.277344 36.9375 18.433594 36.847656 C 19.046875 36.445312 19.710938 36.335938 20.421875 36.527344 C 21.351562 36.785156 21.421875 37.042969 21.445312 37.234375 Z M 69.652344 66.734375 C 69.265625 66.753906 68.921875 66.882812 68.621094 67.128906 C 68.320312 67.375 68.121094 67.683594 68.027344 68.058594 C 67.960938 68.335938 67.96875 68.644531 68.109375 68.894531 C 68.339844 69.296875 68.847656 69.453125 69.3125 69.484375 C 69.695312 69.511719 70.09375 69.476562 70.429688 69.296875 C 70.691406 69.148438 70.890625 68.941406 71.023438 68.671875 C 71.15625 68.402344 71.203125 68.117188 71.160156 67.820312 C 71.0625 67.242188 70.570312 66.75 69.652344 66.734375 Z M 68.359375 64.792969 C 68.164062 64.894531 67.960938 64.996094 67.820312 65.164062 C 67.675781 65.335938 67.609375 65.585938 67.714844 65.777344 C 67.796875 65.9375 67.976562 66.023438 68.148438 66.066406 C 68.441406 66.144531 68.734375 66.136719 69.023438 66.042969 C 69.265625 65.964844 69.511719 65.800781 69.558594 65.550781 C 69.601562 65.320312 69.464844 65.089844 69.277344 64.953125 C 69.085938 64.816406 68.804688 64.570312 68.359375 64.792969 Z M 66.445312 65.710938 C 66.285156 65.648438 66.125 65.640625 65.964844 65.6875 C 65.800781 65.734375 65.667969 65.824219 65.566406 65.957031 C 65.460938 66.09375 65.410156 66.246094 65.40625 66.414062 C 65.40625 66.582031 65.457031 66.738281 65.558594 66.875 C 65.699219 67.046875 65.878906 67.171875 66.089844 67.246094 C 66.28125 67.335938 66.480469 67.375 66.6875 67.371094 C 67.078125 67.335938 67.328125 67.136719 67.449219 66.765625 C 67.550781 66.4375 67.417969 66.082031 66.445312 65.710938 Z M 65.597656 67.839844 C 65.296875 67.941406 64.96875 68.097656 64.878906 68.402344 C 64.792969 68.695312 64.984375 69.019531 65.257812 69.15625 C 65.53125 69.292969 65.863281 69.265625 66.152344 69.167969 C 66.417969 69.082031 66.683594 68.910156 66.75 68.640625 C 66.789062 68.453125 66.753906 68.28125 66.652344 68.125 C 66.558594 67.972656 66.421875 67.847656 65.597656 67.839844 Z M 67.472656 69.253906 C 67.1875 69.289062 67.011719 69.445312 66.949219 69.726562 C 66.894531 69.996094 66.972656 70.222656 67.183594 70.402344 C 67.390625 70.574219 67.625 70.636719 67.886719 70.585938 C 68.179688 70.535156 68.378906 70.375 68.484375 70.101562 C 68.574219 69.847656 68.46875 69.53125 67.472656 69.253906 Z M 14.1875 37.363281 C 11.257812 35.96875 7.882812 36.105469 4.761719 36.671875 C 3.332031 36.925781 1.875 37.132812 0.542969 37.726562 C 0.00390625 38.09375 0.34375 38.195312 0.816406 38.121094 C 4.96875 37.054688 9.289062 36.140625 13.378906 37.65625 C 13.746094 37.699219 14.316406 38.351562 14.609375 37.855469 C 14.664062 37.582031 14.394531 37.457031 14.1875 37.363281 Z M 12.695312 39.125 C 8.679688 38.832031 4.832031 39.511719 1.160156 41.171875 C 1.039062 41.261719 0.945312 41.378906 0.882812 41.519531 C 1.066406 41.566406 1.246094 41.558594 1.425781 41.496094 C 4.871094 40.222656 8.511719 39.386719 12.214844 39.621094 C 12.535156 39.589844 13.125 39.855469 13.222656 39.421875 C 13.199219 39.160156 12.90625 39.132812 12.695312 39.125 Z M 12.835938 40.691406 C 9.054688 40.796875 5.488281 42.554688 2.34375 44.527344 C 2 44.921875 2.289062 44.910156 2.652344 44.820312 C 5.816406 43.121094 9.089844 41.394531 12.679688 41.28125 C 12.960938 41.273438 13.496094 41.371094 13.449219 40.941406 C 13.367188 40.675781 13.0625 40.695312 12.835938 40.691406 Z M 41.316406 35.835938 C 41.195312 35.71875 41.054688 35.648438 40.886719 35.621094 C 39.96875 35.453125 39.039062 35.363281 38.113281 35.273438 C 34.171875 34.757812 30.222656 35.410156 26.472656 36.644531 C 26.160156 36.789062 25.324219 36.828125 25.589844 37.324219 C 25.734375 37.472656 25.9375 37.414062 26.109375 37.351562 C 28.039062 36.734375 30 36.246094 31.996094 35.890625 C 34.835938 35.566406 38.183594 35.796875 40.796875 36.179688 C 41.015625 36.230469 41.277344 36.195312 41.441406 36.03125 C 41.414062 35.957031 41.371094 35.894531 41.316406 35.835938 Z M 39.375 38.652344 C 38.359375 38.050781 37.042969 38.058594 35.898438 37.800781 C 33.566406 37.34375 31.207031 37.554688 28.863281 37.777344 C 28.375 37.84375 27.859375 37.835938 27.386719 37.964844 C 27.222656 38.042969 27.160156 38.171875 27.199219 38.351562 C 27.242188 38.484375 27.332031 38.570312 27.472656 38.601562 C 28.65625 38.53125 29.847656 38.378906 31.035156 38.308594 C 33.953125 37.980469 36.375 38.632812 39.195312 39.046875 C 39.320312 39.03125 39.421875 38.976562 39.5 38.882812 C 39.480469 38.796875 39.441406 38.71875 39.375 38.652344 Z M 38.257812 43.859375 C 36.875 43.203125 35.621094 42.308594 34.292969 41.542969 C 32.691406 40.691406 30.746094 40.1875 29.0625 40.011719 C 28.417969 39.945312 27.769531 39.808594 27.121094 39.816406 C 26.976562 39.851562 26.839844 39.996094 26.882812 40.15625 C 26.960938 40.402344 27.238281 40.402344 27.453125 40.417969 C 29.046875 40.589844 30.269531 40.664062 31.855469 41.179688 C 34.023438 41.683594 35.691406 43.296875 37.796875 44.113281 C 38.09375 44.234375 38.773438 44.292969 38.257812 43.859375 Z M 12.339844 23.726562 C 11.578125 23.804688 10.84375 23.691406 10.105469 23.546875 C 8.957031 23.308594 8.082031 22.449219 7.316406 21.59375 C 7.203125 21.484375 7.078125 21.386719 6.945312 21.300781 C 6.949219 21.449219 6.988281 21.585938 7.058594 21.714844 C 8.21875 23.421875 10.269531 24.257812 12.300781 24.058594 C 12.417969 24.054688 12.574219 23.996094 12.601562 23.871094 C 12.558594 23.773438 12.4375 23.730469 12.339844 23.726562 Z M 10.695312 24.792969 C 10.363281 24.78125 9.890625 24.824219 9.644531 24.761719 C 8.789062 24.621094 8.011719 24.414062 7.339844 23.882812 C 7.03125 23.691406 6.667969 23.183594 6.234375 23.058594 C 6.179688 23.050781 6.078125 22.996094 6.105469 23.089844 C 6.269531 23.820312 7.324219 24.445312 7.960938 24.769531 C 8.839844 25.113281 9.835938 25.402344 10.777344 25.222656 C 10.859375 25.175781 10.945312 25.082031 10.917969 24.980469 C 10.875 24.878906 10.804688 24.816406 10.695312 24.792969 Z M 33.320312 19.519531 C 33.011719 19.550781 32.8125 19.800781 32.632812 20.03125 C 31.875 21.050781 30.789062 21.625 29.667969 22.253906 C 28.984375 22.613281 28.390625 22.898438 27.636719 23.078125 C 27.503906 23.121094 27.359375 23.277344 27.433594 23.421875 C 27.5 23.519531 27.59375 23.5625 27.710938 23.550781 C 28.722656 23.34375 29.648438 22.824219 30.542969 22.328125 C 31.609375 21.730469 32.636719 21.007812 33.300781 19.964844 C 33.351562 19.859375 33.460938 19.53125 33.320312 19.519531 Z M 34.460938 21.730469 C 34.359375 21.738281 34.265625 21.769531 34.175781 21.816406 C 32.78125 23.222656 31.457031 24.878906 29.582031 25.378906 C 29.410156 25.417969 29.25 25.617188 29.339844 25.785156 C 29.488281 26.007812 29.761719 25.898438 29.964844 25.824219 C 31.453125 25.34375 32.621094 24.21875 33.6875 23.117188 C 33.957031 22.769531 34.355469 22.464844 34.476562 22.027344 C 34.5 21.925781 34.492188 21.828125 34.460938 21.730469 Z M 34.460938 21.730469 " fill-opacity="1" fill-rule="nonzero"/></svg>