<svg xmlns="http://www.w3.org/2000/svg" xmlns:xlink="http://www.w3.org/1999/xlink" width="150" zoomAndPan="magnify" viewBox="0 0 112.5 112.499997" height="150" preserveAspectRatio="xMidYMid meet" version="1.0"><defs><clipPath id="8157bc8b59"><path d="M 0 0 L 112.003906 0 L 112.003906 112.003906 L 0 112.003906 Z M 0 0 " clip-rule="nonzero"/></clipPath><clipPath id="a830bca16c"><path d="M 56 0 C 25.074219 0 0 25.074219 0 56 C 0 86.929688 25.074219 112.003906 56 112.003906 C 86.929688 112.003906 112.003906 86.929688 112.003906 56 C 112.003906 25.074219 86.929688 0 56 0 Z M 56 0 " clip-rule="nonzero"/></clipPath><clipPath id="f80a086a9f"><path d="M 0 4.34375 L 112 4.34375 L 112 107 L 0 107 Z M 0 4.34375 " clip-rule="nonzero"/></clipPath><clipPath id="c873268bc2"><path d="M 0 4.34375 L 109 4.34375 L 109 103 L 0 103 Z M 0 4.34375 " clip-rule="nonzero"/></clipPath><clipPath id="185f0954e0"><path d="M 0 4.34375 L 112 4.34375 L 112 107.386719 L 0 107.386719 Z M 0 4.34375 " clip-rule="nonzero"/></clipPath></defs><g clip-path="url(#8157bc8b59)"><g clip-path="url(#a830bca16c)"><path fill="#a7cbdd" d="M 0 0 L 112.003906 0 L 112.003906 112.003906 L 0 112.003906 Z M 0 0 " fill-opacity="1" fill-rule="nonzero"/></g></g><g clip-path="url(#f80a086a9f)"><path fill="#fef3eb" d="M 47.5625 99.40625 C 47.085938 99.757812 46.585938 100.070312 46.066406 100.347656 C 45.027344 100.910156 43.925781 101.398438 42.753906 101.539062 C 42.558594 101.5625 42.355469 101.574219 42.179688 101.492188 C 42 101.410156 41.867188 101.207031 41.925781 101.023438 C 40.855469 101.332031 39.84375 101.628906 38.808594 101.621094 C 38.582031 101.617188 38.316406 101.578125 38.210938 101.375 C 38.152344 101.238281 38.160156 101.105469 38.230469 100.976562 C 38.296875 100.855469 38.382812 100.75 38.484375 100.65625 C 37.652344 100.742188 36.964844 100.882812 36.300781 100.730469 C 35.203125 100.960938 34.191406 101.152344 33.175781 101.089844 C 32.144531 101.027344 31.144531 100.707031 30.160156 100.390625 C 29.703125 100.242188 29.246094 100.09375 28.792969 99.941406 C 28.226562 99.75 27.640625 99.53125 27.25 99.082031 C 26.289062 98.957031 25.296875 98.796875 24.304688 98.632812 C 23.691406 98.542969 23.082031 98.417969 22.484375 98.257812 C 21.1875 97.882812 20.058594 97.222656 19.101562 96.273438 C 18.5625 95.957031 18.085938 95.644531 17.679688 95.253906 C 17.273438 94.859375 16.933594 94.386719 16.785156 93.839844 C 15.65625 93.03125 14.667969 92.121094 13.742188 91.148438 C 13.0625 90.296875 12.386719 89.433594 11.882812 88.472656 C 11.621094 87.972656 11.40625 87.449219 11.164062 86.9375 C 10.164062 84.824219 8.757812 83.023438 6.941406 81.542969 C 6.292969 81.089844 5.664062 80.695312 5.09375 80.214844 C 4.960938 80.113281 4.847656 79.992188 4.757812 79.851562 C 4.660156 79.699219 4.644531 79.539062 4.710938 79.371094 C 4.789062 79.21875 4.910156 79.125 5.078125 79.089844 C 5.238281 79.054688 5.394531 79.046875 5.558594 79.058594 C 5.046875 78.578125 4.355469 78.34375 3.703125 78.066406 C 3.050781 77.789062 2.386719 77.425781 2.03125 76.8125 C 1.964844 76.734375 1.9375 76.640625 1.945312 76.539062 C 1.953125 76.433594 1.996094 76.351562 2.074219 76.28125 C 2.632812 75.660156 3.636719 75.488281 4.371094 75.890625 C 3.734375 75.34375 3.234375 74.714844 2.792969 74.066406 C 2.152344 73.128906 1.585938 72.066406 1.628906 70.933594 C 1.636719 70.710938 1.675781 70.46875 1.828125 70.304688 C 1.980469 70.136719 2.273438 70.085938 2.425781 70.25 C 1.679688 69.128906 1.226562 67.878906 0.828125 66.636719 C 0.675781 66.160156 0.527344 65.652344 0.632812 65.164062 C 0.660156 64.996094 0.738281 64.851562 0.863281 64.738281 C 1.070312 64.570312 1.367188 64.605469 1.628906 64.648438 L 3.71875 64.988281 C 3.703125 64.800781 3.574219 64.628906 3.613281 64.449219 C 3.648438 64.328125 3.71875 64.238281 3.824219 64.171875 C 4.074219 64 4.386719 63.949219 4.691406 63.914062 C 5.957031 63.765625 7.308594 63.789062 8.429688 64.402344 C 9.546875 65.011719 10.308594 66.140625 11.433594 66.742188 C 11.570312 65.914062 11.753906 65.09375 11.980469 64.28125 C 12.140625 64.105469 12.335938 64.046875 12.566406 64.101562 C 12.785156 64.164062 12.945312 64.34375 13.054688 64.539062 C 13.175781 64.75 13.246094 64.980469 13.269531 65.222656 C 13.304688 65.582031 13.222656 65.941406 13.171875 66.300781 C 13.074219 66.988281 13.082031 67.675781 13.207031 68.363281 C 13.328125 68.066406 13.535156 67.761719 13.824219 67.59375 C 13.984375 67.496094 14.152344 67.457031 14.339844 67.484375 C 14.601562 67.53125 14.796875 67.765625 14.886719 68.015625 C 14.976562 68.269531 14.980469 68.542969 14.996094 68.808594 C 15.078125 70.167969 15.488281 71.496094 16.046875 72.742188 C 16.242188 73.171875 16.472656 73.617188 16.867188 73.882812 C 16.800781 73.601562 16.589844 73.265625 16.511719 72.894531 C 16.429688 72.523438 16.542969 72.054688 16.90625 71.925781 C 17.207031 71.816406 17.554688 72.007812 17.730469 72.277344 C 17.910156 72.550781 17.960938 72.878906 18.03125 73.195312 C 18.265625 74.296875 18.703125 75.320312 19.335938 76.253906 C 19.34375 75.949219 19.25 75.652344 19.242188 75.34375 C 19.222656 75.023438 19.308594 74.738281 19.507812 74.484375 C 19.566406 74.410156 19.640625 74.355469 19.730469 74.320312 C 19.933594 74.257812 20.15625 74.402344 20.253906 74.59375 C 20.347656 74.785156 20.355469 75.003906 20.371094 75.21875 C 20.449219 76.222656 20.773438 77.140625 21.347656 77.972656 C 21.273438 77.617188 21.316406 77.28125 21.480469 76.960938 C 21.539062 76.828125 21.625 76.722656 21.742188 76.640625 C 21.867188 76.554688 22 76.546875 22.140625 76.617188 C 22.253906 76.683594 22.3125 76.816406 22.355469 76.941406 C 22.664062 77.824219 22.671875 78.808594 23.074219 79.652344 C 23.433594 80.414062 24.082031 80.996094 24.777344 81.472656 C 25.4375 81.976562 26.066406 82.519531 26.664062 83.097656 C 26.964844 83.390625 27.257812 83.699219 27.601562 83.945312 C 27.96875 84.207031 28.386719 84.394531 28.808594 84.5625 C 31.152344 85.503906 33.589844 85.972656 36.121094 85.972656 C 37.621094 86.273438 38.9375 86.980469 40.191406 87.738281 C 40.644531 88.011719 41.097656 88.296875 41.601562 88.453125 C 42.269531 88.660156 42.984375 88.632812 43.667969 88.769531 C 44.761719 88.992188 45.8125 89.644531 46.910156 89.460938 C 47.023438 88.257812 47.257812 87.078125 47.621094 85.921875 C 47.371094 85.816406 47.238281 85.625 47.226562 85.355469 C 47.214844 85.140625 47.242188 84.933594 47.308594 84.730469 C 47.460938 84.238281 47.722656 83.8125 48.097656 83.453125 C 47.855469 83.601562 47.621094 83.480469 47.5 83.328125 C 47.261719 83.03125 47.183594 82.699219 47.261719 82.332031 C 47.324219 82.046875 47.488281 81.796875 47.632812 81.546875 C 47.902344 81.078125 48.113281 80.585938 48.265625 80.066406 C 48.128906 80.144531 47.988281 80.019531 47.925781 79.875 C 47.871094 79.722656 47.855469 79.566406 47.871094 79.40625 C 47.914062 78.371094 48.171875 77.390625 48.652344 76.46875 C 48.15625 76.167969 48.144531 75.542969 48.214844 75.023438 C 48.480469 73.070312 49.34375 71.253906 50.199219 69.472656 C 49.902344 68.859375 50.09375 68.171875 50.40625 67.582031 C 50.71875 66.992188 51.152344 66.476562 51.535156 65.929688 C 51.996094 65.269531 52.386719 64.558594 52.808594 63.871094 C 54.199219 61.601562 55.902344 59.59375 57.914062 57.851562 C 57.648438 57.816406 57.296875 57.640625 57.125 57.359375 C 56.953125 57.078125 56.949219 56.71875 57.050781 56.40625 C 57.164062 56.09375 57.339844 55.816406 57.574219 55.578125 C 58.296875 54.789062 59.265625 54.261719 60.019531 53.503906 C 59.765625 53.46875 59.644531 53.355469 59.59375 53.222656 C 59.546875 53.078125 59.550781 52.933594 59.601562 52.792969 C 59.652344 52.65625 59.71875 52.527344 59.804688 52.410156 C 59.652344 52.460938 59.546875 52.40625 59.496094 52.324219 C 59.453125 52.238281 59.433594 52.144531 59.441406 52.046875 C 59.457031 51.523438 59.761719 51.054688 60.054688 50.617188 C 59.921875 50.773438 59.667969 50.707031 59.589844 50.550781 C 59.511719 50.390625 59.554688 50.203125 59.605469 50.039062 C 60.28125 47.839844 62.03125 46.171875 63.605469 44.496094 C 64.027344 44.046875 64.4375 43.59375 64.84375 43.132812 C 66.152344 41.636719 67.414062 39.980469 67.765625 38.027344 C 67.824219 37.625 67.652344 37.164062 67.382812 36.8125 C 67.117188 36.457031 66.761719 36.183594 66.445312 35.875 C 66.007812 35.449219 65.652344 34.964844 65.371094 34.421875 C 65.039062 33.769531 64.816406 33.023438 64.265625 32.53125 C 64.074219 32.359375 63.847656 32.226562 63.660156 32.046875 C 63.472656 31.871094 63.320312 31.628906 63.335938 31.371094 C 63.179688 31.386719 63.035156 31.347656 62.910156 31.25 C 62.785156 31.144531 62.730469 31.011719 62.742188 30.851562 C 62.761719 30.636719 62.925781 30.464844 63.097656 30.335938 C 63.269531 30.207031 63.464844 30.09375 63.589844 29.921875 C 63.238281 29.875 63.023438 29.71875 62.898438 29.535156 C 62.710938 29.253906 62.667969 28.867188 62.84375 28.578125 C 63.007812 28.308594 63.316406 28.175781 63.570312 27.996094 C 63.882812 27.777344 64.113281 27.496094 64.265625 27.148438 C 64.109375 27.253906 63.785156 27.242188 63.582031 27.066406 C 63.371094 26.882812 63.316406 26.5625 63.390625 26.292969 C 63.460938 26.019531 63.636719 25.789062 63.820312 25.574219 C 63.710938 25.601562 63.609375 25.585938 63.519531 25.523438 C 63.425781 25.464844 63.367188 25.378906 63.351562 25.269531 C 63.316406 25.078125 63.390625 24.886719 63.472656 24.710938 C 63.785156 24.050781 64.242188 23.472656 64.648438 22.863281 C 65.054688 22.257812 65.417969 21.59375 65.492188 20.867188 C 64.847656 18.128906 64.300781 15.402344 64.5 12.667969 C 64.570312 11.734375 64.796875 10.691406 65.59375 10.191406 C 66.027344 9.917969 66.570312 9.859375 67.078125 9.925781 C 67.585938 9.988281 68.074219 10.167969 68.550781 10.347656 L 72.578125 11.847656 C 73.183594 12.085938 73.804688 12.289062 74.433594 12.457031 C 76.574219 12.980469 78.847656 12.632812 80.9375 11.9375 C 83.410156 8.816406 86.5625 6.066406 90.347656 4.675781 C 90.679688 4.554688 91.027344 4.441406 91.382812 4.460938 C 92.125 4.507812 92.726562 5.152344 92.945312 5.863281 C 93.164062 6.578125 93.078125 7.34375 92.960938 8.078125 C 92.804688 9.078125 92.601562 10.074219 92.546875 11.085938 C 92.488281 12.097656 92.589844 13.136719 93.015625 14.058594 C 93.441406 14.976562 94.230469 15.761719 95.210938 16.023438 C 95.664062 16.320312 96.109375 16.636719 96.257812 17.101562 C 96.40625 17.5625 96.140625 18.160156 95.660156 18.242188 C 95.9375 18.585938 96.429688 18.648438 96.847656 18.796875 C 97.265625 18.945312 97.691406 19.355469 97.53125 19.769531 C 97.390625 20.121094 96.929688 20.195312 96.546875 20.210938 C 97.332031 20.785156 97.984375 21.480469 98.503906 22.304688 C 98.640625 22.519531 98.769531 22.753906 98.78125 23.011719 C 98.792969 23.269531 98.65625 23.546875 98.40625 23.617188 C 98.644531 23.75 98.78125 23.949219 98.898438 24.164062 C 98.949219 24.242188 98.980469 24.328125 98.984375 24.421875 C 98.988281 24.605469 98.832031 24.746094 98.773438 24.917969 C 99.097656 24.902344 99.230469 25.273438 99.152344 25.5625 C 99.074219 25.851562 98.855469 26.074219 98.65625 26.296875 C 98.082031 26.929688 97.617188 27.632812 97.261719 28.410156 C 96.792969 29.433594 96.535156 30.546875 96.085938 31.582031 C 95.636719 32.617188 94.941406 33.617188 93.902344 34.070312 C 94.824219 34.832031 95.257812 35.859375 95.714844 36.824219 C 96.171875 37.789062 96.734375 38.785156 97.6875 39.269531 C 98.09375 39.476562 98.621094 39.648438 98.71875 40.09375 C 98.816406 40.542969 98.40625 40.921875 98.035156 41.195312 C 98.191406 41.210938 98.296875 41.292969 98.347656 41.441406 C 98.371094 41.566406 98.363281 41.6875 98.324219 41.808594 C 98.273438 42.035156 98.195312 42.292969 97.980469 42.378906 C 98.234375 42.445312 98.519531 42.402344 98.742188 42.535156 C 98.953125 42.660156 99.054688 42.917969 99.058594 43.160156 C 99.0625 43.40625 98.980469 43.640625 98.902344 43.871094 C 99.058594 44.296875 98.894531 44.808594 98.558594 45.175781 C 99.28125 46.558594 99.175781 48.210938 98.980469 49.757812 C 98.785156 51.304688 98.515625 52.902344 98.964844 54.398438 C 100.414062 54.160156 101.8125 53.90625 103.226562 53.851562 C 104.640625 53.796875 106.085938 53.953125 107.394531 54.492188 C 109.035156 55.175781 110.277344 56.300781 111.117188 57.863281 C 111.371094 58.328125 111.550781 58.820312 111.652344 59.335938 C 111.804688 60.128906 111.703125 60.886719 111.347656 61.609375 C 110.984375 62.339844 110.417969 62.847656 109.652344 63.132812 C 109.378906 63.695312 108.851562 64.257812 108.183594 64.519531 C 107.511719 64.785156 106.699219 64.71875 106.136719 64.269531 C 105.253906 64.738281 104.535156 64.867188 103.855469 64.816406 C 103.175781 64.765625 102.519531 64.546875 101.875 64.320312 C 101.101562 65.074219 100.007812 65.496094 98.949219 65.847656 C 97.390625 66.363281 95.707031 66.808594 94.121094 66.375 C 93.515625 68.90625 93.601562 71.417969 94.375 73.902344 C 94.554688 74.488281 94.773438 75.058594 94.925781 75.652344 C 95.328125 77.25 95.214844 78.925781 95.097656 80.566406 C 95.222656 80.921875 95.085938 81.253906 94.953125 81.570312 C 94.734375 82.101562 94.511719 82.632812 94.207031 83.117188 C 94.195312 84.304688 94.035156 85.476562 93.722656 86.625 C 93.53125 87.308594 93.28125 87.976562 93.03125 88.640625 C 92.777344 89.308594 92.480469 90.035156 91.851562 90.371094 C 91.371094 91.269531 90.859375 92.378906 90.109375 93.328125 C 89.335938 94.308594 88.332031 95.082031 87.289062 95.777344 C 90.242188 95.589844 93.046875 94.25 95.886719 94.695312 C 96.402344 94.777344 96.929688 94.929688 97.296875 95.296875 C 97.902344 95.746094 98.546875 96.1875 98.796875 96.867188 C 98.9375 97.25 98.9375 97.664062 98.9375 98.070312 C 99.007812 98.683594 98.839844 99.28125 98.488281 99.679688 C 98.140625 100.078125 97.644531 100.316406 97.148438 100.507812 C 95.820312 101.023438 94.445312 101.285156 93.019531 101.289062 C 92.894531 101.273438 87.042969 101.230469 87.042969 101.230469 L 80.855469 101.292969 C 80.949219 101.429688 81.023438 101.578125 81.078125 101.738281 C 81.136719 101.894531 81.171875 102.054688 81.191406 102.222656 C 81.210938 102.386719 81.207031 102.554688 81.1875 102.71875 C 81.167969 102.886719 81.125 103.046875 81.066406 103.203125 C 81.007812 103.359375 80.933594 103.507812 80.839844 103.644531 C 80.746094 103.785156 80.636719 103.910156 80.511719 104.023438 C 80.390625 104.136719 80.253906 104.234375 80.109375 104.316406 C 79.960938 104.394531 79.808594 104.460938 79.644531 104.503906 C 79.605469 104.777344 79.316406 105.148438 78.984375 105.386719 C 78.644531 105.632812 78.265625 105.792969 77.847656 105.859375 C 77.433594 105.929688 77.023438 105.90625 76.621094 105.785156 C 75.996094 106.632812 74.761719 106.917969 73.675781 106.785156 C 72.59375 106.648438 71.578125 106.1875 70.523438 105.914062 C 69.402344 105.625 68.222656 105.542969 67.15625 105.09375 C 67.011719 105.023438 66.542969 104.796875 66.542969 104.796875 C 64.222656 104.699219 62 104.1875 59.871094 103.265625 C 58.886719 102.839844 57.9375 102.328125 56.933594 101.953125 C 55.378906 101.375 53.703125 101.132812 52.1875 100.460938 C 50.671875 99.785156 48.890625 100.242188 47.5625 99.40625 Z M 47.5625 99.40625 " fill-opacity="1" fill-rule="nonzero"/></g><g clip-path="url(#c873268bc2)"><path fill="#716162" d="M 64.625 16.027344 C 64.519531 15.386719 64.414062 14.746094 64.398438 14.097656 C 64.378906 13.230469 64.511719 12.390625 64.800781 11.574219 C 64.964844 11.113281 65.1875 10.652344 65.570312 10.34375 C 66.339844 9.726562 67.464844 9.914062 68.402344 10.226562 C 70.378906 10.886719 72.21875 11.960938 74.257812 12.40625 C 75.332031 12.640625 76.4375 12.695312 77.535156 12.746094 C 77.332031 13.355469 76.664062 13.65625 76.070312 13.90625 C 75.941406 13.949219 75.828125 14.015625 75.730469 14.109375 C 75.613281 14.230469 75.570312 14.402344 75.515625 14.5625 C 75.179688 15.5625 74.273438 16.265625 73.324219 16.738281 C 72.378906 17.210938 71.347656 17.511719 70.433594 18.039062 C 69.878906 18.367188 69.371094 18.753906 68.910156 19.207031 C 68.421875 19.671875 67.980469 20.195312 67.675781 20.796875 C 67.464844 21.21875 67.320312 21.671875 67.15625 22.113281 C 66.515625 23.863281 65.601562 25.453125 64.40625 26.886719 C 64.273438 27.046875 64.117188 27.214844 63.910156 27.242188 C 63.59375 27.28125 63.332031 26.941406 63.328125 26.621094 C 63.328125 26.296875 63.503906 26.007812 63.675781 25.738281 C 63.351562 25.550781 63.308594 25.125 63.417969 24.773438 C 63.527344 24.421875 63.757812 24.125 63.984375 23.832031 C 64.683594 22.929688 65.160156 22.164062 65.382812 21.042969 C 65.664062 19.609375 64.902344 17.730469 64.625 16.027344 Z M 96.171875 19.886719 C 96.515625 20.117188 96.902344 20.375 97.269531 20.179688 C 97.457031 20.074219 97.585938 19.917969 97.65625 19.714844 C 97.726562 19.511719 97.722656 19.308594 97.640625 19.109375 C 97.410156 18.589844 96.753906 18.449219 96.191406 18.375 C 96.40625 17.726562 96.582031 16.910156 96.074219 16.449219 C 95.921875 16.308594 95.722656 16.230469 95.527344 16.144531 C 94.617188 15.742188 93.742188 15.1875 93.171875 14.375 C 92.417969 13.308594 92.269531 11.925781 92.386719 10.625 C 92.5 9.328125 92.847656 8.0625 92.996094 6.765625 C 93.046875 6.351562 93.070312 5.917969 92.910156 5.53125 C 92.683594 4.980469 92.109375 4.628906 91.519531 4.539062 C 90.929688 4.453125 90.332031 4.59375 89.773438 4.800781 C 89.011719 5.085938 88.308594 5.496094 87.613281 5.917969 C 85.519531 7.191406 83.460938 8.625 82.027344 10.609375 C 81.761719 10.976562 81.515625 11.367188 81.167969 11.65625 C 80.667969 12.074219 80.011719 12.242188 79.527344 12.402344 C 80.28125 12.910156 81.332031 12.585938 82.191406 12.890625 C 82.710938 13.074219 83.125 13.476562 83.632812 13.691406 C 84.132812 13.90625 84.6875 13.925781 85.226562 13.957031 C 87.855469 14.105469 90.632812 14.628906 92.546875 16.433594 C 93.621094 17.445312 94.292969 18.625 96.171875 19.886719 Z M 70.664062 98.769531 C 70.507812 98.730469 70.347656 98.71875 70.1875 98.734375 C 69.988281 98.761719 69.816406 98.867188 69.644531 98.96875 C 67.855469 99.992188 65.933594 100.484375 63.875 100.441406 C 63.679688 100.4375 63.453125 100.410156 63.347656 100.246094 C 63.246094 100.085938 63.453125 99.804688 63.601562 99.929688 C 61.582031 99.757812 59.582031 99.894531 57.605469 100.34375 C 57.324219 100.410156 57.027344 100.476562 56.761719 100.371094 C 56.496094 100.261719 56.324219 99.890625 56.519531 99.679688 C 55.757812 99.972656 54.980469 100.210938 54.1875 100.394531 C 54.042969 100.429688 53.878906 100.457031 53.761719 100.371094 C 53.597656 100.25 53.625 99.992188 53.503906 99.828125 C 53.335938 99.601562 52.976562 99.660156 52.734375 99.804688 C 52.488281 99.949219 52.261719 100.160156 51.980469 100.175781 C 52.808594 101.101562 54.273438 100.964844 55.433594 101.402344 C 56.085938 101.648438 56.648438 102.078125 57.292969 102.335938 C 58.960938 102.992188 60.832031 102.375 62.628906 102.386719 C 63.539062 102.390625 64.441406 102.5625 65.351562 102.59375 C 68.550781 102.707031 71.542969 101.132812 74.351562 99.597656 C 73.136719 99.257812 71.90625 98.980469 70.664062 98.769531 Z M 87.082031 96.085938 C 86.386719 96.480469 85.890625 97.183594 85.160156 97.5 C 84.824219 97.648438 84.320312 97.628906 84.222656 97.277344 C 83.089844 98.597656 81.757812 99.671875 80.230469 100.507812 C 80.804688 101.191406 81.824219 101.292969 82.707031 101.160156 C 83.972656 100.964844 85.082031 100.445312 86.039062 99.601562 C 86.785156 98.941406 87.488281 98.058594 88.480469 98.011719 C 88.855469 97.992188 89.25 98.097656 89.585938 97.941406 C 89.816406 97.835938 89.976562 97.628906 90.128906 97.429688 L 91.960938 95.023438 C 90.566406 95.941406 88.546875 95.25 87.082031 96.085938 Z M 47.472656 99.433594 C 47.070312 100.136719 46.242188 100.488281 45.476562 100.785156 C 44.648438 101.101562 43.804688 101.429688 42.917969 101.554688 C 42.71875 101.578125 42.507812 101.59375 42.316406 101.527344 C 42.101562 101.460938 41.980469 101.3125 41.957031 101.085938 C 40.9375 101.429688 39.796875 101.808594 38.65625 101.660156 C 38.089844 101.585938 37.476562 101.300781 37.34375 100.75 C 36.035156 100.972656 34.714844 101.070312 33.386719 101.046875 C 31.703125 100.863281 30.066406 100.484375 28.472656 99.90625 C 27.855469 99.695312 27.207031 99.417969 26.863281 98.859375 C 25.394531 98.621094 23.980469 98.441406 22.621094 98.058594 C 21.257812 97.679688 19.925781 97.089844 18.851562 96.175781 C 17.851562 95.644531 17.285156 94.75 16.757812 93.90625 C 16.175781 93.800781 15.71875 93.34375 15.308594 92.875 C 13.738281 91.117188 12.574219 89.035156 11.335938 87.03125 C 10.09375 85.027344 8.734375 83.035156 6.878906 81.570312 C 5.976562 80.882812 5.046875 80.382812 4.507812 79.539062 C 4.414062 79.402344 4.34375 79.246094 4.367188 79.082031 C 4.390625 78.886719 4.570312 78.738281 4.726562 78.625 C 3.996094 78.042969 3.109375 77.675781 2.429688 77.050781 C 2.222656 76.863281 2.027344 76.625 2.027344 76.339844 C 2.039062 76.105469 2.136719 75.917969 2.324219 75.773438 C 2.5 75.644531 2.699219 75.554688 2.914062 75.503906 C 3.277344 75.394531 3.644531 75.382812 4.015625 75.464844 C 3.167969 74.644531 2.585938 73.738281 2.125 72.78125 C 1.714844 71.9375 1.386719 70.9375 1.757812 70.070312 C 1.789062 69.96875 1.847656 69.890625 1.9375 69.832031 C 2.027344 69.785156 2.160156 69.800781 2.199219 69.890625 C 1.921875 69.324219 1.640625 68.75 1.363281 68.179688 C 1 67.535156 0.753906 66.851562 0.632812 66.125 C 0.574219 65.773438 0.550781 65.394531 0.699219 65.078125 C 0.753906 64.921875 0.859375 64.808594 1.011719 64.742188 C 1.140625 64.699219 1.269531 64.691406 1.402344 64.707031 C 2.035156 64.75 2.675781 64.789062 3.308594 64.832031 C 3.273438 64.542969 3.316406 64.308594 3.4375 64.152344 C 3.5625 63.988281 3.75 63.898438 3.941406 63.832031 C 4.589844 63.59375 5.292969 63.609375 5.984375 63.660156 C 7.117188 63.742188 8.296875 63.929688 9.175781 64.640625 C 9.972656 65.28125 10.503906 66.328125 11.492188 66.574219 C 11.457031 65.835938 11.589844 65.15625 11.761719 64.488281 C 11.867188 64.339844 12.003906 64.242188 12.175781 64.1875 C 12.347656 64.132812 12.519531 64.132812 12.6875 64.191406 C 12.984375 64.308594 13.199219 64.585938 13.296875 64.894531 C 13.386719 65.199219 13.378906 65.527344 13.34375 65.847656 C 13.261719 66.605469 13.058594 67.375 13.171875 68.136719 C 13.289062 67.621094 13.929688 67.269531 14.402344 67.484375 C 14.691406 67.613281 14.886719 67.882812 14.996094 68.179688 C 15.082031 68.480469 15.128906 68.789062 15.132812 69.105469 C 15.167969 69.832031 15.199219 70.570312 15.382812 71.28125 C 15.554688 71.992188 15.890625 72.679688 16.441406 73.164062 C 16.359375 72.878906 16.378906 72.605469 16.503906 72.335938 C 16.636719 72.066406 16.933594 71.855469 17.234375 71.878906 C 17.53125 71.902344 17.785156 72.132812 17.917969 72.402344 C 18.046875 72.664062 18.089844 72.96875 18.136719 73.261719 C 18.300781 74.21875 18.597656 75.167969 19.125 75.988281 C 19.082031 75.738281 19.074219 75.488281 19.105469 75.234375 C 19.148438 74.996094 19.253906 74.753906 19.453125 74.605469 C 19.648438 74.464844 19.9375 74.433594 20.132812 74.582031 C 20.328125 74.726562 20.378906 74.996094 20.394531 75.234375 C 20.410156 75.660156 20.363281 76.09375 20.445312 76.511719 C 20.546875 77.035156 20.816406 77.457031 21.25 77.773438 C 21.175781 77.550781 21.125 77.296875 21.191406 77.0625 C 21.257812 76.832031 21.480469 76.617188 21.726562 76.660156 C 22.003906 76.699219 22.136719 77.019531 22.226562 77.289062 C 23.136719 79.949219 25.289062 81.988281 27.460938 83.78125 C 28.257812 84.4375 29.085938 85.082031 30.054688 85.410156 C 31.097656 85.753906 32.214844 85.714844 33.304688 85.730469 C 35.367188 85.769531 37.484375 86.066406 39.273438 87.105469 C 40.011719 87.539062 40.691406 88.09375 41.488281 88.429688 C 43.15625 89.144531 45.109375 88.808594 46.816406 89.414062 C 46.816406 90.117188 46.707031 90.371094 46.59375 90.632812 C 46.519531 90.835938 46.414062 91.019531 46.28125 91.191406 C 45.96875 91.542969 45.460938 91.648438 44.992188 91.722656 C 44.6875 91.738281 44.402344 91.730469 44.113281 91.730469 C 44.042969 91.726562 43.972656 91.734375 43.902344 91.753906 C 43.746094 91.828125 43.710938 92.050781 43.777344 92.203125 C 43.84375 92.359375 43.976562 92.476562 44.097656 92.597656 C 44.222656 92.71875 44.328125 92.867188 44.335938 93.039062 C 44.324219 93.226562 44.238281 93.367188 44.074219 93.457031 C 43.921875 93.542969 43.761719 93.589844 43.589844 93.597656 C 43.238281 93.632812 42.886719 93.625 42.539062 93.5625 C 42.25 93.507812 41.964844 93.425781 41.667969 93.390625 C 41.375 93.359375 41.054688 93.390625 40.808594 93.5625 C 40.480469 93.667969 40.214844 93.832031 40.191406 94.09375 C 40.183594 94.277344 40.28125 94.429688 40.386719 94.570312 C 40.792969 95.058594 41.292969 95.402344 41.890625 95.609375 C 42.929688 95.800781 43.878906 96.199219 44.738281 96.804688 C 44.871094 96.894531 45.007812 97.042969 44.945312 97.191406 C 44.902344 97.253906 44.84375 97.300781 44.769531 97.328125 C 44.582031 97.425781 44.386719 97.535156 44.1875 97.632812 C 43.957031 97.878906 43.613281 97.933594 43.277344 98 C 43.121094 98.023438 42.957031 98.066406 42.875 98.1875 C 42.785156 98.34375 42.796875 98.488281 42.917969 98.621094 C 43.027344 98.742188 43.160156 98.824219 43.320312 98.867188 C 44.238281 99.171875 45.230469 98.851562 46.199219 98.785156 C 46.429688 98.769531 46.660156 98.769531 46.871094 98.859375 C 47.125 98.972656 47.300781 99.203125 47.472656 99.433594 Z M 7.632812 67.628906 C 8.441406 68.191406 9.15625 68.847656 9.785156 69.601562 C 9.980469 69.839844 10.316406 70.339844 10.613281 69.964844 C 10.675781 69.835938 10.671875 69.710938 10.597656 69.585938 C 9.601562 68.34375 8.40625 67.203125 6.953125 66.523438 C 6.753906 66.449219 6.566406 66.46875 6.386719 66.582031 C 6.410156 66.707031 6.464844 66.816406 6.550781 66.910156 C 6.863281 67.203125 7.296875 67.351562 7.632812 67.628906 Z M 11.964844 73.859375 C 11.351562 72.714844 10.636719 71.601562 9.636719 70.742188 C 9.242188 70.4375 8.871094 70.0625 8.421875 69.839844 C 8.296875 69.800781 8.167969 69.78125 8.035156 69.792969 C 8.074219 69.914062 8.136719 70.023438 8.222656 70.117188 C 9.539062 71.175781 10.636719 72.304688 11.398438 73.800781 C 11.5 73.992188 11.65625 74.359375 11.925781 74.195312 C 12.007812 74.089844 12.019531 73.980469 11.964844 73.859375 Z M 35.667969 89.789062 C 35.949219 90.46875 36.210938 91.230469 36.726562 91.769531 C 36.820312 91.828125 36.984375 91.859375 37.046875 91.753906 C 37.101562 91.652344 37.09375 91.554688 37.03125 91.460938 C 36.71875 91.097656 36.417969 90.4375 36.21875 89.984375 C 36.078125 89.46875 35.496094 88.734375 35.667969 89.789062 Z M 20.011719 80.6875 C 20.394531 81.949219 21.234375 83.027344 21.929688 84.132812 C 22.117188 84.347656 22.300781 84.8125 22.667969 84.574219 C 22.757812 84.464844 22.773438 84.34375 22.710938 84.214844 C 22.332031 83.691406 21.890625 83.054688 21.496094 82.40625 C 21.222656 81.949219 20.839844 81.351562 20.683594 80.949219 C 20.574219 80.679688 20.527344 80.359375 20.289062 80.164062 C 20.238281 80.136719 20.164062 80.046875 20.132812 80.113281 C 20 80.285156 19.960938 80.476562 20.011719 80.6875 Z M 16.585938 78.902344 C 16.699219 78.773438 16.707031 78.640625 16.613281 78.5 C 15.691406 77.0625 14.914062 75.539062 14.074219 74.054688 C 13.960938 73.878906 13.800781 73.773438 13.589844 73.738281 C 13.546875 73.832031 13.527344 73.929688 13.535156 74.03125 C 13.648438 74.660156 14.125 75.1875 14.386719 75.765625 C 14.96875 76.808594 15.511719 77.878906 16.175781 78.863281 C 16.285156 78.96875 16.472656 79.015625 16.585938 78.902344 Z M 19.558594 85.722656 C 19.699219 85.746094 19.878906 85.703125 19.929688 85.542969 C 19.949219 85.425781 19.917969 85.324219 19.835938 85.238281 C 18.992188 84.664062 18.097656 84.15625 17.242188 83.601562 C 17.046875 83.484375 16.839844 83.464844 16.621094 83.535156 C 16.640625 83.671875 16.695312 83.789062 16.785156 83.894531 C 17.113281 84.222656 17.554688 84.417969 17.925781 84.691406 C 18.476562 85.015625 18.984375 85.433594 19.558594 85.722656 Z M 24.402344 90.476562 C 24.785156 90.566406 25.164062 90.707031 25.550781 90.789062 C 25.648438 90.78125 25.78125 90.738281 25.796875 90.625 C 25.773438 90.476562 25.691406 90.386719 25.542969 90.355469 C 24.015625 89.804688 22.414062 89.640625 20.804688 89.699219 C 20.429688 89.75 20 89.675781 19.679688 89.921875 C 19.320312 90.125 19.953125 90.238281 20.132812 90.214844 C 21.59375 90.140625 23.015625 90.09375 24.402344 90.476562 Z M 31.164062 93.523438 C 31.15625 93.253906 30.859375 93.171875 30.628906 93.152344 C 28.949219 92.980469 27.519531 93.726562 25.878906 93.433594 C 25.625 93.398438 25.378906 93.335938 25.121094 93.308594 C 24.851562 93.34375 24.464844 93.398438 24.828125 93.695312 C 25.238281 93.980469 25.796875 93.957031 26.28125 94.046875 C 27.765625 94.265625 29.339844 93.546875 30.621094 93.769531 C 30.828125 93.851562 31.15625 93.785156 31.164062 93.523438 Z M 38.363281 94.210938 C 38.355469 94.0625 38.285156 93.957031 38.148438 93.898438 C 36.679688 93.441406 35.0625 93.285156 33.542969 93.597656 C 33.316406 93.644531 33.148438 93.773438 33.042969 93.980469 C 33.121094 94.046875 33.214844 94.089844 33.3125 94.113281 C 33.75 94.167969 33.863281 94.054688 34.199219 94.046875 C 35.496094 93.882812 36.875 94.09375 37.976562 94.449219 C 38.132812 94.488281 38.371094 94.398438 38.363281 94.210938 Z M 81.8125 17.988281 C 80.917969 16.984375 79.058594 16.902344 77.992188 17.722656 C 77.566406 18.054688 77.304688 18.546875 76.984375 18.980469 C 76.019531 20.277344 74.503906 21.023438 73.054688 21.75 C 71.609375 22.472656 70.113281 23.285156 69.246094 24.652344 C 68.382812 26.015625 68.441406 28.097656 69.789062 28.988281 C 70.988281 29.78125 72.570312 29.34375 74 29.199219 C 74.761719 29.121094 75.570312 29.144531 76.242188 29.511719 C 76.699219 29.765625 77.058594 30.15625 77.4375 30.519531 C 78.71875 31.738281 80.355469 32.648438 82.121094 32.808594 C 83.882812 32.96875 85.765625 32.300781 86.828125 30.886719 C 88.101562 29.183594 88.191406 26.5625 90.023438 25.480469 C 90.550781 25.171875 91.164062 25.03125 91.675781 24.703125 C 92.925781 23.890625 93.203125 22.039062 92.511719 20.722656 C 91.820312 19.40625 90.382812 18.605469 88.917969 18.332031 C 87.453125 18.058594 85.945312 18.242188 84.46875 18.460938 C 83.363281 18.621094 82.332031 18.570312 81.8125 17.988281 Z M 82.507812 80.230469 C 82.460938 80.28125 82.402344 80.320312 82.335938 80.34375 C 81.695312 80.628906 80.90625 80.292969 80.269531 80.582031 C 79.488281 80.933594 79.292969 82.039062 78.519531 82.40625 C 77.847656 82.726562 77 82.347656 76.3125 82.628906 C 75.546875 82.9375 75.300781 83.871094 74.808594 84.535156 C 74.703125 84.671875 74.546875 84.820312 74.375 84.789062 C 74.21875 84.753906 74.136719 84.589844 74.070312 84.445312 C 73.75 83.75 73.429688 83.050781 73.109375 82.355469 C 71.691406 82.429688 71.066406 82.210938 70.789062 81.808594 C 70.507812 81.40625 70.453125 80.90625 70.304688 80.441406 C 69.679688 78.542969 67.539062 77.4375 66.972656 75.511719 C 66.273438 75.628906 65.714844 74.957031 65.324219 74.316406 C 64.625 73.214844 64.03125 72.058594 63.550781 70.847656 C 63.449219 70.59375 63.351562 70.332031 63.367188 70.0625 C 63.386719 69.800781 63.542969 69.519531 63.796875 69.441406 C 64.066406 69.359375 64.363281 69.511719 64.558594 69.71875 C 64.796875 69.945312 64.960938 70.242188 65.199219 70.460938 C 65.4375 70.691406 65.789062 70.847656 66.09375 70.726562 C 66.382812 70.601562 66.527344 70.273438 66.800781 70.128906 C 66.996094 70.019531 67.226562 70.011719 67.414062 69.898438 C 67.628906 69.757812 67.726562 69.496094 67.898438 69.308594 C 68.269531 68.898438 68.925781 68.875 69.433594 69.085938 C 69.933594 69.308594 70.328125 69.71875 70.722656 70.101562 C 71.125 70.488281 71.558594 70.863281 72.09375 70.996094 C 72.378906 71.058594 72.664062 71.070312 72.953125 71.027344 C 73.324219 70.996094 73.71875 70.898438 73.980469 70.632812 C 74.316406 70.308594 74.382812 69.808594 74.382812 69.339844 C 74.375 68.875 74.308594 68.398438 74.449219 67.949219 C 74.582031 67.507812 75 67.097656 75.457031 67.164062 C 75.84375 67.222656 76.113281 67.582031 76.253906 67.949219 C 76.402344 68.316406 76.460938 68.710938 76.664062 69.046875 C 76.84375 69.359375 77.140625 69.59375 77.394531 69.855469 C 77.648438 70.109375 77.886719 70.421875 77.921875 70.789062 C 77.945312 71.152344 77.675781 71.550781 77.3125 71.542969 C 77.703125 72.027344 78.183594 72.398438 78.75 72.65625 C 79.003906 72.78125 79.308594 72.910156 79.363281 73.179688 C 79.429688 73.53125 79.011719 73.800781 78.652344 73.785156 C 79.40625 75.972656 81.007812 77.773438 82.386719 79.640625 C 82.507812 79.8125 82.640625 80.046875 82.507812 80.230469 Z M 69 74.761719 C 68.957031 74.605469 68.769531 74.398438 68.605469 74.523438 C 68.519531 74.632812 68.507812 74.75 68.574219 74.875 L 68.574219 74.882812 C 68.792969 75.414062 68.917969 75.980469 69.121094 76.511719 C 69.179688 76.585938 69.34375 76.878906 69.402344 76.699219 C 69.632812 76.046875 69.164062 75.382812 69 74.761719 Z M 70.691406 76.898438 C 70.632812 76.796875 70.492188 76.691406 70.371094 76.742188 C 70.230469 76.855469 70.304688 77.0625 70.394531 77.191406 C 70.730469 77.683594 70.855469 78.386719 71.414062 78.679688 C 71.511719 78.019531 70.945312 77.476562 70.691406 76.898438 Z M 73.167969 74.613281 C 73.183594 74.1875 72.855469 73.949219 72.683594 73.6875 C 72.445312 73.449219 72.273438 72.730469 71.839844 73.015625 C 71.535156 73.410156 72.09375 73.820312 72.289062 74.136719 C 72.488281 74.417969 72.789062 74.777344 73.167969 74.613281 Z M 76.796875 78.394531 C 76.664062 78.164062 76.640625 77.625 76.269531 77.691406 C 76.050781 77.886719 76.289062 78.183594 76.351562 78.402344 C 76.507812 78.691406 76.664062 79.550781 76.917969 79.582031 C 77.199219 79.207031 76.917969 78.78125 76.796875 78.394531 Z M 78.5625 78.386719 C 78.488281 77.992188 78.109375 77.632812 77.929688 77.378906 C 77.683594 77.175781 77.59375 76.59375 77.199219 76.675781 C 76.992188 76.847656 77.164062 77.117188 77.289062 77.28125 C 77.625 77.667969 77.863281 78.304688 78.414062 78.394531 C 78.460938 78.402344 78.511719 78.398438 78.5625 78.386719 Z M 108.542969 55.238281 C 107.894531 55.597656 107.15625 55.859375 106.910156 56.496094 C 106.800781 56.785156 106.808594 57.09375 106.761719 57.390625 C 106.664062 57.984375 106.382812 58.472656 105.90625 58.847656 C 105.425781 59.210938 104.882812 59.367188 104.28125 59.3125 C 102.773438 59.945312 101.761719 61.523438 102.015625 62.996094 C 102.058594 63.210938 102.117188 63.421875 102.105469 63.644531 C 102.066406 64.339844 101.359375 64.78125 100.726562 65.066406 C 99.464844 65.628906 98.15625 66.039062 96.796875 66.304688 C 96.007812 66.460938 95.195312 66.558594 94.410156 66.386719 C 95.230469 63.414062 95.835938 60.460938 95.976562 57.480469 C 96.050781 55.875 96.050781 54.125 97.078125 52.894531 C 97.332031 52.59375 97.699219 52.3125 98.09375 52.371094 C 98.585938 52.4375 98.875 53.011719 98.847656 53.507812 C 98.832031 53.804688 98.800781 54.195312 99.078125 54.289062 C 99.1875 54.304688 99.289062 54.292969 99.390625 54.253906 C 100.933594 53.828125 102.527344 53.5 104.125 53.582031 C 105.726562 53.65625 107.351562 54.164062 108.542969 55.238281 Z M 100.992188 59.355469 C 100.269531 59.117188 99.636719 59.820312 99.039062 60.132812 C 98.847656 60.28125 98.445312 60.402344 98.519531 60.703125 C 98.675781 60.8125 98.855469 60.679688 98.980469 60.582031 C 99.628906 60.105469 100.417969 59.878906 100.992188 59.355469 Z M 101.695312 57.75 C 101.195312 57.570312 100.628906 57.839844 100.128906 57.953125 C 99.875 58.042969 99.300781 58.191406 99.539062 58.558594 C 99.832031 58.796875 100.171875 58.445312 100.5 58.398438 C 100.769531 58.28125 102.402344 58.117188 101.695312 57.75 Z M 105.5625 55.382812 C 105.300781 55.007812 104.792969 55.039062 104.390625 54.964844 C 103.816406 54.925781 103.199219 54.730469 102.632812 54.875 C 102.558594 54.925781 102.484375 55 102.507812 55.097656 C 102.5625 55.222656 102.660156 55.289062 102.796875 55.292969 C 103.453125 55.292969 104.117188 55.390625 104.644531 55.472656 C 104.957031 55.53125 105.300781 55.589844 105.5625 55.382812 Z M 71.484375 68.6875 C 71.277344 68.445312 70.832031 67.765625 70.734375 67.476562 C 70.683594 67.289062 70.472656 67.109375 70.28125 67.214844 C 70.050781 67.355469 70.132812 67.648438 70.238281 67.847656 C 70.546875 68.4375 70.90625 69.078125 71.4375 69.484375 C 71.585938 69.558594 71.78125 69.585938 71.917969 69.484375 C 71.921875 69.152344 71.679688 68.921875 71.484375 68.6875 Z M 62.832031 67.734375 C 62.644531 67.28125 62.617188 66.601562 62.480469 66.140625 C 62.433594 66.070312 62.355469 65.996094 62.261719 66.019531 C 62.167969 66.054688 62.109375 66.125 62.085938 66.226562 C 62.128906 66.859375 62.230469 67.542969 62.515625 68.117188 C 62.625 68.285156 62.777344 68.390625 62.976562 68.433594 C 63.003906 68.183594 62.957031 67.953125 62.832031 67.734375 Z M 63.859375 67.398438 C 63.804688 67.242188 63.59375 67.0625 63.433594 67.195312 C 63.191406 67.558594 63.679688 67.949219 63.839844 68.265625 C 63.925781 68.476562 64.4375 68.835938 64.484375 68.664062 C 64.507812 68.164062 64.054688 67.824219 63.859375 67.398438 Z M 74.246094 65.28125 C 74.214844 65.113281 74.066406 64.875 73.867188 64.960938 C 73.746094 65.054688 73.710938 65.175781 73.757812 65.320312 C 73.855469 65.578125 73.9375 65.859375 74.117188 66.078125 C 74.199219 66.15625 74.46875 66.429688 74.476562 66.199219 C 74.539062 65.835938 74.339844 65.597656 74.246094 65.28125 Z M 74.246094 65.28125 " fill-opacity="1" fill-rule="nonzero"/></g><path fill="#40c6ff" d="M 74.394531 25.195312 C 73.820312 24.816406 73.332031 24.183594 73.421875 23.503906 C 73.484375 23.054688 73.796875 22.660156 74.195312 22.4375 C 74.589844 22.214844 75.0625 22.144531 75.515625 22.164062 C 76 22.1875 76.488281 22.3125 76.882812 22.59375 C 77.277344 22.875 77.566406 23.324219 77.582031 23.808594 C 77.59375 24.234375 77.496094 24.695312 77.21875 25.019531 C 76.277344 26.105469 75.082031 25.644531 74.394531 25.195312 Z M 87.964844 19.617188 C 86.8125 19.421875 85.570312 20.167969 85.203125 21.273438 C 85.066406 21.675781 85.050781 22.082031 85.167969 22.492188 C 85.289062 22.910156 85.542969 23.21875 85.933594 23.417969 C 86.570312 23.71875 87.371094 23.449219 87.847656 22.9375 C 88.328125 22.421875 88.542969 21.714844 88.65625 21.023438 C 88.71875 20.644531 88.753906 20.253906 87.964844 19.617188 Z M 87.964844 19.617188 " fill-opacity="1" fill-rule="nonzero"/><g clip-path="url(#185f0954e0)"><path fill="#29272b" d="M 63.675781 24.582031 C 63.617188 24.480469 63.597656 24.375 63.613281 24.257812 C 63.648438 23.929688 63.914062 23.6875 64.066406 23.410156 C 64.582031 22.605469 64.984375 21.871094 65.179688 20.976562 C 65.066406 20.765625 65.0625 20.433594 65.042969 20.105469 C 64.863281 19.121094 64.636719 17.449219 64.550781 16.722656 C 64.417969 15.578125 64.066406 14.164062 64.246094 12.816406 C 64.324219 12.101562 64.257812 11.332031 64.636719 10.691406 C 65.109375 9.925781 66.109375 9.554688 66.984375 9.609375 C 67.683594 9.640625 68.351562 9.9375 68.988281 10.214844 C 69.289062 10.386719 69.585938 10.5625 69.882812 10.734375 C 69.949219 10.753906 70.011719 10.777344 70.074219 10.796875 C 71.03125 11.148438 72.023438 11.378906 72.996094 11.679688 C 73.875 12.09375 75.449219 12.414062 75.90625 12.457031 C 75.917969 12.457031 75.925781 12.464844 75.9375 12.464844 C 77.125 12.453125 78.230469 12.429688 79.25 12.210938 C 79.628906 12.152344 79.996094 11.929688 80.382812 11.953125 C 80.480469 11.898438 80.582031 11.84375 80.683594 11.792969 C 82.652344 9.527344 84.898438 7.449219 87.503906 5.921875 C 88.558594 5.171875 89.703125 4.421875 91.019531 4.34375 C 91.679688 4.371094 92.40625 4.578125 92.90625 5.023438 C 93.234375 5.445312 93.21875 6.003906 93.234375 6.511719 C 93.175781 8.480469 92.617188 10.523438 92.792969 12.300781 C 92.792969 12.710938 93.015625 13.1875 93.058594 13.625 C 93.160156 13.761719 93.199219 13.980469 93.265625 14.128906 C 93.628906 14.921875 94.144531 15.308594 94.96875 15.6875 C 95.101562 15.785156 95.867188 15.929688 96.113281 16.195312 C 96.507812 16.613281 95.9375 16.796875 95.589844 16.671875 C 94.285156 16.257812 92.964844 15.453125 92.582031 14.066406 C 92.542969 14.007812 92.507812 13.941406 92.484375 13.871094 C 92.34375 13.277344 92.195312 12.675781 92.175781 12.0625 C 92.121094 10.535156 92.488281 8.714844 92.636719 7.59375 C 92.726562 6.808594 92.839844 5.835938 92.53125 5.359375 C 92.117188 5.015625 91.28125 4.785156 90.65625 4.878906 C 89.546875 5.105469 88.394531 5.839844 87.3125 6.628906 C 85.558594 8.039062 83.957031 10.390625 82.253906 12.285156 C 82.171875 12.402344 82.03125 12.507812 81.886719 12.453125 C 81.816406 12.398438 81.824219 12.285156 81.851562 12.203125 C 82.410156 11.433594 83.058594 10.714844 83.667969 9.980469 C 84.261719 9.28125 84.847656 8.5 85.5 7.75 C 84.003906 8.933594 82.644531 10.285156 81.289062 11.738281 C 81.226562 11.828125 81.152344 11.902344 81.070312 11.96875 C 81.046875 11.992188 81.027344 12.011719 81.007812 12.035156 C 80.902344 12.113281 80.785156 12.175781 80.660156 12.222656 C 80.601562 12.253906 80.542969 12.28125 80.488281 12.3125 C 80.425781 12.34375 80.363281 12.359375 80.292969 12.359375 C 80.203125 12.414062 80.105469 12.457031 80 12.480469 C 78.816406 12.875 77.554688 12.898438 76.3125 12.921875 C 76.257812 12.945312 76.199219 12.964844 76.140625 12.976562 C 75.660156 13.019531 75.359375 12.886719 74.828125 12.796875 C 74.121094 12.710938 73.480469 12.402344 72.816406 12.160156 C 72.429688 12.027344 72.039062 11.894531 71.652344 11.761719 C 71.992188 11.960938 72.332031 12.15625 72.671875 12.355469 C 73.621094 12.960938 74.339844 13.386719 75.316406 13.625 C 75.511719 13.648438 75.714844 13.769531 75.722656 13.984375 C 75.710938 14.269531 75.367188 14.316406 75.148438 14.238281 C 74.132812 14.011719 73.226562 13.503906 72.355469 12.960938 C 71.058594 12.226562 69.753906 11.503906 68.460938 10.761719 C 68.0625 10.570312 66.972656 10.15625 66.464844 10.285156 C 65.9375 10.394531 65.566406 10.515625 65.234375 10.851562 C 64.941406 11.113281 64.820312 11.902344 64.816406 12.066406 C 64.757812 12.820312 64.640625 13.582031 64.691406 14.339844 C 64.820312 15.167969 65.046875 16.40625 65.183594 17.375 C 65.296875 18.28125 65.488281 19.175781 65.65625 20.074219 C 65.667969 20.203125 65.6875 20.347656 65.699219 20.492188 C 65.742188 20.539062 65.769531 20.589844 65.78125 20.652344 C 65.683594 22.03125 64.867188 23.277344 64.101562 24.390625 C 63.984375 24.496094 63.835938 24.589844 63.675781 24.582031 Z M 63.789062 26.089844 C 64.246094 25.78125 64.519531 25.253906 64.882812 24.839844 C 65.074219 24.601562 65.429688 24.136719 65.007812 23.949219 C 64.820312 23.914062 64.683594 23.980469 64.597656 24.152344 C 64.441406 24.382812 64.269531 24.605469 64.085938 24.8125 C 63.832031 25.191406 63.300781 25.5 63.375 26.011719 C 63.398438 26.230469 63.652344 26.15625 63.789062 26.089844 Z M 62.734375 28.863281 C 63.070312 28.921875 63.359375 28.710938 63.609375 28.519531 C 64.242188 28.042969 64.554688 27.277344 64.84375 26.566406 C 64.882812 26.421875 64.816406 26.203125 64.644531 26.195312 C 64.46875 26.199219 64.371094 26.359375 64.320312 26.507812 C 63.914062 27.480469 63.566406 27.90625 62.832031 28.402344 C 62.746094 28.492188 62.59375 28.8125 62.734375 28.863281 Z M 64.238281 29.109375 C 63.957031 29.027344 63.785156 29.3125 63.597656 29.46875 C 63.414062 29.59375 63.15625 29.941406 63.292969 30.152344 C 63.722656 30.429688 64.933594 29.417969 64.238281 29.109375 Z M 62.738281 31.214844 C 62.804688 31.390625 62.9375 31.496094 63.125 31.527344 C 63.550781 31.59375 65.453125 31.003906 64.945312 30.386719 C 64.871094 30.324219 64.785156 30.292969 64.6875 30.292969 C 64.589844 30.292969 64.503906 30.324219 64.429688 30.386719 C 63.988281 30.671875 63.707031 30.761719 63.203125 30.914062 C 63.023438 30.976562 62.867188 31.074219 62.738281 31.214844 Z M 64.339844 32.917969 C 65.0625 33.898438 65.496094 35.347656 66.460938 36.253906 C 66.863281 36.527344 67.1875 37.007812 67.683594 37.089844 C 67.828125 37.105469 67.96875 37.078125 67.957031 36.898438 C 67.960938 36.425781 67.453125 36.21875 67.152344 35.933594 C 66.003906 35.179688 65.480469 33.304688 64.210938 32.136719 C 64.027344 31.992188 63.773438 31.65625 63.535156 31.875 C 63.5 31.96875 63.511719 32.058594 63.570312 32.140625 C 63.816406 32.40625 64.121094 32.621094 64.339844 32.917969 Z M 94.941406 17.257812 C 94.8125 17.089844 94.535156 17.035156 94.375 17.191406 C 93.738281 17.855469 96.683594 19.589844 97.261719 19.109375 C 97.546875 18.945312 97.519531 18.703125 97.246094 18.542969 C 96.472656 18.332031 95.628906 18.007812 94.941406 17.257812 Z M 95.179688 18.945312 C 95.027344 19.335938 95.539062 19.585938 95.75 19.855469 C 96.597656 20.671875 97.542969 21.257812 98.074219 22.210938 C 98.296875 22.445312 98.722656 22.542969 98.707031 22.09375 C 98.664062 21.585938 98.207031 21.195312 97.871094 20.84375 C 97.152344 20.199219 96.628906 19.925781 95.9375 19.242188 C 95.738281 19.066406 95.445312 18.636719 95.179688 18.945312 Z M 96.722656 22.023438 C 96.550781 21.769531 96.4375 21.242188 96.003906 21.527344 C 95.777344 21.761719 95.976562 22.074219 96.101562 22.308594 C 96.566406 23.132812 97.222656 23.894531 98.210938 24.042969 C 98.523438 24.132812 99.113281 23.871094 98.746094 23.523438 C 98.492188 23.261719 98.097656 23.292969 97.78125 23.144531 C 97.550781 23.105469 97.003906 22.492188 96.722656 22.023438 Z M 96.699219 24.804688 C 96.710938 25.027344 96.824219 25.164062 97.042969 25.210938 C 97.601562 25.335938 98.171875 25.445312 98.746094 25.449219 C 99.09375 25.449219 99.535156 25.011719 99.066406 24.800781 C 98.453125 24.589844 98.269531 24.726562 97.703125 24.558594 C 97.351562 24.476562 96.753906 24.261719 96.699219 24.804688 Z M 97.203125 29.15625 C 97.449219 28.28125 97.984375 27.492188 98.566406 26.820312 C 98.710938 26.695312 98.785156 26.425781 98.601562 26.308594 C 98.488281 26.253906 98.375 26.257812 98.269531 26.324219 C 97.023438 27.433594 96.511719 29.375 96.019531 30.722656 C 95.839844 31.191406 95.320312 32.253906 94.96875 32.617188 C 94.582031 33.175781 93.855469 33.441406 93.542969 34.035156 C 93.5 34.179688 93.480469 34.328125 93.621094 34.371094 C 93.667969 34.445312 93.726562 34.503906 93.800781 34.546875 C 93.996094 34.722656 94.175781 34.914062 94.339844 35.117188 C 95.210938 36.210938 95.179688 37.324219 96.097656 38.582031 C 96.601562 39.261719 97.265625 39.710938 98.085938 39.9375 C 98.324219 40.003906 98.53125 39.949219 98.710938 39.78125 C 98.855469 39.640625 98.792969 39.4375 98.664062 39.308594 C 98.511719 39.136719 98.285156 39.09375 98.074219 39.027344 C 97.324219 38.757812 96.6875 38.292969 96.230469 37.386719 C 95.65625 36.269531 95.296875 34.996094 94.292969 34.167969 C 94.34375 34.128906 94.390625 34.085938 94.441406 34.046875 C 96.082031 32.925781 96.691406 30.976562 97.203125 29.15625 Z M 86.605469 29.382812 C 86.539062 29.191406 86.558594 29.136719 86.429688 29.261719 C 86.390625 29.269531 86.003906 29.628906 85.929688 29.675781 C 85.746094 29.78125 85.558594 29.878906 85.363281 29.964844 C 84.878906 30.167969 84.585938 30.179688 84.199219 30.007812 C 84.011719 29.984375 83.574219 29.5625 83.277344 29.617188 C 83.105469 29.605469 82.960938 29.664062 82.847656 29.789062 C 82.609375 30.238281 81.5625 31.09375 81.070312 30.914062 C 80.703125 30.886719 80.140625 30.457031 79.929688 30.941406 C 79.875 31.121094 80.027344 31.339844 80.226562 31.390625 C 80.644531 31.546875 81.089844 31.691406 81.539062 31.613281 C 82.085938 31.511719 82.578125 31.1875 83.007812 30.84375 C 83.15625 30.691406 83.332031 30.53125 83.4375 30.339844 C 83.542969 30.394531 83.648438 30.445312 83.734375 30.496094 C 84.039062 30.671875 84.367188 30.761719 84.71875 30.765625 C 85.070312 30.769531 85.402344 30.6875 85.710938 30.519531 C 86.144531 30.308594 86.761719 29.957031 86.605469 29.382812 Z M 86.023438 34.484375 C 86.046875 34.390625 86.078125 34.265625 86.023438 34.179688 C 85.777344 34.058594 85.484375 34.183594 85.296875 34.351562 C 84.585938 34.992188 83.710938 35.199219 82.703125 34.863281 C 82.300781 34.839844 81.660156 34.332031 81.410156 34.828125 C 81.339844 35.246094 81.855469 35.300781 82.148438 35.394531 C 82.953125 35.628906 83.824219 35.847656 84.636719 35.523438 C 85.15625 35.3125 85.773438 35.015625 86.023438 34.484375 Z M 95.878906 40.984375 C 96.421875 41.519531 97.207031 41.796875 97.960938 41.652344 C 98.199219 41.609375 98.574219 41.277344 98.351562 41.042969 C 98.085938 40.804688 97.722656 40.945312 97.40625 40.917969 C 97.183594 40.921875 96.640625 40.691406 96.421875 40.433594 L 96.410156 40.421875 C 96.285156 40.203125 95.96875 40.078125 95.769531 40.277344 C 95.554688 40.488281 95.6875 40.808594 95.878906 40.984375 Z M 97.414062 42.953125 C 97.796875 42.929688 98.351562 42.96875 98.492188 42.519531 C 98.3125 41.980469 97.542969 42.300781 97.117188 42.238281 C 96.714844 42.324219 96.347656 41.917969 96.054688 42.417969 C 95.996094 43.09375 96.972656 42.929688 97.414062 42.953125 Z M 99.0625 43.753906 C 98.71875 43.453125 98.359375 43.902344 98.066406 44.070312 C 97.71875 44.363281 96.925781 44.621094 97.132812 45.1875 C 97.621094 45.484375 98.070312 44.914062 98.472656 44.695312 C 98.761719 44.476562 99.40625 44.1875 99.0625 43.753906 Z M 98.023438 49.34375 C 98.617188 49.238281 97.972656 48.621094 97.941406 48.625 C 97.484375 48.253906 97.058594 47.230469 96.898438 46.855469 C 96.855469 46.574219 96.515625 46.332031 96.273438 46.542969 C 96.222656 46.601562 96.101562 46.757812 96.136719 46.847656 C 96.171875 47.109375 96.3125 47.34375 96.414062 47.582031 C 96.777344 48.21875 97.144531 49.390625 98.023438 49.34375 Z M 96.90625 49.492188 C 96.882812 49.191406 96.5625 48.910156 96.269531 49.078125 C 95.847656 49.355469 96.160156 49.90625 96.300781 50.261719 C 96.550781 50.75 96.796875 51.308594 97.25 51.636719 C 98.171875 51.964844 97.828125 50.980469 97.558594 50.761719 C 97.203125 50.246094 97.015625 49.875 96.90625 49.492188 Z M 110.972656 57.136719 C 110.277344 55.976562 109.242188 55.023438 107.972656 54.523438 C 107.371094 54.277344 106.777344 53.898438 106.125 53.84375 C 105.972656 53.859375 105.75 53.910156 105.722656 54.082031 C 105.757812 54.4375 106.121094 54.582031 106.421875 54.675781 C 106.980469 54.910156 107.9375 55.328125 108.675781 55.835938 C 109.597656 56.445312 110.5625 57.757812 110.960938 58.851562 C 111.222656 59.871094 111.171875 61.390625 110.640625 62.179688 C 110.46875 62.410156 110.183594 62.519531 109.96875 62.613281 C 109.96875 62.613281 109.964844 62.613281 109.964844 62.613281 C 109.941406 62.179688 109.855469 61.761719 109.710938 61.351562 C 109.617188 61.070312 109.523438 60.734375 109.207031 60.632812 C 108.769531 60.5 108.808594 61.164062 108.933594 61.417969 C 109.160156 62.222656 109.269531 62.660156 109.121094 63.164062 C 109.042969 63.289062 108.960938 63.410156 108.871094 63.523438 C 108.933594 63.484375 108.511719 63.898438 108.417969 64 C 108.390625 64.015625 108.367188 64.035156 108.339844 64.050781 C 108.027344 64.292969 107.460938 64.335938 107.367188 64.3125 C 107.183594 64.285156 107.003906 64.242188 106.828125 64.175781 C 107.257812 63.644531 107.492188 62.976562 107.339844 62.277344 C 107.300781 62.09375 107.199219 61.949219 107.039062 61.847656 C 106.761719 61.671875 106.507812 61.972656 106.445312 62.226562 C 106.398438 62.804688 106.410156 62.769531 106.242188 63.164062 C 106.132812 63.351562 105.398438 64.28125 104.5625 64.316406 C 103.917969 64.429688 102.40625 64.046875 102.292969 63.410156 C 102.117188 62.742188 102.164062 62.703125 102.328125 61.953125 C 102.417969 61.707031 102.472656 61.28125 102.109375 61.257812 C 101.917969 61.269531 101.796875 61.367188 101.75 61.550781 C 101.632812 61.949219 101.503906 62.351562 101.476562 62.769531 C 101.417969 63.167969 101.472656 63.550781 101.644531 63.914062 C 100.917969 64.445312 100.191406 64.992188 99.355469 65.347656 C 98.929688 65.59375 97.28125 65.984375 96.84375 66.042969 C 96.125 66.117188 95.40625 66.144531 94.683594 66.125 C 94.695312 66.089844 94.703125 66.050781 94.714844 66.015625 C 95.066406 64.800781 95.359375 63.566406 95.605469 62.328125 C 96.132812 59.25 96.121094 56.503906 96.640625 53.878906 C 96.71875 53.378906 96.953125 52.886719 96.960938 52.386719 C 96.933594 52.304688 96.871094 52.214844 96.773438 52.214844 C 96.65625 52.222656 96.566406 52.28125 96.511719 52.386719 C 96.140625 53.507812 95.910156 54.671875 95.714844 55.835938 C 95.386719 58.082031 95.25 60.328125 94.703125 63.054688 C 94.464844 64.117188 94.242188 65.179688 93.941406 66.226562 C 93.921875 66.34375 93.925781 66.460938 93.957031 66.578125 C 93.738281 67.402344 93.609375 68.242188 93.570312 69.09375 C 93.257812 71.40625 93.832031 73.578125 94.492188 75.777344 C 94.835938 77.15625 94.992188 78.898438 94.808594 80.101562 C 94.753906 80.839844 94.402344 81.738281 94.480469 82.429688 C 94.628906 82.933594 95.046875 82.511719 95.132812 82.203125 C 95.773438 79.953125 95.773438 77.707031 95.125 75.457031 C 94.828125 74.335938 94.339844 72.949219 94.164062 71.949219 C 94.019531 70.976562 94.027344 69.53125 94.117188 68.402344 C 94.128906 67.8125 94.277344 67.246094 94.421875 66.675781 C 94.425781 66.675781 94.425781 66.675781 94.425781 66.671875 C 94.429688 66.667969 94.433594 66.660156 94.4375 66.65625 C 94.617188 66.792969 94.9375 66.765625 95.15625 66.773438 C 96.003906 66.769531 96.855469 66.742188 97.683594 66.558594 C 99.324219 66.328125 100.84375 65.601562 102.105469 64.539062 C 102.894531 65.273438 104.246094 65.527344 105.289062 65.238281 C 105.648438 65.121094 105.976562 64.945312 106.273438 64.714844 C 106.292969 64.722656 106.308594 64.730469 106.324219 64.738281 C 107.320312 65.292969 108.609375 65.097656 109.347656 64.214844 C 109.636719 63.964844 109.824219 63.65625 109.90625 63.289062 C 110.109375 63.257812 110.328125 63.132812 110.5 63.074219 C 111.535156 62.605469 111.8125 61.316406 111.878906 60.285156 C 111.988281 59.117188 111.6875 58.070312 110.972656 57.136719 Z M 98.945312 45.558594 C 98.890625 45.371094 98.664062 45.214844 98.476562 45.320312 C 98.136719 45.574219 98.457031 46.03125 98.492188 46.363281 C 98.847656 48.332031 98.605469 50.683594 98.480469 52.820312 C 98.519531 53.449219 98.222656 54.5625 98.917969 54.882812 C 98.953125 54.894531 98.980469 54.886719 99.007812 54.867188 C 99.164062 54.863281 99.3125 54.832031 99.453125 54.769531 C 100.566406 54.308594 101.4375 54.332031 102.714844 54.378906 C 103.265625 54.335938 103.949219 54.5625 104.410156 54.191406 C 104.640625 53.996094 104.316406 53.792969 104.128906 53.726562 C 102.480469 53.617188 100.753906 53.53125 99.199219 54.167969 C 99.175781 54.042969 99.164062 53.914062 99.167969 53.785156 C 99.15625 51.054688 99.707031 48.230469 98.945312 45.558594 Z M 76.707031 60.894531 C 76.859375 60.144531 77.101562 59.414062 77.171875 58.648438 C 77.441406 57.476562 77.351562 56.285156 77.179688 55.105469 C 77.171875 54.867188 77.015625 54.523438 76.730469 54.652344 C 76.605469 54.734375 76.558594 54.847656 76.582031 54.996094 C 76.671875 55.664062 76.847656 56.898438 76.714844 57.757812 C 76.578125 58.773438 76.292969 59.75 76.015625 60.730469 C 75.78125 62.121094 75.6875 63.121094 75.53125 64.804688 C 75.3125 66.53125 75.597656 68.339844 76.753906 69.699219 C 77.035156 70 77.238281 70.488281 77.707031 70.507812 C 77.902344 70.519531 78.03125 70.363281 78.03125 70.175781 C 78.050781 69.878906 77.839844 69.667969 77.675781 69.449219 C 76.253906 67.738281 76.195312 66.375 76.402344 64.164062 C 76.503906 63.070312 76.597656 61.675781 76.707031 60.894531 Z M 78.179688 71.785156 C 77.839844 71.566406 77.605469 70.699219 77.058594 71.257812 C 76.835938 71.8125 77.558594 72.25 77.90625 72.589844 C 78.3125 72.871094 78.714844 73.277344 79.226562 73.320312 C 79.546875 73.316406 79.726562 73.117188 79.53125 72.820312 C 79.015625 72.300781 78.566406 72.21875 78.179688 71.785156 Z M 80.664062 77.003906 C 80.160156 76.300781 79.582031 74.929688 78.914062 73.835938 C 78.828125 73.6875 78.605469 73.582031 78.464844 73.714844 C 78.382812 73.808594 78.355469 73.917969 78.386719 74.039062 C 78.613281 74.539062 78.902344 75.011719 79.164062 75.492188 C 79.566406 76.5 80.230469 77.683594 81.183594 78.589844 C 81.394531 78.925781 82.140625 79.292969 81.996094 78.589844 C 81.714844 77.960938 81.046875 77.578125 80.664062 77.003906 Z M 61.4375 59.828125 C 61.351562 59.898438 61.300781 59.992188 61.292969 60.105469 C 61.113281 62.054688 61.015625 64.007812 60.996094 65.964844 C 60.992188 68.089844 61.476562 70.21875 62.71875 71.976562 C 62.84375 72.179688 63.011719 72.382812 63.261719 72.425781 C 63.332031 72.445312 63.402344 72.441406 63.46875 72.417969 C 63.535156 72.292969 63.511719 72.140625 63.480469 72.007812 C 62.554688 70.566406 61.707031 68.804688 61.59375 67.332031 C 61.308594 65.046875 61.417969 62.730469 61.519531 60.433594 C 61.519531 60.226562 61.589844 59.996094 61.4375 59.824219 Z M 65.976562 75.234375 C 65.988281 75.101562 65.972656 74.976562 65.925781 74.851562 C 65.179688 73.714844 64.488281 72.574219 64.101562 71.296875 C 64.046875 71.195312 63.917969 71.082031 63.796875 71.140625 C 63.707031 71.207031 63.667969 71.292969 63.675781 71.402344 C 64.066406 72.71875 64.675781 73.921875 65.507812 75.011719 C 65.636719 75.140625 65.792969 75.214844 65.976562 75.234375 Z M 66.476562 74.570312 C 66.359375 74.660156 66.320312 74.773438 66.363281 74.914062 C 66.773438 75.78125 67.109375 76.699219 67.664062 77.484375 C 68.523438 78.390625 69.53125 79.730469 69.949219 80.621094 C 70.105469 80.9375 70.148438 81.335938 70.414062 81.585938 C 70.527344 81.679688 70.738281 81.804688 70.835938 81.636719 C 71.054688 81.308594 70.84375 80.9375 70.726562 80.613281 C 70.179688 79.320312 68.90625 77.925781 68.09375 77.109375 C 67.566406 76.359375 67.246094 75.480469 66.816406 74.679688 C 66.742188 74.578125 66.59375 74.507812 66.476562 74.570312 Z M 72.6875 83.128906 C 72.484375 82.5625 72.246094 82.007812 71.976562 81.46875 C 71.769531 81.140625 71.671875 80.707031 71.382812 80.445312 C 71.324219 80.40625 71.257812 80.398438 71.191406 80.425781 C 71.128906 80.480469 71.097656 80.550781 71.101562 80.632812 C 71.207031 81.035156 71.464844 81.390625 71.621094 81.773438 C 72 82.308594 71.972656 83.261719 72.632812 83.664062 C 72.761719 83.582031 72.722656 83.28125 72.691406 83.128906 Z M 73.90625 84 C 74.050781 83.964844 74.066406 83.785156 74.058594 83.660156 C 74.015625 83.265625 73.671875 82.992188 73.5 82.644531 C 73.242188 82.328125 73.105469 81.515625 72.566406 81.738281 C 72.105469 82.097656 72.691406 82.644531 72.847656 83.027344 C 73.117188 83.402344 73.339844 84.078125 73.90625 84 Z M 75.136719 88.617188 C 75.800781 89.257812 76.777344 89.332031 77.648438 89.199219 C 78.121094 89.105469 78.53125 88.886719 78.875 88.546875 C 79.113281 88.703125 79.503906 88.707031 79.765625 88.746094 C 80.75 88.898438 81.5 88.183594 81.972656 87.371094 C 83.457031 87.542969 84.597656 86.191406 84.984375 84.882812 C 85.253906 83.996094 85.140625 83.066406 84.761719 82.226562 C 84.398438 81.25 83.707031 80.347656 82.722656 79.941406 C 82.394531 79.796875 81.820312 80.046875 82.113281 80.445312 C 82.238281 80.65625 82.476562 80.726562 82.667969 80.855469 C 82.808594 80.945312 82.941406 81.046875 83.070312 81.15625 C 83.578125 81.566406 83.859375 82.1875 84.042969 82.636719 C 84.273438 83.292969 84.371094 83.484375 84.324219 84.074219 C 84.269531 84.972656 83.636719 86.425781 82.574219 86.714844 C 82.53125 86.742188 82.425781 86.738281 82.292969 86.730469 C 82.296875 86.726562 82.296875 86.722656 82.296875 86.71875 C 82.601562 85.867188 82.148438 85.015625 81.632812 84.347656 C 81.421875 84.066406 81.144531 83.714844 80.746094 83.804688 C 80.316406 83.925781 80.628906 84.519531 80.859375 84.707031 C 81.011719 84.886719 81.445312 85.550781 81.496094 85.84375 C 81.503906 85.878906 81.507812 85.902344 81.511719 85.917969 C 81.511719 85.925781 81.511719 85.925781 81.511719 85.9375 C 81.523438 86.011719 81.527344 86.085938 81.523438 86.160156 C 81.328125 87.003906 80.726562 87.789062 80.136719 87.910156 C 80.191406 87.921875 79.382812 87.867188 79.421875 87.847656 C 79.40625 87.84375 79.390625 87.84375 79.375 87.839844 C 79.410156 87.765625 79.4375 87.691406 79.460938 87.613281 C 79.621094 86.925781 79.507812 85.933594 78.824219 85.574219 C 78.320312 85.402344 78.390625 86.117188 78.566406 86.386719 C 78.496094 86.226562 78.5625 86.375 78.597656 86.457031 C 78.550781 86.351562 78.492188 86.25 78.421875 86.15625 C 78.351562 86.066406 78.269531 85.984375 78.175781 85.914062 C 78.082031 85.84375 77.984375 85.785156 77.875 85.738281 C 77.769531 85.695312 77.65625 85.664062 77.539062 85.644531 C 77.425781 85.628906 77.308594 85.628906 77.191406 85.640625 C 77.078125 85.65625 76.964844 85.683594 76.855469 85.726562 C 76.746094 85.769531 76.644531 85.824219 76.550781 85.894531 C 76.457031 85.960938 76.371094 86.042969 76.300781 86.132812 C 76.226562 86.222656 76.164062 86.320312 76.117188 86.425781 C 76.070312 86.535156 76.035156 86.644531 76.015625 86.757812 C 75.996094 86.875 75.992188 86.988281 76.003906 87.105469 C 76.011719 87.222656 76.039062 87.335938 76.078125 87.445312 C 76.117188 87.554688 76.171875 87.65625 76.238281 87.75 C 76.304688 87.847656 76.382812 87.933594 76.46875 88.007812 C 76.558594 88.085938 76.65625 88.148438 76.761719 88.199219 C 76.867188 88.25 76.976562 88.285156 77.089844 88.308594 C 77.207031 88.332031 77.320312 88.339844 77.4375 88.332031 C 77.554688 88.324219 77.667969 88.300781 77.777344 88.265625 C 77.890625 88.226562 77.996094 88.175781 78.09375 88.113281 C 78.191406 88.046875 78.277344 87.972656 78.355469 87.886719 C 78.433594 87.800781 78.5 87.707031 78.554688 87.601562 C 78.605469 87.5 78.648438 87.390625 78.671875 87.277344 C 78.699219 87.160156 78.707031 87.046875 78.703125 86.929688 C 78.699219 86.8125 78.679688 86.699219 78.644531 86.589844 C 78.753906 86.996094 78.726562 87.289062 78.523438 87.625 C 77.972656 88.550781 76.5 88.726562 75.5 87.949219 C 75.164062 87.703125 74.542969 87.167969 74.5 86.554688 C 74.390625 86.050781 74.523438 85.058594 74.59375 84.628906 C 74.597656 84.503906 74.535156 84.335938 74.394531 84.328125 C 74.285156 84.34375 74.207031 84.398438 74.15625 84.496094 C 74.019531 84.960938 74.007812 85.460938 73.941406 85.9375 C 73.785156 87.125 74.257812 87.964844 75.136719 88.617188 Z M 60.601562 49.140625 C 61.515625 47.414062 62.226562 45.988281 63.609375 44.765625 C 65.144531 43.210938 67.121094 41.824219 67.730469 39.617188 C 67.894531 38.96875 68.125 38.324219 68.210938 37.660156 C 68.207031 37.472656 68.0625 37.28125 67.867188 37.28125 C 67.441406 37.3125 67.5 37.804688 67.390625 38.105469 C 66.976562 40.421875 65.863281 41.769531 63.980469 43.3125 C 62.25 44.796875 60.800781 46.613281 59.996094 48.757812 C 59.910156 49.21875 60.199219 49.546875 60.601562 49.140625 Z M 59.773438 51.261719 C 60.320312 50.96875 60.667969 50.378906 61.085938 49.929688 C 61.300781 49.714844 61.535156 49.261719 61.132812 49.113281 C 60.890625 49.046875 60.714844 49.246094 60.597656 49.433594 C 60.46875 49.613281 60.113281 50.011719 59.859375 50.296875 C 59.6875 50.496094 59.449219 50.664062 59.390625 50.933594 C 59.375 51.039062 59.359375 51.164062 59.421875 51.257812 C 59.527344 51.320312 59.664062 51.296875 59.773438 51.261719 Z M 60.871094 51.121094 C 60.515625 50.960938 60.339844 51.414062 60.117188 51.605469 C 59.875 51.875 59.492188 52.132812 59.550781 52.546875 C 59.550781 52.574219 59.585938 52.570312 59.609375 52.574219 C 60.089844 52.636719 60.378906 52.152344 60.6875 51.859375 C 60.871094 51.671875 61.167969 51.34375 60.871094 51.121094 Z M 57.285156 56.21875 C 57.441406 56.25 57.589844 56.226562 57.730469 56.15625 C 58.28125 55.769531 58.78125 55.3125 59.273438 54.855469 C 59.675781 54.453125 60.175781 54.082031 60.453125 53.582031 C 60.488281 53.402344 60.441406 53.238281 60.285156 53.140625 C 60.09375 53.042969 59.917969 53.070312 59.765625 53.21875 C 58.996094 54.105469 58.054688 54.820312 57.199219 55.613281 C 57.074219 55.792969 56.996094 56.164062 57.285156 56.21875 Z M 50.558594 68.183594 C 52.171875 64.605469 54.878906 61.769531 57.140625 59.050781 C 57.796875 58.25 58.5 57.476562 59.035156 56.582031 C 59.109375 56.445312 59.097656 56.214844 58.925781 56.160156 C 58.800781 56.132812 58.699219 56.167969 58.613281 56.261719 C 58.175781 56.898438 57.953125 57.234375 57.488281 57.78125 C 56.582031 58.851562 55.675781 59.914062 54.710938 60.9375 C 54.132812 61.644531 53.824219 62.105469 53.308594 62.703125 C 52.242188 63.914062 51.410156 65.308594 50.613281 66.707031 C 50.402344 67.234375 49.914062 67.78125 50.066406 68.371094 C 50.132812 68.664062 50.476562 68.3125 50.558594 68.183594 Z M 48.335938 75.300781 C 48.480469 75.273438 48.582031 75.148438 48.660156 75.03125 C 48.820312 74.714844 48.847656 74.34375 48.96875 74.007812 C 49.433594 72.511719 49.914062 71.011719 50.488281 69.554688 C 50.5625 69.378906 50.464844 69.109375 50.25 69.109375 C 50.027344 69.109375 49.921875 69.316406 49.863281 69.503906 C 49.222656 71.261719 48.515625 73.03125 48.132812 74.859375 C 48.144531 75.023438 48.195312 75.203125 48.335938 75.300781 Z M 49.789062 74.210938 C 49.628906 74.175781 49.496094 74.214844 49.382812 74.332031 C 49.03125 74.808594 48.785156 75.417969 48.535156 75.984375 C 48.367188 76.394531 47.03125 79.605469 48.148438 79.140625 C 48.285156 79.042969 48.378906 78.917969 48.425781 78.757812 C 48.640625 77.933594 48.90625 77.128906 49.226562 76.339844 C 49.316406 76.125 49.675781 75.277344 49.984375 74.808594 C 50.109375 74.601562 50.039062 74.277344 49.789062 74.210938 Z M 48.683594 80.46875 C 48.773438 80.085938 49.011719 79.246094 48.363281 79.308594 C 48.167969 79.363281 48.066406 79.5625 48.066406 79.753906 C 48.066406 79.96875 47.753906 81.109375 47.644531 81.289062 C 47.5 81.59375 47.140625 81.9375 47.371094 82.285156 C 48.21875 82.585938 48.515625 81.050781 48.683594 80.46875 Z M 48.53125 82.070312 C 48.230469 82.074219 48.144531 82.382812 48.085938 82.625 C 47.964844 83.105469 47.390625 83.925781 47.007812 84.589844 C 47 84.734375 46.914062 84.785156 47.054688 85.046875 C 47.355469 85.226562 47.6875 84.9375 47.832031 84.679688 C 48.101562 84.246094 49.464844 82.210938 48.53125 82.070312 Z M 30.65625 85.796875 C 32.042969 86.019531 33.859375 85.988281 34.90625 86.175781 C 36.601562 86.476562 38.027344 86.699219 39.277344 87.628906 C 40.8125 88.65625 42.445312 89.351562 44.316406 89.382812 C 45.015625 89.484375 45.699219 89.640625 46.367188 89.859375 C 46.449219 89.890625 46.53125 89.898438 46.613281 89.878906 C 46.59375 90.109375 46.65625 90.316406 46.796875 90.5 C 46.816406 90.519531 46.839844 90.539062 46.863281 90.554688 C 46.953125 90.511719 47.023438 90.445312 47.074219 90.363281 C 47.433594 89.203125 47.226562 88.167969 47.589844 86.972656 C 47.746094 86.347656 47.9375 85.734375 48.164062 85.128906 C 48.183594 85.023438 48.167969 84.875 48.054688 84.832031 C 47.875 84.804688 47.761719 84.972656 47.707031 85.125 C 47.246094 86.242188 46.804688 87.988281 46.746094 88.898438 C 46.742188 88.988281 46.730469 89.078125 46.710938 89.167969 C 46.621094 89.117188 46.523438 89.074219 46.421875 89.046875 C 44.976562 88.535156 43.855469 88.589844 42.546875 88.261719 C 40.949219 87.890625 39.5 86.371094 37.617188 85.910156 C 35.207031 85.222656 32.816406 85.375 30.570312 85.003906 C 29.570312 84.722656 28.511719 84.214844 27.820312 83.65625 C 27.367188 83.335938 27.089844 82.777344 26.589844 82.53125 C 26.464844 82.484375 26.269531 82.472656 26.238281 82.644531 C 26.125 83.054688 26.488281 83.355469 26.730469 83.636719 C 27.753906 84.753906 29.203125 85.429688 30.65625 85.796875 Z M 47.050781 93.492188 C 47.484375 92.820312 47.59375 92.007812 47.695312 91.230469 C 47.695312 91.074219 47.589844 90.890625 47.417969 90.886719 C 47.167969 90.898438 47.113281 91.148438 47.097656 91.359375 C 47.046875 91.609375 47.007812 91.863281 46.941406 92.113281 C 46.777344 93.078125 45.898438 93.871094 45.867188 94.988281 C 45.816406 95.570312 45.777344 96.160156 45.777344 96.746094 C 45.773438 96.976562 45.863281 97.164062 46.046875 97.304688 C 46.167969 97.402344 46.285156 97.261719 46.351562 97.167969 C 46.617188 96.578125 46.417969 95.695312 46.523438 95.027344 C 46.550781 94.554688 46.710938 94.105469 47.050781 93.492188 Z M 47.421875 98.492188 C 47.382812 98.390625 47.144531 97.785156 47.109375 97.472656 C 47.148438 97.574219 47.058594 97.113281 46.789062 97.140625 C 46.363281 97.171875 46.4375 97.707031 46.53125 98.011719 C 46.726562 98.835938 47.179688 99.808594 48.09375 99.988281 C 48.355469 99.992188 48.628906 99.835938 48.449219 99.554688 C 48.050781 99.042969 47.609375 99.054688 47.421875 98.492188 Z M 58.0625 99.277344 C 58.097656 99.210938 58.097656 99.179688 58.027344 99.132812 C 57.855469 99.011719 57.667969 98.972656 57.460938 99.019531 C 56.292969 99.257812 55.183594 99.742188 54 99.902344 C 53.90625 99.90625 53.820312 99.925781 53.734375 99.960938 C 53.59375 100.027344 53.539062 100.136719 53.566406 100.289062 C 53.625 100.445312 53.734375 100.523438 53.902344 100.523438 C 54.691406 100.449219 55.460938 100.230469 56.21875 100.003906 C 56.792969 99.742188 57.675781 99.804688 58.0625 99.277344 Z M 57.003906 100.511719 C 57.871094 100.386719 58.375 100.273438 59.222656 100.277344 C 60.828125 100.304688 62.445312 100.503906 64.027344 100.117188 C 64.183594 100.085938 64.3125 100.007812 64.414062 99.886719 C 64.59375 99.691406 64.472656 99.589844 64.269531 99.507812 C 63.390625 99.410156 62.925781 99.71875 62.105469 99.707031 C 60.386719 99.769531 58.65625 99.589844 56.964844 100.007812 C 56.8125 100.042969 56.648438 100.214844 56.730469 100.371094 C 56.796875 100.46875 56.890625 100.515625 57.003906 100.511719 Z M 70.898438 96.78125 C 71.390625 96.433594 71.546875 95.769531 71.828125 95.261719 C 72.933594 92.835938 72.761719 90.042969 72.023438 87.539062 C 71.742188 86.722656 71.328125 85.976562 70.78125 85.308594 C 70.710938 85.269531 70.605469 85.238281 70.539062 85.300781 C 70.484375 85.371094 70.46875 85.453125 70.492188 85.539062 C 70.699219 85.96875 70.992188 86.359375 71.207031 86.789062 C 71.714844 87.773438 71.800781 88.988281 71.90625 89.894531 C 72.160156 92.257812 71.476562 94.238281 70.464844 96.261719 C 70.378906 96.574219 70.488281 97.015625 70.898438 96.78125 Z M 92.855469 89.3125 C 93.15625 89.171875 93.226562 88.824219 93.359375 88.550781 C 93.699219 87.742188 93.988281 86.90625 94.125 86.039062 C 94.257812 84.921875 94.261719 83.789062 94.34375 82.664062 C 94.339844 82.441406 94.132812 82.214844 93.894531 82.277344 C 93.792969 82.3125 93.714844 82.375 93.660156 82.464844 C 93.492188 83.300781 93.542969 84.1875 93.457031 85.042969 C 93.445312 86.207031 93.011719 87.429688 92.464844 88.703125 C 92.410156 88.835938 92.398438 88.96875 92.425781 89.101562 C 92.472656 89.351562 92.636719 89.433594 92.855469 89.3125 Z M 99.101562 96.960938 C 99.039062 96.550781 98.703125 96.265625 98.421875 95.976562 C 98.207031 95.765625 97.96875 95.578125 97.714844 95.414062 C 97.726562 95.265625 97.59375 95.136719 97.460938 95.078125 C 96.191406 94.285156 94.613281 94.25 93.167969 94.449219 C 91.636719 94.726562 89.945312 95.09375 88.449219 95.398438 C 89.261719 94.644531 90.050781 93.824219 90.445312 93.308594 C 91.175781 92.375 91.753906 91.351562 92.175781 90.238281 C 92.210938 90.117188 92.175781 89.9375 92.035156 89.886719 C 91.914062 89.867188 91.8125 89.90625 91.742188 90.011719 C 91.390625 90.699219 91.117188 91.445312 90.632812 92.058594 C 89.28125 93.671875 86.957031 95.855469 85.183594 96.984375 C 85.167969 97 85.144531 97.019531 85.132812 97.027344 C 85.011719 97.164062 84.816406 97.492188 85.085938 97.566406 C 85.742188 97.699219 86.285156 97.042969 86.824219 96.738281 C 87.070312 96.566406 87.351562 96.347656 87.644531 96.101562 C 87.6875 96.09375 87.71875 96.09375 87.753906 96.085938 C 89.074219 95.839844 90.394531 95.632812 91.707031 95.324219 C 93.113281 94.921875 94.320312 94.742188 95.566406 94.875 C 95.914062 94.917969 96.25 95.003906 96.574219 95.128906 C 96.214844 95.109375 95.84375 95.160156 95.65625 95.488281 C 95.460938 95.796875 96.371094 95.726562 96.566406 95.75 C 97.140625 95.765625 97.511719 95.996094 97.980469 96.445312 C 98.289062 96.757812 98.480469 96.863281 98.519531 97.199219 C 98.535156 97.300781 98.535156 97.40625 98.527344 97.507812 C 98.003906 97.160156 97.425781 97.015625 96.796875 97.074219 C 96.558594 97.082031 96.304688 97.214844 96.214844 97.4375 C 96.238281 97.476562 96.269531 97.511719 96.304688 97.542969 C 96.46875 97.6875 96.691406 97.714844 96.894531 97.707031 C 97.019531 97.710938 97.144531 97.722656 97.265625 97.746094 C 98.816406 97.925781 98.734375 99.074219 98.273438 99.71875 C 97.371094 100.285156 96.730469 100.480469 95.625 100.652344 C 92.964844 101.242188 89.679688 100.777344 86.695312 100.839844 C 84.921875 100.988281 83.148438 100.980469 81.375 100.949219 C 81.269531 100.953125 81.183594 100.992188 81.113281 101.070312 C 81.007812 100.878906 80.878906 100.707031 80.726562 100.554688 C 80.828125 100.5625 80.925781 100.554688 81.023438 100.53125 C 82.25 99.941406 83.28125 99.113281 84.117188 98.042969 C 84.355469 97.753906 84.871094 97.304688 84.421875 96.976562 C 84.226562 96.875 84.054688 96.902344 83.902344 97.058594 C 83.023438 98.179688 82.320312 98.941406 81.1875 99.570312 C 80.972656 99.726562 80.710938 99.835938 80.5625 100.054688 C 80.503906 100.136719 80.472656 100.230469 80.472656 100.332031 C 80.414062 100.285156 80.351562 100.242188 80.285156 100.203125 C 79.101562 99.328125 77.625 99.515625 76.246094 99.449219 C 74.792969 99.328125 73.734375 99.121094 72.691406 98.949219 C 72.167969 98.746094 71.257812 98.621094 70.984375 98.621094 C 70.738281 98.582031 70.410156 98.539062 70.246094 98.515625 C 70.285156 98.480469 70.320312 98.441406 70.351562 98.402344 C 70.589844 98.066406 70.953125 97.65625 70.8125 97.214844 C 70.699219 96.886719 70.238281 97.207031 70.132812 97.402344 C 69.613281 98.277344 68.851562 98.910156 67.785156 99.441406 C 67.316406 99.636719 66.003906 99.996094 65.453125 100.070312 C 64.929688 100.152344 64.386719 100.113281 63.863281 100.1875 C 63.746094 100.226562 63.640625 100.359375 63.679688 100.488281 C 63.722656 100.609375 63.804688 100.683594 63.925781 100.710938 C 64.773438 100.753906 65.613281 100.675781 66.4375 100.480469 C 67.667969 100.292969 68.84375 99.816406 69.761719 99.007812 C 70.105469 99.203125 70.886719 99.238281 71.320312 99.308594 C 72.101562 99.449219 72.90625 99.800781 74.078125 99.925781 C 75.144531 100.128906 75.769531 100.1875 76.894531 100.261719 C 77.722656 100.285156 78.207031 100.21875 78.832031 100.421875 C 80.367188 100.921875 80.785156 101.546875 80.71875 103.371094 C 80.71875 103.46875 80.324219 103.789062 79.972656 104.074219 C 79.917969 103.445312 79.644531 102.929688 79.152344 102.527344 C 78.839844 102.304688 78.453125 101.945312 78.050781 102.144531 C 77.886719 102.214844 77.832031 102.355469 77.929688 102.503906 C 78.304688 103.019531 78.59375 102.945312 78.9375 103.402344 C 79.414062 103.992188 79.480469 105 78.453125 105.261719 C 77.988281 105.394531 77.515625 105.453125 77.035156 105.441406 C 76.992188 105.433594 76.945312 105.425781 76.902344 105.425781 C 77.109375 104.3125 76.269531 103.109375 74.414062 103.140625 C 73.949219 103.15625 73.519531 103.617188 74.144531 103.828125 C 74.828125 103.960938 75.023438 103.871094 75.597656 104.171875 C 76.402344 104.613281 76.632812 105.710938 75.351562 106.308594 C 73.785156 106.980469 72.117188 106.121094 70.261719 105.597656 C 67.914062 104.933594 65.519531 104.484375 63.15625 103.878906 C 60.4375 103.386719 58.304688 102.40625 55.867188 101.28125 C 54.800781 100.832031 53.644531 100.628906 52.558594 100.226562 C 52.566406 100.21875 52.585938 100.210938 52.59375 100.203125 C 52.90625 100.054688 53.308594 100.007812 53.496094 99.695312 C 53.535156 99.605469 53.585938 99.507812 53.542969 99.410156 C 53.460938 99.300781 53.324219 99.269531 53.191406 99.261719 C 52.371094 99.390625 52.066406 99.777344 51.304688 99.898438 C 50.941406 100.023438 49.949219 99.933594 49.621094 99.875 C 49.410156 99.867188 49.179688 100.0625 49.246094 100.285156 C 49.296875 100.457031 49.410156 100.550781 49.589844 100.570312 C 50.195312 100.726562 51.074219 100.660156 51.753906 100.503906 C 51.816406 100.570312 51.890625 100.617188 51.976562 100.644531 C 53.035156 101.136719 54.191406 101.324219 55.285156 101.734375 C 57.105469 102.496094 59.371094 103.730469 61.578125 104.230469 C 64.238281 104.875 66.921875 105.457031 69.589844 106.113281 C 71.257812 106.570312 72.890625 107.390625 74.652344 107.242188 C 75.664062 107.101562 76.328125 106.628906 76.671875 106.046875 C 77.089844 106.269531 78.085938 106.105469 78.59375 105.964844 C 79.324219 105.800781 79.734375 105.328125 79.898438 104.777344 C 80.277344 104.613281 80.5625 104.269531 80.898438 104.042969 C 81.351562 103.773438 81.390625 103.257812 81.390625 102.78125 C 81.476562 102.308594 81.429688 101.851562 81.253906 101.40625 C 81.335938 101.433594 81.421875 101.445312 81.507812 101.4375 C 83.492188 101.511719 85.480469 101.503906 87.472656 101.472656 C 90.460938 101.636719 93.515625 101.960938 96.453125 101.234375 C 97.085938 101.109375 97.675781 100.839844 98.25 100.546875 C 98.554688 100.398438 98.867188 100.234375 99.023438 99.925781 C 99.414062 99.210938 99.375 98.566406 99.0625 98.066406 C 99.242188 97.796875 99.121094 97.246094 99.101562 96.960938 Z M 24.488281 81.574219 C 24.769531 81.792969 25.296875 82.511719 25.613281 82.042969 C 25.636719 81.921875 25.601562 81.820312 25.507812 81.738281 C 24.835938 81.257812 24.136719 80.425781 23.53125 79.722656 C 22.863281 79.019531 22.8125 77.738281 22.429688 76.738281 C 22.367188 76.644531 22.28125 76.578125 22.179688 76.53125 C 22.117188 76.589844 22.070312 76.65625 22.042969 76.738281 C 21.910156 77.105469 22.101562 77.492188 22.15625 77.859375 C 22.375 79.386719 23.425781 80.535156 24.488281 81.574219 Z M 21.292969 78.703125 C 21.394531 78.886719 21.636719 79.085938 21.835938 78.917969 C 21.90625 78.835938 21.925781 78.742188 21.898438 78.640625 C 21.621094 78.140625 21.316406 77.644531 21.078125 77.121094 C 20.636719 76.425781 20.746094 75.667969 20.671875 74.753906 C 20.628906 74.609375 20.550781 74.453125 20.40625 74.386719 C 20.277344 74.449219 20.1875 74.550781 20.140625 74.6875 C 20.023438 75.039062 20.101562 75.433594 20.109375 75.800781 C 20.132812 76.878906 20.769531 77.796875 21.292969 78.703125 Z M 19.203125 76.652344 C 19.320312 76.867188 19.667969 77.003906 19.820312 76.757812 C 19.886719 76.636719 19.886719 76.515625 19.816406 76.394531 C 19.476562 75.9375 19.078125 75.128906 18.753906 74.480469 C 18.363281 73.679688 18.191406 72.957031 18.207031 72.070312 C 18.207031 71.917969 18.167969 71.777344 18.085938 71.648438 C 18.027344 71.570312 17.945312 71.472656 17.839844 71.515625 C 17.195312 71.867188 17.570312 72.777344 17.617188 73.355469 C 17.898438 74.542969 18.550781 75.628906 19.203125 76.652344 Z M 17.507812 74.390625 C 17.574219 74.238281 17.546875 74.109375 17.429688 74 C 16.996094 73.53125 16.730469 73.136719 16.34375 72.621094 C 15.519531 71.261719 15.410156 69.742188 15.3125 68.1875 C 15.304688 67.941406 15.046875 67.476562 14.773438 67.714844 C 14.398438 68.089844 14.640625 68.667969 14.632812 69.132812 C 14.828125 70.683594 15.1875 72.28125 16.257812 73.476562 C 16.582031 73.808594 16.8125 74.359375 17.277344 74.496094 C 17.375 74.503906 17.449219 74.46875 17.507812 74.390625 Z M 13.578125 69.28125 C 13.6875 69.171875 13.671875 68.996094 13.601562 68.867188 C 13.355469 67.835938 13.351562 66.304688 13.601562 65.167969 C 13.613281 65.03125 13.597656 64.902344 13.546875 64.773438 C 13.351562 64.828125 13.214844 64.953125 13.132812 65.136719 C 12.886719 65.574219 12.6875 69.726562 13.578125 69.28125 Z M 11.640625 67.226562 C 11.84375 67.164062 11.898438 66.914062 11.835938 66.730469 C 11.832031 66.660156 11.855469 66.105469 11.894531 65.980469 C 12.003906 65.425781 12.082031 64.816406 12.320312 64.453125 C 12.378906 64.394531 12.59375 64.089844 12.535156 63.832031 C 12.53125 63.773438 12.5 63.738281 12.441406 63.726562 C 12.066406 63.625 11.769531 63.96875 11.636719 64.273438 C 11.4375 64.742188 10.742188 67.320312 11.640625 67.226562 Z M 5.929688 64.136719 C 7.480469 64.140625 9.125 64.746094 9.820312 65.867188 C 9.921875 66.082031 10.242188 66.195312 10.425781 66.011719 C 10.59375 65.839844 10.535156 65.589844 10.421875 65.40625 C 9.503906 64.0625 7.808594 63.445312 6.234375 63.351562 C 5.441406 63.226562 4.871094 63.992188 5.929688 64.136719 Z M 5.671875 80.28125 C 5.441406 80.101562 4.996094 80.121094 4.984375 80.484375 C 4.988281 80.648438 5.0625 80.769531 5.210938 80.847656 C 5.683594 81.097656 6.132812 81.378906 6.566406 81.691406 C 7.691406 82.421875 8.417969 83.414062 9.265625 84.539062 C 11.511719 87.847656 12.738281 92.296875 16.660156 94.066406 C 17.140625 94.207031 17.484375 93.941406 17.09375 93.488281 C 11.941406 90.816406 11.507812 83.046875 5.671875 80.28125 Z M 29.476562 99.214844 C 29.664062 99.214844 29.855469 99.203125 30.015625 99.09375 C 30.410156 98.855469 30.105469 98.550781 29.773438 98.480469 C 27.558594 98.40625 25.035156 98.445312 23.429688 98.089844 C 21.449219 97.507812 19.816406 96.648438 18.148438 95.304688 C 17.964844 95.148438 17.691406 94.800781 17.460938 95.0625 C 17.402344 95.195312 17.425781 95.316406 17.527344 95.417969 C 18.292969 96.1875 19.214844 96.777344 20.132812 97.351562 C 21.878906 98.371094 23.773438 99.121094 25.820312 99.144531 C 27.035156 99.246094 28.257812 99.234375 29.476562 99.214844 Z M 40.683594 100.429688 C 40.980469 100.167969 40.730469 99.945312 40.425781 99.871094 C 36.640625 100.039062 33.128906 101.453125 29.449219 99.917969 C 29.070312 99.773438 28.722656 99.519531 28.328125 99.441406 C 28.234375 99.445312 28.125 99.488281 28.097656 99.589844 C 28.0625 99.738281 28.167969 99.882812 28.300781 99.945312 C 29.34375 100.507812 30.4375 100.976562 31.613281 101.179688 C 33.542969 101.542969 35.519531 101.28125 37.449219 101.027344 C 38.421875 100.894531 39.390625 100.742188 40.359375 100.597656 C 40.484375 100.570312 40.589844 100.511719 40.683594 100.429688 Z M 42.191406 100.6875 C 40.988281 101.007812 39.847656 101.351562 38.628906 101.328125 C 38.460938 101.304688 38.207031 101.398438 38.238281 101.597656 C 38.28125 101.710938 38.359375 101.773438 38.476562 101.796875 C 39.769531 101.84375 41.066406 101.53125 42.289062 101.128906 C 42.453125 101.054688 42.578125 100.9375 42.660156 100.78125 C 42.515625 100.699219 42.355469 100.667969 42.191406 100.6875 Z M 46.136719 99.8125 C 45.578125 99.945312 45.070312 100.292969 44.53125 100.503906 C 43.925781 100.867188 43.25 100.867188 42.765625 101.339844 C 42.71875 101.414062 42.667969 101.519531 42.722656 101.601562 C 42.824219 101.742188 43 101.796875 43.164062 101.804688 C 43.855469 101.695312 44.480469 101.328125 45.121094 101.066406 C 45.550781 100.820312 46.109375 100.726562 46.457031 100.371094 C 46.53125 100.246094 46.535156 100.121094 46.46875 99.996094 C 46.390625 99.875 46.28125 99.816406 46.136719 99.8125 Z M 5.808594 79.066406 C 5.84375 78.914062 5.804688 78.78125 5.683594 78.679688 C 4.667969 77.957031 3.601562 77.261719 2.449219 76.789062 C 2.238281 76.726562 1.960938 76.746094 1.816406 76.925781 C 1.816406 77.046875 1.902344 77.148438 1.976562 77.238281 C 2.800781 77.707031 3.867188 78.214844 4.761719 78.847656 C 5.105469 79.019531 5.496094 79.589844 5.808594 79.066406 Z M 4.480469 76.019531 C 4.605469 76.152344 4.890625 76.1875 4.964844 75.988281 C 4.976562 75.960938 4.980469 75.933594 4.980469 75.90625 C 4.972656 75.820312 4.941406 75.742188 4.882812 75.679688 C 4.246094 75.117188 3.648438 74.511719 3.09375 73.863281 C 2.585938 73.234375 2.273438 72.269531 1.914062 71.46875 C 1.839844 71.359375 1.742188 71.277344 1.621094 71.222656 C 1.554688 71.316406 1.515625 71.417969 1.503906 71.535156 C 1.496094 72.054688 1.8125 72.539062 1.996094 73.015625 C 2.519531 74.234375 3.523438 75.140625 4.480469 76.019531 Z M 3.242188 70.964844 C 3.339844 70.789062 3.238281 70.605469 3.117188 70.480469 C 2.273438 69.25 1.507812 67.976562 1.128906 66.621094 C 1.101562 66.453125 1.027344 66.308594 0.910156 66.1875 C 0.859375 66.144531 0.785156 66.058594 0.742188 66.101562 C 0.457031 66.308594 0.480469 66.691406 0.589844 66.984375 C 1.058594 68.382812 1.824219 69.691406 2.6875 70.878906 C 2.800781 71.058594 3.105469 71.175781 3.242188 70.964844 Z M 1.289062 64.980469 C 2.054688 65.042969 2.820312 65.136719 3.585938 65.207031 C 3.746094 65.199219 3.9375 65.066406 3.890625 64.886719 C 3.851562 64.765625 3.769531 64.691406 3.644531 64.660156 C 2.753906 64.578125 1.859375 64.460938 0.964844 64.417969 C 0.0195312 64.578125 0.746094 65.003906 1.289062 64.980469 Z M 64.101562 52.214844 C 63.964844 52.1875 63.851562 52.222656 63.757812 52.324219 C 63.238281 53.183594 62.695312 54.132812 62.539062 55.132812 C 62.558594 55.308594 62.65625 55.671875 62.878906 55.480469 C 63.144531 55.308594 63.183594 54.988281 63.269531 54.714844 C 63.527344 54.003906 63.855469 53.324219 64.246094 52.675781 C 64.332031 52.527344 64.292969 52.265625 64.101562 52.214844 Z M 63.613281 56.691406 C 63.457031 57.1875 63.460938 57.722656 63.382812 58.238281 C 63.367188 58.644531 63.175781 59.175781 63.566406 59.464844 C 63.609375 59.5 63.660156 59.460938 63.699219 59.433594 C 64.109375 59.121094 63.96875 58.535156 64.09375 57.921875 C 64.148438 57.402344 64.179688 57.316406 64.242188 56.847656 C 64.242188 56.675781 64.109375 56.496094 63.925781 56.496094 C 63.785156 56.503906 63.679688 56.570312 63.613281 56.691406 Z M 64.847656 59.167969 C 64.722656 59.210938 64.648438 59.292969 64.617188 59.417969 C 64.566406 60.214844 64.660156 60.996094 64.898438 61.761719 C 64.980469 61.898438 65.101562 62.03125 65.261719 62.0625 C 65.453125 61.839844 65.421875 61.53125 65.355469 61.269531 C 65.222656 60.65625 65.164062 60.035156 65.175781 59.40625 C 65.136719 59.257812 64.996094 59.125 64.847656 59.167969 Z M 69.074219 41.453125 C 68.945312 41.429688 68.84375 41.472656 68.769531 41.578125 C 68.488281 42.058594 68.171875 42.515625 67.828125 42.949219 C 67.570312 43.296875 67.136719 43.609375 67.195312 44.085938 C 67.652344 44.125 67.882812 43.652344 68.144531 43.363281 C 68.527344 42.835938 69.015625 42.324219 69.21875 41.699219 C 69.21875 41.59375 69.164062 41.476562 69.074219 41.453125 Z M 68.511719 44.734375 C 68.992188 44.894531 69.324219 44.386719 69.65625 44.128906 C 69.917969 43.789062 70.824219 43.339844 70.320312 42.878906 C 70.070312 42.742188 69.847656 42.949219 69.695312 43.128906 C 69.328125 43.574219 68.785156 43.890625 68.511719 44.398438 C 68.480469 44.5 68.441406 44.648438 68.511719 44.734375 Z M 71.644531 45.945312 C 71.941406 45.492188 71.542969 44.972656 71.507812 44.492188 C 71.503906 44.464844 71.5 44.445312 71.5 44.441406 L 71.496094 44.414062 C 71.496094 44.195312 71.402344 43.871094 71.121094 43.921875 C 70.777344 44.0625 70.945312 44.496094 70.980469 44.773438 C 71.097656 45.195312 71.128906 45.828125 71.644531 45.945312 Z M 75.820312 46.894531 C 75.398438 47.226562 75.746094 47.878906 75.714844 48.339844 C 75.691406 48.820312 76.007812 49.4375 76.34375 49.078125 C 76.671875 48.640625 76.40625 48.042969 76.421875 47.539062 C 76.441406 47.1875 76.257812 46.6875 75.820312 46.894531 Z M 83.199219 54.742188 C 83.328125 54.847656 83.476562 54.894531 83.640625 54.882812 C 83.71875 54.667969 83.640625 54.417969 83.503906 54.246094 C 83.035156 53.636719 82.707031 52.953125 82.441406 52.335938 C 82.359375 52.25 82.226562 52.199219 82.117188 52.257812 C 81.988281 52.339844 81.953125 52.527344 82.003906 52.667969 C 82.265625 53.433594 82.667969 54.125 83.199219 54.742188 Z M 85 53.757812 C 84.945312 53.539062 84.757812 53.238281 84.519531 53.359375 C 84.289062 53.511719 84.417969 53.804688 84.511719 54.003906 C 84.644531 54.300781 84.859375 54.636719 85.222656 54.648438 C 85.378906 54.363281 85.066406 53.878906 85 53.757812 Z M 92.566406 49.207031 C 92.160156 49.519531 92.503906 50.261719 92.464844 50.71875 C 92.5 50.976562 92.464844 51.261719 92.625 51.480469 C 92.691406 51.574219 92.785156 51.679688 92.910156 51.683594 C 93.019531 51.65625 93.09375 51.546875 93.144531 51.453125 C 93.324219 50.9375 93.113281 50.359375 93.121094 49.824219 C 93.132812 49.496094 92.984375 49.019531 92.566406 49.207031 Z M 91.316406 50.582031 C 90.886719 50.839844 91.34375 51.832031 91.773438 51.746094 C 92.148438 51.472656 91.863281 50.320312 91.316406 50.582031 Z M 75.636719 22.6875 C 75.527344 22.722656 75.4375 22.777344 75.355469 22.859375 C 75.191406 23.011719 75.066406 23.195312 74.980469 23.40625 C 74.890625 23.617188 74.855469 23.832031 74.863281 24.058594 C 74.871094 24.285156 74.929688 24.5 75.03125 24.703125 C 75.132812 24.90625 75.273438 25.078125 75.453125 25.21875 C 75.667969 25.390625 75.953125 25.503906 76.21875 25.433594 C 76.542969 25.347656 76.742188 25.011719 76.820312 24.683594 C 76.925781 24.261719 76.984375 23.730469 76.460938 23.121094 C 76.246094 22.875 75.953125 22.597656 75.636719 22.6875 Z M 87.230469 21.613281 C 87.125 21.371094 87.058594 21.113281 86.921875 20.890625 C 86.789062 20.664062 86.5625 20.46875 86.296875 20.464844 C 86.066406 20.464844 85.851562 20.613281 85.726562 20.808594 C 85.609375 21.011719 85.542969 21.230469 85.53125 21.46875 C 85.488281 21.921875 85.546875 22.414062 85.839844 22.769531 C 86.132812 23.121094 86.710938 23.257812 87.0625 22.96875 C 87.347656 22.734375 87.503906 22.265625 87.230469 21.613281 Z M 81.285156 28.023438 C 81.601562 28.066406 81.960938 27.777344 82.203125 27.980469 C 82.320312 28.074219 82.359375 28.257812 82.5 28.316406 C 82.671875 28.386719 82.847656 28.214844 82.90625 28.042969 C 82.96875 27.871094 82.980469 27.671875 83.097656 27.535156 C 83.324219 27.269531 83.820312 27.367188 84.019531 27.078125 C 84.203125 26.808594 83.957031 26.433594 83.65625 26.304688 C 83.269531 26.140625 82.789062 26.222656 82.445312 26.617188 C 82.125 26.582031 81.796875 26.546875 81.480469 26.628906 C 81.167969 26.710938 80.871094 26.933594 80.800781 27.246094 C 80.746094 27.503906 80.816406 27.722656 81.015625 27.898438 C 81.09375 27.964844 81.183594 28.007812 81.285156 28.023438 Z M 81.285156 28.023438 " fill-opacity="1" fill-rule="nonzero"/></g><path fill="#c5b1b3" d="M 65.683594 12.046875 C 65.875 11.574219 66.1875 11.078125 66.6875 10.96875 C 67.113281 10.878906 67.539062 11.09375 67.921875 11.304688 L 73.9375 14.617188 C 73.476562 15.492188 72.566406 16.039062 71.644531 16.40625 C 70.726562 16.777344 69.75 17.015625 68.882812 17.5 C 68.046875 17.96875 67.378906 18.613281 66.882812 19.4375 C 65.414062 17.082031 64.738281 14.394531 65.683594 12.046875 Z M 76.851562 27.464844 C 75.410156 27.320312 73.964844 27.242188 72.515625 27.195312 C 69.867188 27.050781 67.230469 27.480469 64.636719 27.964844 C 63.164062 28.363281 61.554688 28.5625 60.203125 29.265625 C 59.945312 29.53125 60.074219 29.59375 60.496094 29.613281 C 64.328125 28.539062 68.179688 27.644531 72.09375 27.722656 C 73.714844 27.742188 75.335938 27.863281 76.949219 27.960938 C 77.066406 27.933594 77.199219 27.824219 77.164062 27.691406 C 77.113281 27.542969 77.007812 27.46875 76.851562 27.464844 Z M 85.824219 13 C 86.785156 12.976562 87.746094 12.808594 88.699219 12.894531 C 89.640625 12.980469 90.542969 13.3125 91.375 13.753906 C 91.183594 11.789062 91.328125 9.847656 91.800781 7.929688 C 91.941406 7.359375 92.0625 6.644531 91.597656 6.289062 C 91.410156 6.148438 91.164062 6.105469 90.925781 6.089844 C 90.152344 6.046875 89.441406 6.234375 88.796875 6.660156 C 88.199219 7.054688 87.738281 7.621094 87.269531 8.164062 C 85.996094 9.636719 84.589844 10.972656 83.058594 12.175781 C 83.84375 12.867188 84.867188 13.019531 85.824219 13 Z M 77.820312 28.597656 C 77.75 28.492188 77.652344 28.441406 77.523438 28.441406 C 76.054688 28.574219 74.609375 28.816406 73.179688 29.171875 C 68.980469 30.308594 64.910156 32.015625 61.230469 34.339844 C 61.101562 34.445312 61 34.570312 60.921875 34.714844 C 61.125 34.710938 61.316406 34.660156 61.496094 34.5625 C 66.238281 31.804688 71.285156 29.765625 76.824219 29.039062 C 77.171875 28.972656 77.933594 29.117188 77.820312 28.597656 Z M 78.652344 29.726562 C 78.59375 29.648438 78.519531 29.613281 78.421875 29.613281 C 77.996094 29.679688 77.597656 29.878906 77.191406 30.015625 C 71.871094 31.828125 67.148438 35.453125 63.09375 39.003906 C 62.964844 39.125 62.871094 39.265625 62.804688 39.425781 C 63.054688 39.402344 63.273438 39.308594 63.464844 39.144531 C 66.96875 36.25 70.445312 33.390625 74.703125 31.480469 C 75.960938 30.957031 77.222656 30.425781 78.515625 30.003906 C 78.609375 29.945312 78.699219 29.816406 78.652344 29.726562 Z M 106.464844 21.527344 C 99.953125 21.742188 93.613281 23.355469 87.488281 25.484375 C 87.152344 25.621094 86.730469 25.664062 86.46875 25.925781 C 86.433594 25.972656 86.402344 26.050781 86.445312 26.101562 C 86.617188 26.246094 86.816406 26.121094 86.992188 26.054688 C 89.6875 25.152344 92.394531 24.292969 95.152344 23.601562 C 98.957031 22.589844 102.597656 22.25 106.539062 21.929688 C 106.683594 21.886719 106.808594 21.8125 106.917969 21.707031 C 106.785156 21.601562 106.632812 21.542969 106.464844 21.527344 Z M 107.007812 25.414062 C 102.277344 25.167969 97.515625 25.640625 92.816406 26.164062 C 90.632812 26.472656 88.457031 26.832031 86.316406 27.363281 C 86.203125 27.402344 86.082031 27.503906 86.097656 27.632812 C 86.136719 27.738281 86.261719 27.777344 86.367188 27.777344 C 87.574219 27.535156 88.769531 27.214844 89.988281 27.023438 C 95.578125 26.136719 101.203125 25.726562 106.863281 25.796875 C 107.203125 25.730469 107.609375 25.609375 107.007812 25.414062 Z M 104.371094 29.914062 C 98.925781 28.890625 93.425781 28.078125 87.867188 28.441406 C 87.621094 28.457031 87.109375 28.425781 87.203125 28.792969 C 87.277344 28.90625 87.382812 28.957031 87.515625 28.941406 C 89.863281 28.824219 92.21875 28.839844 94.566406 28.921875 C 97.785156 29.179688 100.96875 29.871094 104.230469 30.277344 C 104.410156 30.277344 104.578125 30.234375 104.734375 30.148438 C 104.632812 30.042969 104.507812 29.964844 104.371094 29.914062 Z M 104.371094 29.914062 " fill-opacity="1" fill-rule="nonzero"/></svg>