<svg xmlns="http://www.w3.org/2000/svg" xmlns:xlink="http://www.w3.org/1999/xlink" width="150" zoomAndPan="magnify" viewBox="0 0 112.5 112.499997" height="150" preserveAspectRatio="xMidYMid meet" version="1.0"><defs><clipPath id="a27e6c2a54"><path d="M 0 0 L 112.003906 0 L 112.003906 112.003906 L 0 112.003906 Z M 0 0 " clip-rule="nonzero"/></clipPath><clipPath id="332cd1b640"><path d="M 56 0 C 25.074219 0 0 25.074219 0 56 C 0 86.929688 25.074219 112.003906 56 112.003906 C 86.929688 112.003906 112.003906 86.929688 112.003906 56 C 112.003906 25.074219 86.929688 0 56 0 Z M 56 0 " clip-rule="nonzero"/></clipPath><clipPath id="ae49c345e4"><path d="M 3 19.101562 L 111 19.101562 L 111 100.492188 L 3 100.492188 Z M 3 19.101562 " clip-rule="nonzero"/></clipPath><clipPath id="6b89b9e449"><path d="M 2 19.101562 L 112 19.101562 L 112 100.492188 L 2 100.492188 Z M 2 19.101562 " clip-rule="nonzero"/></clipPath></defs><g clip-path="url(#a27e6c2a54)"><g clip-path="url(#332cd1b640)"><path fill="#893a8d" d="M 0 0 L 112.003906 0 L 112.003906 112.003906 L 0 112.003906 Z M 0 0 " fill-opacity="1" fill-rule="nonzero"/></g></g><g clip-path="url(#ae49c345e4)"><path fill="#fef3eb" d="M 4.363281 26.09375 C 3.867188 24.582031 3.496094 22.929688 3.992188 21.414062 C 4.101562 21.078125 4.289062 20.722656 4.625 20.605469 C 4.972656 20.488281 5.34375 20.664062 5.667969 20.835938 C 8.726562 22.445312 11.894531 23.792969 15.171875 24.878906 C 16.710938 24.613281 18.242188 24.699219 19.75 24.785156 L 24.109375 25.03125 C 26.347656 24.199219 28.484375 23.15625 30.523438 21.90625 C 32.070312 20.960938 33.609375 19.878906 35.398438 19.578125 C 35.980469 19.484375 36.699219 19.539062 36.976562 20.058594 C 37.132812 20.347656 37.097656 20.699219 37.058594 21.027344 C 36.527344 25.382812 35.984375 29.796875 34.347656 33.867188 C 33.917969 34.332031 33.917969 34.917969 34.085938 35.421875 C 34.25 35.929688 34.5625 36.371094 34.875 36.800781 C 35.1875 37.230469 35.503906 37.664062 35.691406 38.164062 C 36.53125 37.902344 37.4375 38.011719 38.265625 38.246094 C 39.097656 38.480469 39.890625 38.835938 40.726562 39.042969 C 41.566406 39.246094 42.484375 39.289062 43.257812 38.910156 C 48.933594 36.808594 53.78125 32.898438 59.550781 31.359375 C 61.980469 30.667969 64.457031 30.421875 66.976562 30.621094 C 68.6875 30.539062 70.261719 30.453125 71.835938 30.367188 C 72.394531 30.335938 72.976562 30.308594 73.507812 30.496094 C 74.039062 30.683594 74.511719 31.148438 74.535156 31.710938 C 75.773438 31.34375 77.234375 31.484375 78.625 31.769531 C 80.015625 32.050781 81.378906 32.46875 82.789062 32.636719 C 83.121094 32.675781 83.460938 32.703125 83.773438 32.816406 C 84.089844 32.929688 84.386719 33.140625 84.515625 33.449219 C 84.640625 33.761719 84.550781 34.167969 84.257812 34.332031 C 87.96875 34.78125 91.457031 36.195312 94.613281 38.078125 C 97.765625 39.960938 100.617188 42.304688 103.417969 44.6875 C 103.613281 44.703125 103.851562 44.949219 103.996094 45.25 C 104.140625 45.554688 104.175781 45.921875 104.027344 46.21875 C 103.878906 46.519531 103.523438 46.722656 103.199219 46.636719 C 108.277344 52.683594 111.082031 60.554688 110.964844 68.421875 C 110.933594 68.933594 110.941406 69.25 110.925781 69.5625 C 110.90625 69.875 110.863281 70.195312 110.707031 70.464844 C 110.546875 70.730469 110.25 70.9375 109.9375 70.910156 C 109.9375 74.347656 108.726562 77.753906 106.625 80.5 C 106.5625 80.660156 106.472656 80.808594 106.363281 80.941406 C 106.269531 81.074219 106.152344 81.183594 106.015625 81.265625 C 105.867188 81.355469 105.714844 81.367188 105.554688 81.296875 C 105.414062 81.222656 105.328125 81.035156 105.398438 80.894531 C 104.332031 82.972656 102.578125 84.777344 100.4375 85.820312 C 100.277344 85.898438 100.109375 85.972656 99.929688 85.960938 C 99.753906 85.949219 99.570312 85.816406 99.5625 85.640625 C 97.386719 87.402344 94.515625 88.394531 91.675781 88.273438 C 90.394531 89.417969 88.515625 90.183594 86.628906 90.175781 C 86.414062 90.175781 86.1875 90.160156 86.011719 90.039062 C 85.835938 89.917969 85.742188 89.648438 85.875 89.480469 C 84.839844 89.605469 83.847656 89.382812 82.871094 89.25 C 80.570312 88.9375 78.308594 89.117188 76.082031 89.78125 C 75.453125 90.078125 74.796875 90.308594 74.121094 90.472656 C 73.996094 90.515625 73.871094 90.523438 73.742188 90.496094 C 73.617188 90.460938 73.507812 90.34375 73.527344 90.214844 C 73.070312 90.585938 72.644531 90.992188 72.25 91.425781 C 72.117188 91.585938 71.964844 91.714844 71.785156 91.8125 C 71.601562 91.902344 71.367188 91.914062 71.207031 91.789062 C 71.074219 92.355469 71.027344 92.925781 71.074219 93.5 C 71.292969 94.363281 71.523438 95.160156 71.4375 95.960938 C 71.34375 96.867188 70.839844 97.695312 70.164062 98.304688 C 69.488281 98.910156 68.648438 99.3125 67.78125 99.59375 C 66.703125 99.941406 65.519531 100.113281 64.441406 99.757812 C 64.019531 100.125 63.59375 100.238281 63.183594 100.195312 C 62.753906 100.152344 62.394531 99.96875 62.101562 99.652344 C 61.359375 100.132812 60.484375 100.132812 59.730469 99.878906 C 58.976562 99.628906 58.324219 99.148438 57.699219 98.65625 C 57.429688 98.761719 57.25 98.820312 57.074219 98.820312 C 56.898438 98.8125 56.730469 98.769531 56.570312 98.695312 C 55.800781 98.367188 55.234375 97.828125 54.867188 97.074219 C 54.5 97.28125 54.023438 97.222656 53.621094 97.035156 C 53.222656 96.847656 52.886719 96.542969 52.582031 96.222656 C 51.730469 95.3125 51.089844 94.273438 50.652344 93.109375 C 50.21875 91.941406 50.023438 90.734375 50.070312 89.488281 C 49.9375 89.539062 49.765625 89.359375 49.683594 89.15625 C 49.617188 88.945312 49.59375 88.730469 49.617188 88.507812 C 49.671875 87.617188 49.917969 86.78125 50.351562 86 C 50.007812 85.835938 49.875 85.425781 49.949219 85.082031 C 50.023438 84.738281 50.253906 84.449219 50.507812 84.203125 C 51.1875 83.539062 52.039062 83.085938 52.878906 82.636719 C 53.191406 81.898438 53.714844 81.296875 54.324219 80.832031 C 54.9375 80.363281 55.632812 80.023438 56.34375 79.722656 C 58.457031 78.839844 60.660156 78.339844 62.949219 78.222656 C 63.105469 77.96875 63.355469 77.855469 63.582031 77.789062 C 65.757812 77.148438 68.128906 78.125 70.34375 77.652344 C 70.273438 77.550781 70.25 77.441406 70.273438 77.320312 C 70.292969 77.199219 70.355469 77.105469 70.457031 77.035156 C 70.632812 76.925781 70.855469 76.933594 71.0625 76.945312 C 74.941406 77.113281 78.601562 76.296875 82.042969 74.503906 C 78.0625 75.253906 73.988281 75.5625 69.953125 75.273438 C 68.9375 75.71875 68.046875 75.8125 67.253906 75.574219 C 66.417969 75.324219 65.792969 74.8125 65.378906 74.042969 C 64.757812 74.03125 64.140625 73.878906 63.769531 73.476562 C 63.582031 73.265625 63.464844 73.023438 63.417969 72.746094 C 63.375 72.472656 63.40625 72.203125 63.515625 71.945312 C 63.285156 71.460938 63.28125 71.027344 63.441406 70.664062 C 63.617188 70.28125 63.90625 70.023438 64.308594 69.894531 C 64.394531 69.722656 64.46875 69.542969 64.539062 69.363281 C 63.332031 68.785156 62.253906 67.761719 61.683594 66.5 C 60.070312 67.320312 58.210938 67.3125 56.441406 67.285156 C 54.566406 67.25 52.683594 67.21875 50.828125 66.941406 C 50.515625 66.894531 50.191406 66.832031 49.953125 66.628906 C 49.714844 66.421875 49.617188 66.023438 49.832031 65.792969 C 48.246094 65.683594 46.71875 65.324219 45.25 64.71875 C 44.613281 64.96875 44.160156 65.222656 43.679688 65.394531 C 43.429688 65.496094 43.261719 65.722656 43.039062 65.890625 C 42.820312 66.058594 42.503906 66.15625 42.269531 66.007812 C 42.15625 65.929688 42.089844 65.820312 42.074219 65.679688 C 42.058594 65.539062 42.097656 65.417969 42.1875 65.3125 C 41.628906 65.621094 41.027344 65.757812 40.390625 65.722656 C 36.640625 66.796875 32.691406 67.261719 28.785156 67.019531 C 27.761719 67.425781 26.707031 67.714844 25.621094 67.886719 C 25.367188 67.941406 25.109375 67.953125 24.851562 67.921875 C 24.597656 67.878906 24.347656 67.746094 24.21875 67.519531 C 23.625 67.636719 23.09375 67.761719 22.558594 67.808594 C 22.414062 67.824219 22.257812 67.828125 22.136719 67.75 C 21.972656 67.644531 21.929688 67.429688 21.902344 67.238281 C 21.863281 67.160156 12.953125 68.355469 12.953125 68.355469 L 8.253906 68.890625 C 7.703125 68.949219 7.144531 69.003906 6.609375 68.871094 C 6.074219 68.738281 5.5625 68.378906 5.402344 67.851562 C 4.890625 68.042969 4.445312 67.941406 4.152344 67.667969 C 3.832031 67.359375 3.722656 66.992188 3.820312 66.5625 C 3.542969 66.503906 3.335938 66.167969 3.3125 65.84375 C 3.285156 65.515625 3.398438 65.199219 3.511719 64.890625 C 3.59375 64.632812 3.707031 64.382812 3.84375 64.148438 C 3.992188 63.90625 4.195312 63.734375 4.457031 63.632812 C 3.714844 63.242188 3.324219 62.242188 3.453125 61.34375 C 3.585938 60.445312 4.164062 59.65625 4.886719 59.105469 C 5.609375 58.554688 6.46875 58.214844 7.332031 57.929688 C 7.328125 57.949219 7.496094 57.453125 7.496094 57.453125 C 7.183594 57.351562 7.066406 56.96875 7.039062 56.640625 C 6.992188 55.949219 7.128906 55.300781 7.460938 54.691406 C 6.839844 54.671875 6.699219 54.023438 6.851562 53.53125 C 7.003906 53.039062 7.351562 52.636719 7.574219 52.175781 C 7.890625 51.519531 7.949219 50.765625 7.859375 50.042969 C 7.773438 49.320312 7.546875 48.625 7.324219 47.933594 C 7.3125 48.128906 7.078125 48.242188 6.910156 48.179688 C 6.738281 48.121094 6.632812 47.957031 6.546875 47.800781 C 6.140625 47.074219 5.898438 46.296875 5.820312 45.46875 C 5.742188 45.769531 5.503906 45.726562 5.394531 45.59375 C 5.289062 45.457031 5.273438 45.273438 5.265625 45.101562 C 5.15625 42.660156 5.367188 40.25 5.902344 37.867188 C 5.195312 35.640625 5.089844 33.121094 5.546875 30.703125 C 5.839844 29.144531 4.859375 27.605469 4.363281 26.09375 Z M 4.363281 26.09375 " fill-opacity="1" fill-rule="nonzero"/><path fill="#694541" d="M 22.476562 35.097656 C 22.175781 34.105469 21.289062 33.363281 21.050781 32.355469 C 20.957031 31.953125 20.972656 31.535156 20.921875 31.128906 C 20.871094 30.722656 20.734375 30.296875 20.414062 30.042969 C 20.089844 29.785156 19.550781 29.78125 19.316406 30.121094 C 19.070312 30.84375 18.675781 31.472656 18.132812 32.015625 C 17.714844 32.4375 17.207031 32.785156 16.890625 33.292969 C 16.417969 34.050781 16.460938 35.011719 16.5625 35.898438 C 16.664062 36.785156 16.804688 37.714844 16.492188 38.550781 C 16.183594 39.382812 15.464844 39.996094 14.710938 40.460938 C 13.953125 40.925781 13.128906 41.277344 12.414062 41.800781 C 11.695312 42.324219 11.074219 43.066406 10.96875 43.949219 C 10.925781 44.328125 10.980469 44.714844 10.933594 45.09375 C 10.886719 45.476562 10.703125 45.875 10.351562 46.023438 C 9.855469 46.238281 9.304688 45.855469 8.953125 45.441406 C 8.125 44.464844 7.710938 43.339844 7.714844 42.058594 C 7.519531 42.253906 7.125 42.175781 6.957031 41.945312 C 6.785156 41.710938 6.785156 41.398438 6.824219 41.113281 C 6.941406 40.207031 7.386719 39.359375 7.980469 38.660156 C 7.808594 38.863281 7.347656 38.816406 7.234375 38.558594 C 7.121094 38.300781 7.25 38.003906 7.402344 37.769531 C 8.097656 36.722656 9.300781 36.144531 10.472656 35.691406 C 11.644531 35.238281 12.882812 34.839844 13.820312 34 C 14.585938 33.316406 15.085938 32.390625 15.535156 31.46875 C 15.980469 30.542969 16.394531 29.589844 17.03125 28.785156 C 17.667969 27.976562 18.570312 27.320312 19.59375 27.242188 C 20.710938 27.152344 21.789062 27.769531 22.554688 28.589844 C 23.316406 29.410156 23.832031 30.429688 24.382812 31.40625 C 24.9375 32.378906 25.558594 33.355469 26.472656 34.007812 C 27.222656 34.578125 28.234375 34.789062 29.230469 34.960938 C 30.222656 35.136719 31.238281 35.285156 32.148438 35.726562 C 33.058594 36.164062 33.859375 36.949219 34.039062 37.941406 L 33.566406 37.890625 C 34.015625 38.316406 34.253906 38.980469 34.339844 39.644531 C 34.429688 40.3125 34.375 40.992188 34.304688 41.660156 C 34.28125 41.894531 34.246094 42.148438 34.074219 42.3125 C 33.90625 42.472656 33.554688 42.445312 33.5 42.214844 C 32.859375 43.382812 32.039062 44.378906 31.003906 45.058594 C 30.695312 45.261719 30.292969 45.4375 29.96875 45.265625 C 29.699219 45.121094 29.589844 44.789062 29.589844 44.484375 C 29.589844 44.183594 29.671875 43.882812 29.675781 43.582031 C 29.699219 42.59375 28.910156 41.746094 28.015625 41.328125 C 27.121094 40.90625 26.117188 40.800781 25.15625 40.5625 C 24.199219 40.324219 23.210938 39.898438 22.683594 39.066406 C 21.886719 37.808594 22.839844 36.296875 22.476562 35.097656 Z M 5.296875 35.957031 C 5.261719 36.246094 5.226562 36.550781 5.308594 36.832031 C 5.390625 37.113281 5.617188 37.375 5.910156 37.402344 C 6.242188 37.425781 6.53125 37.144531 6.625 36.828125 C 6.71875 36.511719 6.664062 36.171875 6.601562 35.847656 C 6.539062 35.523438 6.472656 35.191406 6.542969 34.867188 C 6.667969 34.300781 7.1875 33.914062 7.679688 33.601562 C 7.925781 33.445312 8.210938 33.203125 8.128906 32.921875 C 8.054688 32.671875 7.742188 32.597656 7.535156 32.445312 C 7.390625 32.332031 7.296875 32.1875 7.253906 32.007812 C 7.214844 31.832031 7.234375 31.660156 7.3125 31.496094 C 7.476562 31.179688 7.882812 31.015625 8.183594 31 C 8.554688 30.988281 8.898438 30.886719 9.214844 30.695312 C 9.535156 30.503906 9.785156 30.25 9.972656 29.925781 C 9.730469 29.761719 9.449219 29.671875 9.1875 29.535156 C 8.929688 29.402344 8.679688 29.207031 8.585938 28.929688 C 8.492188 28.648438 8.628906 28.285156 8.914062 28.21875 C 9.328125 28.125 9.691406 28.667969 10.054688 28.570312 C 9.816406 28.398438 9.574219 28.21875 9.425781 27.964844 C 9.277344 27.714844 9.25 27.367188 9.433594 27.140625 C 9.574219 26.972656 9.8125 26.902344 10.03125 26.914062 C 10.253906 26.9375 10.46875 26.996094 10.671875 27.089844 C 11.214844 27.3125 11.757812 27.5625 12.339844 27.628906 C 12.921875 27.695312 13.566406 27.542969 13.933594 27.085938 C 13.714844 26.945312 13.484375 26.792969 13.378906 26.554688 C 13.269531 26.320312 13.355469 25.976562 13.605469 25.910156 C 13.71875 25.886719 13.832031 25.894531 13.945312 25.933594 C 14.289062 26.019531 14.636719 26.105469 14.882812 26.296875 C 15.738281 26.542969 16.644531 26.183594 17.445312 25.789062 C 18.246094 25.398438 19.082031 24.949219 19.980469 24.921875 C 18.617188 24.527344 17.160156 24.898438 15.742188 24.820312 C 14.015625 24.726562 12.402344 23.96875 10.839844 23.230469 L 5.886719 20.878906 C 5.445312 20.667969 4.9375 20.457031 4.476562 20.628906 C 3.902344 20.84375 3.695312 21.546875 3.660156 22.160156 C 3.515625 24.484375 4.675781 26.671875 5.148438 28.953125 C 5.625 31.230469 5.589844 33.601562 5.296875 35.957031 Z M 22.039062 24.957031 C 22.351562 25.832031 23.285156 26.359375 24.207031 26.453125 C 25.128906 26.546875 26.046875 26.285156 26.925781 26 C 27.226562 25.90625 27.546875 25.804688 27.847656 25.894531 C 28.148438 25.980469 28.386719 26.34375 28.226562 26.613281 C 28.167969 26.714844 28.058594 26.804688 28.070312 26.921875 C 28.089844 27.058594 28.261719 27.109375 28.398438 27.121094 C 29.074219 27.175781 29.710938 27.046875 30.3125 26.738281 C 30.582031 26.597656 30.835938 26.421875 31.128906 26.335938 C 31.417969 26.253906 31.769531 26.277344 31.980469 26.5 C 32.226562 26.757812 32.1875 27.175781 32.078125 27.519531 C 31.875 28.164062 31.515625 28.707031 31 29.144531 C 30.851562 29.273438 30.6875 29.386719 30.578125 29.550781 C 30.46875 29.710938 30.425781 29.933594 30.527344 30.097656 C 30.726562 30.425781 31.21875 30.265625 31.597656 30.328125 C 31.960938 30.390625 32.183594 30.601562 32.261719 30.960938 C 32.34375 31.320312 32.230469 31.605469 31.929688 31.8125 C 31.757812 31.933594 31.507812 32.035156 31.515625 32.246094 C 31.519531 32.449219 31.761719 32.539062 31.933594 32.644531 C 32.460938 32.976562 32.492188 33.714844 32.683594 34.308594 C 32.949219 35.128906 33.648438 35.792969 34.394531 35.992188 C 34.078125 35.535156 34.007812 34.945312 34.078125 34.394531 C 34.144531 33.84375 34.34375 33.316406 34.527344 32.792969 C 35.84375 29.085938 36.6875 25.269531 37.058594 21.355469 C 37.136719 21.101562 37.183594 20.847656 37.199219 20.585938 C 37.214844 20.3125 37.140625 20.070312 36.972656 19.851562 C 36.742188 19.578125 36.355469 19.488281 35.992188 19.484375 C 35.078125 19.46875 34.21875 19.886719 33.394531 20.308594 C 30.621094 22.1875 27.660156 23.710938 24.515625 24.871094 C 23.691406 24.953125 22.867188 24.980469 22.039062 24.957031 Z M 97.664062 67.457031 C 96.886719 69.617188 94.648438 70.894531 92.457031 71.578125 C 90.265625 72.265625 87.921875 72.566406 85.875 73.59375 C 83.503906 73.484375 81.339844 74.8125 79.113281 75.636719 C 76.613281 76.566406 73.914062 76.875 71.246094 76.808594 C 70.945312 76.800781 70.632812 76.792969 70.359375 76.910156 C 70.082031 77.027344 69.855469 77.3125 69.789062 77.871094 C 67.125 77.292969 64.3125 77.410156 61.5625 78.25 C 59.269531 78.75 57.074219 79.527344 54.976562 80.585938 C 53.980469 81.085938 52.96875 81.691406 52.5 82.65625 C 51.65625 83.160156 50.9375 83.800781 50.335938 84.578125 C 50.097656 84.882812 49.878906 85.222656 49.820312 85.601562 C 49.757812 85.984375 49.894531 86.417969 50.234375 86.527344 C 49.800781 87.28125 49.570312 88.09375 49.550781 88.964844 C 49.539062 89.160156 49.5625 89.347656 49.617188 89.53125 C 49.683594 89.710938 49.8125 89.878906 50 89.84375 C 50.035156 91.675781 50.488281 93.390625 51.359375 95 C 51.703125 95.628906 52.113281 96.234375 52.664062 96.695312 C 53.285156 97.226562 54.003906 97.488281 54.820312 97.476562 C 55.4375 98.105469 56.160156 98.566406 56.988281 98.863281 C 57.136719 98.929688 57.292969 98.953125 57.453125 98.9375 C 57.546875 98.917969 57.625 98.871094 57.683594 98.796875 C 57.742188 98.71875 57.765625 98.632812 57.757812 98.539062 C 58.382812 99.027344 59.019531 99.523438 59.757812 99.820312 C 60.496094 100.117188 61.363281 100.1875 61.945312 99.730469 C 62.269531 100.15625 62.832031 100.339844 63.363281 100.339844 C 63.898438 100.339844 64.414062 100.175781 65.078125 100.105469 C 66.160156 100.023438 67.246094 99.863281 68.257812 99.46875 C 69.265625 99.074219 70.203125 98.429688 70.804688 97.527344 C 71.40625 96.625 71.640625 95.445312 71.316406 94.488281 C 71.007812 93.726562 70.902344 92.933594 71 92.117188 C 70.988281 92.226562 71.101562 92.316406 71.210938 92.316406 C 71.320312 92.3125 71.421875 92.273438 71.507812 92.199219 C 71.863281 91.957031 72.152344 91.644531 72.371094 91.273438 C 73.359375 91.113281 74.300781 90.667969 75.183594 90.03125 C 78.425781 88.972656 81.957031 88.820312 85.417969 89.613281 C 85.578125 89.945312 85.929688 90.15625 86.289062 90.234375 C 86.648438 90.3125 87.023438 90.273438 87.390625 90.214844 C 89.023438 89.953125 90.589844 89.292969 91.84375 88.242188 C 93.203125 88.265625 94.53125 88.0625 95.820312 87.621094 C 97.109375 87.183594 98.285156 86.539062 99.347656 85.6875 C 99.507812 85.949219 99.851562 86.050781 100.152344 86.003906 C 100.453125 85.960938 100.722656 85.800781 100.976562 85.632812 C 102.699219 84.5 104.148438 82.960938 105.347656 81.152344 C 105.351562 81.335938 105.574219 81.453125 105.753906 81.414062 C 105.9375 81.375 106.074219 81.234375 106.195312 81.09375 C 106.597656 80.628906 106.9375 80.109375 107.125 79.554688 C 108.851562 77.070312 109.863281 74.089844 110.078125 71.027344 C 110.164062 71.171875 110.382812 71.1875 110.523438 71.09375 C 110.667969 71.003906 110.742188 70.839844 110.796875 70.679688 C 110.972656 70.160156 110.96875 69.605469 110.9375 68.796875 L 109.867188 60.015625 C 109.820312 59.617188 109.769531 59.207031 109.597656 58.839844 C 109.425781 58.476562 109.113281 58.152344 108.714844 58.078125 C 108.316406 58.003906 107.855469 58.246094 107.785156 58.644531 C 107.734375 58.9375 107.859375 59.304688 107.628906 59.484375 C 107.347656 59.710938 106.976562 59.351562 106.78125 59.050781 C 106.210938 58.160156 105.503906 57.394531 104.664062 56.75 C 104.355469 56.511719 104.011719 56.289062 103.625 56.226562 C 103.238281 56.164062 102.796875 56.300781 102.605469 56.644531 C 102.46875 56.886719 102.480469 57.183594 102.496094 57.460938 C 102.558594 58.488281 102.617188 59.515625 102.554688 60.542969 C 102.511719 60.773438 102.402344 60.964844 102.21875 61.117188 C 102.039062 61.269531 101.828125 61.34375 101.589844 61.339844 C 101.121094 61.320312 100.746094 60.964844 100.324219 60.75 C 99.953125 60.558594 99.453125 60.5 99.144531 60.785156 C 98.9375 60.976562 98.871094 61.28125 98.902344 61.5625 C 98.933594 61.824219 99.027344 62.058594 99.191406 62.265625 C 99.085938 62.460938 98.824219 62.492188 98.605469 62.480469 C 98.382812 62.46875 98.132812 62.453125 97.980469 62.609375 C 97.75 62.84375 97.925781 63.230469 98.074219 63.523438 C 98.78125 64.921875 98.484375 66.761719 97.664062 67.457031 Z M 97.664062 67.457031 " fill-opacity="1" fill-rule="nonzero"/></g><path fill="#ff9911" d="M 12.59375 37.996094 C 12.535156 37.675781 12.574219 37.363281 12.710938 37.066406 C 12.972656 36.457031 13.421875 36.074219 14.066406 35.914062 C 14.667969 35.78125 15.339844 35.980469 15.738281 36.449219 C 16.140625 36.917969 16.230469 37.636719 15.929688 38.171875 C 15.679688 38.613281 15.195312 38.894531 14.695312 38.972656 C 14.195312 39.046875 13.675781 38.933594 13.214844 38.722656 C 12.886719 38.585938 12.679688 38.34375 12.59375 37.996094 Z M 23.742188 38.699219 C 24.417969 38.957031 25.066406 38.898438 25.683594 38.527344 C 26.089844 38.28125 26.425781 37.863281 26.441406 37.390625 C 26.457031 36.914062 26.144531 36.472656 25.738281 36.222656 C 25.25 35.917969 24.730469 35.855469 24.183594 36.035156 C 23.632812 36.226562 23.265625 36.59375 23.082031 37.144531 C 22.917969 37.660156 22.988281 38.40625 23.742188 38.699219 Z M 23.742188 38.699219 " fill-opacity="1" fill-rule="nonzero"/><g clip-path="url(#6b89b9e449)"><path fill="#29272b" d="M 6.402344 45.105469 C 6.359375 46.074219 6.4375 46.589844 6.765625 47.265625 C 6.863281 47.574219 6.757812 47.882812 6.390625 47.824219 C 6.113281 47.796875 5.925781 47.550781 5.835938 47.304688 C 5.589844 46.597656 5.550781 45.835938 5.621094 45.097656 C 5.679688 44.761719 5.667969 44.214844 6.109375 44.183594 C 6.691406 44.199219 6.363281 45.136719 6.402344 45.105469 Z M 8.375 49.714844 C 8.210938 49.070312 7.753906 48.453125 7.617188 48.054688 C 7.394531 47.472656 7.4375 47.042969 7.355469 46.457031 C 7.3125 46.34375 7.234375 46.28125 7.113281 46.269531 C 6.960938 46.289062 6.871094 46.371094 6.835938 46.519531 C 6.769531 47.207031 6.859375 47.871094 7.105469 48.515625 C 7.511719 49.375 7.980469 50.566406 7.574219 51.613281 C 7.527344 51.761719 6.648438 52.859375 6.464844 53.414062 C 6.355469 53.660156 6.246094 53.949219 6.386719 54.207031 C 6.441406 54.320312 6.566406 54.449219 6.703125 54.402344 C 6.996094 54.296875 7.09375 53.988281 7.1875 53.722656 C 6.960938 54.113281 7.875 52.539062 7.652344 52.929688 C 8.035156 52.460938 8.445312 51.972656 8.515625 51.347656 C 8.589844 50.804688 8.492188 50.246094 8.375 49.714844 Z M 7.878906 53.273438 C 7.828125 53.449219 7.761719 53.621094 7.675781 53.785156 C 7.226562 54.65625 6.46875 55.554688 6.601562 56.59375 C 6.644531 56.742188 6.738281 56.847656 6.886719 56.90625 C 7.027344 56.9375 7.160156 56.832031 7.238281 56.722656 C 7.464844 56.351562 7.46875 55.5625 7.679688 55.234375 C 7.847656 54.824219 9.09375 53 8.15625 52.984375 C 8.074219 53.011719 7.898438 53.097656 7.878906 53.273438 Z M 36.179688 44.144531 C 36.484375 43.703125 36.511719 43.097656 36.574219 42.578125 C 36.59375 41.65625 36.191406 40.804688 35.898438 39.953125 C 35.78125 39.570312 35.550781 38.816406 35.035156 39.207031 C 34.851562 39.382812 34.910156 39.65625 35 39.863281 C 35.3125 40.84375 35.738281 41.777344 35.703125 42.527344 C 35.726562 42.78125 35.542969 43.285156 35.488281 43.828125 C 35.5 44.238281 35.867188 44.5 36.179688 44.144531 Z M 34.875 42.890625 C 34.742188 42.933594 34.660156 43.023438 34.628906 43.160156 C 34.609375 43.890625 34.628906 44.628906 34.578125 45.359375 C 34.582031 45.832031 34.320312 46.652344 34.148438 47.050781 C 34.121094 47.175781 34.125 47.300781 34.160156 47.425781 C 34.191406 47.5 34.234375 47.597656 34.324219 47.609375 C 34.496094 47.625 34.664062 47.511719 34.765625 47.378906 C 35.136719 46.714844 35.269531 45.914062 35.292969 45.15625 C 35.300781 44.488281 35.335938 43.816406 35.273438 43.152344 C 35.226562 42.984375 35.054688 42.839844 34.875 42.890625 Z M 12.21875 57.851562 C 12.421875 58.261719 13.214844 58.617188 13.265625 58.03125 C 13.101562 57.382812 12.722656 57.40625 12.503906 56.835938 C 12.199219 56.179688 12.023438 55.058594 12.003906 54.007812 C 12.019531 53.722656 11.984375 53.238281 11.582031 53.316406 C 11.296875 53.402344 11.308594 53.722656 11.316406 53.96875 C 11.347656 55.292969 11.386719 56.753906 12.21875 57.851562 Z M 13.941406 55.882812 C 13.921875 55.726562 13.746094 55.550781 13.585938 55.632812 C 13.429688 55.730469 13.429688 55.929688 13.472656 56.089844 C 13.6875 56.898438 14.417969 57.953125 15.34375 57.921875 C 15.441406 57.90625 15.527344 57.863281 15.601562 57.789062 C 15.558594 57.636719 15.425781 57.527344 15.300781 57.4375 C 14.960938 57.308594 14.667969 57.105469 14.425781 56.832031 C 14.1875 56.554688 14.023438 56.238281 13.941406 55.882812 Z M 16.121094 56.011719 C 16.042969 55.886719 15.847656 55.78125 15.71875 55.894531 C 15.5625 56.074219 15.714844 56.300781 15.851562 56.441406 C 16.128906 56.726562 16.472656 57.21875 16.925781 57.015625 C 16.804688 56.601562 16.296875 56.277344 16.121094 56.011719 Z M 20.277344 55.035156 C 20.140625 54.902344 19.804688 54.152344 19.398438 54.613281 C 19.308594 54.785156 19.332031 54.941406 19.464844 55.082031 C 20.292969 56.308594 21.695312 57.285156 23.21875 57.191406 C 23.4375 57.125 23.679688 56.917969 23.453125 56.703125 C 23.144531 56.386719 22.6875 56.53125 22.121094 56.324219 C 21.488281 56.183594 20.707031 55.5625 20.277344 55.035156 Z M 25.339844 56.703125 C 25.421875 56.628906 25.449219 56.539062 25.421875 56.429688 C 25.140625 55.832031 24.820312 56.023438 24.335938 55.664062 C 23.992188 55.527344 23.667969 54.835938 23.164062 55.378906 C 22.910156 55.90625 23.605469 56.210938 23.960938 56.457031 C 24.375 56.652344 24.910156 57.0625 25.339844 56.703125 Z M 28.746094 54.894531 C 29.355469 55.148438 30.488281 55.988281 30.9375 55.136719 C 30.945312 55.101562 30.949219 55.066406 30.949219 55.027344 C 30.90625 54.984375 30.863281 54.953125 30.808594 54.929688 C 29.972656 54.792969 28.820312 54.253906 28.058594 53.664062 C 27.789062 53.480469 27.414062 52.945312 27.101562 53.347656 C 27.039062 53.472656 27.042969 53.597656 27.117188 53.71875 C 27.570312 54.210938 28.164062 54.566406 28.746094 54.894531 Z M 32.320312 54.566406 C 32.335938 54.066406 31.765625 53.90625 31.4375 53.628906 C 31.40625 53.597656 31.148438 53.367188 31.082031 53.351562 C 30.992188 53.308594 30.902344 53.300781 30.808594 53.328125 C 30.714844 53.355469 30.640625 53.40625 30.589844 53.488281 C 30.371094 53.9375 30.945312 54.191406 31.242188 54.410156 C 31.535156 54.605469 32.039062 54.9375 32.320312 54.566406 Z M 29.289062 46.28125 C 29.105469 46.171875 28.867188 46.203125 28.679688 46.292969 C 27.800781 46.777344 27.300781 47.066406 26.304688 47.234375 C 25.714844 47.285156 24.023438 47.421875 23.136719 47.839844 C 21.757812 48.882812 19.816406 49.425781 18.265625 48.4375 C 18.027344 48.261719 17.65625 48.023438 17.441406 48.359375 C 17.324219 48.570312 17.433594 48.816406 17.628906 48.933594 C 18.226562 49.390625 18.898438 49.664062 19.644531 49.75 C 20.699219 49.917969 21.796875 49.664062 22.734375 49.175781 C 23.238281 48.851562 23.574219 48.5 23.753906 48.464844 C 25.125 47.875 27.15625 48.203125 28.757812 46.984375 C 29.015625 46.828125 29.3125 46.617188 29.289062 46.28125 Z M 11.109375 46.765625 C 11.0625 46.851562 11.054688 46.945312 11.078125 47.039062 C 11.105469 47.132812 11.15625 47.210938 11.238281 47.265625 C 12.628906 48.324219 14.527344 48.320312 16.195312 48.203125 C 16.410156 48.167969 16.632812 48.019531 16.695312 47.804688 C 16.625 47.71875 16.539062 47.660156 16.433594 47.628906 C 15.792969 47.550781 15.121094 47.648438 14.46875 47.582031 C 13.574219 47.53125 12.804688 47.414062 11.984375 46.9375 C 11.734375 46.816406 11.433594 46.375 11.109375 46.765625 Z M 19.632812 44.761719 C 19.675781 44.707031 19.71875 44.652344 19.765625 44.597656 C 20.355469 45.15625 21.058594 45.402344 21.867188 45.34375 C 22.296875 45.296875 22.945312 45.203125 22.984375 44.664062 C 22.851562 44.128906 22.355469 44.347656 21.882812 44.421875 C 21.859375 44.429688 21.285156 44.445312 20.871094 44.308594 C 20.617188 44.308594 20.03125 43.625 19.609375 43.726562 C 19.453125 43.753906 19.355469 43.84375 19.316406 44 C 19.277344 44.015625 19.117188 44.324219 19.046875 44.339844 C 18.5625 44.78125 17.929688 44.796875 17.058594 44.4375 C 16.871094 44.390625 16.65625 44.488281 16.605469 44.671875 C 16.53125 45.160156 17.210938 45.257812 17.566406 45.351562 C 18.296875 45.46875 19.128906 45.359375 19.632812 44.761719 Z M 25.5 59.328125 C 25.722656 59.25 26.078125 59.109375 25.945312 58.8125 C 25.851562 58.691406 25.734375 58.648438 25.585938 58.691406 C 24.203125 59.253906 22.8125 59.800781 21.371094 60.183594 C 19.613281 60.753906 17.421875 60.285156 15.40625 60.464844 C 15.175781 60.578125 15.074219 60.828125 15.300781 61.011719 C 15.421875 61.121094 15.5625 61.179688 15.726562 61.191406 C 16.550781 61.261719 17.378906 61.222656 18.207031 61.210938 C 20.773438 61.304688 23.179688 60.3125 25.5 59.328125 Z M 15.25 62.273438 C 15.734375 62.195312 18.109375 62.347656 17.765625 61.566406 C 17.65625 61.40625 17.507812 61.351562 17.320312 61.410156 C 16.296875 61.617188 14.914062 61.589844 13.628906 61.574219 C 13.441406 61.601562 13.082031 61.796875 13.292969 62.003906 C 13.722656 62.414062 14.675781 62.25 15.25 62.273438 Z M 22.191406 66.804688 C 20.195312 66.964844 17.472656 67.40625 15.414062 67.660156 C 13.546875 67.878906 12.070312 68.222656 10.203125 68.382812 C 8.800781 68.445312 7.609375 68.65625 6.429688 68.285156 C 5.980469 68.152344 5.765625 67.582031 5.878906 67.4375 C 6.121094 67.164062 6.410156 66.949219 6.742188 66.796875 C 6.960938 66.722656 7.113281 66.425781 6.933594 66.25 C 6.550781 65.9375 5.910156 66.523438 5.605469 66.765625 C 5.304688 66.949219 5.152344 67.21875 5.140625 67.574219 C 4.890625 67.414062 4.757812 67.445312 4.667969 67.367188 C 4.570312 67.320312 4.480469 67.261719 4.402344 67.1875 L 4.386719 67.171875 C 4.269531 66.992188 4.210938 66.796875 4.21875 66.578125 C 4.21875 66.21875 4.363281 65.882812 4.570312 65.785156 C 5.019531 65.5 5.09375 65.464844 5.574219 65.363281 C 5.8125 65.339844 6.023438 65.058594 5.886719 64.832031 C 5.621094 64.449219 5.019531 64.753906 4.667969 64.890625 C 4.308594 65.050781 3.945312 65.28125 3.722656 65.609375 C 3.65625 65.042969 4.089844 64.367188 4.613281 64.039062 C 5.78125 63.492188 7.007812 63.246094 8.296875 63.300781 C 9.433594 63.335938 10.566406 63.152344 11.6875 62.941406 C 12.0625 62.878906 12.625 62.804688 12.519531 62.308594 C 12.335938 61.796875 11.742188 62.085938 11.359375 62.132812 C 10.230469 62.324219 9.578125 62.445312 8.347656 62.421875 C 7.996094 62.402344 7.644531 62.40625 7.296875 62.4375 C 7.390625 62.011719 7.199219 61.453125 6.886719 61.195312 C 6.589844 60.9375 5.347656 60.097656 5.238281 60.84375 C 5.253906 61.203125 5.703125 61.25 5.949219 61.410156 C 6.308594 61.636719 6.34375 61.660156 6.414062 61.925781 C 6.414062 61.949219 6.421875 61.980469 6.421875 62.003906 C 6.421875 62.039062 6.417969 62.074219 6.414062 62.109375 C 6.414062 62.125 6.414062 62.140625 6.40625 62.15625 L 6.40625 62.171875 C 6.40625 62.1875 6.398438 62.214844 6.398438 62.230469 C 6.394531 62.238281 6.390625 62.246094 6.390625 62.253906 C 6.371094 62.351562 6.371094 62.449219 6.390625 62.550781 C 5.949219 62.632812 5.511719 62.746094 5.085938 62.886719 C 4.921875 62.9375 4.765625 62.996094 4.613281 63.0625 C 4.570312 62.996094 4.519531 62.933594 4.46875 62.878906 C 4.226562 62.695312 4.082031 62.589844 3.9375 62.324219 C 3.933594 62.316406 3.929688 62.304688 3.929688 62.292969 C 3.90625 62.230469 3.890625 62.148438 3.875 62.101562 C 3.769531 60.882812 4.324219 59.808594 5.332031 59.054688 C 5.761719 58.726562 6.246094 58.519531 6.785156 58.4375 C 6.808594 58.429688 6.839844 58.429688 6.871094 58.421875 C 6.832031 58.644531 6.808594 58.871094 6.800781 59.097656 C 6.703125 60 7.351562 60.746094 7.808594 61.46875 C 7.9375 61.648438 8.097656 61.796875 8.289062 61.910156 C 8.289062 61.910156 8.289062 61.917969 8.320312 61.941406 L 8.328125 61.949219 C 8.433594 62.109375 8.5625 62.253906 8.746094 62.308594 C 8.851562 62.347656 8.980469 62.363281 9.058594 62.292969 C 9.132812 62.199219 9.160156 62.097656 9.148438 61.980469 C 9.148438 61.789062 9.035156 61.636719 8.921875 61.492188 L 8.914062 61.484375 C 8.90625 61.46875 8.890625 61.460938 8.882812 61.445312 C 8.777344 61.300781 8.632812 61.195312 8.53125 61.050781 C 8.53125 61.019531 7.695312 59.59375 7.738281 59.542969 C 7.730469 59.519531 7.730469 59.511719 7.71875 59.503906 C 7.714844 59.480469 7.707031 59.457031 7.695312 59.433594 C 7.511719 58.734375 7.816406 57.269531 8.210938 56.515625 C 8.394531 56.074219 8.667969 55.640625 8.777344 55.175781 C 8.785156 55.027344 8.71875 54.925781 8.578125 54.875 C 8.195312 54.808594 8.113281 55.273438 7.960938 55.53125 C 7.558594 56.265625 7.207031 57.035156 7 57.847656 C 6.972656 57.832031 6.941406 57.828125 6.910156 57.828125 C 5.925781 57.925781 5.050781 58.453125 4.371094 59.160156 C 3.394531 60.058594 2.417969 61.882812 3.363281 63.101562 C 3.507812 63.261719 3.675781 63.390625 3.867188 63.496094 C 3.527344 63.757812 3.265625 64.082031 3.089844 64.472656 C 2.761719 65.097656 2.632812 66.210938 3.378906 66.578125 C 3.398438 66.585938 3.421875 66.589844 3.441406 66.589844 C 3.410156 67.171875 3.578125 67.765625 4.148438 68.023438 C 4.460938 68.199219 4.949219 68.34375 5.253906 68.125 C 5.425781 68.539062 5.722656 68.824219 6.140625 68.976562 C 7.015625 69.242188 7.953125 69.25 8.859375 69.144531 C 10.636719 69.070312 11.613281 68.800781 13.320312 68.550781 C 14.265625 68.382812 14.875 68.277344 15.894531 68.230469 C 17.238281 68.054688 18.457031 67.894531 19.882812 67.75 C 20.597656 67.582031 21.40625 67.667969 22.265625 67.324219 C 22.367188 67.238281 22.449219 67.136719 22.511719 67.019531 C 22.429688 66.914062 22.320312 66.84375 22.191406 66.804688 Z M 26.34375 66.398438 C 26.027344 66.121094 25.628906 66.476562 25.292969 66.5625 C 24.492188 66.875 23.675781 67.136719 22.839844 67.34375 C 22.480469 67.539062 22.5 67.878906 22.902344 68.007812 C 23.3125 68.101562 23.734375 67.902344 24.125 67.785156 C 24.832031 67.527344 25.535156 67.253906 26.230469 66.960938 C 26.421875 66.851562 26.515625 66.566406 26.34375 66.398438 Z M 28.613281 66.707031 C 27.714844 66.835938 26.882812 67.238281 26.003906 67.4375 C 25.707031 67.53125 25.566406 67.40625 25.214844 67.714844 C 24.921875 68.007812 25.371094 68.253906 25.648438 68.242188 C 26.625 68.132812 27.515625 67.660156 28.464844 67.4375 C 28.78125 67.394531 29.378906 67.316406 29.179688 66.859375 C 29.0625 66.65625 28.816406 66.65625 28.613281 66.707031 Z M 42.898438 64.179688 C 42.5 63.976562 42.238281 64.457031 41.980469 64.683594 C 41.554688 65.066406 41.183594 65.417969 40.84375 65.632812 C 40.980469 65.53125 41.054688 65.394531 41.0625 65.222656 C 41.058594 65.125 40.957031 65.085938 40.878906 65.054688 C 40.269531 64.957031 39.964844 65.402344 39.375 65.523438 C 37.167969 66.152344 34.917969 66.566406 32.625 66.761719 C 31.886719 66.816406 31.140625 66.773438 30.402344 66.789062 C 30.234375 66.832031 30.085938 66.996094 30.136719 67.175781 C 30.207031 67.417969 30.472656 67.449219 30.691406 67.441406 C 32.886719 67.578125 35.054688 67.191406 37.203125 66.785156 C 38.261719 66.65625 39.277344 66.378906 40.257812 65.964844 C 40.296875 65.945312 40.34375 65.925781 40.382812 65.90625 C 40.332031 65.941406 40.296875 65.988281 40.269531 66.046875 C 40.027344 66.535156 40.800781 66.664062 41.183594 66.386719 C 41.792969 65.964844 42.328125 65.441406 42.835938 64.902344 C 43.058594 64.730469 43.183594 64.351562 42.898438 64.179688 Z M 44.121094 64.375 C 43.789062 64.324219 43.71875 64.75 43.53125 64.941406 C 43.367188 65.199219 42.847656 65.550781 42.828125 65.984375 C 43.335938 66.074219 43.644531 65.535156 43.933594 65.207031 C 44.078125 64.988281 44.460938 64.574219 44.121094 64.375 Z M 45.902344 51.78125 C 45.75 51.890625 45.699219 52.03125 45.753906 52.210938 C 46.1875 53.367188 46.554688 54.546875 46.847656 55.75 C 47.035156 56.363281 46.832031 56.679688 47.222656 57.1875 C 47.367188 57.339844 47.539062 57.277344 47.640625 57.113281 C 47.808594 56.890625 47.738281 56.605469 47.707031 56.351562 C 47.453125 54.835938 46.929688 53.378906 46.378906 51.945312 C 46.292969 51.789062 46.070312 51.683594 45.902344 51.78125 Z M 52.617188 65.960938 C 52.910156 65.742188 52.574219 65.476562 52.332031 65.417969 C 49.859375 65.347656 47.746094 65.503906 45.484375 64.527344 C 45.464844 64.515625 45.441406 64.507812 45.417969 64.5 C 45.867188 63.890625 46.160156 63.136719 46.394531 62.441406 C 47.140625 60.625 46.921875 58.230469 46.632812 56.664062 C 46.59375 56.488281 46.414062 56.335938 46.238281 56.386719 C 46.066406 56.449219 45.988281 56.570312 45.996094 56.75 C 46.101562 57.523438 46.1875 58.007812 46.246094 58.882812 C 46.363281 60.128906 46.152344 61.097656 45.757812 62.292969 C 45.4375 63.300781 45.015625 64.1875 44.121094 64.976562 C 44.03125 65.097656 43.988281 65.238281 44.003906 65.394531 C 44.128906 65.441406 44.253906 65.445312 44.382812 65.40625 C 44.625 65.28125 44.84375 65.121094 45.039062 64.929688 C 45.070312 64.976562 45.113281 65.011719 45.160156 65.042969 C 47.011719 65.929688 49.105469 66.039062 51.125 66.117188 C 51.613281 66.074219 52.195312 66.273438 52.617188 65.960938 Z M 65.511719 74.460938 C 65.554688 74.625 65.613281 74.785156 65.695312 74.933594 C 65.957031 75.535156 66.539062 75.851562 67.164062 75.957031 C 68.0625 76.105469 69.015625 76.015625 69.832031 75.589844 C 69.933594 75.53125 70.015625 75.457031 70.078125 75.363281 C 70.144531 75.441406 70.230469 75.484375 70.332031 75.488281 C 72.4375 75.652344 74.550781 75.757812 76.648438 75.441406 C 77.539062 75.339844 78.511719 75.25 79.503906 75.117188 C 79.226562 75.242188 78.976562 75.402344 78.753906 75.605469 C 78.636719 75.773438 78.609375 76.03125 78.820312 76.121094 C 79.425781 76.316406 79.628906 75.953125 80.140625 75.800781 C 81.613281 75.121094 82.535156 74.578125 84.121094 74.269531 C 84.316406 74.203125 85.496094 74.394531 85.316406 73.679688 C 85.210938 73.304688 84.785156 73.332031 84.472656 73.355469 C 84.230469 73.371094 83.988281 73.40625 83.75 73.453125 C 83.671875 73.441406 83.59375 73.4375 83.519531 73.449219 C 81.390625 74.117188 79.671875 74.414062 77.546875 74.609375 C 75.347656 75.019531 73.136719 75.136719 70.910156 74.957031 C 70.699219 74.960938 70.339844 74.882812 70.140625 74.984375 C 70.128906 74.960938 70.132812 74.933594 70.113281 74.910156 C 69.84375 74.675781 69.488281 74.820312 69.203125 74.941406 C 68.996094 75.117188 67.660156 75.273438 67.378906 75.183594 C 66.566406 75.046875 66.472656 74.929688 66.214844 74.402344 C 66.175781 74.246094 66.097656 74.058594 65.964844 73.972656 C 65.964844 73.941406 65.957031 73.910156 65.949219 73.878906 C 65.761719 73.589844 65.394531 73.625 65.09375 73.621094 C 64.667969 73.589844 64.816406 73.617188 64.496094 73.542969 C 64.433594 73.527344 64.320312 73.488281 64.277344 73.476562 C 64.25 73.460938 64.222656 73.441406 64.199219 73.425781 L 64.195312 73.421875 C 63.953125 73.171875 63.9375 73.078125 63.910156 72.726562 C 63.882812 72.730469 64.042969 72.375 63.972656 72.125 C 63.984375 72.070312 63.976562 72.023438 63.953125 71.972656 C 63.679688 71.46875 63.546875 71.625 63.511719 71.359375 C 63.460938 71.203125 63.597656 70.640625 63.714844 70.574219 C 63.886719 70.371094 64.375 70.304688 64.609375 70.121094 C 64.746094 70.113281 64.839844 70.046875 64.886719 69.917969 C 64.90625 69.855469 65.019531 69.539062 65.03125 69.484375 C 65.039062 69.476562 65.042969 69.464844 65.050781 69.453125 C 65.542969 68.835938 67.339844 68.101562 68.761719 68.230469 C 69.816406 68.285156 71.332031 68.746094 72.726562 68.613281 C 76.246094 68.253906 79.882812 67.910156 82.980469 66.058594 C 83.148438 65.960938 83.242188 65.710938 83.089844 65.558594 C 82.984375 65.464844 82.863281 65.4375 82.730469 65.476562 C 82.203125 65.710938 81.007812 66.273438 80.796875 66.367188 C 79.65625 66.867188 78.398438 66.957031 77.195312 67.246094 C 75.585938 67.503906 73.695312 67.832031 71.789062 67.839844 C 70.761719 67.804688 69.71875 67.371094 68.453125 67.359375 C 67.105469 67.347656 65.722656 67.835938 64.644531 68.628906 C 64.597656 68.675781 64.550781 68.71875 64.507812 68.769531 C 64.308594 68.597656 64.042969 68.515625 63.820312 68.378906 C 63.554688 68.226562 63.316406 67.886719 63.039062 67.53125 C 62.457031 66.683594 61.976562 65.878906 62 64.964844 C 62.023438 64.535156 62.085938 64.484375 62.085938 64.066406 C 62.058594 63.949219 61.964844 63.832031 61.835938 63.832031 C 61.378906 63.902344 61.5 64.648438 61.402344 65.003906 C 61.402344 65.421875 61.460938 65.832031 61.578125 66.234375 C 61.546875 66.238281 61.519531 66.242188 61.492188 66.246094 C 59.714844 66.949219 58.300781 66.980469 56.429688 66.988281 C 54.683594 67.007812 52.660156 66.988281 51.066406 66.742188 C 50.964844 66.726562 50.863281 66.710938 50.761719 66.699219 C 50.597656 66.65625 50.355469 66.6875 50.328125 66.886719 C 50.332031 67.011719 50.453125 67.109375 50.570312 67.136719 C 51.730469 67.320312 52.894531 67.476562 54.066406 67.519531 C 56.433594 67.65625 58.882812 67.929688 61.183594 67.203125 C 61.390625 67.132812 61.636719 67.066406 61.828125 66.941406 C 62.164062 67.710938 62.617188 68.40625 63.183594 69.027344 C 63.457031 69.210938 63.800781 69.476562 64.144531 69.523438 C 64.144531 69.542969 64.152344 69.558594 64.152344 69.574219 C 64.085938 69.597656 64.019531 69.621094 63.957031 69.648438 C 63.628906 69.785156 63.273438 69.945312 63.070312 70.253906 C 62.6875 70.820312 62.601562 71.910156 63.234375 72.269531 C 63.214844 72.332031 63.195312 72.390625 63.179688 72.453125 C 63.011719 73.121094 63.304688 73.9375 63.941406 74.25 C 64.214844 74.410156 65 74.570312 65.511719 74.460938 Z M 63.375 51.945312 C 61.089844 54.226562 59.261719 57.828125 58.910156 60.820312 C 58.796875 61.625 58.679688 62.449219 58.796875 63.261719 C 58.84375 63.535156 58.847656 63.847656 59.066406 64.042969 C 59.398438 64.351562 59.617188 64.042969 59.621094 63.6875 C 59.097656 61.214844 59.777344 58.394531 60.953125 56.015625 C 61.570312 54.695312 62.402344 53.507812 63.226562 52.316406 C 63.324219 52.210938 63.371094 52.085938 63.375 51.945312 Z M 60.78125 61.601562 C 60.289062 61.636719 60.285156 62.273438 60.171875 62.644531 C 60.117188 63.347656 59.953125 64.113281 60.160156 64.800781 C 60.398438 65.214844 60.929688 65.230469 60.941406 64.667969 C 60.945312 64.589844 60.9375 64.515625 60.921875 64.4375 C 60.894531 63.878906 60.914062 63.320312 60.980469 62.761719 C 61.050781 62.378906 61.40625 61.671875 60.78125 61.601562 Z M 98.789062 63.9375 C 98.554688 63.25 98.25 62.597656 97.871094 61.980469 C 97.75 61.785156 97.457031 61.707031 97.292969 61.871094 C 97.179688 62 97.15625 62.140625 97.226562 62.296875 C 97.613281 63.003906 97.757812 63.289062 98.003906 64.007812 C 98.34375 64.886719 98.15625 65.894531 97.914062 66.410156 C 97.425781 68.070312 95.925781 69.183594 94.105469 70.265625 C 93.550781 70.65625 93.851562 71.1875 94.398438 71.054688 C 97.035156 69.84375 99.941406 67.101562 98.789062 63.9375 Z M 86.835938 73.90625 C 88.222656 73.105469 89.859375 72.710938 91.957031 72.167969 C 92.53125 71.984375 93.1875 71.933594 93.707031 71.628906 C 93.824219 71.511719 93.847656 71.382812 93.773438 71.238281 C 93.664062 71.078125 93.519531 71.027344 93.339844 71.078125 C 91.003906 71.707031 88.480469 71.6875 86.34375 72.941406 C 85.203125 73.453125 85.761719 74.625 86.835938 73.90625 Z M 73.109375 77.183594 C 74.691406 77.132812 76.21875 76.746094 77.714844 76.257812 C 77.816406 76.203125 77.921875 76.078125 77.863281 75.960938 C 77.800781 75.878906 77.71875 75.839844 77.617188 75.847656 C 76.773438 76.042969 75.949219 76.335938 75.101562 76.503906 C 73.824219 76.75 72.035156 76.671875 70.527344 76.621094 C 70.359375 76.640625 70.171875 76.71875 70.097656 76.878906 C 70.132812 76.976562 70.191406 77.050781 70.28125 77.105469 C 71.039062 77.410156 72.261719 77.148438 73.109375 77.183594 Z M 70.613281 77.96875 C 70.84375 77.984375 71.140625 77.835938 71.078125 77.566406 C 71.007812 77.378906 70.875 77.300781 70.675781 77.332031 C 69.5 77.40625 68.328125 77.386719 67.15625 77.277344 C 66.425781 77.292969 65.335938 76.929688 64.707031 77.140625 C 64.554688 77.230469 64.46875 77.328125 64.621094 77.476562 C 64.832031 77.722656 65.171875 77.707031 65.464844 77.75 C 67.171875 77.945312 68.894531 78.089844 70.613281 77.96875 Z M 63.234375 78 C 62.148438 77.890625 61.0625 78.101562 60 78.328125 C 57.59375 78.828125 55.210938 79.578125 53.289062 81.179688 C 53.0625 81.371094 52.765625 81.527344 52.699219 81.835938 C 52.6875 81.917969 52.667969 82.015625 52.722656 82.085938 C 52.765625 82.101562 52.8125 82.109375 52.859375 82.109375 C 52.839844 82.117188 52.824219 82.125 52.808594 82.132812 C 51.628906 82.792969 50.382812 83.570312 49.675781 84.75 C 49.570312 85.136719 49.78125 85.398438 50.171875 85.191406 C 50.414062 85.054688 50.558594 84.800781 50.753906 84.609375 C 51.570312 83.773438 52.597656 83.039062 53.5 82.660156 C 53.675781 82.5625 53.785156 82.324219 53.671875 82.140625 C 53.589844 82.003906 53.472656 81.945312 53.3125 81.964844 C 54.289062 81.292969 55.328125 80.472656 56.550781 79.925781 C 57.640625 79.425781 59.296875 78.964844 60.683594 78.621094 C 61.527344 78.410156 62.386719 78.316406 63.257812 78.339844 C 63.339844 78.320312 63.4375 78.277344 63.460938 78.191406 C 63.441406 78.085938 63.332031 78.023438 63.234375 78 Z M 49.734375 88.9375 C 50.058594 88.417969 49.984375 87.730469 50.253906 87.171875 C 50.476562 86.679688 50.878906 85.839844 51.261719 85.503906 C 51.433594 85.308594 51.855469 85.011719 51.554688 84.753906 C 51.414062 84.683594 51.285156 84.707031 51.171875 84.816406 C 50.183594 85.691406 49.597656 86.941406 49.390625 88.230469 C 49.332031 88.496094 49.292969 88.796875 49.488281 89.015625 C 49.566406 89.148438 49.664062 89.015625 49.734375 88.9375 Z M 53.4375 96.085938 C 51.257812 95.082031 49.300781 91.160156 50.910156 88.441406 C 51.042969 88.28125 51.050781 87.972656 50.816406 87.902344 C 50.722656 87.878906 50.636719 87.894531 50.554688 87.945312 C 50.230469 88.265625 50.0625 88.734375 49.914062 89.15625 C 49.230469 91.332031 49.878906 93.660156 51.242188 95.429688 C 51.71875 96.054688 52.566406 96.941406 53.40625 96.878906 C 53.894531 96.753906 53.820312 96.300781 53.4375 96.085938 Z M 56.480469 98.027344 C 55.953125 97.726562 55.601562 97.5 55.3125 97.21875 C 55.089844 96.925781 54.84375 96.378906 54.636719 95.8125 C 54.570312 95.570312 54.246094 95.410156 54.046875 95.605469 C 53.921875 95.742188 53.898438 95.894531 53.96875 96.066406 C 54.195312 96.640625 54.390625 97.261719 54.785156 97.742188 C 55.148438 98.066406 56.507812 99.308594 56.8125 98.503906 C 56.792969 98.300781 56.644531 98.132812 56.480469 98.027344 Z M 60.800781 99.550781 C 59.878906 99.527344 59.300781 99.234375 58.625 98.667969 C 58.152344 98.324219 57.71875 97.96875 57.363281 97.28125 C 57.277344 97.046875 56.960938 96.875 56.753906 97.074219 C 56.523438 97.320312 56.75 97.632812 56.882812 97.871094 C 57.382812 98.746094 58.234375 99.363281 59.058594 99.90625 C 59.621094 100.15625 60.296875 100.492188 60.910156 100.25 C 61.304688 100.03125 61.222656 99.664062 60.800781 99.550781 Z M 62.375 99.492188 C 62.132812 99.304688 61.640625 98.851562 61.449219 98.53125 C 61.355469 98.34375 61.101562 98.164062 60.910156 98.335938 C 60.800781 98.46875 60.792969 98.605469 60.886719 98.746094 C 61.324219 99.410156 61.925781 99.996094 62.636719 100.355469 C 62.816406 100.414062 63.054688 100.414062 63.195312 100.273438 C 63.183594 100.1875 63.152344 100.109375 63.101562 100.039062 C 62.925781 99.78125 62.605469 99.695312 62.375 99.492188 Z M 71.097656 95.890625 C 70.722656 97.546875 69.363281 98.546875 67.863281 99.121094 C 66.609375 99.570312 65.808594 99.785156 64.730469 99.433594 C 64.417969 99.371094 63.996094 99.03125 63.839844 99.597656 C 63.828125 99.804688 64.066406 99.992188 64.285156 100.042969 C 64.691406 100.175781 65.101562 100.308594 65.527344 100.335938 C 67.898438 100.398438 71.675781 98.738281 71.765625 95.960938 C 71.648438 95.511719 71.324219 95.511719 71.097656 95.890625 Z M 71.382812 90.382812 C 70.753906 90.304688 70.808594 91.1875 70.644531 91.601562 C 70.503906 92.539062 70.1875 93.609375 70.699219 94.484375 C 70.820312 94.769531 71.378906 95.054688 71.507812 94.648438 C 71.597656 94.347656 71.414062 94.097656 71.285156 93.847656 C 71.28125 93.832031 71.277344 93.820312 71.269531 93.800781 C 71.144531 93.101562 71.332031 91.964844 71.636719 90.914062 C 71.703125 90.707031 71.601562 90.441406 71.382812 90.382812 Z M 74.566406 89.28125 C 74.46875 89.144531 74.339844 89.101562 74.179688 89.148438 C 73.253906 89.601562 72.40625 90.324219 71.890625 91.222656 C 71.792969 91.546875 71.886719 91.949219 72.285156 91.660156 C 72.449219 91.554688 72.535156 91.378906 72.652344 91.230469 C 73.203125 90.511719 73.746094 90.121094 74.496094 89.671875 C 74.613281 89.558594 74.636719 89.429688 74.566406 89.28125 Z M 90.007812 87.710938 C 88.722656 88 87.5 88.585938 86.199219 88.847656 C 85.449219 89.023438 84.074219 88.992188 82.949219 88.917969 C 80.351562 88.5625 77.679688 88.78125 75.222656 89.710938 C 74.957031 89.871094 74.175781 90.03125 74.394531 90.4375 C 74.503906 90.535156 74.671875 90.511719 74.789062 90.445312 C 76.25 89.738281 77.644531 89.535156 79.160156 89.4375 C 81.453125 89.328125 82.746094 89.867188 85.105469 89.847656 C 86.769531 89.871094 88.335938 89.207031 89.855469 88.605469 C 90.375 88.492188 90.792969 87.789062 90.007812 87.710938 Z M 101.140625 84.386719 C 101.183594 84.300781 101.207031 84.1875 101.144531 84.109375 C 100.800781 83.9375 100.5625 84.433594 100.300781 84.589844 C 99.738281 85.070312 99.019531 85.5625 98.273438 86.070312 C 96.960938 86.851562 95.796875 87.523438 94.300781 87.792969 C 94.097656 87.824219 93.203125 87.851562 92.484375 87.949219 C 92.488281 87.886719 92.472656 87.835938 92.433594 87.789062 C 92.339844 87.710938 92.234375 87.691406 92.121094 87.726562 C 91.367188 88.113281 90.65625 88.578125 89.910156 88.976562 C 89.222656 89.375 88.488281 89.652344 87.710938 89.808594 C 87.335938 89.875 86.925781 89.792969 86.582031 89.96875 C 86.515625 90.015625 86.355469 90.109375 86.390625 90.183594 C 86.53125 90.359375 86.714844 90.441406 86.9375 90.429688 C 87.515625 90.441406 88.078125 90.347656 88.621094 90.148438 C 89.703125 89.824219 90.652344 89.199219 91.621094 88.625 C 91.644531 88.644531 91.667969 88.660156 91.695312 88.675781 C 92.046875 88.894531 93.679688 88.632812 93.957031 88.644531 C 95.894531 88.394531 97.566406 87.214844 99.121094 86.105469 C 99.816406 85.5625 100.554688 85.046875 101.144531 84.386719 Z M 109.835938 68.699219 C 109.640625 68.761719 109.546875 68.898438 109.554688 69.105469 C 109.578125 70.132812 109.546875 71.15625 109.453125 72.179688 C 109.269531 74.984375 107.8125 77.722656 106.164062 80.324219 C 106.011719 80.570312 105.769531 80.777344 105.757812 81.082031 C 105.710938 81.546875 106.203125 81.449219 106.433594 81.21875 C 107.777344 79.398438 108.828125 77.421875 109.585938 75.289062 C 110.25 73.300781 110.335938 71.179688 110.292969 69.097656 C 110.292969 68.863281 110.078125 68.632812 109.835938 68.699219 Z M 105.625 79.988281 C 105.4375 79.953125 105.308594 80.027344 105.242188 80.207031 C 104.90625 80.9375 104.480469 81.613281 103.96875 82.234375 C 103.6875 82.683594 102.03125 84.359375 101.625 84.636719 C 101 85.191406 100.378906 85.316406 100.117188 85.644531 C 100.023438 85.777344 99.996094 85.980469 100.183594 86.046875 C 100.898438 86.292969 101.511719 85.546875 102.0625 85.191406 C 103.574219 83.875 104.957031 82.316406 105.777344 80.46875 C 105.867188 80.300781 105.824219 80.050781 105.625 79.988281 Z M 109.601562 57.390625 C 108.671875 54.074219 106.792969 51.148438 104.851562 48.339844 C 104.0625 47.304688 103.21875 46.316406 102.316406 45.378906 C 102.179688 45.191406 101.820312 45.144531 101.742188 45.40625 C 101.707031 45.574219 101.757812 45.710938 101.890625 45.816406 C 102.554688 46.511719 103.179688 47.238281 103.773438 47.992188 C 105.210938 49.902344 106.753906 52.28125 107.828125 54.695312 C 108.605469 56.25 109.234375 58.785156 109.585938 60.816406 C 110.25 63.886719 110.617188 66.765625 110.476562 70.066406 C 110.519531 70.617188 110.964844 70.847656 111.191406 70.199219 C 111.585938 65.878906 110.636719 61.5625 109.601562 57.390625 Z M 84.011719 34.742188 C 89.070312 36.039062 94.1875 37.847656 98.109375 40.898438 C 99.839844 42.242188 101.394531 43.792969 103.121094 45.136719 C 103.445312 45.328125 103.894531 45.917969 104.242188 45.496094 C 104.320312 45.335938 104.292969 45.195312 104.167969 45.070312 C 103.246094 44.425781 102.5625 43.792969 101.625 42.96875 C 98.878906 40.367188 95.8125 38.074219 92.292969 36.632812 C 89.796875 35.503906 86.722656 34.355469 84.023438 34.023438 C 83.59375 34.171875 83.664062 34.53125 84.011719 34.742188 Z M 72.996094 31.894531 C 73.082031 32.015625 73.199219 32.058594 73.34375 32.023438 C 75.027344 31.824219 76.789062 31.5 78.394531 31.902344 C 80.207031 32.226562 81.632812 33.484375 83.660156 33.136719 C 84.074219 32.957031 84.070312 32.597656 83.628906 32.449219 C 82.265625 32.441406 81.304688 32.257812 79.945312 31.742188 C 78.496094 31.273438 77.015625 31.117188 75.503906 31.277344 C 74.710938 31.390625 73.890625 31.441406 73.113281 31.621094 C 73.027344 31.675781 72.9375 31.789062 72.996094 31.894531 Z M 5.128906 31.363281 C 5.007812 32.597656 4.679688 35.210938 5.042969 36.597656 C 5.136719 36.867188 5.226562 37.289062 5.421875 37.546875 C 5.414062 37.664062 5.414062 37.78125 5.40625 37.882812 C 5.40625 37.984375 5.382812 38.4375 5.378906 38.5625 C 5.253906 39.382812 4.914062 40.140625 4.742188 40.949219 C 4.539062 41.941406 4.453125 42.941406 4.480469 43.957031 C 4.503906 44.28125 4.507812 44.660156 4.730469 44.914062 C 4.953125 45.179688 5.359375 45.175781 5.507812 44.847656 C 5.578125 44.714844 5.601562 44.570312 5.582031 44.417969 C 5.527344 44.105469 5.527344 43.304688 5.570312 42.605469 C 5.542969 41.296875 6.429688 39.503906 6.28125 37.78125 C 6.300781 37.542969 6.28125 37.230469 6.132812 37.066406 C 5.867188 36.308594 5.75 35.929688 5.746094 35.285156 C 5.621094 33.148438 5.878906 32.484375 5.898438 30.722656 C 5.859375 29.136719 5.335938 27.554688 4.683594 25.863281 C 4.519531 25.539062 4.109375 24.210938 4.09375 23.808594 C 4 22.53125 4.285156 21.203125 4.742188 20.890625 C 5.011719 20.621094 6.855469 21.765625 8 22.449219 C 9.363281 23.132812 11.511719 23.902344 13.117188 24.511719 C 13.457031 24.664062 14.296875 25.015625 14.894531 25.234375 C 15.011719 25.277344 15.125 25.265625 15.234375 25.203125 C 15.460938 25.320312 15.789062 25.152344 16.039062 25.148438 C 16.347656 25.097656 17.417969 24.960938 18.03125 24.972656 C 19.035156 24.875 19.707031 25.375 20.789062 25.453125 C 21.871094 25.316406 23.054688 25.0625 23.964844 25.246094 C 24.132812 25.273438 24.292969 25.257812 24.453125 25.191406 C 24.5 25.207031 24.554688 25.214844 24.605469 25.210938 C 25.101562 25.078125 25.585938 24.910156 26.058594 24.710938 C 27.929688 23.894531 29.746094 22.976562 31.507812 21.949219 C 32.8125 21.183594 34.273438 20.066406 35.503906 19.792969 C 36.015625 19.753906 36.410156 19.710938 36.675781 19.929688 C 37.167969 20.457031 36.636719 21.863281 36.597656 22.421875 C 36.390625 23.953125 36.234375 25.359375 35.84375 27.226562 C 35.433594 28.863281 34.992188 30.503906 34.511719 32.121094 C 34.234375 33.050781 33.550781 33.753906 33.609375 35.074219 C 33.613281 35.261719 33.648438 35.441406 33.714844 35.617188 C 33.988281 36.617188 34.722656 37.121094 35.105469 37.875 C 35.453125 38.316406 35.546875 38.96875 36.007812 39.296875 C 36.472656 39.546875 36.722656 38.863281 36.496094 38.527344 C 36.46875 38.46875 36.4375 38.414062 36.410156 38.359375 C 37.171875 38.328125 37.914062 38.332031 38.597656 38.578125 C 38.945312 38.679688 39.40625 38.964844 39.898438 39.195312 C 40.554688 39.480469 41.273438 39.574219 41.984375 39.582031 C 42.210938 39.5625 42.453125 39.582031 42.65625 39.460938 C 42.667969 39.453125 42.679688 39.441406 42.695312 39.433594 C 42.746094 39.449219 42.796875 39.457031 42.851562 39.460938 C 43.121094 39.46875 43.378906 39.332031 43.636719 39.257812 C 45.753906 38.589844 47.613281 37.417969 49.460938 36.214844 C 51.953125 34.714844 54.566406 33.464844 57.300781 32.464844 C 60.027344 31.507812 62.667969 31.09375 65.347656 30.785156 C 65.273438 30.882812 65.214844 31 65.257812 31.113281 C 65.339844 31.28125 65.542969 31.339844 65.714844 31.355469 C 68.332031 30.859375 70.613281 30.492188 73.359375 30.882812 C 73.566406 30.917969 73.828125 30.855469 73.839844 30.609375 C 73.824219 30.4375 73.734375 30.332031 73.5625 30.296875 C 71.957031 30.070312 70.34375 30.023438 68.726562 30.15625 C 68.738281 30.105469 68.742188 30.054688 68.734375 30.003906 C 68.683594 29.828125 68.5625 29.730469 68.378906 29.710938 C 67.5 29.722656 66.625 29.847656 65.75 29.921875 C 61.824219 30.332031 57.894531 31.027344 54.296875 32.714844 C 52.066406 33.65625 49.933594 34.789062 47.90625 36.117188 C 46.160156 37.371094 44.621094 38.011719 42.742188 38.71875 C 42.683594 38.75 42.632812 38.789062 42.585938 38.835938 C 41.539062 38.78125 40.933594 38.882812 39.992188 38.535156 C 39.292969 38.132812 37.789062 37.726562 36.714844 37.832031 C 36.519531 37.851562 36.324219 37.859375 36.128906 37.851562 C 35.574219 36.957031 34.929688 36.324219 34.535156 35.535156 C 34.488281 35.386719 34.449219 35.242188 34.421875 35.089844 C 34.40625 35.042969 34.386719 35 34.359375 34.960938 C 34.351562 34.84375 34.355469 34.730469 34.371094 34.617188 C 34.4375 33.945312 34.789062 33.503906 35.132812 32.46875 C 35.582031 31.023438 35.832031 29.523438 36.289062 28.082031 C 36.730469 26.152344 36.902344 24.300781 37.113281 22.675781 C 37.152344 21.808594 38.011719 19.890625 36.640625 19.308594 C 35.910156 19.105469 35.117188 19.226562 34.425781 19.511719 C 32.707031 20.117188 31.230469 21.226562 29.628906 22.078125 C 28.269531 22.863281 26.636719 23.699219 25.457031 24.21875 C 25.160156 24.410156 24.390625 24.453125 24.246094 24.789062 C 23.738281 24.515625 22.804688 24.640625 22.234375 24.660156 C 21.515625 24.691406 21.175781 24.882812 20.53125 24.808594 C 20.191406 24.707031 18.945312 24.355469 18.265625 24.433594 C 17.277344 24.476562 16.296875 24.597656 15.328125 24.789062 C 15.230469 24.640625 15.011719 24.582031 14.84375 24.519531 C 14.378906 24.347656 14.261719 24.292969 13.917969 24.148438 C 11.964844 23.3125 10.328125 22.863281 8.398438 21.816406 C 7.492188 21.316406 6.65625 20.703125 5.691406 20.308594 C 5.277344 20.128906 4.761719 20 4.351562 20.25 C 3.667969 20.738281 3.488281 21.652344 3.421875 22.441406 C 3.226562 23.8125 3.5 25.195312 4.039062 26.460938 C 4.757812 28.382812 5.160156 29.585938 5.128906 31.363281 Z M 80.027344 65.78125 C 80.132812 65.808594 80.238281 65.796875 80.332031 65.742188 C 80.789062 65.421875 81.289062 65.191406 81.828125 65.050781 C 82.777344 64.847656 84.082031 64.757812 85.3125 64.808594 C 85.726562 64.785156 86.175781 64.929688 86.574219 64.777344 C 86.730469 64.703125 86.902344 64.558594 86.804688 64.386719 C 86.683594 64.199219 86.511719 64.101562 86.289062 64.09375 C 85.152344 64.027344 83.480469 64.050781 82.695312 64.195312 C 82.1875 64.148438 78.996094 65.089844 80.027344 65.78125 Z M 83.484375 63.347656 C 84.511719 63.433594 85.539062 63.414062 86.5625 63.296875 C 87.027344 63.207031 87.699219 63.21875 87.910156 62.710938 C 87.984375 62.539062 87.8125 62.414062 87.664062 62.367188 C 87.535156 62.328125 87.40625 62.324219 87.273438 62.355469 C 86.5 62.578125 86.035156 62.589844 85.121094 62.644531 C 84.625 62.761719 83.128906 62.292969 83.207031 63.078125 C 83.253906 63.214844 83.34375 63.304688 83.484375 63.347656 Z M 97.246094 85.550781 C 98.597656 84.964844 99.699219 84.074219 100.554688 82.871094 C 100.765625 82.617188 101.109375 82.242188 100.734375 81.972656 C 100.5625 81.886719 100.410156 81.910156 100.273438 82.046875 C 100.105469 82.25 99.988281 82.40625 99.703125 82.738281 C 98.882812 83.78125 97.714844 84.589844 96.609375 84.925781 C 95.847656 85.394531 96.722656 85.773438 97.246094 85.550781 Z M 92.917969 85.964844 C 93.632812 85.898438 94.308594 85.632812 94.964844 85.355469 C 95.257812 85.191406 96.042969 85.039062 95.761719 84.574219 C 95.691406 84.511719 95.613281 84.484375 95.519531 84.488281 C 94.933594 84.695312 94.710938 84.878906 94.171875 85.0625 C 93.710938 85.269531 93.203125 85.316406 92.730469 85.472656 C 92.605469 85.53125 92.507812 85.625 92.441406 85.746094 C 92.570312 85.890625 92.726562 85.960938 92.917969 85.964844 Z M 105.863281 75.117188 C 105.75 75.097656 105.652344 75.128906 105.570312 75.214844 C 105.257812 75.773438 105.046875 76.390625 104.785156 76.980469 C 104.664062 77.230469 104.546875 77.476562 104.425781 77.726562 C 104.257812 78.082031 103.90625 78.46875 104.121094 78.875 C 104.285156 78.910156 104.460938 78.785156 104.566406 78.667969 C 105.023438 77.957031 105.328125 77.160156 105.660156 76.386719 C 105.667969 76.367188 105.636719 76.4375 105.628906 76.453125 C 105.714844 76.085938 106.339844 75.351562 105.863281 75.117188 Z M 103.96875 77.773438 C 103.699219 77.621094 103.429688 77.832031 103.296875 78.066406 C 103.074219 78.421875 102.308594 79.148438 102.855469 79.484375 C 103.492188 79.539062 103.714844 78.726562 104.09375 78.339844 C 104.195312 78.167969 104.164062 77.878906 103.96875 77.773438 Z M 69.117188 89.203125 C 68.972656 89.136719 68.84375 89.160156 68.730469 89.273438 C 67.679688 90.265625 67.3125 91.898438 67.617188 93.289062 C 67.753906 94.140625 68.5625 94.207031 68.320312 93.238281 C 68.019531 92.292969 68.164062 91.097656 68.714844 90.15625 C 68.726562 90.035156 69.496094 89.511719 69.117188 89.203125 Z M 66.933594 93.828125 C 66.894531 93.519531 66.972656 92.933594 66.496094 93.007812 C 66.097656 93.152344 66.246094 93.667969 66.273438 93.992188 C 66.414062 94.617188 66.554688 95.359375 67.125 95.734375 C 67.328125 95.882812 67.6875 95.914062 67.847656 95.695312 C 67.871094 95.382812 67.480469 95.15625 67.402344 95.078125 C 67.25 95.0625 66.933594 93.960938 66.933594 93.828125 Z M 54.386719 87.109375 C 54.628906 87.214844 54.792969 86.789062 54.804688 86.597656 C 54.789062 84.746094 55.578125 83.019531 57.449219 82.472656 C 57.667969 82.390625 58.097656 82.316406 57.980469 81.996094 C 57.914062 81.902344 57.824219 81.859375 57.710938 81.863281 C 56.75 82.046875 55.890625 82.558594 55.203125 83.246094 C 54.410156 84.183594 54.148438 85.429688 54.121094 86.625 C 54.128906 86.832031 54.21875 86.992188 54.386719 87.109375 Z M 53.308594 85.683594 C 53.082031 85.679688 52.953125 85.882812 52.878906 86.074219 C 52.144531 87.488281 52.027344 89.117188 52.621094 90.601562 C 52.675781 90.914062 53.214844 91.347656 53.335938 90.863281 C 53.410156 90.316406 53.058594 89.796875 53.027344 89.246094 C 52.867188 88.546875 52.980469 87.703125 53.371094 86.714844 C 53.367188 86.605469 53.96875 85.796875 53.308594 85.683594 Z M 92.671875 40.015625 C 92.304688 39.765625 91.652344 39.628906 91.601562 40.238281 C 91.59375 40.585938 91.929688 40.722656 92.199219 40.84375 C 92.949219 41.21875 93.667969 41.660156 94.378906 42.105469 C 94.953125 42.46875 95.53125 41.984375 95.007812 41.429688 C 94.261719 40.90625 93.480469 40.433594 92.671875 40.015625 Z M 93.507812 42.914062 C 93.445312 43.421875 94.144531 43.554688 94.445312 43.847656 C 95.058594 44.292969 95.636719 44.777344 96.183594 45.304688 C 96.378906 45.515625 96.988281 45.683594 96.863281 45.199219 C 96.652344 44.632812 96.03125 44.308594 95.609375 43.894531 C 95.082031 43.46875 94.542969 43.035156 93.949219 42.707031 C 93.773438 42.65625 93.558594 42.730469 93.507812 42.914062 Z M 68.429688 48.402344 C 68.710938 48.074219 67.929688 48.167969 67.777344 48.277344 C 66.554688 48.703125 65.574219 49.621094 64.769531 50.609375 C 64.726562 50.699219 64.699219 50.855469 64.808594 50.902344 C 64.933594 50.929688 65.035156 50.894531 65.117188 50.796875 C 65.820312 50.027344 66.53125 49.335938 67.480469 48.902344 C 67.699219 48.789062 68.230469 48.703125 68.429688 48.402344 Z M 65.527344 51.414062 C 65.222656 51.714844 64.332031 52.359375 65.007812 52.710938 C 65.351562 52.808594 65.523438 52.4375 65.734375 52.234375 C 66.238281 51.664062 66.886719 51.320312 67.277344 50.820312 C 67.363281 50.65625 67.398438 50.417969 67.152344 50.402344 C 66.488281 50.371094 66.027344 51.058594 65.527344 51.414062 Z M 65.609375 33.898438 C 66.730469 33.503906 67.726562 33.371094 68.890625 33.308594 C 69.015625 33.261719 69.226562 33.191406 69.261719 33.070312 C 69.128906 32.882812 68.945312 32.792969 68.710938 32.796875 C 67.613281 32.816406 66.542969 33.007812 65.503906 33.367188 C 65.28125 33.410156 64.949219 33.546875 65.070312 33.820312 C 65.191406 34.007812 65.429688 33.964844 65.609375 33.898438 Z M 70.527344 34.589844 C 70.917969 34.511719 70.367188 34.246094 70.203125 34.21875 C 69.433594 34.101562 68.667969 34.128906 67.910156 34.292969 C 67.828125 34.335938 67.75 34.445312 67.773438 34.523438 C 67.859375 34.734375 68.117188 34.683594 68.300781 34.65625 C 69.105469 34.488281 69.84375 34.683594 70.527344 34.589844 Z M 73.257812 33.40625 C 73.058594 33.300781 72.421875 33.105469 72.046875 33.023438 C 71.71875 32.964844 71.101562 32.683594 71.023438 33.191406 C 71.03125 33.320312 71.089844 33.414062 71.199219 33.480469 C 71.578125 33.613281 71.988281 33.648438 72.375 33.761719 C 72.863281 33.820312 73.371094 34.324219 73.84375 34.011719 C 73.910156 33.957031 73.820312 33.828125 73.789062 33.765625 C 73.671875 33.570312 73.457031 33.484375 73.257812 33.40625 Z M 14.472656 38.558594 C 14.832031 38.648438 15.195312 38.355469 15.324219 38.007812 C 15.453125 37.660156 15.578125 37.171875 15.097656 36.558594 C 14.890625 36.300781 14.449219 36.339844 14.214844 36.574219 C 13.976562 36.804688 13.902344 37.15625 13.894531 37.488281 C 13.882812 37.710938 13.914062 37.925781 14 38.132812 C 14.085938 38.351562 14.246094 38.496094 14.472656 38.558594 Z M 24.785156 38.417969 C 25.046875 38.246094 25.132812 37.898438 25.148438 37.585938 C 25.160156 37.273438 25.117188 36.957031 24.707031 36.558594 C 24.5 36.359375 24.144531 36.390625 23.925781 36.574219 C 23.707031 36.757812 23.609375 37.050781 23.585938 37.332031 C 23.5625 37.667969 23.640625 38.023438 23.871094 38.265625 C 24.101562 38.507812 24.503906 38.601562 24.785156 38.417969 Z M 24.785156 38.417969 " fill-opacity="1" fill-rule="nonzero"/></g><path fill="#000000" d="M 21.445312 41.183594 C 21.472656 41.378906 21.410156 41.59375 21.246094 41.699219 C 20.980469 41.875 20.609375 41.683594 20.316406 41.800781 C 20.042969 41.90625 19.882812 42.261719 19.589844 42.253906 C 19.285156 42.246094 19.132812 41.847656 18.84375 41.75 C 18.628906 41.675781 18.363281 41.777344 18.179688 41.644531 C 18.039062 41.542969 18.015625 41.332031 18.082031 41.171875 C 18.160156 41.011719 18.277344 40.886719 18.433594 40.796875 C 19.046875 40.394531 19.710938 40.289062 20.421875 40.480469 C 21.351562 40.734375 21.421875 40.992188 21.445312 41.183594 Z M 69.652344 70.6875 C 69.265625 70.703125 68.921875 70.835938 68.621094 71.082031 C 68.320312 71.324219 68.121094 71.632812 68.027344 72.007812 C 67.960938 72.289062 67.96875 72.59375 68.109375 72.84375 C 68.339844 73.25 68.847656 73.402344 69.3125 73.433594 C 69.695312 73.460938 70.09375 73.425781 70.429688 73.246094 C 70.691406 73.101562 70.890625 72.890625 71.023438 72.621094 C 71.15625 72.351562 71.203125 72.070312 71.160156 71.769531 C 71.0625 71.191406 70.570312 70.703125 69.652344 70.6875 Z M 68.359375 68.746094 C 68.164062 68.84375 67.960938 68.949219 67.820312 69.117188 C 67.675781 69.285156 67.609375 69.535156 67.714844 69.730469 C 67.796875 69.886719 67.976562 69.972656 68.148438 70.019531 C 68.441406 70.09375 68.734375 70.085938 69.023438 69.996094 C 69.265625 69.917969 69.511719 69.75 69.558594 69.5 C 69.601562 69.273438 69.464844 69.039062 69.277344 68.902344 C 69.085938 68.765625 68.804688 68.519531 68.359375 68.746094 Z M 66.445312 69.660156 C 66.285156 69.597656 66.125 69.59375 65.964844 69.636719 C 65.800781 69.683594 65.667969 69.773438 65.566406 69.910156 C 65.460938 70.042969 65.410156 70.195312 65.40625 70.367188 C 65.40625 70.535156 65.457031 70.6875 65.558594 70.824219 C 65.699219 70.996094 65.878906 71.121094 66.089844 71.199219 C 66.28125 71.285156 66.480469 71.328125 66.6875 71.324219 C 67.078125 71.289062 67.328125 71.085938 67.449219 70.71875 C 67.550781 70.386719 67.417969 70.035156 66.445312 69.660156 Z M 65.597656 71.789062 C 65.296875 71.890625 64.96875 72.050781 64.878906 72.351562 C 64.792969 72.644531 64.984375 72.972656 65.257812 73.105469 C 65.53125 73.242188 65.863281 73.21875 66.152344 73.121094 C 66.417969 73.03125 66.683594 72.859375 66.75 72.589844 C 66.789062 72.40625 66.753906 72.234375 66.652344 72.074219 C 66.558594 71.921875 66.421875 71.800781 65.597656 71.789062 Z M 67.472656 73.203125 C 67.1875 73.238281 67.011719 73.398438 66.949219 73.675781 C 66.894531 73.949219 66.972656 74.175781 67.183594 74.355469 C 67.390625 74.527344 67.625 74.585938 67.886719 74.535156 C 68.179688 74.488281 68.378906 74.328125 68.484375 74.050781 C 68.574219 73.796875 68.46875 73.480469 67.472656 73.203125 Z M 14.1875 41.316406 C 11.257812 39.917969 7.882812 40.054688 4.761719 40.625 C 3.332031 40.875 1.875 41.082031 0.542969 41.679688 C 0.00390625 42.046875 0.34375 42.144531 0.816406 42.070312 C 4.96875 41.007812 9.289062 40.089844 13.378906 41.605469 C 13.746094 41.648438 14.316406 42.300781 14.609375 41.804688 C 14.664062 41.535156 14.394531 41.410156 14.1875 41.316406 Z M 12.695312 43.078125 C 8.679688 42.78125 4.832031 43.464844 1.160156 45.121094 C 1.039062 45.214844 0.945312 45.332031 0.882812 45.46875 C 1.066406 45.519531 1.246094 45.511719 1.425781 45.445312 C 4.871094 44.175781 8.511719 43.335938 12.214844 43.570312 C 12.535156 43.542969 13.125 43.804688 13.222656 43.375 C 13.199219 43.113281 12.90625 43.085938 12.695312 43.078125 Z M 12.835938 44.644531 C 9.054688 44.746094 5.488281 46.503906 2.34375 48.476562 C 2 48.871094 2.289062 48.859375 2.652344 48.773438 C 5.816406 47.074219 9.089844 45.34375 12.679688 45.234375 C 12.960938 45.226562 13.496094 45.324219 13.449219 44.890625 C 13.367188 44.625 13.0625 44.648438 12.835938 44.644531 Z M 41.316406 39.789062 C 41.195312 39.671875 41.054688 39.597656 40.886719 39.570312 C 39.96875 39.402344 39.039062 39.3125 38.113281 39.222656 C 34.171875 38.710938 30.222656 39.363281 26.472656 40.59375 C 26.160156 40.742188 25.324219 40.777344 25.589844 41.277344 C 25.734375 41.421875 25.9375 41.363281 26.109375 41.300781 C 28.039062 40.683594 30 40.199219 31.996094 39.84375 C 34.835938 39.519531 38.183594 39.75 40.796875 40.132812 C 41.015625 40.183594 41.277344 40.144531 41.441406 39.980469 C 41.414062 39.910156 41.371094 39.84375 41.316406 39.789062 Z M 39.375 42.605469 C 38.359375 42 37.042969 42.011719 35.898438 41.75 C 33.566406 41.292969 31.207031 41.503906 28.863281 41.730469 C 28.375 41.796875 27.859375 41.785156 27.386719 41.914062 C 27.222656 41.996094 27.160156 42.125 27.199219 42.300781 C 27.242188 42.4375 27.332031 42.519531 27.472656 42.550781 C 28.65625 42.480469 29.847656 42.328125 31.035156 42.257812 C 33.953125 41.929688 36.375 42.585938 39.195312 43 C 39.320312 42.984375 39.421875 42.929688 39.5 42.835938 C 39.480469 42.746094 39.441406 42.671875 39.375 42.605469 Z M 38.257812 47.808594 C 36.875 47.15625 35.621094 46.261719 34.292969 45.496094 C 32.691406 44.644531 30.746094 44.140625 29.0625 43.960938 C 28.417969 43.898438 27.769531 43.761719 27.121094 43.765625 C 26.976562 43.804688 26.839844 43.949219 26.882812 44.105469 C 26.960938 44.355469 27.238281 44.355469 27.453125 44.367188 C 29.046875 44.539062 30.269531 44.613281 31.855469 45.132812 C 34.023438 45.632812 35.691406 47.25 37.796875 48.0625 C 38.09375 48.1875 38.773438 48.246094 38.257812 47.808594 Z M 12.339844 27.675781 C 11.578125 27.757812 10.84375 27.644531 10.105469 27.496094 C 8.957031 27.261719 8.082031 26.398438 7.316406 25.546875 C 7.203125 25.4375 7.078125 25.339844 6.945312 25.253906 C 6.949219 25.398438 6.988281 25.539062 7.058594 25.667969 C 8.21875 27.375 10.269531 28.210938 12.300781 28.007812 C 12.417969 28.007812 12.574219 27.949219 12.601562 27.820312 C 12.558594 27.722656 12.4375 27.683594 12.339844 27.675781 Z M 10.695312 28.746094 C 10.363281 28.730469 9.890625 28.773438 9.644531 28.714844 C 8.789062 28.570312 8.011719 28.367188 7.339844 27.835938 C 7.03125 27.640625 6.667969 27.132812 6.234375 27.007812 C 6.179688 27.003906 6.078125 26.949219 6.105469 27.039062 C 6.269531 27.769531 7.324219 28.394531 7.960938 28.722656 C 8.839844 29.0625 9.835938 29.355469 10.777344 29.171875 C 10.859375 29.125 10.945312 29.03125 10.917969 28.929688 C 10.875 28.828125 10.804688 28.765625 10.695312 28.746094 Z M 33.320312 23.472656 C 33.011719 23.5 32.8125 23.753906 32.632812 23.980469 C 31.875 25 30.789062 25.578125 29.667969 26.203125 C 28.984375 26.5625 28.390625 26.851562 27.636719 27.03125 C 27.503906 27.074219 27.359375 27.230469 27.433594 27.375 C 27.5 27.46875 27.59375 27.511719 27.710938 27.5 C 28.722656 27.292969 29.648438 26.777344 30.542969 26.277344 C 31.609375 25.679688 32.636719 24.960938 33.300781 23.917969 C 33.351562 23.8125 33.460938 23.480469 33.320312 23.472656 Z M 34.460938 25.679688 C 34.359375 25.691406 34.265625 25.71875 34.175781 25.769531 C 32.78125 27.175781 31.457031 28.828125 29.582031 29.328125 C 29.410156 29.371094 29.25 29.570312 29.339844 29.738281 C 29.488281 29.957031 29.761719 29.847656 29.964844 29.777344 C 31.453125 29.296875 32.621094 28.171875 33.6875 27.070312 C 33.957031 26.71875 34.355469 26.414062 34.476562 25.980469 C 34.5 25.878906 34.492188 25.777344 34.460938 25.679688 Z M 34.460938 25.679688 " fill-opacity="1" fill-rule="nonzero"/></svg>