<svg xmlns="http://www.w3.org/2000/svg" viewBox="0 0 200 200">
  <!-- Cat head -->
  <circle cx="100" cy="100" r="70" fill="#303030" />
  
  <!-- Cat ears -->
  <polygon points="65,45 45,15 55,50" fill="#303030" stroke="#000" stroke-width="2" />
  <polygon points="135,45 155,15 145,50" fill="#303030" stroke="#000" stroke-width="2" />
  
  <!-- Premium badge -->
  <circle cx="140" cy="50" r="15" fill="#FFD700" />
  <text x="140" y="55" font-family="Arial" font-size="14" text-anchor="middle" fill="#000">★</text>
  
  <!-- Eyes -->
  <ellipse cx="75" cy="85" rx="10" ry="15" fill="#F5F5DC" />
  <ellipse cx="125" cy="85" rx="10" ry="15" fill="#F5F5DC" />
  <ellipse cx="75" cy="85" rx="5" ry="8" fill="#FFD700" />  <!-- Gold eyes -->
  <ellipse cx="125" cy="85" rx="5" ry="8" fill="#FFD700" /> <!-- Gold eyes -->
  <ellipse cx="72" cy="82" rx="2" ry="2" fill="#FFF" />
  <ellipse cx="122" cy="82" rx="2" ry="2" fill="#FFF" />
  
  <!-- Nose and mouth -->
  <path d="M100,105 L95,115 Q100,120 105,115 Z" fill="#FFB6C1" />
  <path d="M100,115 L100,125" stroke="#000" stroke-width="2" fill="none" />
  <path d="M100,125 Q90,135 80,130" stroke="#000" stroke-width="2" fill="none" />
  <path d="M100,125 Q110,135 120,130" stroke="#000" stroke-width="2" fill="none" />
  
  <!-- Whiskers -->
  <line x1="90" y1="115" x2="60" y2="110" stroke="#FFF" stroke-width="1" />
  <line x1="90" y1="118" x2="60" y2="120" stroke="#FFF" stroke-width="1" />
  <line x1="90" y1="121" x2="60" y2="130" stroke="#FFF" stroke-width="1" />
  <line x1="110" y1="115" x2="140" y2="110" stroke="#FFF" stroke-width="1" />
  <line x1="110" y1="118" x2="140" y2="120" stroke="#FFF" stroke-width="1" />
  <line x1="110" y1="121" x2="140" y2="130" stroke="#FFF" stroke-width="1" />
  
  <!-- Special bow tie - premium cat feature -->
  <path d="M90,140 L100,145 L110,140 L115,150 L100,155 L85,150 Z" fill="#FFD700" stroke="#000" stroke-width="1" />
</svg> 